
<svg width="19" height="21" viewBox="0 0 19 21" fill="none" xmlns="http://www.w3.org/2000/svg">
<path d="M12.1163 10.0057C13.2326 8.73222 14.3488 7.82261 15.093 6.73108C15.8372 5.82148 16.5814 4.91187 17.1395 3.82035C17.6977 2.36498 17.6977 1.27345 16.7674 0.545764C16.0233 -0.181921 14.7209 -0.181921 13.4186 0.545764C10.0698 2.36498 7.46512 4.91187 6.53488 8.73222C6.34884 9.64182 5.7907 9.82375 4.86047 9.82375C4.30233 9.82375 0.744186 9.82375 0 9.82375V12.0068C0.930233 12.0068 4.67442 12.0068 5.60465 12.0068C6.34884 12.0068 6.53488 12.3706 6.72093 12.9164C7.09302 14.9175 8.02326 16.5548 9.32558 18.1921C10.2558 19.4656 11.5581 20.5571 13.2326 20.9209C14.907 21.2848 16.2093 20.3752 16.2093 18.556C16.2093 16.191 14.7209 14.5537 13.0465 12.9164C12.6744 12.9164 12.3023 12.7345 12.1163 12.3706C14.3488 12.3706 16.7674 12.3706 19 12.3706V10.0057C16.7674 10.0057 14.5349 10.0057 12.1163 10.0057ZM12.4884 15.2814C13.4186 16.191 14.3488 17.2825 14.3488 18.556C14.3488 19.2836 14.1628 19.4656 13.4186 19.4656C12.8605 19.2836 12.3023 19.1017 11.9302 18.7379C10.0698 17.2825 8.95349 15.2814 8.2093 13.2802C8.2093 12.7345 8.02326 12.5526 8.2093 12.1887C8.58139 12.0068 8.95349 12.1887 9.13953 12.3706C10.2558 13.4622 11.3721 14.1899 12.4884 15.2814ZM9.88372 9.64182C9.51163 9.82375 9.32558 10.0057 8.76744 10.0057C7.83721 10.0057 7.65116 9.64182 8.02326 8.73222C8.95349 6.0034 10.814 4.00227 13.4186 2.36498C13.9767 2.00113 14.907 1.27345 15.4651 2.00113C16.0233 2.5469 15.2791 3.27458 14.907 3.82035C13.4186 6.18532 11.5581 7.82261 9.88372 9.64182Z" fill="#C8AA5D"/>
<path d="M0 9.82031H5.02114L8.78372 10.7342L11.8966 9.82031H19V12.3711H11.5712L9.08793 11.4823L6.63708 12.3711H0V9.82031Z" fill="#C8AA5D"/>
</svg>
