
<svg width="50" height="23" fill="none"
    xmlns="http://www.w3.org/2000/svg">
    <path fill-rule="evenodd" clip-rule="evenodd" d="M3.88 12.9a1.5 1.5 0 1 1 0-3 1.5 1.5 0 0 1 0 3Zm0 2a3.5 3.5 0 1 1 0-7 3.5 3.5 0 0 1 0 7ZM38.2 21c1.63-3.91 5.3-12.75-1-17.78a9.64 9.64 0 0 0-3.12-1.5v8.16h-9.16v-.76h-.65v-7.4c-.36.1-.71.24-1.06.38-2.53 1.03-4.28 3.42-6.77 7.68-1.5 2.58-2.48 9.1 4.75 11.6a.5.5 0 0 0 .58-.2l.68-1.14c.16-.28.03-.64-.26-.77-1.78-.82-4.03-2.9-2.8-6.11.7-1.8 4.65-2.55 5.46 3.26.16 1.16-.02 3.35-.25 4.54-.06.32.18.66.5.68 1.04.06 2.42.13 3.1.11.23 0 .38-.18.38-.4 0-1.2.14-3.28.4-4.57.47-2.38 3.23-3.04 3.67.5.04.3.2 1.86.05 3.97-.03.29.2.54.5.54h4.35a.5.5 0 0 0 .46-.3l.2-.48ZM26.28 7.89V1.23c2.02-.34 4.03-.28 5.81.03v6.62h-5.81Z" fill="#C8AA5D"/>
    <path d="m37.2 3.22-.15.2.16-.2Zm1 17.79.24.1-.23-.1ZM34.09 1.72h-.25V1.4l.32.1-.07.23Zm0 8.16h.25v.25h-.25v-.25Zm-9.16 0v.25h-.25v-.25h.25Zm0-.76v-.25h.25v.25h-.25Zm-.65 0v.25h-.25v-.25h.25Zm0-7.4-.08-.24.33-.1v.34h-.25Zm-1.06.38-.1-.23.1.23Zm-6.77 7.68.22.13-.22-.13Zm4.75 11.6-.09.25.09-.24Zm.58-.2.21.12-.21-.12Zm.68-1.14.21.12-.21-.12Zm-.26-.77.1-.23-.1.23Zm-2.8-6.11-.23-.1.24.1Zm5.46 3.26.25-.03-.25.03Zm-.25 4.54.25.04-.25-.04Zm.5.68-.01.25.01-.25Zm3.1.11v-.25.25Zm.38-.4h-.25.25Zm.4-4.57.24.05-.24-.05Zm3.67.5-.25.03.25-.03Zm.05 3.97-.25-.02.24.02Zm5.31.23-.23-.1.23.1Zm.2-.47-.23-.1.23.1ZM26.27 7.88v.25h-.25v-.25h.25Zm0-6.65h-.25v-.2l.2-.04.05.24Zm5.81.03.04-.25.21.03v.22h-.25Zm0 6.62h.25v.25h-.25v-.25Zm5.29-4.85c3.23 2.58 3.9 6.15 3.55 9.53-.33 3.36-1.67 6.58-2.48 8.54l-.46-.19c.81-1.96 2.12-5.12 2.45-8.4.32-3.28-.32-6.65-3.38-9.1l.32-.38Zm-3.22-1.55c1.36.42 2.48.96 3.22 1.55l-.32.39a9.4 9.4 0 0 0-3.04-1.46l.14-.48Zm-.32 6.4V1.72h.5v6.16h-.5Zm0 1.24V7.88h.5v1.24h-.5Zm0 .76v-.76h.5v.76h-.5Zm-8.91-.25h9.16v.5h-9.16v-.5Zm.25-.5v.75h-.5v-.76h.5Zm-.9-.26h.65v.5h-.65v-.5Zm.25-7.15v7.4h-.5v-7.4h.5Zm-1.4.15c.35-.15.7-.28 1.07-.4l.15.48c-.35.12-.7.24-1.04.38l-.19-.46Zm-6.9 7.79c2.49-4.26 4.28-6.73 6.9-7.8l.18.47c-2.43 1-4.15 3.3-6.64 7.58l-.43-.25Zm4.88 11.97c-3.7-1.29-5.32-3.61-5.8-5.97a8.97 8.97 0 0 1 .93-6l.43.25a8.47 8.47 0 0 0-.88 5.65c.46 2.17 1.95 4.36 5.49 5.6l-.17.47Zm.88-.33a.74.74 0 0 1-.88.33l.17-.48c.1.04.22 0 .28-.1l.43.25Zm.68-1.14-.68 1.14-.43-.25.68-1.14.43.25Zm-.37-1.12c.41.19.62.7.37 1.12l-.43-.25c.08-.13.03-.34-.15-.41l.21-.46Zm-2.66-5.8a4.03 4.03 0 0 0 .24 3.74c.6.97 1.56 1.67 2.42 2.06l-.2.46a6.13 6.13 0 0 1-2.64-2.26 4.52 4.52 0 0 1-.29-4.17l.47.18Zm4.97 3.22c-.4-2.86-1.55-4-2.58-4.28-1.06-.29-2.1.3-2.4 1.07l-.46-.18c.4-1.03 1.7-1.72 2.99-1.38 1.31.35 2.54 1.74 2.95 4.7l-.5.07Zm-.24 4.45c.22-1.18.4-3.34.24-4.45l.5-.07c.17 1.2-.03 3.41-.25 4.61l-.5-.09Zm.73.98c-.5-.04-.81-.52-.73-.98l.5.1c-.05.19.1.37.26.38l-.03.5Zm3.12.11c-.7.02-2.09-.05-3.12-.11l.03-.5c1.04.06 2.41.13 3.08.11v.5Zm.62-.66c0 .33-.23.66-.62.66l-.01-.5c.04 0 .07-.01.09-.03a.19.19 0 0 0 .04-.13h.5Zm.39-4.51c-.25 1.27-.4 3.34-.4 4.51h-.5c0-1.2.15-3.3.41-4.6l.49.09Zm3.18.48a3.45 3.45 0 0 0-.64-1.78 1.15 1.15 0 0 0-.93-.47c-.64.02-1.38.65-1.61 1.77l-.49-.1c.25-1.26 1.13-2.15 2.1-2.17.48-.01.95.2 1.32.65.37.45.63 1.12.75 2.03l-.5.07Zm.05 3.92c.15-2.08-.01-3.63-.05-3.92l.5-.07c.04.32.2 1.9.04 4.02l-.5-.03Zm.75.81a.76.76 0 0 1-.75-.81l.5.03c-.02.16.1.28.25.28v.5Zm4.35 0H33.2v-.5h4.35v.5Zm.7-.46a.75.75 0 0 1-.7.46v-.5c.1 0 .2-.06.23-.15l.46.19Zm.19-.48-.2.48-.46-.2.2-.47.46.2Zm0 0-.46-.2.46.2ZM26.02 7.88V1.23h.5v6.65h-.5Zm.2-6.9c2.06-.34 4.1-.28 5.9.03l-.08.5c-1.75-.3-3.74-.37-5.73-.03l-.09-.5Zm6.11.28v6.62h-.5V1.26h.5Zm-.25 6.87h-5.81v-.5h5.81v.5Z" fill="#C8AA5D"/>
</svg>