<svg width="1132" height="494" fill="none" xmlns="http://www.w3.org/2000/svg"><path d="m1131 311.7.1-.4c.1-.8 1.4-1.5.7-2.3-.2.5-.3 1-.7 1.3l-.1-.4c0 .3-.3.7-.4 1h.4v.4l-.3-.1-.1.4-1.9 1c.3.2.4.6.2 1-.6-.6-.4-1.2-1-1 .4-1 .2-1.4.3-2.3.5 0 1.2.9 1.6.3h.3v-1.1l-.3-.1c-.1-.1-.3-.2-.3-.5-.2.4-.1 1.4-.8 1.3 0-.7-.5-.6-.5-1.5l-.5-.2-1.2 1.6.3-.1.1 2c-.3 0-.4.4-.5.7-.7-1.2-1-3.1-1.7-4.3.2-.9.4-1.2 0-2-.5.1-.3 1-.2 1.5-.2-.5-.2.1-.5.5-.8.4-.6-.3-1.5-.3h-.2l-.1-.4-.3.1c.1-.7-.2-.6-.1-1.2.8.1.7-1.3 1.4-1.2l-.1.4.5-.8h-.2c.2-1.3 1.4-1.2 1.5-2.8-.4-.7-.4.6-.9.5-.1-.3-.2-.7-.1-1.3h-.1l-.2-.1h-.1l.1-1.4.3.1c0-.4-.3-.7-.3-1 0-.3.3-.7.6-.6l.5 1.1-.2-.4c.4-2.3-.2-4.3-.2-7.2-.1.5-.4.8-.7 1.3-.5-.5-.5-1.9-1-2.3.1-.4 0-1.2.2-1.5 0-.5-.3-.9-.9-.8l.1-.2v-.3c0-.3.2-.4.5-.4v-1.5c-.5.2-.7-1-1.2-1.3l.1-1.5c1 .6.6-.3.8-1 .3 1 2-1.7 2.5-.3.2 0 .4-.4.2-1 0-.7-.4.2-.6 0v-1.3h.8c1.2-2.8-1.6-3.4-1.9-5.7-.8.3-.6 0-1.4-.2-.3-1-.5-3.4 0-4.4.3 0 .3.4.5.5l-.1.4.6-.7h-.2l.1-1c-.5-.4-1.3-.6-1-2.4.2.5.2 0 .6-.3l.2.4v-.6l-.3-.4.1.4c-.5.3-.8-1-1.2-.3-.2-.2-.2-.8-.2-1.3h.2v-.5s.2 0 .2-.3l.1.1.1-.5-.2.1.2-1.7c-.2-.8-.8.3-1.2 0-.3 0-.2.9-.5 1.3-1 .1-1.1-2.1-1.8-2-.3-.6-.4-1.3-.5-2.3v-.5l-.4.4.2.1c.2.7-.2.5-.2 1l-.1-.1-.2-.1c-.3-.2-.3-.5-.3-1 .5.1.5-.5.8-.3.2-1 1.2-.5 1-1.8 0-.9-.3-1-.7-.7.4-.5-.1-.7 0-1.4-.8-.2-.3 1.4-1 1.2 0-1.1-.2-.4-.7-.8 0-.4.1-2.3-.3-1.4-.4-.4.2-1.1.3-1.6-.3-.1.4-.7-.3-.5.3-.6.8-.5 1-1.3.4.3 0 1.9-.2 2v.5c.8 0 .4-1.8 1-2.3.6-.3.5.8 1 .8-.1.9-.3 1.2 0 2.2.4-.7 1.2-1.2 1.4 0 .3-.1.2-1 .5-1 .7 0 .3 2 1.2 1.5-.6 1.3.5 1.8.7 3 .3-1 .1-2.3.8-3 .4 0 .8.6.5 1 .8 0 .5-.7 1.2-.2 0 .5-.3.7 0 1.2.2-.3.6-.5.6-1.2-.5.2-.1-2.2-.9-2.3 0-1 .5-.8.1-1.8.8.2 1-.3 1-1.2.5.3.9.8.9 2-.4-.1-.6 0-.6.8.6.2.3-1 .7-.3v.4l.8-.6-.3-.1c.2-1.5 1-1.5 1.5-2.3.1-.3 0-1.2.2-1.3.2-.4-.8-.4-.8 0-.5-1 .6-1.8 1.1-2.1-.3-.6-.7-.8-1-1.3-1 0-.6 2.1-1 3-.8-.3-.6-1.6-.6-2.3-.2-.6-.4.5-.8.2.4-1.8 1.4-2.6 1.6-4.3.8.6 1.4 1.5 1.7 3 .2-.1.2-.4.5-.5h.1l.2-1.4-.2.1v-2.3h-.1c.3-1 1-1.3 1.2-2.4v-.1h-.2c-.2.2-.2.7-.8.6l.2-.8.1-.3v-.6c-.1 1.2-.6 2.5-.9 3.5-.7-.3-.4-2.2-.7-3.2-.6.2-.6-.5-1-.8 0-1 .8-.7 1-.8.3 0 .2-1 .6-1-.2-.1-.3-.3-.3-.4 0-.4.3-.7.4-1l-.3-.6c0-.2-.2-.4-.5-.4h-.2c.5 1-1.5 3.2-1.2.4.2-.3.8-.3 1-.5-.1-.2-.2-.3-.2 0-.3-.3 0-.9.4-1-.2 0-.2-.2-.3-.2-.8.1-1.3 2.3-1 2.6 0 .4-.6 0-.7-.2-.3 0-.2.6-.3.7-1.3-.2-2-.7-3.1-.5-.1.4-.4.8-.7 1.1-.2-.2-.5-.5-.5-1 .1-.5.5-.8.1-1.6l-.2-.2c-.2-.6.1-1.3.1-1.5-.1-.4-.4-.5-.5-.8-.2 0-.2.2-.3.2l-.1-.3-.3-.1c-.1-.6.1-.7.1-1.1h.2l-.3-.4v.2c-.4.3-1.4 1.3-1.8.4-.4.3-.4 1-1.2.7l-.1-.3-.1.3c-.2 0-.3 0-.3-.2l.1-2c.7-.1 1 0 1.5-.7l-.7-.7c.4-.2 0-1.2.3-1.3.5.6.8.3.9 1.1.6 0 0-1.8.8-1.8v-.7l.1.5c0-.4.1-.7.5-.6v1.3h-.2c.2.4.7 1 1 .8h.1v-1.2.8c.2-.3.2-.6.2-.9.5 0 .5.5.4 1h.2c-.2-.6-.4-1.6.1-1.9-.2-.3-.9-.3-.7-1 .8 0 .4-1.5.9-1.8.6.2.1.9.1 1.6.2 0 .2.2.3.3h.9l-.1.3.5-.2-.1-.2c-.3-.8 0-1.4.2-2 .3-.4.4-.7.5-1.1 0 .4-.6-.3-.6-1 .6.3.6-1.8 0-1.4l.1-.3-.2.5h.2c.3 0 .2.4.2.6l-.6.2c0 .4.3.4.2.9h-.6l-.1-.3-.3.1v-1.3l.2-.2h-.7l.2.2c-.2.2-.3.5-.8.4v-.3l-.2.1c.4-.8.2-1.4.3-2.2.3-.3.5 0 .7.4.6 0 0-1.5.6-1.5l.1.3-.1-.5c-.5-.3-.5-.4-1 0-.2-.3-.2-.5-.2-.7l-.1-.7c.1 0 .1.3.3.3.2-.2.5-.6.4-1.2 1.1.5 1.1-1.4 1.7-2.2v-.3c-.4.5-.6.1-1-.2l-.1-.3-.3.1v-.7l.3.1.1-.3c.2-.3.7-.2.7-.7.4 0 .4.3.8.2l-.2.3.4-.5.6.5-.2-.3c.5.1.8-.2 1-.4v.2l.2-.2-.7.2v-1c-.2-.3-.3-.6-.3-1 0 .6 0 1-.3 1.4-.4-.2-.4-1-1-1v-1.1c-.6-.7-.3-3.4.5-3.7l.1.3.1.3h.3c.3.2.1 1 .3 1.5l.9-1.3c0 .3 0 .6-.2 1-.2.3-.5.7-.9.4v1.6c.5-.1.5.4.7.8l.6-.3c.6-.6 1-1.1 1-2.2h-.2l.2-.3-.3-.1c-.3-.2-.7-.6-.3-1-.2.2-.2-.2-.8 0l.2-.4-.3.1.2.3c-.2.3-.3.6-.7.5v-1.3l-.3.2-.1-.4-.3.1v-.5h-.5v-.5l.3-.2c-.2 0-.3-.3-.3-.4l-.1.3c-.3.1-.5.3-.7.6.2.4.2 1 .3 1.4h.1c.5.4-.1 1-.1 1.5v-.1c-.1.3-.1.5-.4.7-.4-.2-.3-.6-.3-1.1l-.4-.1v-.7h.6c0-.3-.2-.4-.4-.4.1-.3.2-.7.1-1.3l.3.1-.2-.4c-.2-.2-.6-.3-1-.3l-.2-.3-.2.1c-.3-1.5-.3-3-1.6-3.7-.5-.1-.4.6-.9.4.1-1-1-.6-1-1.6.5 0 .9-.5 1.3-.2l-.2.3.3-.1c.4.2.8-.5.5-.5l.1-.3h-.2v-.3c.4 0 .3-.3.6 0 0-1.3.2-2 .3-3l-.1-.4-.2-.2h.2c.1-.6-.2-.7-.6-1-.5.9-1.3-.1-1.8 0 .2-.1.3-.3.5-.3-.2-.6-.6-1-.9-1.5.8-1-.1-2.8.3-4 0-.2-.3-.2-.4-.2.1 0 .8-.9.5-1.4h.3l.1-.2.3.4c.4-.2 1.1-.5 1.5 0 0 .3 0 .8-.6.7l.6.5c.4-.2.3-.8.3-1.4h.3l-.6-.8.2.3c-.6-.1-.6.2-1 .2-.5-.8-.6-2.3.2-3-.8-.1-1-1.9-1.6-1.5 0-.8 1.3-1.2 1.2-2.4h.3c.3 0 .3.4.5.7.5-1.2-.8-2-.8-3h-1.6c-.1-1 .6-1.2 1-1.5-.4-.2-.8-.5-1.5-.5-.3-.5-.3-1.2-.8-1.5 0-.5.7-1 .8-.7l-.1.3.6-.4h-.2c0-.4.6-.4.8-.6l.2.1-.1-.3c.5.1.5-.3.6-.7.8-.3.7.4 1.2.4.1.6-.3.7-.1 1.3.2.5.4-.7.9-.5.1-1.2.1-1.6-.7-2 0-1.1.2-4-1.8-3.7v-.8c.3-.1 1-.7 1-1.5.6 0 .7.4.8-.2l.3.1a1 1 0 0 1 0-.9l-.3.1v-.4l.3.2.7-.3h-.3c.4-.3-.1-1-.3-.5-.6-.9 0-2.4-.9-2.3.3-.3.3-.7.5-1.1l-1.1-.4c.2-.7.4-1.4 1.1-1.5 0-.7 0-1.5.2-2-.8-.2-.6.7-1.2.5-.4-.4-.1-.7-.1-1.5.8.2.9-.5 1.7-.4v.5c.5 0 .5-.6.9-.7v-.2c-.3.1-.4 0-.7-.2v-.8h1v.8c.6 0 .6-1 1-1.2-.5 0-.7-.2-.5-1.3-1-.1-1.2.5-1.9.7l.2.3c-.2 0-.3.2-.3.3l.1-.6-.5-.1c.3-1 .1-1.9-.6-2v-.3l-.2-.1v-.4c.5.1.8-.2 1-.4v-.7c-.2-.2-.3-.6-.8-.5 0-1.7 1.1-1.9 2.3-2.3v-.7c-.4 0-.9 0-1.2.4-.4-.3.2-.4 0-1h-.4l.2-.2-.3-.1c.1-.6 1-.4 1-1l.3.6v-1.8c.4.1.3-.4.5-.5h.2l-.1-.2-.2-.4.2.3c-.6.3-1.2.6-1.1 1.6-.5-.4-.4-.7-1-.4-.2-.5-.2-1.2-1.1-1 0-.7.5-.7.7-1.2-.2-.4-.8 0-1-.2-.2-.4-.3-.6-.7-.7.2-.7.7-1.3 1.4-1.6.3.2.1 1 .3 1.1.3.1.2-.3.2-.5.4 0 .3.8.3 1.3.2 0 .2-.2.6-.2.4-.5 1.2-.5 1-1.6l-.7-.1h-.1l-.2-.3v.5h-.6l.4-.3c-.2-.3.2-.6 0-1-.4.5-.8.5-1.5.4v-.7c.6-.3.6 0 1-.2-.3-.8-1.2-1.3-.6-2.2h.3v-.3l-.3.1c-.6-.7-.9.7-1.5.5 0-.9-.7-2.2-.2-3l.2.2h.2c.5.1.4-.6 1-.5.2.4.6.5.7 1.1.1-.2.4 0 .5-.4 0-.5-1-.9-.5-1.6l.3.1-.2-.4c-.5-.8-1.4-1.8-1-3.3l.3-.1-.2-.3c.3-.7.3-1.6.3-2.5-.1-.5-.3.4-.7.2-.2-2 1.7-1.4 1.9-2.8.2-.1.2.1.5.1l.1-.3c-.5-.6-.6.5-1.2 0-.2 0 0 .8-.6.6l.1-.3-.2.1c-.2 0-.2-.4-.3-.4.7-.6.1-2.4 1-2.2 0-.3 0-.5.2-.5h.2v-1.3l.2-.6-.3.1c0-.5-.3-.6 0-.9 1 .3 1-.7 1.6-.7 0 .2.3.2.5.2l.1 1.5c.2 0 .2-.2.3-.2l.1.3.3-.7-.1.1c-.3-.2-.2-.8-.2-1.3-.2-.4-1 0-.8-.9l.3.1.1-.3h.2c.1-.6.5-.7.6-1.2.6 0 .3.7 1 .6-.6-1 0-1.4-.2-2.3-.4 1.2-1.8 1.2-1.7 2.8h-.3v.2c-.7.4-.7-1.1-.6-2-.5.2-.8.8-1.2 1-.4-.2 0-1.6-.3-2.4.4-.4 1.2-.2 1.5-.7.4.2.4.7 1 .5.2-.1.2-.4.6-.4-.4-.2-.4-.7-.3-1.3-.3-.2-.4-.5-.8-.5l-.1-2 .1-.5h-.4l-.1-.6.3-.2v-.2c.2-.3.6.8 1.1.8l-.5 1c.4 0 .4-.5.5-.8.7.1 1 0 1.2-.5l.1.3h.3c.4 0 0 .7-.1.8.1.3.4.4.8.4v.3c.2-.3.3-.4.6-.5l-.1-.2c.4-.3 1.2-.6 1 .4.3.1.3-.2.6-.2v.2c0-.4.2-.8.5-1.2l-.3.1c-.1-1.3 1.3-1.8 1-2.8v-.3l-.2-.2c.1-1 1-1 1.3-1.5l.3.1.1-.3c.1-.6 1.5-1 .7-1.6-.2.4-.3.8-.7 1l-.1-.4-.4.7.4.1v.2l-.3-.1-.1.3-1.8.7c.2.3.3.5 0 .7-.4-.3-.3-1-.8-.7.4-.6.1-1 .2-1.6.5 0 1.2.7 1.6.2l.3.1v-.9h-.3c-.1-.2-.3-.3-.3-.5-.2.3 0 1-.8 1 0-.6-.5-.5-.5-1.2l-.5-.2-1.2 1.1h.3l.1 1.4c-.3.1-.4.3-.5.5-.7-.9-1-2.2-1.7-3 .3-.8.4-1 0-1.6-.5.1-.3.7-.1 1.1-.3-.4-.3.1-.6.4-.8.3-.6-.2-1.5-.2h-.2l-.1-.3-.3.1c.2-.5-.2-.5 0-.9.7.1.6-.8 1.4-.8l-.2.3.5-.5-.2-.1c.2-1 1.4-.8 1.6-2-.4-.5-.4.5-1 .4a1 1 0 0 1-.1-1H1122.8v-1l.3.1c0-.3-.3-.5-.3-.8 0 0 .3-.4.6-.3l.5.8-.1-.3c.4-1.7-.3-3.2-.3-5.2-.1.4-.4.6-.7.9-.5-.4-.5-1.4-1-1.6.1-.3 0-1 .3-1.1-.2-.4-.4-.6-1-.5l.2-.2-.2-.2c.2-.2.3-.4.6-.4v-1c-.4.1-.7-.8-1.2-1l.1-1c1 .3.7-.3.8-.7.3.6 2-1.2 2.5-.2.3 0 .4-.3.3-.7-.2-.5-.4.2-.7 0v-1h.8c1.2-2-1.6-2.4-1.8-4-.8.1-.7-.2-1.5-.3-.3-.8-.5-2.4 0-3.2.3 0 .3.3.5.4l-.1.3.6-.5h-.2c-.1-.3.1-.4.1-.6-.5-.3-1.3-.5-1-1.8.2.4.2-.1.6-.2l.2.3v-.4l-.3-.3.1.3c-.5.2-.8-.8-1.2-.2-.2-.2-.2-.6-.2-.9h.3l-.2-.4c.1 0 .3 0 .3-.2l.1.1.1-.4-.2.1.2-1.3c-.2-.6-.7.2-1.1 0-.4 0-.3.7-.6 1-1 .1-1.1-1.6-1.8-1.6a5 5 0 0 1-.5-1.5v-.4c-.2 0-.3.2-.4.3h.3c0 .6-.3.5-.3.7h-.1l-.2-.1c-.2-.1-.2-.4-.2-.7.4 0 .4-.3.8-.2 0-.7 1.1-.3 1-1.3-.1-.6-.4-.8-.8-.5.4-.4-.1-.5 0-1.1-.8-.2-.3 1-.9.9 0-.8-.3-.3-.8-.5 0-.4.1-1.8-.3-1-.3-.4.3-1 .3-1.4l.1.3v2.5c.7 0 .3-1.3.8-1.6.7-.2.5.6 1 .5 0 .7-.2.8 0 1.6.5-.5 1.3-1 1.5 0 .3 0 .2-.7.5-.7.7 0 .3 1.4 1.2 1-.6 1 .5 1.5.7 2.3.2-.6.1-1.6.8-2.2.3 0 .8.4.5.7.8 0 .5-.5 1.2-.2 0 .5-.3.6 0 .9.2-.2.6-.4.6-1-.5.2-.1-1.5-.9-1.5 0-.8.5-.6.1-1.3.8.2 1-.2 1-.9.5.3.9.6.9 1.5-.4-.1-.6.1-.6.5.6 0 .3-.7.7-.2v.3l.8-.4-.3-.1c.1-1 1-1 1.5-1.6.1-.2 0-.9.2-.9.2-.3-.8-.3-.8 0-.5-.8.6-1.4 1-1.6l-.8-.8c-1 0-.7 1.5-1 2.1-.9-.2-.7-1.2-.7-1.6-.2-.4-.4.3-.8.2.4-1.2 1.4-1.8 1.5-3 .8.4 1.5 1 1.8 2.2.2-.1.2-.3.5-.4h.1l.1-1V42.4h-.2c.2-.7 1-.9 1.3-1.8l.1-.3h-.2v.2c-.2.1-.2.5-.7.4l.3-1.5c.2.2.5.2.6.5h.2v.3h.3v.4c.7.2.6-.5.8-.7l.2.3-.3-1.6-.1.3c-.5 0-1 0-1.5.2-.2-.5-.2-1.3.2-1.5 0-.4-.4-.2-.3-.7-.5.5-.5 0-1.2.4-.2-.3-.4-.6-.2-1.3-.6-.4-.8-.2-1.2-.7.1-.3.4-.5.5-1 .5.7.8.3 1.2-.1-.1.9-.1.8 0 1.6l.2-.2h.3l.3-1h-.3l-.1-.6c.6 0 .4-.8.8-1 0-.5-.4-.5-.6-.8.2-.6.4-1 1-.7-.3-1-.2-1.5-.2-2.6h-.5c-.3.3-.1 1-.5 1.2-.4.1-.3-.4-.7-.4l.2-.3-.2-.2c0-1.2-.8-1.4.3-1.8V26c-.5-.8-2.6.7-3 0l-.2-.3v-.3c.4 0 .6-.6.7-1 .4 0 .5.5 1 .6.8-1.2-.2-2 0-4-.3.3-.9.5-1 1.1-.5.2-.5-.3-.8-.4-.3.3-.3.8-.3 1.3h-.2l-.1.2c-.4 0-.6 0-.6-.5-.2.3-.6.2-1 .2-.1-1.2.4-2 1-1.8 0-.2-.2 0-.2-.3h.1v-.2c.3-.6 1-1 .7-1.8.9 0 0-.5 1-.2l.1.3c.2-.3.3-.5.5-.5l-.2-.1.3-.4c-.2-.6-.4-.2-.8-.2-.4-1.7 2.2-1.6 1.8-3.4l.3.1-.3-.9h.1l-.1-.2c0-.2.1-.2.3-.2v-.8c-.2 0-.3.2-.3.3-.3-.6-1-.7-1.6-.8h-.1V13c-.3.4-.5-.2-.8.2h-.2v.3h.2l.1.5.4.2.3-.3h-.1c0-.2.2-.4.4-.3V14l-.2.1c0 .5.3.8 0 1.4-.2 0-.4 0-.6-.2 0 .6.1 1.1-.2 1.7-.3-.1-.3-.8-.9-.7v-1.7h-.1.1v-.3l.2-1c-.2.2-.3 0-.6 0l-.2-.8c.1.7.1 1.7-.4 2-.8-.2.4-1.6-.7-1.6.1-.2.3-.5.1-.8h.3l-.1-.2c.1 0 .3 0 .3-.2v.2l.2-.1c-.1-.2-.4-.4-.4-.8-.3 0-.5.7-1.2.5 0 .3.2.4.3.5-.4 0 0 .8-.3 1.1 0-.2-.2-.4-.4-.6.2-.3.2-.6 0-1 .3.4.2-.2 0-.2.2-.1.3-.2.3-.6h.1v-.1l-.4-.3c0-.4.2 0 .3-.2L1121 9c-.3 0-.3.4-.6.4h-.2c-.3-.2 0-.9-.3-1.2v-.2h-.1c0-.8-.3-.6-.5-.6.1-.5.1-1-.3-1.2.1 0 0-.4.3-.4-.4 0-.7-.3-.8-.9-.3.1-.3-.2-.4 0 0-.6-.1-.8.1-1h-.2v-.1l-.3-.1c-.3.2-.3 0-.4-.1-.1 0 0 .5.3.5 0 .6 0 1.2-.7 1.2.4-.7-.1-1.6-.4-2.1V3h-.1c-.1-.3-.5 0-.8 0 .1-.3-.3-.8-.3-.8 0-.3 0-.8-.5-1l.3-.1V.5c0-.2-.4 0-.4-.3V0l-.3.2.2.1c0 .3 0 .1-.2.1 0 .4-.2 0-.4.2.2.2.6 0 .4.5-.2-.3-.1.3-.2.4 0 .2.2 0 .2.3V2c-.2.4-.6 0-.9 0v-.6h-.1l-.3.9c.2.4.4.8.7.6l.1.4c0 .2-.1 0-.3 0 .2.2.3.5.4.3h.2V4c-.3.4-.8-.4-1.3-.1 0-.3-.2-.5-.3-.5-.1 0-.1.8.1.8l-.2.3c-.3-.3-.6 0-.8.1-.4-.7 0-1.5.4-2-.4 0-.8-.4-.8-1.2-.2-.1-.2.2-.3.3 0 0 .1.2.3.2-.4.3-.3.6-.4 1.3h.1c.1 0 .3 0 .3-.2.1 0 .2-.1.4 0l-.7.3-.1.7h.1-.2c-.2.5-.3 1.1-.6 1.4h-.5l-.1.1h-.2c-.5 0-.7-.6-1-1-.1 0-.1 1 .1.8l-.2.6c-.3.1-.3-.2-.4-.3.4-.4.1-1.3-.3-1.5-.3 0 0 .1-.1.5-.3.3-.8 1-1 .4-.2 0 0 .2 0 .3-.3 0-.2-.7-.3-.9h.1l-.1-.3v.1c-.3 0-.3.1-.5.3 0-.3-.2 0-.4-.2v-.8c-.2 0-.3 0-.4.2h-.2v.2l-.2-.1c.1-1.2-1-1-1.2-1.8-.4 0-1 0-1-.3-.2 0 0 .2-.2.2-.1.4.1.3.1.6.3 0 .3-.3.6-.2.2.6 0 1-.4 1V4c.1-.6.5-1 1-.7v.3l-.2.2c0 .2.4.2.2.4h.3v.4c-.5.1-.7-.2-1-.3-.3.2 0 .6 0 .6V5h.3-.1c0 .7.5.7.7 1.2l-.2.1-.1.1c-.3 0-.5-.2-.7-.5-.2.3-.6.1-.9.2H1101.3s-.2-.4-.2 0l-.1-1.4c0-.2-.3 0-.3-.2-.3.4-.4.4-.7.6-.2 0 .2-.4 0-.6-.3.4-.2.7-.2 1.4h-.1c0 .1 0 .3-.2.5h.2c0 .4.5.6.3 1.3-.2.1 0 .2-.2.4-.3-.1 0-.3-.1-.6 0 .1-.4.2-.3 0v-.2l-.1.1v-.2c0-.3-.3-.6-.2-.8h.2l-.2-.2-.1-.2v.1c-.3 0-.1-.4-.4-.3 0-.7.7-.6.7-1-.3 0-.4.3-.7.5-.3 0-.4-.6-.4-1.1.1-.1.3-.4.4-.2.1-.8.3-1.5-.5-1.5-.1-.3-.4-.7 0-.8-.1-.3-.3-.4-.5-.6 0-.2 0 0 .2-.1V.7c.3-.2.3-.5 0-.5-.1.1.2.4-.3.3l.3.5c-.5 0 0 .9-.6.8l-.2-.6c-.4.2.2.7.2 1v-.3c.3 0 0 .3 0 .6s.6 0 .5.7c.3-.3.6-.3.9-.5 0 0 .1.3.3.3-.2.3.1.4-.2.7a1 1 0 0 1-.5-.4c-.1 0-.1.4-.4.3 0 .2.2.2.2.3h-.5c.5.3.2 1.2.8 1.1 0 .6.4.7.6 1.2l-.2.1c-.2 0-.2-.4-.5-.3-.1-.7-.7-.7-.8-1.2l-.1.4H1097c-.1.1-.4-.5-.4-.2 0-.2 0-.4-.2-.7-.2 0-.2-.1-.3-.2v.1l-.4-.1.1-.3c0-.2-.2-.2-.3-.2h-.2c-.2-.2-.2 0-.5.2 0 .2.3-.1.3.3l-.2-.1v.2h-.4c0 .2.2.1.3.2l-.1.5h-.2l.2.1.2.2h.3c0 .3.3.4.4 1l-.1.2c-.3-.2-.3-.5-.6-.6v-.3l-.6.1-.1.4-.6-.3h.2-.7l-1.3.1c0 .1-.1.3-.3.3v.1h-.1c.1.1.3.3.1.4-.1 0-.2 0-.2-.2v.1s-.2 0-.2-.2v-.2h-.2c-.2 0-.2 0-.2-.2V6c0 .2-.4 0-.5.1l.1-.3-1.7.1v.5l.2.1-.2.1c.8 0 1.8-.2 2.5.2 1 .1.7-.4 1.5-.4.1.7 2 1.1 2.5 1.7 0 .2 0 .4-.4.6-1-.3-1.2-1-2.8-.8v-.4a4.5 4.5 0 0 0-3 0c.4 0 1 0 1 .5.6 0 .8.4 1.2.5-.1.9.7.4.6 1 .3 0 .5.5.7 0 0 .5.6.5.8.5l-.1.3c.4.2.4-.3.5.2h-.1v.3l-.5-.1.2 1c-.9.3-2 .4-2.9.4l.2-.1-.2-.1c.2-.3.4-.2.4-.7h.2l-.7-.8v.2c-.4-.3-.9-.2-1.2-.4 0-1-.5-1.1-.8-1.5 0-.1.2-.1.2-.3-.2-.1-.3.3-.2.3-.2 0-.6-.3-.9-.6l-1 .4v.3-.3l-1.2.3-.4.5c-.3 0-.3-.1-.4-.2l.2-.6-.2-.1a2 2 0 0 1-1.2.4h-.2V8c-1-.1-.8.4-.7.7-.8 0-.5.5-1 .6l-.3-.1c.1.6.5.8.4 1.3-.1 0-.3 0-.3-.3V10l-.2.3v.3c.3 0 .5.3.8.4l-.2-.1c.2-.5.2.2.4 0l-.1.3 2.1.7c-.4.3-.8.3-1.3 0l-.1.2h-.2l-.4-.3-.4-.1c.2 0 .3.3.3.3-.1.4-.1-.2-.5-.1l.1-.3h-.8c-.5.3-1.2.5-1.4.8 0 .2.5 0 .8.1-.8.2-.4.7-.7 1.1l.3.1h-.3l-.3.2c-.6 0-.6-.5-.6-.9-.1 0-.4 0-.5.2-.3 0-.4-.4-.7-.3 0-.3.2-.2.3-.4 0-.2-.3-.1-.3-.4h.2V12c.3.2.7-.2.9-.7 0 .2.2.4.4.6.5-.1 0-.6.9-.6-.3-.2-1-.2-1.2-.3 0-.1.8-.4.3-.5v-.1h-.2l-.1-.1-.3-.1V10c-.4-.3-.9-.5-.9-1.1-1.2 0-1.3-.6-2.5-.6 1-.8-.1-1.8-.8-2.7-.8 0-.8.2-1.1.3.3.2.2 1.2.8 1.1.5 0-.3.2 0 .4h-.5v.2-.2c-1 .1-1.4.4-2 .6l-.3.3c0 .3-.1.4.3.8.3-.2.2-.7.6-.9h.8c-.1.4.5.3 1.7.3 0 .7-1.4.8-1.2 1.3H1072.3c-.6 0-.3-.2-.7-.2h-.4l.1.6c-.3.5-.7.2-1-.3-.3 0-.3-.2-.5-.2H1069.5l.2-.2-.2-.4c-.6.4-.9.9-1.7 1.2.5.3 2 .5 1.5 1 .4.3.9 0 1.4.3-.3 0-.3.4-.7.5.4.3 1.3 1.3-.2 1.3.2.4 1.3.1 1.7 0l.1.1h.3c.2 0 .5.3.2.4 1.7.7 3 1.6 5.2 2v.7c-1.1.1-1.9-.1-2.3-.3.2-.1.3-.2.7-.2-2-.2-2.8-.9-4-1.5-1 .1-1.4.7-1.1 1.3 0 .3.9.3.4.5l-.2-.1-.1.1-.4.1h.3c1 1.4-1.2 2.2-2.5 2.8l-.4-.1.1-.1c-.4.2-.8.2-1 .2h.2c-.1.3-.8.3-1 .4l-.2-.2h-.2c-.1-.5-.5-1-2.1-1-.1-.1-.7-.1-.3-.3h.3l-.1-.1c.7 0 .9-.2 1.7-.1-.2-.2 0-.5-.7-.5.3-.4.8-.8.8-1.4.5-.2 1.2-.3 1.4-.6 1 .1 1.5.4 1.9.8 0-.5.9-1.5.2-1.7.4-.2 1-.2.7-.6-.2 0-.8.1-.7-.4-.8 0-.5.5-1.7.4-.1-.5.4-.6 0-.9.5 0 2-.5 1.9.1.5 0 .6 0 .6-.4l-.8-.2-1.8.3h-.5c-.4-.4-.3-1-1-1.1 0-.4.7-.5 1.4-.6-.3-.4-1 .2-1.9 0a2 2 0 0 1-.8-.4c-.9.3-1.3.7-2 1l-.3-.1h-.4v-.6c-.5.2-.1.9-1.5.7.4-.5.8-1.1-.6-1.3-1 0-1.2.4-1.5.8-1.4-.3-1.1.4-2.7.3 0-.6 1-.8 2.1-1-1-.2-1.4-.5-2.5-.2 0 .4-1 .6-.3 1-1.3.2.4 1.1-.3 1.6.7.5 0 1.4-1.3 1.5-.8.5-1 1.2-2.3 1.4.4.4.8.7.8 1.3-2.3.5-2.2-.3-2.8-1.2-.7 0-.9.4-1.4.2h.1-1 .6c-.6-.4-.9-.9-.7-1.6 1.3.2 2-1 1.8-1.4.6-.5 1.7-.2 2.5-.3.3-.5 1.3-1.5.3-1.7.2-.2.6-.5 1.1-.3.2-.3-.2-.4-.4-.6-.4 0-.4.3-1 .2.1-.3.5-.7-.4-1-1.2 0-.4.6-1 .8-.6-.2-1.6-.1-1.9 0-.1.4.5.4.7.6l.6-.3c.5 0 1.5.3.8.6 0 .2.5-.1 1 0-.6.8-3.7.5-4.3 1.3l-1.4.1v.5c-1 .1-.7-.5-1.7-.4l.1-.2h-.2l.2-.1c-.9-.1-.4-.8-1.8-.8V11h-.5l-.2.2h-.2v-.1l-.8-.1h.1c-1.3.4-1.3 1.3-3.1 1.3l.1-.1-.7.2h.3c.5.3 1.3-.1 1.7.2 0 .3-.5.4-.8.5-.6.1-.4-.3-1-.2-.5.3-.2.4-.3.8-.5 0-1 0-.8-.3a8 8 0 0 1-3.6.8c-1.2 0-1.2-.8-2.3-.8.7-.4 2.1 0 2.8-.5-.1-.6-.4-.8-1.7-1 .2-.7-.3-1 0-1.3-.1-.2-.3 0-.7-.1-.1-.3.5-.2.4-.5-1.8-.4-.3 1.2-2 1.3-.2.3.3.4 0 .6h-.5c-.6 0-.4-.5-1.4-.4v.7c.3.2-.8.2-1 .5-.2.1 0 .3 0 .4l-.9.1c0 .1 0 .3-.2.4-.4.1-1.2 0-1 .3l-3-.4c-.7-.8.2-1 .3-1.6.5 0 .4-.2.8 0 0-.4-.4-.6-.8-1-.9.4-1.3 1-2.2 1.5h-2.1c0-.2.3-.2.3-.3-.4 0-.7 0-.7.2-.4-.1-.6-.2-.6-.5-1.4 0-1.1.2-1.2.6h-1.7l.1-.1h-.5l-.8.2.1.1c.2.1.4.3.4.1-.1.5 1 .8 0 1.1.5.3 2 .2 2.2-.2h.3-.1c0-.4.1-.5.6-.5.3.2.3.5.4.7-.2.1-.8.1-.8.3l.3.3c.4 0 .5 0 .6-.2.7.3 0 .4.3 1.1-.6-.3-.8.3-1.8.1.4.2 1 .2.8.7-.8.1-1 0-1.5-.2 0-.2.3-.3.4-.5h-2.2c-.4.2.1.3-.4.5-1-.2-1.4-.8-.8-1.3l.3.1.1-.4h-.4c-.4-.8-.5-1.3-.6-2h.4v-.3h-.2c.1-.1-.3-.5.3-.5l.2.2c0-.2 0-.5.4-.6-.2-.2.2-.4.4-.4h-.2c-1.2-.1-.6-1-1.7-1.1-.7.4-.6 1.2-1.5 1.5h-.2l-.2.2h.4c.4 0-.4.5.4.7 0 .3-.4.4-.6.5-.8-.3-1-.2-2.1-.2.3-.8-1.2-1-2.1-.7 0 .3-.2.6.2.7.6 0 .8-.2 1.5-.1.5.5.9.5 2.5.5l-.2.1.3.1c0 .3-.1.6.6.5.2.5.4 1-.2 1.3-.5 0-1.2 0-1.5-.2 0 .3-2 .4-2.2.3-.9 0 .1-.3-.6-.3-1 0-1 .4-1.2.7-.4.1-.8-.2-.8-.3l-.5.1s.5-.5-.4-.3c.2.3.5.5.4 1 .5 0 .2-.3.6-.3 1 0 .7.6 1.2.8-1.3.1-2 1-2 1.8-.5 0-.9.3-1.8.2.1-.3-.3-.3-.4-.5h-.3l.2-.1.1-.1c.1-1.3-.5-1.5 0-2.5-.3-.2-.5-.2-1 0 0-.7.4-1.8 1.7-2 0-.4-1.3 0-1.3-.3h-.4l-.4.1c.1.4.2.8.6 1.1-.4.2-1.5 0-2.2.1.5-.3.3-.4-.8-.4 0 .2-.4.3-.4.7-.4-.2-.8.1-1 .2.4.6 1.4.4 2 .8-.2.2-1 .1-1.4.3 0 .6-.6 1.2.7 1.5-.7 0-.3.5-.4.8h-.4c-.1.8.8 1.8 1 2 .6 0 0 .4-.4.3-.2.5.7.4.7.6-.5-.2-.4.2-.7.3 0 .2.4.2.8.2 0 .1 0 .2-.2.2h-.4l-.7.1.8.3c-.3.4-.1 1.1-1.7 1 .1-.5-.4-.7-.6-.9-.6.1-.4.2-1.1.1.5-.3-.4-.5-.8-.6-.1-.3.8 0 .8-.3-.8.2-1.6-.3-2-.7-.2-.2.3-.1.3-.3 0-.5-.8-.3-1.2-.4-.1-.3-.6-.7-.4-1 1 0 1.9.4 2.1 0h.5c.4.2.4.6.4 1 .2.2.8-.2 1.2-.2l-1-.2c.9-.3-.3-.5-.3-1l.8-.2c-.7-.2-.5-.3-.7-.8h.7c-.4-.9-.1-1.2-.8-2.2-1-.2-.8.3-1.4.3.2-.4-.7-.3-.7-.6 1.3.1 1.7-.6 2.8-.3 0 0 0-.2.2-.2-1.2-.3-1.7.4-3.2.2.5-.3-.2-.6-.3-.9-.8.5-.7 1.1-.8 1.7-.3.7-.8 1.3-.7 2.6.2 0 .3.3.4.4-.5.4 0 1.3-1.8 1 .4-.1-.1-.1-.3-.3 0-.2.4-.1.4-.3 0-.2-.2-.4-.4-.6-2 .2-1.3 1-.6 1.7l-.4-.1c-.1 0 0 .6-.7.8 0 .2.8 0 .7.3-.8.3-1.8 0-1.8-.3-1.9.2-3.6-.7-2.5-1.2-.7-.3-1.2-.2-2.1-.3-.2-.5 1.2-.1.6-.4l.2-.2.1-.2c.1-.2.8-.3 1-.5-.2 0 0-.1-.2-.2-1.5.3-.3-.3-1-.3-.3 0 .2.8-.3 1l-.2.2.2.2c-.4.2-.6 0-1 0 0 .2 0 .3.3.3-2.9.2-1-1-1.4-1.7l1.4-.1c-.1-.3-.6-.4-.4-.9 1-.2.8.4 1.7.3l-.1.2 1.2-.2.8.1v-.1c0-.1 0-.3-.3-.3l.1-.1.2-.3h.2c-.4-.4-.5-.4-.6-.8-.3.1 0 .1-.3.4h-1.2l.2-.2v-.2c-.2 0 0-.3.5-.3-.1 0-.3-.2-.7-.2.3-.7.7-.3 1.2-.9h-.8c.1-.4 1-.2.8-.7-.4-.2-1.2 0-1-.5-1.4.1-2.8.2-3.3.7-1.2 0-1-1.1-.3-1.3 0-.4-.5-.5-1.4-.5-.3-.1.5-.8.8-1l.4.2c.9-.5 1.8-1 1.4-2-1.3.2-1.7.7-3.5.9-.3 0-.2.2-.3.3l-.7-.1c-.2 0-.2.2 0 .2-.2.3-.9.2-1.1 0 .4.2-.2.3 0 .6-1.9-.3-.7.8-.7 1.3.7 0 .5-.3 1.2-.2l.3.3-.3-.1h.1c-.2.2-.1.5-.8.5-.1.1.2.1.4.1 0 .3-.8.2-1 .3l.4.2-.3.1.1.2c-1.5 0-1.3-.3-2.7 0-1-.5.5-1.3-.7-1.3l.2-.2-.3-.1c.4-.2.5-.5 1-.7-.2-.4-.6 0-1.4-.1.4-.2-.3-.4-.3-.8-.9.2-1.7-.5-1.4-1h.1l-.4.2c-.6.2.2.6-1 .6-.5-.3-.3-.6.3-.8h.2l-.2-.2-.2.2c-1.2-.4-.9.6-1.2.9-.5 0-.9 0-.7-.3-.7 0-.7.6-1.7.5-.2-.4.4-.6.4-1-.8-.6-3.2-.3-3.7 0h-.3l-.1.3.3-.1c.5.4 2.4 0 2.2.8l-1.7-.1c-.4 0 0 .4-.4.5h1.2c-.2.6.7.8 1.4 1.2-.1.2-1.3 0-1.4 0 0 .5.2.7-.7.7 1 .1.4 1.2-.3 1.4a1 1 0 0 1-.6-.5c-.7 0-.7.2-1.2.1.1.4-1.8.5-2.2 1-1.7-.4-1-2.1.4-2.3-1-.8-.3-1.4-2.3-1.7v-.2h.3l-.3-.2c-.6 0-.7-.6-1.5-.7-.5 0-1 .4-1 .7h-.5l-.2.2c-.7 0-.7-.2-1.2-.1.3-.6-.8-.6-1.2-.8-.2.3.7.5.7.3.6.2-1 .7-1.5.3-.5.5-.9 1.3-1 1.7h-.7.2H941.8c-.2.8.6.8.4 1.2.5 0 .5-.4.8-.5 1.1 0 .7.7 2.2.6l.1.2.1-.2c.7.2 0 .5.7.8v.2l.1.1h-.2c.1.4-.4.6-.7.8h-1.2l-.2-.4.6.1c.2-.2 0-.4-.2-.5-.6.4-1.3.3-2.1.1V14h-.2c.2-.2.4-.3.7-.3 0 0-.4 0-.4-.2-.1.1-.5.4-1.8.4-.6-.3-.2-.5-.7-.8h.3l-.7-.3.1.2c-1 .1-1.7 0-1.8-.5l-.6.2c0 .7-.3 1.5.6 1.8 0 1.1-.3 2.2-3.1 1.8-1.7-.2-2.4-1.6-2.8-2.2-1 .2-2.7 0-3.3-.5.2-.2-.2-.7.3-.7a2 2 0 0 0-1.2-.4c.3-.7 1-1.2.4-2 .4 0 .4-.1.4-.3 1.3.3 1.4-.5 2.2-.8v-.1c-.5 0-.4-.3-.9-.2-.4.2-.4.4-.2.6-.4 0-.4 0-.4.2-1 0-1.2-.2-1.2-.5-.8 0-.7.4-1 .5 0 .2 1.2 0 1.4.2-.5.2-1 .5-1.7.4-.7.4-1.7 1-1.2 1.7h-.4c-.4.3-.4.5-.4 1l-1.2-.4c.2-.3.3-.4-.4-.5.7-.5 1.2-1.1 1.7-1.7-1.1 0-1.8.9-1.8 1.2-1.6-.1-.8 1-2 1.1-1.1 0-1-.4-1.3-.8l-1.1.3c-.4.2 1 1 .2 1l1.3.2c.2.4-.5.4-.6.6-.3-.3-.8-.4-1.5-.2l-.1.3.1-.2c.3 0 .4.1.4.3a4 4 0 0 1-1.7.5c.1-.6-.9-.5-1-1.2 0-.2-.8 0-1 0 .2-.5-.9-1-1.1-.6-.4-.2.1-.4-.3-.6-.4 0-.4.3-.8.1.3.7 1 1.1 1.9 1.2-.3.5 0 .5-.3.8.3.2 1.2.1 1.2.5l-.2.2h.4l-.1-.2c1.6.3 2.6.8 4.6 1-.3.5.8.9-.3 1.5-2.2 0-2.7-.7-4.7-.8l.1-.2-.2-.1c-.1-.5.5-.6.4-1-.6.1-1-.2-1.7 0-.2-.6-1-1-2.3-1.4 0-.3.8-.2 1-.4-.3-.2-1-.4-1-.8-.9 0-1.4.7-3.2.5-.2.3.2.4.6.5-1.2.1.2 1-.8 1.2l-1.1-.6c.5-.4.2-.7 0-1 .7.3.4-.3-.4-.3.6 0 1.1-.2 1.1-.6h.4v-.1h-.4l-.7-.2c-.2-.4.5 0 .7-.2-.2-.3-.2-.7-.2-1.1-.8 0-.8.4-1.7.4h-.5c-.8-.2 0-1-.8-1.2l.1-.2-.3-.1c.2-.8-.7-.6-1.7-.6.6-.5.3-1-.8-1.2.3-.1.2-.4.7-.4-1 0-2-.3-2.2-.9-.7.1-.7-.2-1.2 0 .1-.6-.4-.8.3-1h-.8l.2-.2h-1.1v.1c-.6.1-.7 0-1-.2-.2 0 0 .6.7.5-.1.7-.1 1.3-2.1 1.3 1-.7-.3-1.7-1.2-2.2h.1-.2c-.5-.4-1.7 0-2.2 0 .5-.4-.8-.9-.8-.9-.4-.2-.6-.7-1.5-.8 0-.2.7-.1.8-.2v-.7c-.1-.2-1.2 0-1.2-.3V2c-.2 0-.5 0-.7.2h.2c0 .3-.1 0-.4 0-.1.5-.6 0-1 .3.2.2 1.3 0 1.2.5-.7-.3-.3.3-.7.4 0 .2.8 0 .8.3l-1 .5.2.1c-1 .3-1.7 0-2.8 0v-.6h-.3c0 .3-.6.5-.8.8.2.4 1 .8 2 .6.3.1 0 .4.5.4-.2.2-.4 0-.7 0 .3.2.7.5 1 .3V6h.3c.3 0 .4.1.4.3-1 .5-2.9-.4-4.2 0 0-.4-.3-.6-.8-.6s-.4 1 .4.8l-.8.4c-.8-.4-1.3 0-2.2.1-1-.8 0-1.6 1-2-1-.4-2-.7-2-1.5-.6-.1-.4.2-.7.3l.7.2c-1.2.3-.8.5-1 1.2l-.2.2h.2c.4 0 .7 0 .8-.3h1l-1.8.1c0 .3-.4.4-.4.7l.6.1h-.8l.1.1c-.5.5-.9 1.1-1.7 1.4h-2l-.2.1a5 5 0 0 1-2.9-1c-.3 0-.5 1 .3.8l-.7.6c-.8.1-1-.2-1.2-.3 1.2-.4.3-1.3-.6-1.6-.8.1 0 .2-.3.6-.5.3-2.5 1-2.7.4-.8 0 0 .2-.4.3-.7 0-.4-.7-.8-.9h.4-.2l-.2-.4v.1c-.8 0-1 .1-1.7.3.5-.4-.3 0-1-.2-.2-.3-.2-.7 0-.9-.6 0-1 .1-1.1.2l-.3.1.2.2h-.8c.1-1.3-3-1-3.3-1.8-1 0-2.8 0-2.9-.3-.3 0-.1.2-.4.2-.2.3.5.3.4.5.8.1.7-.2 1.5-.2.6.6 0 1-1.2 1.1V6c.2-.6 1.7-1 3.1-.7l-.1.1.1.2-.6.2c.2.2 1.1.3.6.5.5 0 .4-.2.8 0v.4c-1.4.1-2.1-.2-3.1-.3-.7.2 0 .6.4.6l-.2.2h.7-.3c.1.6 1.6.6 2.1 1.1l-.4.1-.2.1c-1-.1-1.6-.2-2.1-.5-.8.3-2 .1-2.8.2h-.5V8c-.4.1-.7-.3-.7.1-.1-.4 0-1-.2-1.4 0-.2-.7 0-.8-.2-.7.4-1.3.4-2.1.6-.7 0 .4-.4-.3-.6-.8.4-.4.7-.4 1.4h-.2c.2.1.1.3-.3.5h.3c.5.4 1.4.6 1.1 1.3-.7 0-.3.2-.6.4-.8-.1-.1-.3-.4-.6-.1 0-1 .2-.8-.1l.1-.1h-.2c-.2-.1.1-.1.4-.1 0-.3-1.2-.6-.8-.8h.4l-.3-.2-.2-.2v.2c-.7 0-.6-.4-1.2-.3.1-.7 1.8-.6 1.8-1-.8 0-1.3.3-2 .5-.7 0-1.1-.6-1.3-1.2.4 0 .7-.4 1-.2.3-.8.7-1.5-1.4-1.5-.4-.3-1-.6 0-.7-.2-.3-.9-.4-1.4-.6.1-.2.3 0 .8-.1-.3-.1-.1-.2 0-.3-.5-.2-.7-.5-1.5-.5-.3 0 .3.4-.7.3l.7.5c-1.4 0 0 .9-1.8.8.1-.3-.3-.4-.3-.6-1 .2.3.7.4 1l.4-.3c.8 0 0 .2 0 .5.2.3 1.3.1 1 .7.7-.3 2-.3 2.8-.5.2.1.3.3.8.3-.4.3.3.4-.2.7-.7 0-1-.2-1.5-.4-.5.1-.4.4-1.2.3 0 .2.2.2.3.3h-.3l-.2.1h-.4c1 .3.5 1.3 2.2 1.2.1.6 1.2.7 1.5 1.2-.3-.1-.4-.1-.4.1-.8 0-.7-.4-1.7-.3-.3-.7-1.9-.7-2.5-1.2-.3.1-.4.2-.4.4h-.6c-.5.1-.9-.5-1.1-.2-.3-.2-.6-.4-.7-.7h.1c-.2 0-.3-.2-.5-.3l.2.2c-.6 0-.7-.2-1.1-.2 0 0 0-.3.3-.3-.2-.2-.7-.2-1.2-.2h-.5c-.7-.3-.8 0-1.5.1-.1.2 1 0 .7.3l-1.2-.2V6h-1c-.2.3.3.2.6.3.1.2-.4.2-.3.5h-.5c-.6.1-.2-.4-1-.3-.2.1 0 .3-.3.6l.3.1-.2.2.3.1c0 .2-.3.2-.3.4-.5 0-1-.2-1.4-.3h.3-2.1l-.2-.3c-1.7.2-2.7-.4-3.9-.7l.1-.2-.5.1-.3.1h.3l-.4.1c.3.4.7.5 1.2.5-.4.2.3.9-.8.9.3.1.8.3.4.4-.4 0-.8 0-.8-.2l-.1.1-.4-.2.1-.1h-.8l-.5-.2-.1.2c-.1.2-1 0-1.5.1.6-.2.4-.6.4-1h.8c-.1-.3-.2 0-.8 0 .2-.4-.2-.4-.2-.6-.6 0-.3 0-.3-.2h.4l-.3-.3.2.1-.8.5c.8 0 .5.3 1 .3 0 .3-1.3.3-1.1 0h.2l-.5-.3-.3.2c-.5 0-1.3-.5-1.1 0-.6-.2-.3-.4-.3-.6L812 6c.9-.3-2-.7-2.1-.9-.4 0 .2.3-.3.4-.7 0-.4-.3-1.4-.3 0 .4.5 1 .2 1.3-.9.1-1.4-.9-2.5-1l-.9.1h.3c-.5.2.4.3.2.7-1.3 0-2.8-.7-4.7-.8-.2.2.8.3.8.3.1 0 .1.3.3.3.5.2 1.5.2 2.5.3l-.4.1c.4.3 1 .4 1.7.6.2 1.5 3.4 1.2 5 1.8.3.2.2.4 0 .6.7-.1.7-.4 1.5-.5l.8.2c1 0 2.8 0 2.9.6 2-.1 2.7.4 4 .5-.6.9 1.8.4 1.6 1 1.2 0 1.6.5 2.3 0 0 .5 1.4.5 2.2.5 0 .2-.1.2-.3.3 1 .2 1.2-.3 1.7.2h-.2v.2H826c.3.2.9.4.7 1-2.6.2-6 .3-8.5.3h.3l-.3-.2c.3-.3 1.2-.2 1-.7h.3c-.8-.3-1.3-.4-1.8-.8h-.1c-1.3-.2-2.5 0-3.6-.3.2-1-1.4-1.1-2.5-1.5.2-.1.6-.1.4-.3-.4-.1-.8.3-.5.3-1 0-3.3-.8-3-1.1-.5.2-2-.1-2.9 0l.3.3h-.7c-.4-.1-1.3-.3-1.7-.6l.3-.2c-1-.6-2.3-1-3.6-1.6h-.4c-.9-.7-3.2-.2-4.1-.7-.6.4 1.1.5 1.4 1h-.4c.8.5 2.1.7 3.5.7v.2l.2-.1c-.2.5.1.5-.4.8.9.4 2 .7 3.3.9l-2.3 1-1.2-.2c0-.3.3-.4.4-.6-.2-.3-1.3-.3-1.4-.7-.3 0-.5 0-.8.2.1 0 .5-.1.4.4h-1V10l-.2-.1c-2.3-.4-5-.7-5.7-1.8h.2l-.8-.3.2.2c-.8.1-.8-.2-1.5-.2 0-.2.2-.3.7-.3-.3 0-.5-.2-.7-.4-.6 0-.6.2-1.2.1l.3.2h-.3v.1c0 .6-.9.5-1.7.2 0-.2.7 0 .7-.3-.4 0-1.3.4-1.7.6l.8.2c-.3.4-2 .6-2.8.3-.6.1.3.2 0 .4-1.3.6-2.5-.2-3.9 0-.3-.1-.1-.5-.7-.5.2-.2.3.1.7-.1-.4 0-.7-.3-1.2-.3-.2-.3.7-.6 0-.7h.2-.3V7h-.1c-.7.3-1 .8-2.3.8-.2.1.6.4 0 .7l-.2.1.1.2-1-.1c0-.2.5-.5 0-.6l-.2.1.3-.1h-.1c-.2-.1 0-.2 0-.3-.8.3-1.6.6-2.5.7-.4-.6 2-.9 1.7-1.6.8 0 1.5-.4 2.3-.5l-1.3-.3c-.4.1-.8.3-.9.6-.7 0-.7-.3-1-.4-1.4.5-.6 2-3.2 2.2v-.7c-1 0-.8.4-.7.7-.7 0-.5.5-1 .6l-.3-.2c0 .2-.5.3-.7.4h.3c0 .4-.5 0-.7.3 1.3.6 2.3 1.4 4.2 1.7-1 .6-1.9-.3-3.2-.1-.5.3-1.2.5-1.4.9 0 .2.5-.1.8 0-1 .3-.2 1-1 1.4-1.1 0-.5-1.2-.8-2 .7-.1.2-.7 1.1-.6-.3-.2-1-.2-1.2-.3 0-.1.8-.4.3-.5l.1-.1h-.3c-.2-.5-1.3-.7-1.1-1.4-1.2 0-1.3-.6-2.5-.6.9-.8-.1-1.8-.8-2.7-.8 0-.8.2-1.2.3.4.2.3 1.2.8 1.1.5 0-.3.2 0 .4-1.4 0-1.8.5-2.9.7.3.5-.2.6.4 1 .4-.2.3-.7.7-.9h.8c-.2.4.5.3 1.7.3 0 .7-1.2.7-1.4 1.2l.8-.1h-.1l.1.2-.1.2 1.4-.1c-.5.6-.9 1.2-1.8 1.6-1-.1 0-.6 0-1l-.4-.1c-.2 0-.5 0-.6.2-.7-.4-2-.1-3.2 0 .5.2 1 .4.7.7.4.3.9 0 1.4.3-.3 0-.3.4-.6.5.4.3 1.3 1.3-.3 1.3.3.4 1.3.1 1.7 0h-.3l.3-.2c.3.1.5.4.3.5 1.7.7 2.8 1.6 5 2v.7c-1 .1-1.8 0-2.2-.3.2 0 .3-.2.7-.2-2-.2-2.8-.9-4-1.5-1 .1-1.4.7-1.1 1.3.1.3.9.3.4.5H757.8l-.4.1h.3c1 1.4-1.2 2.2-2.5 2.8l-.4-.1.1-.2c-.4.2-.7.2-1 .2h.3c-.2.3-.8.3-1.1.4l-.1-.1h-.3c-.1-.6-.5-1.1-2-1-.2-.2-.7-.2-.3-.4h.2l-.1-.1c.8 0 .9-.2 1.7-.1-.1-.2 0-.5-.7-.5.3-.4.8-.8.8-1.4.5-.2 1.2-.3 1.5-.6 1 .1 1.4.4 1.8.8 0-.5 1-1.5.3-1.7.3-.2 1-.2.6-.6-.1 0-.8.1-.6-.4-.8 0-.6.5-1.7.4-.2-.5.3-.6 0-.9.5 0 2-.4 1.8.1.5 0 .6 0 .6-.3l-.7-.2-1.9.3-.2-.1h-.3c-.4-.3-.3-1-1-1.1 0-.4.7-.5 1.4-.6-.3-.4-1 .2-1.8 0-.3 0-.7-.2-.8-.4-1 .3-1.3.7-2.1 1l-.3-.1h-.4v-.6c-.5.2-.1.9-1.4.7.4-.5.8-1.1-.7-1.3-.9 0-1.2.4-1.4.8-1.5-.3-1.2.4-2.8.3 0-.6 1-.8 2.1-1-1-.2-1.4-.5-2.5-.2 0 .4-.9.6-.2 1-1.3.2.4 1.2-.4 1.7.8.4.1 1.3-1.2 1.4-.8.5-1 1.2-2.2 1.4.4.4.8.7.8 1.3-2.4.5-2.3-.3-2.8-1.2-.8 0-1 .4-1.4.2h.1-1 .6c-.6-.4-1-.9-.8-1.6 1.3.2 2-1 1.9-1.4.6-.4 1.7-.1 2.4-.2.3-.5 1.4-1.6.3-1.8.3-.2.7-.5 1.2-.3.1-.3-.3-.4-.4-.6-.4 0-.4.3-1 .2 0-.3.5-.7-.5-1-1.1 0-.3.6-1 .8-.5-.2-1.6-.1-1.8 0-.2.4.5.4.6.6l.7-.3c.5 0 1.4.3.8.6 0 .2.5-.1 1 0-.6.8-3.8.5-4.3 1.4h-1.5v.5c-.9 0-.6-.4-1.7-.3l.2-.2-.3-.1.3-.1c-1-.1-.4-.8-1.9-.8v-.1h-.5l-.1.2h-.3V11l-.8-.1h.2c-1.3.4-1.3 1.3-3.2 1.3l.2-.1-.7.2h.3c.5.3 1.3-.1 1.7.2 0 .3-.6.4-.8.5-.7.1-.4-.3-1-.2-.6.2-.2.4-.3.8-.6 0-1 0-.8-.3a8 8 0 0 1-3.7.8c-1.2 0-1.2-.8-2.2-.8.6-.4 2 0 2.7-.5 0-.6-.4-.8-1.7-1 .3-.7-.2-1 0-1.3-.1-.2-.2 0-.6-.1-.2-.3.5-.2.4-.5-1.9-.4-.3 1.2-2.1 1.3-.2.3.4.4 0 .6h-.4c-.7 0-.4-.5-1.5-.4v.7c.3.3-.7.3-1 .5-.1.1.1.3 0 .4l-.8.1c-.1.1 0 .3-.3.4-.3.1-1.1 0-1 .3l-2.9-.4c-.8-.8.1-1 .3-1.6.5 0 .4-.2.8 0 0-.4-.4-.6-.8-1-1 .4-1.3 1-2.3 1.5h-2c0-.2 0-.2.2-.3-.4 0-.6 0-.6.2-.4-.1-.7-.2-.7-.5-1.3 0-1 .2-1.2.6h-1.7l.2-.1h-.6c-.2.2-.5.3-.8.3h.2c.1.1.4.3.4.1-.2.5.9.8 0 1.1.5.3 2 .2 2.2-.2l.3.1h-.2c0-.4.2-.5.7-.5l.4.7c-.3.1-.8.1-.8.3l.3.3c.3 0 .5 0 .6-.2.7.3-.1.4.3 1.1-.7-.3-.8.3-1.9.1.4.2 1 .2.8.7-.8.1-1 0-1.4-.2 0-.2.2-.3.4-.5h-2.3c-.4.2.2.3-.4.5-1-.2-1.4-.8-.7-1.3h.2s0-.3.2-.4h-.4c-.4-.8-.6-1.3-.7-2h.4l.1-.3h-.2c.1-.1-.3-.5.2-.5l.3.2c-.1-.2 0-.5.4-.6-.3-.2.1-.4.4-.4l-.3-.1c-1.2-.1-.5-1-1.7-1.1-.6.4-.5 1.2-1.4 1.5h-.3l-.1.2h.4c.4 0-.4.5.4.7 0 .3-.4.4-.7.6-.8-.4-1-.3-2-.3.3-.8-1.3-1-2.2-.7 0 .3-.1.6.3.7.5 0 .8-.2 1.4-.1.5.5 1 .5 2.5.5l-.1.1.2.1c0 .3 0 .6.7.5.1.5.4 1-.3 1.3-.5 0-1.1 0-1.4-.2-.1.3-2 .4-2.2.3-1 0 .2-.3-.7-.3-.9 0-.9.4-1.2.7-.4.1-.8-.2-.8-.3l-.5.1s.5-.5-.4-.3c.3.3.6.5.4 1 .5 0 .3-.3.7-.3.9 0 .6.6 1.2.8-1.4.1-2.1 1-2.1 1.8-.4 0-.8.3-1.7.2 0-.3-.3-.3-.4-.5h-.3l.1-.1.2-.1c.1-1.3-.6-1.4 0-2.5-.3-.2-.6-.2-1 0 0-.7.3-1.8 1.6-2 0-.3-1.3 0-1.2-.3h-.4l-.3.1c0 .4.2.8.6 1.1-.4.2-1.6 0-2.2.1.5-.3.2-.4-.8-.4 0 .2-.4.3-.4.7-.4-.2-.8.1-1 .2.3.6 1.4.4 2 .8-.2.2-1 .2-1.4.3 0 .6-.6 1.2.7 1.5-.7.1-.3.5-.4.8h-.4c-.2.8.8 1.8 1 2 .6 0-.1.4-.4.3-.2.5.7.4.7.7-.5-.3-.4.2-.7.2 0 .2.4.2.8.2 0 .1 0 .2-.2.2h-.4l-.7.1.8.3c-.3.4-.1 1.1-1.7 1 .1-.5-.4-.7-.7-.9-.5.1-.4.2-1 .1.5-.3-.4-.5-.8-.6-.1-.3.8 0 .8-.3-.8.2-1.6-.2-2.1-.7-.1-.2.4-.1.4-.3 0-.5-.8-.3-1.2-.4-.1-.3-.6-.7-.4-1 1 0 1.8.4 2.1 0h.5c.4.2.4.6.4 1 .2.2.8-.2 1.2-.2l-1-.2c.9-.3-.3-.5-.3-1l.8-.2c-.7-.2-.5-.3-.7-.8h.7c-.4-.9-.1-1.2-.8-2.2-1-.2-.8.3-1.4.3.2-.4-.7-.3-.7-.6 1.3.1 1.7-.6 2.8-.3 0 0 0-.2.2-.2-1.2-.3-1.7.4-3.3.2.6-.3 0-.6-.2-.9-.8.5-.7 1.1-.8 1.7-.3.7-.8 1.3-.7 2.6.2 0 .3.3.4.4-.5.4-.1 1.3-1.8 1 .4-.1-.1-.1-.3-.3-.1-.2.4-.1.4-.3l-.4-.6c-2 .2-1.3 1-.6 1.7h-.7c-.1 0 0 .6-.6.8 0 .3.8 0 .6.4-.8.2-1.8 0-1.8-.4-1.8.2-3.5-.7-2.5-1.2-.7-.3-1.2-.2-2.1-.3-.1-.5 1.2-.1.7-.4v-.1l.2-.2 1-.5c-.2 0 0-.1-.2-.2-1.4.3-.3-.3-1-.3-.3 0 .2.8-.3 1l-.1.2c-.3.3-.4 0-1 0 0 .3.2.4.4.4-2.8.2-1-1-1.4-1.7l1.4-.1c0-.3-.6-.4-.4-.9 1-.2.8.4 1.8.3l-.2.2 1.2-.2.8.1.1-.1c-.1-.1-.1-.3-.4-.3h.2v-.3h.3c-.3-.4-.5-.4-.6-.8-.3.1 0 .2-.3.4h-1.1v-.2l.2-.3c-.3 0-.1-.3.4-.3l-.6-.2c.2-.7.6-.3 1.1-.9h-.8c.2-.4 1-.2.8-.7-.4-.2-1.1 0-1-.4-1.3 0-2.8.1-3.3.6-1.2 0-1-1.1-.3-1.3 0-.4-.5-.5-1.4-.5-.3-.1.5-.8.8-1 .1 0 .3.3.4.2.9-.5 1.8-1 1.4-2-1.3.2-1.7.7-3.5.9-.3 0-.1.2-.3.3l-.6-.1c-.3 0-.3.2 0 .2-.3.3-1 .2-1.2 0 .4.2-.1.3 0 .6-1.8-.3-.7.8-.7 1.3.7 0 .6-.3 1.2-.2l.3.3-.3-.1h-.1v.4c-.1 0-.3.2-.7.2-.1.2.2.2.4.2 0 .2-.8.1-1 .2l.4.2-.3.1.1.1h-1.1l-.2-.4v.3h-1c.1-.2.2-.5.1-.8h.3l-.2-.2c.2 0 .3 0 .3-.2l.1.2.2-.1c-.2-.2-.4-.4-.4-.8-.3 0-.6.7-1.2.5v.3l-.4-.1.1-.2-.2-.1v-.1c.4-.2.5-.5 1-.7-.1-.2-.4-.2-.6-.1h-.2l-.2-.3c0-.4.1 0 .2-.2.4-.1.4-.5.4-1-.2 0-.2.5-.5.5H653.1c-.2-.2 0-.9-.2-1.2v-.2h-.2c0-.8-.2-.6-.5-.6.1-.5.1-1-.2-1.2 0 0 0-.4.2-.4-.4 0-.6-.3-.8-.9-.2.1-.2-.2-.4 0 0-.6 0-.8.2-1h-.3l.1-.1-.4-.1c-.2.2-.2 0-.3-.1-.2 0 0 .5.2.4 0 .7 0 1.3-.6 1.3.4-.7-.2-1.6-.4-2.1v-.2h-.2c-.1-.3-.5 0-.8 0 .2-.3-.2-.8-.2-.8-.1-.3-.1-.8-.5-1l.2-.1V.6c-.1-.2-.4 0-.4-.3V.1l-.2.2.1.1c0 .3 0 0-.1 0 0 .5-.3 0-.4.3.1.2.5 0 .4.5-.3-.3-.2.3-.3.4 0 .2.3 0 .3.3V2c-.3.4-.7 0-1 0v-.6l-.3.9c0 .4.4.8.6.6l.1.4c0 .2 0 0-.2 0 .1.2.2.5.4.3h.1l.1.4c-.4.4-.9-.4-1.4-.1 0-.3-.1-.5-.3-.5-.1 0-.1.8.2.7-.2.1-.2.3-.3.4-.3-.4-.5 0-.8.1-.4-.7 0-1.5.4-2-.4-.3-.6-.7-.6-1.5-.2-.1-.2.2-.3.3 0 0 .1.2.3.2-.4.3-.3.6-.4 1.3.2 0 .4 0 .4-.2h.3l-.6.3-.1.7h-.2c-.1.5-.2 1.1-.5 1.4h-.5l-.1.1h-.2c-.5 0-.8-.6-1-1-.2 0-.2 1 .1.8l-.3.6c-.2.1-.2-.2-.3-.3.3-.4 0-1.2-.3-1.5-.3 0 0 .2-.1.5-.3.3-.8 1-1 .4-.2 0 0 .2 0 .3-.4 0-.2-.7-.4-.9h.2l-.2-.3V4l-.5.2c.2-.3-.1 0-.4-.1v-1l-.4.3h-.1v.2l-.3-.1c0-1.2-.9-1-1.1-1.8-.4 0-1 0-1-.3-.2 0 0 .2-.2.2-.1.4.1.3.1.6.3 0 .3-.3.5-.2.3.6 0 1-.4 1v.7c.2-.6.6-1 1.1-.7v.3s-.1.2-.3.2c.2.2.4.2.3.5.1 0 .1-.2.3 0v.3c-.6.1-.7-.2-1-.2-.4.1 0 .5 0 .5v.1h.3-.1c0 .7.5.7.6 1.2l-.1.1-.1.1c-.3 0-.6-.2-.7-.5-.3.3-.6.1-1 .2h-.2c-.1 0-.2-.4-.2 0 0-.4 0-1-.2-1.4 0-.2-.2 0-.2-.2-.3.4-.4.4-.7.6-.2 0 .1-.4-.1-.6-.3.4-.1.7-.1 1.4v.1c0 .2 0 .4-.2.6h.2c0 .4.5.6.4 1.3-.3.1-.2.2-.3.4-.3-.1 0-.3-.1-.6 0 .1-.4.2-.3 0v-.2l-.1.1.1-.2c0-.3-.4-.6-.3-.8h.2s-.2 0-.2-.2l-.1-.2v.1c-.3 0-.1-.4-.4-.3 0-.7.7-.6.7-1-.3 0-.4.3-.7.5-.1 0-.3-.6-.3-1.1.2-.1.3-.4.4-.2.2-.8.3-1.5-.5-1.5-.1-.3-.4-.7 0-.8-.1-.3-.2-.4-.5-.6 0-.2.1 0 .3-.1-.2-.1 0-.2 0-.3-.2-.2-.3-.5-.6-.5-.1.1.2.4-.2.3l.2.5c-.5 0 0 .9-.6.8l-.2-.6c-.3.2.2.7.2 1l.1-.3c.3 0 0 .3 0 .6s.5 0 .4.7c.3-.3.7-.3 1-.5 0 0 0 .3.2.3-.2.3.1.4-.2.7a1 1 0 0 1-.5-.4c-.1 0-.1.4-.4.3 0 .2.2.2.2.3h-.4c.4.3.1 1.2.8 1.1 0 .6.3.7.5 1.2l-.2.1c-.2 0-.2-.4-.5-.3-.1-.7-.6-.7-.8-1.2v.4h-.4c0 .1-.3-.5-.3-.2-.2-.2-.2-.4-.3-.7L629 4v.1c0 .1 0 0-.1 0l.1-.3c-.1-.2-.2-.2-.4-.2l-.1-.1h-.1c-.3-.2-.3 0-.6.2 0 .2.3-.1.3.3L628 4v.2h-.4c0 .2.1.1.2.2V5h-.2l.1.1.3.2h.2c0 .3.3.4.4 1l-.1.2c-.3-.2-.3-.5-.5-.6v-.3l-.7.1-.1.4-.5-.3h.1-.7l-1.3.1-.2.3v.1h-.2c.2.1.3.3.2.4-.2 0-.3 0-.3-.2v.1l-.1-.2v-.2h-.3l-.1-.2V6c0 .2-.4 0-.5.1v-.3l-1.6.1v.5l.1.1-.1.1c.8 0 1.7-.2 2.5.2 1 .1.6-.4 1.4-.4.2.7 2.1 1.1 2.5 1.7 0 .2 0 .4-.4.6-.9-.3-1.2-1-2.7-.8v-.4a4.5 4.5 0 0 0-3 0c.3 0 .9 0 .9.5.6 0 .9.4 1.3.5-.2.9.6.4.5 1 .4 0 .5.5.8 0 0 .5.5.5.8.5 0 .2-.2.2-.2.3.4.2.4-.3.6.2h-.2v.3l-.5-.1c.1.3.3.5.3 1-1 .3-2.1.4-3 .4l.2-.1-.1-.1c.1-.3.4-.2.4-.7h.1l-.6-.8v.2c-.4-.3-1-.2-1.2-.4 0-1-.5-1.1-.8-1.5l.1-.3c-.1-.1-.2.3-.1.3-.3 0-.7-.3-1-.6l-1 .4v.3-.3l-1.1.3c-.2 0-.3.3-.4.5-.3 0-.3-.1-.4-.2l.1-.6-.1-.1a2 2 0 0 1-1.2.4h-.3V8c-1-.1-.8.4-.6.7-.8 0-.6.5-1 .6l-.3-.1c0 .4.2.6.4.8h-.2c0 .2.2.2.3.2v.3c-.1 0-.3 0-.3-.3V10l-.2.3v.3s.2 0 .2.2h-.2c-.6.4-1.5 1-1.4 1.6v.1h-.2l-.1.1c-.3.2-.4.5-.4 1l-.4-.2v-.3c-.2 0-.4 0-.6.2 0 0-.2 0-.3-.2 0-.2 0-.3-.3-.4v-.3l1-.8s0 .3.2.4c.5-.1.1-.6.9-.6l-1-.2.2-.2h-.5c.1 0 .8-.2.1-.4l.1-.1h-.2l-.2-.1-.2-.1v-.1c-.4-.3-1-.5-1-1.1-1.1 0-1.2-.6-2.4-.6.9-.8-.2-1.8-.8-2.7-.8 0-.8.2-1.2.3.4.2.3 1.2.8 1.1.5 0-.3.2 0 .4h-.4c0 .1 0 .3-.1.2v-.2c-1 .1-1.3.4-2 .6l-.3.3c0 .3 0 .4.3.8.4-.2.3-.7.7-.9h.8c-.2.4.5.3 1.7.3 0 .7-1.5.8-1.2 1.3h-.7c-.5 0-.2-.2-.6-.2h-.4l.1.6c-.4.5-.8.2-1-.3l-.6-.2h-.2l.1-.2c.1-.1.1-.2-.1-.4-.7.4-1 .9-1.7 1.2.5.3 2 .5 1.4 1 .4.3 1 0 1.4.3-.2 0-.2.4-.6.5.4.2 1.3 1.3-.3 1.3.3.4 1.3.1 1.7 0l.2.1h.2c.3 0 .5.3.3.4l.5.2-.8.1-.1.3h.1c.3 0 .4 0 .4.2l-.2.1h-.3c-.5 0-1 .1-1 .4 0-.6-1-.5-1.1-1.2 0-.2-.4 0-.7 0v-.4l-.2.1c-.1-.3-.8-.6-1-.3-.3 0-.2-.2-.2-.3.7 0 1.7-.5 1.7.1.5 0 .7 0 .7-.4l-.8-.2-1.5.3-.1-.2-.4.2h-.5c-.4-.4-.3-1-1-1.1 0-.4.7-.5 1.4-.6-.3-.4-1 .2-1.9 0-.2 0-.6-.2-.7-.4-1 .3-1.4.7-2.1 1l-.3-.1h-.4v-.6l-.3.2c-.5 0-.6.3-1 .4.4-.5.5-1-.8-1.1-.4 0-.5 0-.8.2-.1-.1-.1-.2-.4-.2l.2-.2-.3-.1c.1-.8-.8-.6-1.7-.6.5-.5.3-1-.8-1.2.3-.1.1-.4.7-.4-1-.1-2-.3-2.3-.9-.6.1-.6-.2-1.1 0 0-.6-.4-.8.2-1h-.8l.3-.2h-1.2l.1.1c-.6.1-.7 0-1-.2-.3 0 0 .6.7.5-.2.7-.2 1.3-2.1 1.3 1-.7-.3-1.7-1.2-2.2h.1-.3c-.5-.4-1.7 0-2.2 0 .5-.4-.8-.9-.8-.9-.4-.3-.4-.7-1.4-.8 0-.2.6-.1.8-.2v-.7c-.1-.2-1.2 0-1.2-.3l-.1-.2c-.2 0-.4 0-.7.2h.3c0 .4-.2.2-.4.2-.1.4-.7 0-1 .2.2.2 1.2 0 1.1.5-.6-.3-.2.3-.6.4 0 .1.7 0 .7.2v.2c-.9.3-1.7 0-2.7 0V4h-.4c.1.2-.5.5-.8.8.3.4 1 .8 2.1.6.3.1 0 .4.4.4-.1.2-.4 0-.6 0 .2.2.6.5 1 .3v.1h.3c.2 0 .4.1.4.3-1.1.5-3-.4-4.2 0 0-.4-.3-.6-.8-.6s-.4 1 .4.8l-.8.4c-.8-.4-1.3 0-2.2.1-1-.8 0-1.6 1-2-1-.4-2-.8-2-1.5-.6-.1-.5.2-.7.3l.6.2c-1.2.2-.8.5-1 1.2l-.2.1h.3c.4 0 .6 0 .8-.3h1l-1.7.3c0 .3-.4.4-.4.7l.6.1h-.8l.1.1c-.5.5-1 1.1-1.7 1.4h-2l-.2.1a5 5 0 0 1-3-1c-.2 0-.4 1 .3.8l-.6.6c-.8.1-1-.2-1.2-.3 1.2-.4.3-1.3-.6-1.6-.8.1 0 .2-.3.6-.5.3-2.5 1-2.8.4-.7 0 .2.2-.4.3-.6 0-.3-.7-.7-.9h.4-.2l-.2-.4v.2c-.8 0-1 .1-1.7.3.5-.4-.3 0-1-.2-.2-.3-.2-.7 0-.9-.6 0-1 .1-1.1.2l-.3.1.1.1h-.8c.2-1.3-2.8-1-3.2-1.9-1 .1-2.8.1-3-.2l-.3.1c-.3.4.5.3.4.6.8.1.6-.3 1.4-.2.7.6.2 1-1.1 1.1v.6c.2-.6 1.7-1 3.1-.7l-1-.5.2.2-.6.2c.2.2 1.1.2.6.5.5 0 .4-.2.8 0v.4c-1.4.1-2.1-.2-3.1-.3-.7.2 0 .6.3.6v.1h.7-.3c.2.6 1.6.6 2.1 1.1l-.4.1-.2.1c-1-.1-1.6-.2-2.1-.5-.8.3-2 .1-2.8.2h-.5c-.4 0-.6-.4-.6 0-.2-.4 0-1-.3-1.4 0-.2-.7 0-.8-.2-.7.4-1.3.4-2 .6-.7 0 .3-.4-.4-.6-.7.4-.3.7-.3 1.4h-.3c.3.2.1.4-.3.6l.3-.1c.5.4 1.4.6 1.2 1.3-.8 0-.4.2-.7.4-.8-.1-.1-.3-.4-.6-.1 0-1 .2-.8-.1l.2-.1h-.3c-.1-.2.1-.2.4-.2 0-.3-1.2-.6-.8-.8h.4l-.3-.2-.2-.2v.2c-.7 0-.5-.4-1.2-.3.1-.7 1.8-.6 1.8-1-.8 0-1.3.3-2 .5-.7 0-1.1-.6-1.2-1.2.4 0 .6-.4 1-.2.3-.8.7-1.4-1.4-1.4-.4-.3-1-.7 0-.8-.3-.3-1-.4-1.5-.6l.8-.1c-.3-.1-.1-.2 0-.3-.5-.2-.6-.5-1.4-.5-.4 0 .2.4-.8.3l.8.5c-1.5 0 0 .9-1.9.8.2-.3-.2-.4-.2-.6-1 .2.2.7.4 1l.4-.3c.7 0 0 .3 0 .6 0 .2 1.3 0 1 .6.7-.3 1.8-.3 2.8-.5 0 .1.2.3.7.3-.2.3.3.4-.2.7-.7 0-1-.2-1.5-.4-.5.1-.4.4-1.1.3 0 .2 0 .2.2.3l-.4.1H526.2c1 .3.5 1.3 2.2 1.2.1.6 1.2.7 1.4 1.2l-.3.1c-.8 0-.7-.4-1.8-.3-.2-.7-1.8-.7-2.4-1.2-.3.1-.4.2-.4.4h-.6c-.5.1-.9-.5-1.1-.2-.3-.2-.6-.4-.7-.7h.1l-.6-.3.1.2-1-.2s0-.3.2-.3c-.1-.2-.6-.2-1.2-.2h-.5c-.6-.3-.8 0-1.4.1-.1.2.9 0 .6.3h-1.4c-.1.3.4.2.7.3 0 .2-.4.2-.3.5h-.5c-.7.1-.3-.4-1-.3-.2.1 0 .3-.3.6l.2.1-.1.2.3.1c0 .2-.3.2-.3.4l-1.5-.3h.3-2.1l-.1-.4c-1.7.2-2.8-.4-4-.7h.2-.5l-.3.1h.3l-.4.1c.2.4.6.5 1.1.5-.4.2.3 1-.7 1h-.3c.3 0 .8.2.4.3-.4 0-.8 0-.8-.2l-.1.1-.4-.2h.1-.8c-.1-.2-.4-.2-.5-.3l-.1.2c-.2.2-1 0-1.5.1.6-.2.4-.6.4-1h.8c-.1-.3-.3 0-.8 0 .2-.4-.2-.4-.2-.6-.6 0-.3 0-.3-.2h.4l-.5-.2.1.2-.8.5c.8 0 .5.3 1 .3 0 .3-1.3.3-1.1 0h.2l-.5-.3-.2.1c-.6 0-1.4-.5-1.2 0-.5-.2-.3-.4-.3-.6-.4 0-1.6-.4-2.2-.3.9-.3-2-.7-2.1-.9-.4 0 .3.3-.3.4-.6 0-.4-.3-1.4-.3 0 .4.5 1 .2 1.3-.9.1-1.4-.9-2.4-1h-1l.3.1c-.5.2.4.3.3.7-1.3 0-3-.7-4.8-.8-.2.2.8.3.8.3.2 0 .2.3.3.3.5.2 1.6.2 2.5.3l-.4.1c.4.3 1 .4 1.7.6.3 1.5 3.4 1.2 5.1 1.8.3.2.1.4 0 .6.7-.1.7-.4 1.4-.5l.8.2c1 0 2.8 0 3 .6 1 0 1.8 0 2.3.2v.2l-.7-.1c-.2 0-.2.2 0 .2-.2.3-.9.2-1.2 0 .4.2 0 .3 0 .6-1.7-.3-.7.6-.6 1.2l-1.7-.2c.1-1-1.5-1.1-2.5-1.5.1-.1.5-.1.4-.3-.4-.1-.8.3-.5.3l-1.2-.2c-.3-.2-.3-.4-.1-.6h-.4v.2h-.2l-.8-.2.3-.1h.3c-.2 0-.2-.1-.3-.2h-.1l-.6-.1h-3c.2 0 .3.2.3.3h-.1c-.4-.3-1-.4-1.7-.3l-.4-.2.2-.2c-.9-.6-2.2-1-3.5-1.6h-.4c-1-.8-3.3-.3-4.2-.8-.5.4 1.2.5 1.4 1h-.3c.7.5 2 .7 3.5.7l-.1.1h.2c-.1.5.2.5-.4.8l2 .6h-.3l-.1.2.3-.1c.2.2.9.2 1.4.3l-2 .9c-.7 0-.9-.1-1.3-.2-.1-.3.3-.4.4-.6-.2-.3-1.3-.3-1.4-.7-.3 0-.5 0-.8.2.1 0 .5-.1.4.4h-1v-.1l-.2-.1c-2.3-.4-5-.7-5.8-1.8h.3l-.8-.3.2.2c-.8.1-.8-.2-1.5-.2v.7l-.2 2.4.5-.1-.5 1v.2c-.2.2-.4.2-.7.2l.1-.1h-.8c0 .8.7.8.4 1.2.6 0 .6-.3.8-.5l-.1 1h.3c0 .1.2.1.2.3h-.5l-.1.6h-.6l.2-.3h-.3c.1-.2.4-.3.7-.3 0 0-.4 0-.4-.2-.2.1-.6.4-1.9.4-.5-.3-.1-.5-.6-.8h.2l-.6-.3.1.1c-1 .1-1.7 0-1.8-.5-.3.1-.3.2-.7.2.2.7-.2 1.5.7 1.8 0 1.1-.3 2.2-3.2 1.8-1.7-.2-2.3-1.6-2.7-2.2-1 .2-2.8 0-3.3-.5.1-.2-.3-.7.3-.7a2 2 0 0 0-1.2-.4c.3-.7 1-1.2.4-2 .4 0 .4-.1.4-.3 1.3.3 1.4-.5 2.2-.8v-.1c-.5 0-.4-.3-1-.2-.3.2-.3.4-.2.6-.4 0-.4 0-.4.2-.9 0-1.1-.2-1.1-.5-.8 0-.7.4-1.1.5.1.2 1.3 0 1.4.2-.5.2-.9.5-1.7.4-.6.4-1.7 1-1.1 1.7h-.4c-.3.3-.4.5-.4 1l-1.2-.4c.1-.3.3-.4-.4-.5.7-.5 1.2-1.1 1.7-1.7-1.2 0-1.8.9-1.8 1.2-1.6-.1-.8 1-2.1 1.1-1 0-1-.4-1.2-.8l-1.2.3c-.4.2 1 1 .3 1 .2.1.6.2 1.3.2.1.4-.5.4-.7.6-.2-.3-.8-.4-1.4-.2l-.1.3.1-.2c.3 0 .4.1.4.3a4 4 0 0 1-1.7.5c.1-.6-1-.5-1-1.2 0-.2-.8 0-1.1 0 .3-.5-.8-1-1-.6-.5-.2 0-.4-.3-.6-.4 0-.4.3-.8.1.3.7 1 1.1 1.8 1.2-.2.5.2.5-.2.8.2.2 1.1.1 1.1.5v.2h.3l-.1-.2c1.5.3 2.6.8 4.6 1-.3.5.7.9-.3 1.5-2.2 0-2.8-.7-4.7-.8l.1-.2-.3-.1c0-.5.6-.6.4-1-.5.1-.9-.2-1.7 0 0-.6-1-1-2.2-1.4 0-.3.8-.2 1-.4-.3-.2-1-.4-1-.8-.9 0-1.4.7-3.3.5 0 .3.3.4.7.5-1.2.1.1 1-.8 1.2l-1.2-.6c.6-.4.3-.7 0-1 .8.3.4-.3-.4-.3.7 0 1.2-.2 1.2-.6h.4l-.1-.1h-.3l-.8-.2c-.1-.4.6 0 .8-.2-.2-.3-.2-.7-.2-1.1-.8 0-.8.4-1.8.4h-.5c-.8-.2.2-1-.8-1.2l.2-.2-.3-.1c.1-.8-.8-.6-1.7-.6.5-.5.3-1-.8-1.2.3-.1.1-.4.7-.4-1 0-2-.3-2.3-.9-.6.1-.6-.2-1.1 0 .1-.6-.4-.8.2-1h-.8l.3-.2h-1.2l.2.1c-.7.1-.8 0-1-.2-.4 0 0 .6.6.5-.2.7-.2 1.3-2.1 1.3 1-.7-.3-1.7-1.2-2.2h.1-.2c-.6-.4-1.7 0-2.3 0 .6-.4-.8-.9-.8-.9-.3-.2-.5-.7-1.4-.8 0-.2.7-.1.8-.2v-.7c-.1-.2-1.2 0-1.2-.3h-1.7c-.1.2-.4.2-.6.3h.2c0 .3-.1 0-.4 0-.1.5-.6 0-1 .3.2.2 1.3 0 1.2.5-.7-.3-.3.3-.7.4 0 .2.8 0 .8.3l.1.2.1.1c-.9.3-1.7 0-2.7 0v-.6h-.4c.1.3-.5.5-.8.8.3.4 1 .8 2.1.6.3.1 0 .4.4.4-.1.2-.4 0-.7 0 .3.2.7.5 1 .3V6h.4c.2 0 .4.1.4.3-1.1.5-3-.4-4.2 0 0-.4-.3-.6-.8-.6-.6 0-.4 1 .4.8l-.8.4c-.8-.4-1.3 0-2.2.1-1.1-.8 0-1.6 1-2-1-.4-2-.7-2.1-1.5-.5-.1-.4.2-.7.3l.7.2c-1.2.3-.8.5-1 1.2l-.2.1h.3c.4 0 .6 0 .8-.3h1l-1.8.2c0 .3-.4.4-.4.7l.5.1h-.8l.2.1c-.6.5-1 1.1-1.7 1.4h-2l-.3.1a5 5 0 0 1-2.9-1c-.2 0-.5 1 .3.8l-.6.6c-.8.1-1-.2-1.2-.3 1.2-.4.2-1.3-.7-1.6-.8.1 0 .2-.2.6-.6.3-2.5 1-2.8.4-.8 0 .1.2-.4.3-.6 0-.4-.7-.8-.9h.4-.1l-.3-.4v.1c-.8 0-.9.1-1.7.3.5-.4-.2 0-1-.2-.2-.3-.2-.7 0-.9l-1 .2-.3.1.1.2h-.8c.1-1.3-2.9-1-3.3-1.8-1 0-2.7 0-2.8-.3-.3 0-.2.2-.4.2-.3.3.5.3.4.5.7.1.6-.2 1.4-.2.6.6.1 1-1.2 1.1V6c.3-.6 1.7-1 3.2-.7l-.2.1.2.2-.7.2c.3.2 1.2.3.7.5.5 0 .4-.2.7 0v.4c-1.4.1-2-.2-3.1-.3-.7.2 0 .6.4.6l-.1.2h.6-.2c0 .6 1.5.6 2 1.1l-.3.1-.3.1c-1-.1-1.6-.2-2.1-.5-.8.3-2 .1-2.7.2h-.6V8c-.4.1-.6-.3-.6.1-.2-.4 0-1-.3-1.4 0-.2-.6 0-.8-.2-.6.4-1.3.4-2 .6-.7 0 .3-.4-.3-.6-.8.4-.4.7-.4 1.4h-.4c.2.1.1.3-.3.5h.3c.5.4 1.4.6 1.2 1.3-.8 0-.4.2-.7.4-.8-.1-.1-.3-.4-.6-.1 0-1 .2-.8-.1l.2-.1h-.3c-.1-.1.1-.1.4-.1 0-.3-1.2-.6-.8-.8h.4l-.3-.2-.2-.2v.2c-.7 0-.6-.4-1.2-.3.1-.7 1.8-.6 1.8-1-.8 0-1.3.3-2 .5-.7 0-1.1-.6-1.3-1.2.4 0 .7-.4 1.1-.2.3-.8.7-1.5-1.4-1.5-.4-.3-1-.6 0-.7-.3-.3-1-.4-1.5-.6.1-.2.3 0 .8-.1-.3-.1-.1-.2 0-.3-.5-.2-.7-.5-1.4-.5-.4 0 .2.4-.8.3l.8.5c-1.5 0 0 .9-1.9.8.2-.3-.2-.4-.2-.6-1 .2.2.7.4 1l.3-.3c.8 0 0 .2 0 .5.2.3 1.4.1 1.1.7.7-.3 1.8-.3 2.7-.5.2.1.3.3.8.3-.2.3.3.4-.2.7-.7 0-1-.2-1.5-.4-.5.1-.4.4-1.1.3 0 .2 0 .2.2.3H371.8c1 .2.6 1.2 2.3 1.1 0 .6 1.1.7 1.4 1.2-.3-.1-.4-.1-.4.1-.8 0-.6-.4-1.7-.3-.3-.7-1.8-.7-2.5-1.2-.2.1-.4.2-.4.4h-.5c-.5.1-1-.5-1.2-.2-.2-.2-.5-.4-.6-.7h.1c-.3 0-.4-.2-.5-.3l.1.2-1-.2s0-.3.2-.3c-.1-.2-.6-.2-1.2-.2h-.5c-.6-.3-.8 0-1.4.1-.2.2.9 0 .6.3h-.2l-.2.1h-1c-.1.3.4.2.6.3.2.2-.4.2-.2.5h-.5c-.7.1-.3-.4-1-.3-.2.1 0 .3-.4.6l.3.1-.1.2.2.1-.2.4-1.5-.3h.3-2.1l-.1-.3c-1.7.2-2.8-.4-4-.7l.2-.2-.6.1-.2.1h.2l-.3.1c.2.4.6.5 1.1.5-.4.2.3.9-.8.9v.1l-.3-.1c.2.1.7.3.3.4-.3 0-.7 0-.7-.2l-.2.1-.4-.2.2-.1h-.8l-.5-.2-.2.2c-.1.2-1 0-1.4.1.5-.2.4-.6.4-1h.8c-.2-.3-.3 0-.8 0 .1-.4-.3-.4-.3-.6-.5 0-.2 0-.2-.2h.3l-.3-.3v.1l-.7.5c.8 0 .5.3 1 .3 0 .3-1.3.3-1.1 0h.2l-.5-.3-.3.1c-.5 0-1.3-.5-1.1 0-.6-.2-.3-.4-.3-.6L345 6c.9-.3-2-.7-2.1-.9-.4 0 .2.3-.3.4-.6 0-.4-.3-1.4-.3 0 .4.5 1 .2 1.3-.9.1-1.4-.9-2.5-1l-.9.1h.3c-.5.2.4.3.3.7-1.4 0-3-.7-4.8-.8-.2.2.8.3.8.3.2 0 .2.3.3.3.5.2 1.6.2 2.5.3l-.4.1c.4.3 1 .4 1.7.6.2 1.5 3.4 1.2 5.1 1.8.3.2.1.4 0 .6.7-.1.7-.4 1.4-.5l.8.2c1 0 2.8 0 3 .6 2-.1 2.7.4 3.8.5-.5.9 1.9.4 1.7 1 1.2 0 1.6.5 2.3 0 0 .5 1.4.5 2.2.5 0 .2-.1.2-.3.3 1 .2 1.2-.3 1.7.2h-.2l.1.3-1.4-.1c.4.2.9.4.8 1-2.7.2-6 .3-8.6.3h.3l-.3-.2c.3-.3 1.2-.2 1-.7h.3c-.7-.3-1.3-.4-1.8-.8h-.1c-1.3-.2-2.5 0-3.6-.3.2-1-1.4-1.1-2.4-1.5 0-.1.5-.1.3-.3-.3-.1-.7.3-.5.3-1 0-3.3-.8-3-1.1-.5.2-2-.1-2.9 0 .2 0 .3.2.3.3h-.7c-.4-.1-1.3-.3-1.7-.6l.3-.2c-1-.6-2.2-1-3.5-1.6h-.4c-1-.7-3.3-.2-4.2-.7-.6.4 1.1.5 1.4 1h-.4c.8.5 2.1.7 3.6.7l-.2.2.3-.1c-.1.5.1.5-.4.8 1 .4 2 .7 3.3.9l-2.3 1c-.6 0-.7-.1-1.1-.2-.2-.3.2-.4.4-.6-.3-.3-1.4-.3-1.5-.7-.3 0-.5 0-.8.2.2 0 .5-.1.4.4h-1l.1-.1-.3-.1c-2.3-.4-5-.7-5.7-1.8h.2l-.8-.2.2.2c-.8.1-.8-.2-1.5-.2 0-.2.2-.3.7-.3-.3 0-.5-.2-.7-.4-.6 0-.6.2-1.1.1l.2.2h-.4v.1c-.1.6-.9.5-1.7.2 0-.2.7 0 .7-.3-.4 0-1.3.4-1.7.6l.8.2c-.3.4-2 .6-2.8.3-.6.1.3.2 0 .4-1.3.6-2.5-.2-4 0-.2-.1 0-.5-.6-.5.2-.2.3.1.7-.1-.4 0-.7-.3-1.2-.3-.3-.3.7-.6 0-.7h.1-.2V7h-.2c-.6.3-.9.8-2.2.8-.2.1.5.4 0 .7l-.2.1v.2l-1-.1c0-.2.6-.5 0-.6l-.1.1.3-.1h-.2v-.3c-.8.3-1.5.6-2.5.7-.2-.6 2.1-.9 1.7-1.6.8 0 1.6-.4 2.4-.5l-1.3-.3c-.4.1-.8.3-1 .6-.6 0-.6-.3-1-.4-1.3.5-.5 2-3.1 2.2v-.7c-1 0-.8.4-.7.7-.8 0-.5.5-1 .6l-.3-.2c-.1.2-.5.3-.8.4h.4c0 .4-.5 0-.8.3 1.4.6 2.4 1.4 4.2 1.7-.9.6-1.8-.3-3.1-.1-.5.3-1.2.5-1.4.9 0 .2.5-.1.7 0-1 .3-.1 1-1 1.4-1 0-.4-1.2-.7-2 .7-.1.2-.7 1-.6-.2-.2-.8-.2-1.1-.3 0-.1.8-.4.3-.5V10h-.2c-.2-.5-1.3-.7-1.1-1.4-1.2 0-1.4-.6-2.5-.6.9-.8-.2-1.8-.8-2.7-.8 0-.8.2-1.2.3.4.2.3 1.2.8 1.1.5 0-.3.2 0 .4-1.5 0-1.9.5-2.9.7.3.5-.1.6.4 1 .4-.2.3-.7.6-.9h.8c0 .4.6.3 1.7.3 0 .7-1.1.7-1.3 1.2l.8-.1h-.1l.1.2-.1.2 1.4-.1c-.5.6-.9 1.2-1.8 1.6-1-.1 0-.6 0-1l-.4-.1c-.3 0-.5 0-.7.2-.6-.4-2-.1-3.1 0 .5.2 1 .4.7.7.3.3.9 0 1.4.3-.3 0-.3.4-.7.5.4.3 1.3 1.3-.2 1.3.2.4 1.3.1 1.7 0h.4c.2 0 .5.3.2.4 1.7.7 3 1.6 5.1 2v.7c-1 .1-1.8 0-2.2-.3.1 0 .3-.2.7-.2-2-.2-2.8-.9-4-1.5-1 .1-1.4.7-1.1 1.3.1.3.9.3.4.5H291l-.4.1h.3c1 1.4-1.2 2.2-2.5 2.8l-.4-.1.1-.2c-.4.2-.8.2-1 .2h.2c-.1.3-.8.3-1 .4l-.2-.1h-.2c-.1-.6-.5-1.1-2.1-1-.1-.2-.7-.2-.3-.4h.3l-.1-.1c.7 0 .9-.2 1.7-.1-.2-.2 0-.5-.7-.5.3-.4.8-.8.8-1.4.5-.2 1.2-.3 1.4-.6 1 .1 1.5.4 1.9.8 0-.5.9-1.5.2-1.7.4-.2 1-.2.7-.6-.1 0-.8.1-.7-.4-.8 0-.5.5-1.7.4-.1-.5.4-.6 0-.9.6 0 2-.4 1.9.1.5 0 .6 0 .6-.3l-.8-.2-1.8.3-.3-.1h-.2c-.4-.3-.3-1-1-1.1 0-.4.7-.5 1.4-.6-.3-.4-1 .2-1.9 0l-.8-.4c-.9.3-1.3.7-2 1l-.6-.2h-.4c.2-.3.2-.3 0-.6-.5.2-.1.9-1.4.7.4-.5.8-1.1-.7-1.3-.9 0-1.1.4-1.4.8-1.4-.3-1.2.4-2.8.3 0-.6 1-.8 2.1-1-1-.2-1.4-.5-2.5-.2 0 .4-.9.6-.2 1-1.3.2.4 1.2-.4 1.7.8.4.1 1.3-1.2 1.4-.8.5-.9 1.2-2.2 1.4.4.4.8.7.8 1.3-2.4.5-2.3-.3-2.8-1.2-.8 0-.9.4-1.4.2h.1-1 .6c-.6-.4-.9-.9-.8-1.6 1.3.2 2-1 1.9-1.4.6-.4 1.7-.1 2.5-.2.2-.5 1.3-1.6.2-1.8.3-.2.7-.5 1.2-.3.1-.3-.3-.4-.4-.6-.4 0-.4.3-1 .2 0-.3.5-.7-.4-1-1.2 0-.4.6-1 .8-.6-.2-1.7-.1-2 0 0 .4.6.4.7.6l.7-.3c.5 0 1.4.3.8.6 0 .2.5-.1 1 0-.6.8-3.8.5-4.3 1.4h-1.4v.5c-1 0-.7-.4-1.7-.3V12l-.2-.1.3-.1c-1-.1-.4-.8-1.8-.8v-.1h-.6l-.1.2h-.3V11l-.7-.1c-1.2.4-1.2 1.3-3 1.3V12l-.6.2h.3c.5.3 1.3-.1 1.7.2 0 .3-.5.4-.8.5-.7.1-.4-.3-1-.2-.6.2-.2.4-.3.8-.5 0-1 0-.8-.3a8 8 0 0 1-3.7.8c-1.2 0-1.2-.8-2.2-.8.7-.4 2.1 0 2.8-.5-.2-.6-.4-.8-1.8-1 .3-.7-.2-1 0-1.3 0-.2-.2 0-.6-.1-.1-.3.5-.2.4-.5-1.8-.4-.3 1.2-2.1 1.3-.1.3.4.4 0 .6h-.4c-.7 0-.4-.5-1.4-.4-.2 0-.2.4 0 .7.2.3-.8.3-1 .5-.2.1 0 .3 0 .4l-.9.1c-.1.1 0 .3-.2.4-.4.1-1.2 0-1 .3l-3-.4c-.8-.8.2-1 .3-1.6.5 0 .4-.2.8 0 0-.4-.4-.6-.8-1-1 .4-1.3 1-2.2 1.5H236c0-.2.1-.2.2-.3-.4 0-.6 0-.6.2-.4-.1-.7-.2-.7-.5-1.3 0-1 .2-1.2.6H232l.2-.1h-.6c-.2.2-.5.3-.7.3.2.1.5.3.5.1-.2.5.9.8 0 1.1.5.3 2 .2 2.2-.2l.3.1h-.2c0-.4.2-.5.7-.5.3.2.3.5.4.7-.3.1-.8.1-.8.3l.3.3c.4 0 .5 0 .6-.2.7.3-.1.4.3 1.1-.7-.3-.8.3-1.9.1.4.2 1 .2.8.7-.8.1-1 0-1.4-.2 0-.2.3-.3.4-.5h-2.2c-.4.2 0 .3-.4.5-1-.2-1.5-.8-.8-1.3h.2s0-.3.2-.4h-.4c-.4-.8-.5-1.3-.7-2h.4l.1-.3h-.2c.1-.1-.3-.5.2-.5l.3.2c-.1-.2 0-.5.4-.6-.3-.2.1-.4.4-.4l-.3-.1c-1.1-.1-.5-1-1.7-1.1-.6.4-.5 1.2-1.4 1.5h-.3l-.1.2h.4c.4 0-.4.5.4.7 0 .3-.4.4-.7.6-.8-.4-1-.3-2-.3.3-.8-1.2-1-2.2-.7 0 .3-.1.6.3.7.5 0 .8-.2 1.4-.1.6.5 1 .5 2.5.5l-.1.1.3.1c0 .3-.2.6.6.5.1.5.4 1-.2 1.3-.6 0-1.2 0-1.5-.2-.1.3-2 .4-2.2.3-1 0 .2-.3-.7-.3-.9 0-.9.4-1.2.7-.3.1-.7-.2-.7-.3l-.6.1s.6-.5-.4-.3c.3.3.6.5.4 1 .6 0 .3-.3.7-.3 1 0 .6.6 1.2.8-1.3.1-2.1 1-2.1 1.8-.4 0-.8.3-1.7.2.1-.3-.3-.3-.4-.5h-.3l.1-.1.2-.1c.1-1.3-.5-1.4 0-2.5-.3-.2-.5-.2-1 0 0-.7.3-1.8 1.6-2 0-.3-1.3 0-1.1-.3h-.4l-.4.1c.1.4.2.8.6 1.1-.4.2-1.5 0-2.2.1.5-.3.3-.4-.8-.4 0 .2-.4.3-.4.7-.4-.2-.8.1-1 .2.4.6 1.4.4 2 .8-.2.2-1 .2-1.4.3 0 .6-.6 1.2.7 1.5-.7.1-.3.5-.4.8h-.4c-.1.8.8 1.8 1 2 .6 0 0 .4-.4.3-.2.5.7.4.7.7-.5-.3-.4.2-.7.2 0 .2.4.2.8.2 0 .1 0 .2-.2.2h-.4l-.7.1.8.3c-.3.4-.1 1.1-1.7 1 .1-.5-.4-.7-.6-.9-.6.1-.4.2-1.1.1.5-.3-.4-.5-.8-.6-.1-.3.8 0 .8-.3-.8.2-1.6-.2-2-.7-.2-.2.3-.1.3-.3 0-.5-.8-.3-1.2-.4-.1-.3-.6-.7-.4-1 1 0 1.9.4 2.1 0h.5c.4.2.4.6.4 1 .2.2.8-.2 1.2-.2l-1-.2c.9-.3-.3-.5-.3-1l.8-.2c-.7-.2-.5-.3-.7-.8h.7c-.4-.9-.1-1.2-.8-2.2-1-.2-.8.3-1.4.3.2-.4-.7-.3-.7-.6 1.3.1 1.7-.6 2.8-.3 0 0 0-.2.2-.2-1.2-.3-1.7.4-3.2.2.5-.3-.2-.6-.3-.9-.8.5-.7 1.1-.8 1.7-.3.7-.8 1.3-.7 2.6.2 0 .3.3.4.4-.5.4 0 1.3-1.8 1 .4-.1-.1-.1-.3-.3 0-.2.4-.1.4-.3 0-.2-.2-.4-.4-.6-2 .2-1.3 1-.6 1.7h-.7s0 .6-.6.8c0 .3.8 0 .6.4-.8.2-1.8 0-1.8-.4-1.8.2-3.5-.7-2.5-1.2-.6-.3-1.2-.2-2-.3-.2-.5 1-.1.6-.4l.1-.1.1-.2 1-.5c-.2 0 0-.1-.2-.2-1.4.3-.2-.3-1-.3-.3 0 .2.8-.3 1l-.1.2h.1c-.4.3-.5 0-1 0 0 .3 0 .4.4.4-3 .2-1-1-1.5-1.7l1.5-.1c-.2-.3-.7-.4-.4-.9 1-.2.7.4 1.7.3l-.2.2 1.2-.2.8.1.1-.1c-.1-.1-.1-.3-.4-.3h.2l.1-.3h.3c-.4-.4-.6-.4-.7-.8-.3.1 0 .2-.3.4h-1.1v-.2l.2-.2c-.2 0-.1-.3.4-.3-.1 0-.2-.2-.6-.2.2-.7.6-.3 1.1-.9h-.7c0-.4 1-.2.7-.7-.3-.2-1.1 0-1-.5-1.3.1-2.8.2-3.3.7-1.2 0-1-1.1-.2-1.3 0-.4-.6-.5-1.5-.5-.2-.1.5-.8.8-1 .1 0 .3.3.4.2 1-.5 1.8-1 1.4-2-1.3.2-1.7.7-3.5.9-.3 0-.1.2-.3.3l-.6-.1c-.3 0-.3.2 0 .2-.3.3-1 .2-1.2 0 .4.2-.1.3 0 .6-1.8-.3-.7.8-.7 1.3.7 0 .6-.3 1.2-.2.2 0 .3.2.3.3l-.3-.1.2.2c-.3 0-.2.4-.8.4-.2.1.1.1.4.1 0 .3-.8.2-1 .3l.3.2.1.2c-1.5 0-1.3-.3-2.7 0-1-.5.5-1.3-.7-1.3l.2-.2-.3-.1c.4-.2.5-.5 1-.7-.2-.4-.6 0-1.4-.1.4-.2-.4-.4-.3-.8-.9.2-1.7-.5-1.4-1h.1l-.4.2c-.6.2.2.6-1 .6-.5-.3-.4-.6.3-.8h.2c-.2 0-.2-.1-.2-.2h-.2c-1.2-.3-.9.7-1.2 1-.5 0-.9 0-.7-.3-.7 0-.7.6-1.7.5-.2-.4.4-.6.4-1-.8-.6-3.2-.3-3.7 0h-.3l-.1.3h.3c.5.4 2.4 0 2.2.8l-1.7-.1c-.4 0 0 .4-.4.5h1.2c-.2.6.7.8 1.4 1.2-.1.2-1.3 0-1.4 0 0 .5.2.7-.7.8 1 0 .4 1.1-.3 1.3a1 1 0 0 1-.6-.5c-.7 0-.7.2-1.2.1.1.4-1.8.5-2.2 1-1.7-.4-1-2.1.4-2.3-1-.8-.3-1.4-2.3-1.7v-.2h.3l-.3-.2c-.6.2-.7-.5-1.5-.6-.5 0-1 .4-1 .7l-.5-.1-.2.2c-.7 0-.7-.2-1.2-.1.3-.6-.8-.6-1.2-.8-.2.3.7.5.7.3.6.2-1 .7-1.5.3-.5.5-.9 1.3-1 1.7h-.7.2H162c-.2.9.6.9.4 1.2.5 0 .5-.3.8-.5 1.1 0 .7.7 2.2.6l.1.1h.1c.7.1 0 .4.7.7l-.1.2v.1h-.2c.2.4-.4.6-.6.8h-1.2c0-.2-.3-.2-.3-.4l.7.1c0-.2 0-.4-.3-.5-.5.4-1.3.3-2 .1V14h-.2c.1-.2.4-.3.7-.3 0 0-.4 0-.4-.2-.2.1-.6.4-1.9.4-.5-.3-.1-.5-.6-.8h.2l-.6-.2.1.1c-1 .1-1.7 0-1.8-.4l-.7.1c.2.7-.2 1.5.7 1.8 0 1.1-.3 2.2-3.2 1.8-1.7-.2-2.3-1.6-2.7-2.2-1 .2-2.8 0-3.3-.5.1-.2-.3-.7.3-.7a2 2 0 0 0-1.2-.3c.3-.8 1-1.3.4-2.1.4 0 .4-.1.4-.3 1.3.3 1.4-.5 2.2-.8V9c-.5 0-.4-.3-1-.2-.3.2-.3.4-.2.6-.4 0-.4 0-.4.2-.9 0-1.1-.2-1.1-.5-.8 0-.7.4-1.1.5.1.2 1.3 0 1.4.2-.5.2-.9.5-1.7.4-.6.4-1.7 1-1.1 1.7h-.3l-.1.2c-.3.2-.4.4-.4.8l-1.2-.3c.1-.3.3-.4-.4-.5.7-.5 1.2-1.1 1.7-1.7-1.2 0-1.8.9-1.8 1.2-1.6-.1-.8 1-2.1 1.1-1 0-1-.4-1.2-.8l-1.2.3c-.4.2 1 1 .3 1l1.2.2c0 .4-.6.4-.7.6-.3-.3-.8-.4-1.4-.2l-.2.3-.1-.2c.3 0 .4.1.4.3-.4.3-1 .4-1.7.5.1-.6-1-.5-1-1.2 0-.2-.8 0-1.1 0 .3-.5-.8-1-1-.6-.4-.2 0-.4-.3-.6-.4 0-.4.3-.8.1.3.7 1 1.1 1.8 1.2-.2.5.2.5-.2.8.2.2 1.2.1 1.2.5l-.2.2h.4l-.1-.2c1.6.3 2.6.8 4.6 1-.3.5.8.9-.3 1.5-2.2 0-2.7-.7-4.7-.8l.1-.2-.2-.1c-.2-.5.5-.6.4-1-.6.1-1-.2-1.8 0 0-.6-1-1-2.2-1.4 0-.3.8-.2 1-.4-.3-.2-1-.4-1-.8-.9 0-1.4.7-3.3.5 0 .3.3.4.7.5-1.2.1.1 1-.8 1.2l-1.2-.6c.6-.4.3-.7 0-1 .7.3.4-.3-.4-.3.7 0 1.2-.2 1.2-.6h.4l-.1-.1h-.3l-.8-.2c-.1-.4.6 0 .8-.2-.2-.3-.2-.7-.2-1.1-.8 0-.8.4-1.7.4h-.6c-.8-.3.2-1-.8-1.3l.2-.2-.3-.1c.1-.8-.8-.6-1.7-.6.5-.5.3-1-.8-1.2.3 0 .2-.4.7-.4-1 0-2-.3-2.2-.9-.7.1-.7-.2-1.2 0-.2-.4-.6-.5 0-.8h-.8.2c-.3 0-.9 0-1.1-.2l.1.2c-.7.1-.8 0-1-.2-.3 0 0 .6.6.5-.1.7-.1 1.3-2 1.3 1-.7-.4-1.7-1.3-2.2h.2-.3c-.5-.4-1.7 0-2.2 0 .5-.4-.8-.9-.8-.9-.4-.2-.4-.7-1.5-.8 0-.2.7-.1.8-.2v-.7c-.1-.2-1.1 0-1.1-.3l-.2-.2c-.4 0-.6 0-.9.2h.3c0 .4-.2.2-.4.2-.2.4-.7 0-1 .2.2.2 1.2 0 1.1.5-.6-.3-.3.3-.6.4 0 .2.7 0 .7.3h.2l.1.2c-1 .2-1.7 0-2.8-.1v-.6h-.3c0 .3-.6.6-.8.8.2.4 1 .8 2 .6.3.1 0 .4.5.4-.2.2-.4 0-.7 0 .3.2.7.5 1 .3v.1h.3c.3 0 .4.1.4.3-1 .5-2.9-.4-4.2 0 0-.4-.2-.6-.8-.6-.5 0-.4 1 .4.8l-.8.4c-.8-.4-1.3 0-2.2.1-1-.8 0-1.6 1-2-1-.4-2-.7-2-1.5-.6-.1-.4.2-.7.3l.7.2c-1.2.3-.8.6-1 1.2l-.2.1h.2c.4 0 .7 0 .8-.3h1L98 5c0 .3-.4.4-.4.7l.5.1h-.9c-.5.5-1 1.1-1.7 1.4h-2l-.2.1a5 5 0 0 1-3-1c-.2 0-.5 1 .3.8l-.6.6c-.8.1-1-.2-1.2-.3C89.9 7 89 6 88 5.7c-.7.1 0 .2-.2.6-.5.3-2.5 1-2.8.4-.8 0 .2.2-.4.3-.6 0-.4-.7-.7-.9h.3l-.3-.4V6c-.8 0-1 .1-1.8.3.6-.4-.2 0-1-.2v-.9l-1 .2-.3.1.1.1h-.8c.2-1.3-2.8-1-3.2-1.8-1 0-2.8 0-3-.3-.2 0 0 .2-.3.2-.3.4.5.3.4.6.8 0 .6-.3 1.4-.2.7.5.2 1-1.2 1v.6c.3-.6 1.7-1 3.2-.7l-.3.2.2.2-.7.2c.3.2 1.2.2.7.5.5 0 .3-.2.7 0v.4c-1.4.1-2-.2-3.1-.3-.7.2 0 .6.4.6l-.1.2h.6-.2c0 .6 1.5.6 2 1.1l-.3.1H76c-1-.1-1.6-.2-2.1-.5-.8.3-2 .1-2.8.2H71l-.3.1c-.4 0-.6-.4-.6 0-.2-.4 0-1-.3-1.4 0-.2-.7 0-.8-.2-.6.4-1.3.4-2 .6-.7 0 .3-.4-.3-.6-.8.4-.4.7-.4 1.4h-.3c.3.2.1.4-.3.6l.4-.2c.6.4 1.5.6 1.2 1.3-.8 0-.4.2-.6.4-.8-.1-.2-.3-.4-.6-.2 0-1 .2-.8-.1l.1-.1h-.3c0-.2.2-.2.4-.2 0-.3-1.1-.6-.7-.8h.3l-.2-.2-.3-.2v.2c-.6 0-.5-.4-1.2-.3.2-.7 1.9-.6 1.9-1-.8 0-1.3.3-2.1.5-.7 0-1-.6-1.2-1.2.4 0 .7-.4 1-.2 0-.8.6-1.4-1.5-1.4-.4-.3-1-.7 0-.8-.3-.3-1-.4-1.5-.6l.8-.1c-.2-.1-.1-.2 0-.3-.5-.2-.6-.5-1.4-.5-.4.2.2.4-1 .3l.9.5c-1.5 0 0 .9-1.9.8.3-.3-.1-.3-.1-.6-1 .2.2.7.4 1l.4-.3c.8 0 0 .3 0 .6.1.2 1.3 0 1 .6.7-.3 1.9-.3 2.8-.5.1.1.2.3.8.3-.3.3.2.4-.3.7-.7 0-1-.2-1.4-.4-.6.1-.4.4-1.2.3 0 .2.1.2.2.3l-.2.1h-.7c1 .3.5 1.3 2.2 1.2.2.6 1.2.7 1.5 1.2l-.4.1c-.8 0-.7-.4-1.7-.3-.4-.7-1.8-.7-2.6-1.2-.3.1-.4.2-.4.4h-.5c-.6.1-1-.5-1.2-.2l-.7-.7h.2c-.3 0-.4-.2-.7-.3l.1.2-1-.2s0-.3.2-.3c0-.2-.6-.2-1.1-.2h-.6l-.2.1c-.7-.3-.8 0-1.5.1-.1.2 1 0 .7.3H50c-.3.3.2.2.5.3.1.2-.4.2-.3.5H50c-.7.1-.3-.4-1.1-.3-.2.1 0 .3-.3.6l.3.1-.2.2.3.1c0 .2-.3.2-.3.4-.5 0-1-.2-1.4-.3h.3-2.1l-.2-.4c-1.7.2-2.7-.4-3.9-.7h.1-.5l-.3.1h.3l-.4.1c.3.4.7.5 1.2.5-.4.2.3 1-.8 1h-.3c.3 0 .8.2.4.3-.4 0-.7 0-.7-.2l-.2.1-.4-.2h.2-.8l-.5-.3-.2.2c-.1.2-1 0-1.4.1.5-.2.4-.6.4-1h.8c-.2-.3-.3 0-.8 0 .1-.4-.3-.4-.3-.6-.5 0-.3 0-.3-.2h.4l-.5-.2.1.2-.7.5c.7 0 .5.3 1 .3 0 .3-1.3.3-1.2 0h.3l-.5-.3-.3.1c-.5 0-1.3-.5-1.2 0-.5-.2-.2-.4-.2-.6-.4 0-1.6-.4-2.3-.3 1-.3-2-.7-2-.9-.5 0 .2.3-.3.4-.7 0-.4-.3-1.5-.3 0 .4.6 1 .3 1.3-.7 0-1-1-2.1-1.3l-1 .1.3.1c-.5.2.4.3.3.7-1.3 0-2.9-.7-4.7-.8-.3.2.8.3.8.3l.2.3c.6.2 1.6.2 2.5.3l-.4.1c.4.3 1 .4 1.7.6.3 1.5 3.4 1.2 5.2 1.8.2.2 0 .4 0 .6.5-.1.3-.4 1.3-.5l.7.2c1.1 0 2.8 0 3 .6 2-.1 2.7.4 3.9.5-.6.9 1.8.4 1.7 1 1.1 0 1.5.5 2.2 0 0 .5 1.4.5 2.2.5 0 .2-.1.2-.2.3.9.2 1.1-.3 1.7.2h-.3l.1.3-1.4-.1c.4.3 1 .4.8 1-2.5.2-6 .3-8.5.3h.2l-.2-.2c.2-.3 1.1-.2 1-.7h.3c-.8-.2-1.3-.4-1.9-.8l-.1.2c-1.3-.3-2.5-.2-3.5-.4.1-1-1.5-1.1-2.5-1.5.1-.1.5-.1.4-.3-.4-.1-.8.3-.6.3-1 0-3.2-.8-3-1.1-.5.2-2-.1-2.9 0 .2 0 .3.2.3.3H25.2c-.4-.1-1.4-.3-1.7-.6l.2-.2c-.9-.6-2.2-1-3.5-1.6h-.4c-.8-.8-3.2-.2-4-.8-.5.4 1.2.5 1.5 1h-.5c.8.5 2 .7 3.5.7l-.1.1h.2c0 .5.2.5-.4.8 1 .4 2.1.7 3.5.9l-2.3 1-1.2-.2c-.2-.3.2-.4.3-.6C20 9.5 19 9.5 19 9c-.3 0-.6 0-.8.2.1 0 .5-.1.4.4h-1v-.1l-.2-.1c-2.5-.4-5-.7-5.9-1.8h.3l-.8-.3.1.2c-.6.1-.8-.2-1.3-.2v.7l-.3 2.4.6-.1c0 .6 1.8.9 1.4 1.4-.5 0-1 0-.8-.3v-.2h-.4c-.5-.2-.5 0-.9.2v.3l.7-.3c-.3.3-.2.6-.8.6L9 13.2h.3c0 .2.3.2.3.4H9l-.5 3.8c.3-.1.4-.3.7 0l.1.4.3-.1c.1.7-.4.6-.3 1.2l-.1-.6c-.4 0-.3.7-.3 1.2-.1-.2-.3-.3-.4-.3l-.5 1c.1-.2.5-.3 1-.2l.2.3h.1c-.3.4-.1 1-.1 1.6.4.2.4-.3.8-.2-.2 2.4 1.4 2.8 1.8 4.4-.7 0-1.3 1.3-.7 1.8H11l.2.2c.3.4.4.8.6 1.3-.8.3-1.5 1-1.6 2.2-.3.1-.5 0-.5-.4-.4.3-.2 1.8-1 2-.2.6.2.5 0 1h-.5c0 .2.3.2.5.2 0 .5-.2.4 0 .8H9l.1.3.4-.5-.1-.2c0-.5.4-.6.8-.8h.3v-.2c.6.2 0-1 .7-1 .2-.8-.5-.6-.2-1.4.4-.3.6.1.9-.4l.1.3h.3c.1.3 0 1.1.2 1.3-.2.4-.9.4-1 1 1 .6 1-1 1.8-.6 0 .3-.1.8.2.8-.6 0-.4 1.2-.6 1.4.2.3.3-.1.6 0-.3 1-.2 2-.6 2.3-.5-.2-.4-1.1-.6-1.7-1 0-1.2.2-2 .6-.1-.4-.4-.6-.1-1h-.7c.6.2-.1 1 .7 1.2l-.4 1c.5.1.1.6 0 1-.3 0-.3-.5-.1-.8-.4.6-1 1.1-1.7 1.2-.7.2-.4 1.7-1 2.2.6.2 1 1 1.2.8l.2.3.2-.1c0 .6.5.6.7 1 0 1-.6 1.6-.6 2.7h-.9c-.1.7 0 1.1.2 1.6h-.3l.4.6v-.4c.4 0 .4-.6.6-.8l.3.1h.3v.1c.4 0 .6-.7 1-.2l.2-.5v.2c0 .2 0 .4-.2.6h.3l.1.7c.1.3.7.2 1 .4-.5.5 0 1.1.5 1l-.3.3.6-.2h-.2c-.3-.6.1-1.4.6-1.5l.2.3h.2c-.2.7-.4 1.2 0 1.9 0 1.3-.9 1.4-.8 2.8 1.1-.8 1 1 2 .8-.5.5.4.6.3 1.3-.4.5-.8 1.2-1 1.8-.2-.2-.5-.2-.7-.2.1-.3.1-.5 0-.8 0 .5-.7 2-.2 2.6v.3l.2-.1c0 1 .2 1 0 1.5l.1.2h-.3l-.2-.1.1.3v.2h.7v.6c.2-.2.8 0 .8-.6.7.7-.3 2.1-.7 2.7-.5.1-.4-.9-.7-1.1-.6 0-.5.2-.9-.2 0-.5.3-.6.5-.8l.2.2c-.2-.1-.2-.2-.2-.4l-.2-.1.1.3c-.6 0-.8-1.3-.8-2V58c0-.6.4-1.2.6-1.8 0-.8-.4-1.6-.3-2.1l.3-.8c0-.3-.6-1.7-.6-2.6-.2.7-1 1.2-.9-.2-.4.6-1.3 1.6-1 1.6-.4.2-1-.5-1.5.4.5.2.7 1 1 1.4 0 .4-.3.3-.2 1-.4 0-.1-.8-.6-.7-.4 0 .2.5 0 1 .2.1.9-.3.7.4.2 0 .3-.3.3-.6.7 1.2 0 3.6-1.3 3.3-.3-.5-.4-1.3-.3-2.2l-.2.2c-.3.1-.3.6-.8.4 0-.4.1-.6.2-.7-.7 0-1.3 1.5-1.7 2.2.4 1.5 0 3.2-.9 3.8.5.2-.1 1.1.8 1.1-.1.7 0 1-.3 1.6.7.2.7-.5.7-1.2.7.5 1 0 1.4-.4v.8c1.2-.4 1.4-.9 2.4-1.2 0 .2 0 .6.3.7.4 0-.2-.3.1-.6.5.7.8 1.5.3 2.6-.4 0-.7 0-.7-.6-1 .3-1.3 1.3-1.7 2.4.1-.4.4.7.1.9-.5-.1.3-1-.1-.8-.3 1-.5 2-1.3 2.5v-2.4c-.3-1.1-1 .3-.8-.8-.7-.1-.7.5-1 .8-.4-.8-1-.3-1.5-1l-.1-.3-.1-.3c.2 0 0-.4 0-.6l-.3.5h.1l-.1.3.1.3c-.1.5-.5.7-.2 1.6 0 .5.9.4.9 1.2.5 0 .6-.6 1.2-.6-.3.6-.2 1.2 0 1.6.2 0 0-.7.5-.6.6.3 1 1 .9 1.7 0 .4.7.1 1 .2V71c.4.2.8.3 1.5.2-.1 1.6-.4 2-1 3.1H8c-.4.1-.6.5-1 0l.1.3c-.4.5-.5 1.2-.3 2 .6 0 1.2-.6 1.5.2-.3.7-1 .9-1 2l-.2.2H8l-.2-.2c.3 0 .3-.2.2-.2.7-.2 1.7 1 .9 2-.3 0 0-.7-.3-.7-.4.3.1 1 .5 1 0-.5.3 0 .6-.8 1 .5.5 1.7.1 2.6-.3 0-.5 0-.7-.4-.5.8-1.5 1.3-2 1.2-.2.9-.6.5-.8 1.2l-.2.3.3-.1c.1.8.5 0 .8 0 .1 0 .2.3.5.4.4 0 2.1-.2 2.4-.8V84h.2c.3.3.5-.2.5-.4 1 .9-.3 2.7-.6 3.5-.4-.1-.5-.3-.8.2-.3-.2-.3-.8-.7-.8-.5-.1-.3.5-.7.6 1 1.5-.3 3-1.2 3.7.1 1.3-.7 2.9-1.6 3.2 0 .3.1.8-.1.8.1.7 1 .3 1.6.4.2.7-.2 1.5 0 2.2-.3.1-.6 0-.7-.2L6 97l-.1.2v1h-.7l.2.3c-.6 0-.4.7-.8.2-.7 1.8.5 2.8-.8 3.4.1 1-.7 2-1 3.1-.2-.2-.2-.8-.7-.6l-.1-.3-.3 1H2v.3c.1.5.9 0 1 .4.3-.2.3-.5.7-.6l.1.3.3.1c.5.1.2.5 0 1H4c.3.5 0 1.2-.2 1.7l.2.1-.1.2c-.1.5.3.4.3.8 0 .6-.4.7-.6 1.2-1-.5-2 .6-3 .8.2.6.4 1 .8 1.1-.1.7-.8 2.3-.3 2.6l.6-1.2.9.4c.1.5-.5 1 0 1.2-.1.5-.7.6-1 .8.2.3.7.2.9 0 0 .6.6.5 1.4.8l-.1.3h.2c.2 0 .2.5.3.5l.1.3.3-.1c0 .8-.7.8-.7 1.6-1.5.3-2.2 1.6-2.6 3.5.1.5.5-.6.8 0 .4.4-.1.8 0 1.6-1 .1-1.2.9-1.4 1.8 0 .9.9-.2.7.6.6.2.3-.7.7-.6.1 0 .3 0 .3.2l1.3.5c.1-.8.5-1.3.9-1.8.5.3.8 1 1.2 1.4-.2.2-.2.5-.2.8-.6.3-.9-.1-1.7 0l-.1-.3-.3.4c-.2-.6-.7-.6-1.1-.8l-.3.2.1.3c-.2.5 0 1.6.7 1.7-.3.8-.1 1 .2 1-.7 1.1.8 1.8-.7 2l-.2-.3-.1.3-.1.5v-.5c-.2 0-.2 0-.2-.2-.6 0-.4 1-.9 1 .1 1-.1 2-.2 3.2.6.4.9-.4 1.5-.6.4 1.4 1 0 1.7.6-.1.8-.8 1.5-1.1 1.2v.7c0 .3.2 0 .5 0-.2 1.4-.8 2-.7 3.4.4.1.2-.6.5-.6l.3.1h.3c.1.3.2.7.8.5 0 .3-.7.9-.2 1.2-.4.2-.4.7-.9.6 0 .8.3 1.4.8 1.6-.1.3-.5.2-.3.8.2.2.7.1 1 .3 0 .5 0 .8.2 1.2h.1v.3l.2.1c-.6.7-.3 2.4-1 3 0 .5.7.8.2 1.2l-.4-.6-.1 1.2.2-.1c.2.7.8 0 .7-.6.2 0 .4 0 .5-.2.4 0 .3.8.7.8.5-.3-.3-1 0-1.4 1 0 .9.9 1 1.6-.3.7-1.2.7-1.8 1.2 0 .3-.2.7.1.7-.7 1.1-1.2 2.5-1.8 3.6 0 .5.5 0 .5-.2.8.8-.4 2 0 3 .3-.4.1-1.4 1-1.2v-1.2c.8.1 1-.7 2.1-.2 0 1.7-2.3.8-2 3 1.1-.7 1.1 0 2 .6 0-.2.3-.4.4-.4l-.5.4-.3.3.3-.1c-.1.5.5.5.3 1.1-.7 1-.3 2.7-.3 3.6.5-.3.4-1.2 1-1.2.7-.3 0 .9.7.6l.3.3.2.1c-.4 1.2-1.5 1.3-1.5 3 .6.2.4-.7 1-.4-.1.8.5.6.3 1.4.9 0 .9-1.2 1.5-1.4.3 0 .4 0 .6.4H11c.2 0 .3.3.6.5l-.2-.3c0-.3.8.2 1.2 0 .1.8.3.9-.3 1.1-.2.1-.2-.1-.2-.3-.4.4-.7 1-1 1.5H9.9c-.1 1.1-.9 1.4-1.4 2.2-.1.7.5.5.8.8-.7.1-.3 1.3-1 1.2-.2-.6-.6-.8-.6-1.6-.8 0-.4 1.3-.7 1.6h-.6c.1-1-.5-1-.5-1.8-.8.3-.4 2-1.2 2.2-.1.5.6.9.1 1.2 0 .5.4.2.5.6l.2.4-.2-.3v.2l.2.2c-.4.6-.4 1.7-1.2 1.7v2c.4 0 .6-.4 1 0 0 .8-.4.9-.4 1.6h.3l.4-.2-.4.3-.1.3.2-.1.3.6-.1.2c.2.2.6.2.5.7l-.7.2v-.8a3 3 0 0 1-.7.4c-.2.5 0 1.4-.2 1.6.5.4 1.3.2 1.7 1.3.3-.2.6-.3.6-.8 1 .5 2-.8 2.3.8-.8 0-1 .5-1.4 1l.5 1h1v.4c0 .5-.5.7-.7 1 0 .3.3.2.6.2.3-.1.3-.4.3-.8h.8c-.2.6.2.6.2 1 1.2-.3.2-2.4 1-3l.2.3h.3c0 .5 0 1.4-.2 1.7.3 1 1 .6 1.6.8 0 1-.8 1.5-1.4 1.2-.4.6-.2 1.6-.3 2-.7-1.4-.8-1-1.7-1.4-.3 0-.5 1-.1 1.2-.7.6-1.2 0-1.7-.2-.2 0-.2.4-.3.4.8.2.3 2-.3 1.3l.2-.3c-.3.2-.6.2-.8 0l.1.3c-.2.2-.5.4-.6.8 0 .2.5.2 1 .2-.3.4 0 .3 0 .8.1-.3.7 0 .7-.4.4.6.2 1 0 1.8h-.8c-.4.8.4 2.7-.2 3.6.2.3.7.3.8.5 0 .8-.6 1.4-.2 2l-.2.3c.2 0 .4 0 .6-.2H8v.1c.3.5.4 1.3.5 2 .7.3.6.9.7 1.6-.3 0-.4.4-.8.4l-.2-1c-.6.2 0 .7-.3 1 .1.3.3-.1.6.2 0 .3-.5.3-.7.4v2.3c0 .1 0 .2.2.1.2 0 .3-.2.5 0 .3.6.2 1.2-.3 1.6 0 1.5-.3 2.5-1 2.9-.2.7-.5 1.2-.9 1.5l.5 1.4-.2.1.4.3v.6h.2c.4.4.2 1 .7 1.7-.1.7-.5 1-1 1l.2 1c.3 0 .3-.4.5-.4 0-.2 0-.4.2-.7.4 0 0 .7.5.7.1.5-.1.5-.3.7 0 .6-.2 1.2-.8 1.2v1.4l-.6-.2.1.5-.1-.5-.1.3c-.3.8-.4.5-.7 1.1-.4.1-.7 0-.8-.2l-.3.3v.6c.2 0 .2 0 .3-.2l-.1.2c.2-.3.8 0 .9-.4l.1.4.3.3v.1l.1.1c-.1 1 .4 1.2-.1 1.6.1.5.3-.2.5.2l-.1.8-.3-.1c.2.3.2.7.2.9h.2l-.1.6-.1-.3-.2.5h.2c0-.1 0-.3.2-.5l-.1.6.1-.2v.2c.5 0 1-.3 1.7-.2.1.7-.2.8-.1 1.4-.5-.4-1 .9-1.6 1 .1.3.4.5.3 1.1.4 0 .8 0 .9-.4.4.4 0 1.4-.5 1.4.5.6.5 0 .6 1h.7l.4-1-.3 1c1 0 1.3-.4 2.6-.4-.1 1 .4 1.5 0 2l-.1-.1v.1h.4l-.1.9v.3l-.2-.3c-.2-.1-.2-.4-.2-.9h.1v-.1l-.1.1c-.3.1-.4-.1-.7-.2-.2.3-.2.8-.2 1.3h.5c.1.9 0 1.4-.2 1.9-.6-.1-1-.1-1.5-.7l-.3-.3-.3-.2.2-.3c-.2 0-.3.3-.4.5l.2.3.3.2-.1.3v1.5c.4.1.4-.3.8-.2-.2 2.4 1 3 1.7 4.4l.4.4c0-.1.5-.3.2-.6.4 0 .5.5.8.9l-.1.8c.1-.2.5-.3.1-.4.1-.3.3 0 .5 0 0 .4-.5 0-.5.6l-.3-.2c0 .2-.2.3-.3.3.5.4 1.7-.1 1.5 1.5-.6.2-1.4.5-2.2.2-.3-1.1.4-1.1.5-1.8h.2c0-.5-.2-1.5-.3-1l.1.2c-.2.2-.6.2-.9.2-.4.5-.5 1.2 0 1.6h-.4.3l.5 1.6a3 3 0 0 0-1.6 2.5c-.2.1-.5 0-.5-.5l-.1.4c.1.4.4 1 .1 1.3l-.3-.3c0 .4-.2.8-.6.9-.1.6.2.6.1 1H8c0 .4.3.3.5.3 0 .6-.2.5 0 .9h.1v-.6.6h.2l.1.3.4-.5-.3-.3c0-.6.4-.7.8-1l.3.2-.1-.7v.3c.7.2.2-1.3.9-1.1.1-.9-.5-.7-.3-1.6.4-.4.7.2 1-.5v.3h.3c.2.3 0 1.2.3 1.5-.3.4-1 .5-1 1 .9.8.9-1 1.8-.6 0 .4-.2.9.1.9-.5 0-.4 1.4-.5 1.6.1.3.2-.1.5 0-.3 1.2-.1 2.2-.5 2.6-.5-.3-.4-1.2-.7-2-.9.2-1.2.3-2 .8 0-.5-.3-.7 0-1.1h-.7c.5.2-.2 1 .6 1.3-.4 1.5-1.2 2.6-2.3 3-.7.1-.4 1.7-1 2.3h.6l-.2.3h.3v.4c.3.2.4.4.5.2l.2.3.2-.1c0 .7.5.7.7 1 0 1.2-.5 2-.5 3.2h-1v.1c.6 0 .6.8 0 .8l.2.9-.3-.1.3.8v-.5c.4-.1.4-.7.6-.9l.3.1h.2v.1c.4 0 .7-.8 1.1-.2l.1-.5.2.2c0 .3-.2.5-.3.7h.3v.8c.2.4.7.2 1 .5-.4.5 0 1.2.5 1l-.1.7c.3-.2.5-.3.7-.2l-.3-.1c-.3-.5.1-1.5.6-1.6l.2.3.2-.1c-.2.9-.4 1.4 0 2.3 0 1.3-.9 1.5-.7 3.1 1-.9.9 1.3 2 1-.6.6.3.7.2 1.5-.4.6-.8 1.3-1 2-.2-.2-.5-.2-.7-.2a1 1 0 0 0 0-1c0 .6-.7 2.3-.2 3v.2h.2c0 1.2.2 1.2-.2 2l-.2-.2.1.3c0 .5 0 .7-.2.7h-.3l.1.2c-.6.1-.8-1.4-.8-2.3v-1.3c0-.7.4-1.4.6-2 0-1-.4-1.8-.3-2.5l.3-.9c0-.3-.6-2-.6-2.8-.2.7-1 1.3-.9-.2-.4.6-1.3 1.7-1 1.7-.4.2-1-.6-1.5.5.6.3.7 1.1 1 1.6 0 .5-.3.5-.2 1-.4.2-.1-.8-.6-.6-.4 0 .2.6 0 1 .2.2.9-.2.7.6.2-.1.3-.3.3-.7.8 1.2.1 4-1.2 3.5-.2-.4-.4-1.3-.2-2.4-.2 0-.2.2-.3.2v-.2h-.4c-.9-.4-1.4 1.6-1.8 2.4.4 1.7-.2 3.7-1 4.3.6.3 0 1.3.8 1.4 0 .8 0 1-.2 1.8.6.2.6-.5.6-1.4.7.6 1-.1 1.5-.5v.9c1.2-.4 1.3-1.1 2.3-1.4.2.2.2.6.3.7.4-.1-.1-.4.1-.7.6.7.8 1.7.3 2.9-.4 0-.7-.1-.7-.7-2 .7-1.4 4.5-3 5.6a9 9 0 0 1 0-2.7c-.2-1.3-.9.4-.8-.9-.6 0-.6.6-1 1-.4-1-1-.5-1.4-1.2v-.2l-.2-.3c.3-.2 0-.3 0-.6h.2l-.4-.1-.2.7h.2l-.2.3.2.3c-.2.6-.6.8-.3 1.8.1.6 1 .5 1 1.4.4 0 .6-.6 1-.7-.2.7 0 1.4 0 1.8.4 0 .2-.7.6-.7.7.3 1 1.3 1 2 0 .5.6 0 .9.2v-.7c.5.2.9.3 1.5.2a6.5 6.5 0 0 1-1 3.4h.8c-.4.1-.7.5-1 0v.3c-.3.6-.5 1.4-.2 2.3.5.1 1.2-.7 1.4.2-.2.8-.9 1-.9 2.3l-.5.4h.6v-.2c.2 0 .2-.2 0-.2.8-.2 1.7 1.2 1 2.2-.3 0 0-.6-.3-.6-.4.3.1 1 .5 1 0-.6.3 0 .5-.8 1 .4.6 1.8.2 2.8-.3 0-.6 0-.7-.5-.5 1-1.6 1.5-2 1.4-.2 1-.6.5-.9 1.4l-.1.3.3-.1c.1.9.5 0 .8 0 0 0 .2.4.5.5.4 0 2-.3 2.3-1v-.2l.2.1c.2.2.5-.4.5-.6 1 1-.4 3-.7 4-.4-.1-.5-.3-.8.2-.2-.3-.2-1-.6-1-.5 0-.4.7-.8.8 1 1.7-.3 3.4-1.2 4.2.2 1.5-.6 3.3-1.5 3.6 0 .4 0 .9-.2.9.2.7 1 .2 1.6.4.8 1 .3 1.8.7 2.7-.4.1-.7 0-.8-.2l.1-.3-.1.2c-.2.4.1.8 0 1.2H5l.1.3c-.5-.1-.4.8-.7.2-.7 2 .5 3.2-.8 3.9.1 1.2-.7 2.2-1 3.5-.2-.2-.2-.9-.7-.7l-.6-.4c0 .3 0 .7-.2 1h.2v.5c.2.5 1 0 1 .5.4-.2.4-.6.7-.7l.2.3.2.1c.6.2.3.6.2 1h-.3c.3.7 0 1.5-.3 2h.3l-.1.3c-.2.6.2.5.2.9 0 .6-.4.7-.5 1.3-1-.6-2 .7-3 1 .1.5.4 1 .8 1.3-.1.8-.8 2.6-.3 2.9L1 351c.4 0 .7.3 1 .5.1.6-.6 1 0 1.4-.2.5-.7.7-1 .9.2.3.7.2.8 0 .2.6.7.5 1.5.8l-.2.3.3.1c.1.1.1.5.3.5l.1.3h.3c0 1-.7 1-.7 1.7-1.6.3-2.2 2-2.6 4 .1.7.5-.5.8 0 .4.6-.2 1 0 1.8-1 .1-1.2 1-1.5 2 0 1 1-.3.8.7.5.2.3-.7.7-.7.2 0 .2.2.2.5l-.2.1.1.4c-.3.6 0 2 .7 2-.3.9-.2 1 .2 1-.8 1.4.8 2-.8 2.3l-.1-.3v.3l-.1-.2c-.7 0-.4 1.2-1 1.1.2 1.2 0 2.3-.2 3.6.6.4 1-.5 1.6-.7.4 1.5 1 .1 1.7.7-.2.9-.8 1.8-1.2 1.4v.9c.1.3.3-.1.5 0-.1 1.5-.8 2.2-.6 3.8.4.1 0-.7.5-.7l.2.1h.3c.1.4.3.8.8.6 0 .4-.7 1.1-.1 1.4-.4.2-.4.8-1 .7 0 1 .3 1.6.8 1.8-.1.4-.5.2-.2.9.1.4.6.2.9.5l.2 1.3H5l-.2.3.3.1c-.5.8-.3 2.7-1 3.4 0 .6.7.9.2 1.4l-.1-.3-.1 1.4.2-.1c.2.8.8 0 .7-.7.2 0 .4 0 .5-.2.4 0 .3.9.7.9.5-.3-.3-1.2 0-1.6 1 .2.9 1 1 1.8-.3.8-1.2.7-1.8 1.3 0 .4-.2 1 .1 1-.7 1.1-1.2 2.8-1.8 4 0 .6.5 0 .5-.2.8.9-.4 2.3 0 3.3.3-.4.1-1.5 1-1.3V402c.8 0 1-.8 2.1-.2-.6 1.6-2.8.6-2.5 3.1 1.1-.7 1.1.2 1.9.7l-.1.3h.2c-.1.6.5.4.3 1.3-.7 1-.3 3-.3 4 .5-.2.4-1.3 1-1.3.7-.3 0 1 .7.7l.3.3.2.2c-.4 1.3-1.5 1.5-1.5 3.3.6.2.4-.8 1-.5-.1 1 .5.7.3 1.6.9 0 .9-1.3 1.6-1.6.2 0 .3.2.5.5h-.2l.6.6-.2-.3c0-.3.8.2 1.2 0 .1 1 .1 1-.2 1.4-.3.1-.3-.2-.3-.5l-1 1.8H9.5c-.1 1.3-.9 1.6-1.4 2.5-.1.8.5.6.8.9-.7 0-.3 1.4-1 1.3-.2-.7-.6-.9-.6-1.7-.8 0-.4 1.4-.6 1.7h-.7c.1-1-.5-1-.5-2-.8.5-.4 2.3-1.2 2.5-.1.6.6 1 .1 1.4 0 .5.4.3.5.7v.6c-.3.8-.2 2-1.1 2v2.2c.4 0 .6-.3.9 0 .1 1-.3 1.1-.3 1.8h.3l-.1.3h.2c.1.1.1.5.3.6-.2.6-.7.6-1 1 0 .4.2 1.5 0 1.7.5.6 1.2.4 1.6 1.6.3-.2.6-.3.6-1 1 .6 2-1 2.3 1-.8-.1-1 .5-1.4 1l.5 1.1h1v.5c0 .6-.5.8-.7 1.1 0 .3.4.2.6.2.3 0 .3-.5.3-.9h.8c-.2.7.2.7.2 1.1 1.2-.4.2-2.7 1-3.3l.2.3.3-.1c0 .6.1 1.6-.2 2 .3 1 1 .6 1.6.8 0 1.1-.8 1.7-1.4 1.4-.4.7-.2 1.9-.3 2.3-.6-1.5-.8-1.1-1.7-1.6-.3 0-.5 1.2-.1 1.4-.7.8-1.2 0-1.7-.2-.2 0-.2.4-.3.5.8.2.3 2.2-.3 1.6l.2-.3c-.3.2-.5.3-.8 0l.1.3c-.2.2-.5.4-.6.8.1.2.5.2 1 .2-.2.4 0 .3 0 1 .1-.4.7 0 .7-.6.4.6.2 1.2.1 2h-1c-.3 1 .5 3 0 4 0 .4.6.4.7.8 0 .8-.6 1.5-.2 2.2l-.2.3.6-.3h.2v.1c.3.5.4 1.4.6 2.3.6.4.5 1 .6 1.8-.4 0-.5.4-1 .4 0-.6-.2-.7-.2-1.1-.5.2 0 .8-.2 1 .1.4.2 0 .6.3-.1.3-.5.3-.8.5v2.6c.3.4.3 0 .8 0 .3 1 0 1.8-.8 2.3-.5 1.5-.4 4-1.4 4.8.1.7.1.8.5 1.5l-.2.3.4.3v.7h.2c.4.5.1 1.2.7 1.9 0 .8-.6 1-1 1 0 .7.2.8.2 1.2.2 0 .2-.6.6-.5.4.7.2 2.1-.6 2l-.1 1.5h-.3l.3.6v.4h1.1l-.2-1 .4 1c.4 0 .6 0 .9-.2 0-.4-.3-.4 0-.7.9.1 1.6.4 1.4 1.1h-.6c.2.2.5.6.4 1l.5-.3-.3.1c-.4-.4.2-.3.4-.6.7.2.8 0 1.5 0 0 .2.7.1.7.4.4-.2 1.6-.2 1.5.2H14h.5c0-.3.3-.4.4-.6.6.2.8.1 1.7.1.4 0 .2-.4.2-.6l1.3.1c-.2 0-.2-.2-.2-.3h.7c.3.5 1.8.5 2.2 1 .2.6-1 .9-.5 1.4 0-.6 1.2-.8 2.4-.4.4-.1.6-.4 1.3-.4l.2.1.3-.1c.1.7-1.2 1.2-.4 1.9l-.4.2h-.1c0 .7-1 1-.1 1.5-.8.2-1.8-.1-2.4 0l.1.4c1-.2 2 0 3-.4.2-.7.3-1 0-1.4v-.2c1.2-.5 1.2-1.8 1.7-2.7 1-.3.7-1.3 1.7-1.6.6 0 .4.4 1 .5.2 0 1-.3 0-.3.9 0 1.5-.3 3.2-.2 0 .2.3.3.6.4l-.2.1-.1.1c0 .3-.5 0-.5.2l.4.2c.4 0 .8 0 .8-.3h.2-.1l.5-.9c1.6-.2 1.8 1.4.1 1.8.4.8 0 1-.7 1.4l.3.1c0-.2.7-.2 1-.6.4.2.8.4 1.7.3.4 0 .4-.3.4-.5.6 0 1.1-.1 1.3-.5l.2.1.2-.2 1.7.1c.4-.2.9-.5 1.4-.3.1.7-1.3.5-1.2 1.1 0 .2.7.1.8.2 1-.4 2.2-1.6 3.7-.8h.5c-.1 1.3-2.7 1.6-2.2 2.9.6 0 1.6 0 1.4-.3 2.1 0 3.6-.6 4.5-1 2 .8 3.5 1.9 5.3 2.7.6-.1.4-.5 1.2-.5l.6.3c-.2.3-1.1.2-.8.7.5.4 3 .3 3.1-.2.1-.5-.6-.5-.4-1.1.5 0 .5-.3 1.2-.3-.1.4.7.2.5.6 1 0 .8-.6 1.2-1h.8c.2.4 0 .9.5 1-.5 0-.6.3-.5.7h-.8c-.3.7 0 1.4 1.4 1.1.7.2.6 1 .8 1.4h1.2c.5-.5-.1-.8-.4-1.4 0-.4.7-.5.5-1 1.2 0 1.2-.5 1.7-1 1 .2.2 1.3 1 1.5h.4c0-.2 0-.3-.2-.5l.4-.1.1-.1.6-.3c.1-.3-.6-.2-.4-.6.9 0 1.4-.2 1.7-.7l.9-.1c.4 0 .3.3.5.3 1.2-.4 1.3-1.2 3-1.2.8 0 3.3.7 3.7 1 1-.2 1.3 0 2.1-.2l-.4-.1c.5-.3 1 .2 1.4.3 0-.6.2-1.3 0-1.7h1.2c.5 0-.4-.1-.1-.3 1-.2 1.7.1 2-.3 1 .3 0 1 .6 1.6 1.2-.3.7.5 1.7.2-.1.6 0 1 .5 1.4 1.5-.4 2.1-1.2 3-1.8l20 1c.4-.2.5-.7 1-1 .7-.1.2.3.8.2l-.1.9 25.4 1.4h-.7c-.9.6.8 1.4 1.2 2 .1 0 .3-.3.4 0 0-1.5 2-1.3 4-1.6.5.7-1.1 1.5-1 2.3.2.6 1 .8 1.3 1.4.8-.2.3-.6 1.3-.6.4-.7-.2-2 .8-2.4.8.2 1 .4 1.7.4-.2.3-.8.4-.1.7.8-1 .5-3.2 4.3-3-.6.7-.5 1.7-1.8 2a9.8 9.8 0 0 1-1.2 3.9c.3.5 1 .7 1.3 1.2 1-.2 1-1 .8-1.3.3-.2.7-.3.5-.7l.6.1-.3.1.6-.1-.2-.1c-.4 0-.5-.5-.1-.7-.4-.2-.4.1-1 0 .2-.5 1-1 0-1.5.8-.3 1.6-.7 3-.8.4.3.4.8.4 1.4l1.2.3c.7 0 .8-.5 1.7-.5-.1-.3.3-.3.2-.5.7 0 1.3-.2 2-.3.2.1.4.6 0 .7l.8.3c.2-.2.7-.7.2-.9l1.3-.3c.1-.3-.1-.4-.1-.6.6.1.5-.2.9 0h.2l-.1-.2h.4l-.1.2.2.1c-.1.3.2.4.2.6h1.3c-.3-.4 0-.6.4-1 .9.2 1.3 0 1.8-.3.3.3 1.2 1 .1 1.3l1.3.3c-.1.3-.6.2-.8.3 1 .5 2.7-1.4.8-1.3l-.1.2.1-.3-.2.1c.2-.4-.6-.4-.4-.7.6-.1.8 0 1.2.2 1.1-.6 2.2-.6 3.5-1.1h-.1.2c.3.4.4.8 1 1 .3-.4 1.3-.5 1.6-1 .6.4 1.9 1.2.8 1.6h-.1l.1.2.2-.2c.6 0 .8.2.9.5h-.3l.2.1c-.7.2 0 .4-.8.6h-.2l-.4.3h.3c1 .4.5 1.6 1.3 2.1 0 .2-.1.3-.5.3.4.4 1.6.5 2 .9.6-.4 1.1-.7 2.7-.6.1.5 1.4.5 1.2 1.3 1.3-.3 2.3-.5 2-1.3l.2-.1.1-.1c.2-.4 1-.5 1.2-.9.8 0 2 0 1.9.4.9-.7 1.4-1.5 1.8-2.3.6 0 .5.3.8.5h-.8l.3.1.2.1h-.1v-.3h.4c.8 0 .9-.4 1-.7 2.5.1 1 1.4 1.9 2.3h.4c0 .1-.3 1.2.7 1.3l.4.2-.1-.1 1.2-.6h.2l.2-.1c.4-.3.5-.6 1.2-.8l-.8-.3c-.6-.4.8-.5.8-.9h1.3c0 .7 0 .7-.4 1.1l-.2.1.4.1.2-.2c2 0 3.6.3 4.5-.5.8.1 1.5.2 1.5.6.3-.6 2-.3 3.4-.3.1.3-.4.2-.4.4h1.3l.4.1h.3l1 .1s0-.2.3-.3l-1.3-.9.1-.2c1 .3 2.4.3 2.7-.3 0-.3-.5-.9 0-1.2.8 0 .4.6 1 .7 0-.2.2-.5.8-.7l.7.4c.3 0 .6-.2.4-.5 1 .1.8 0 1.2-.3-.4-.5-.4-1.2-1.2-1.6l.3-.1-.1-.2c.6-.2 1.4-.1 1.7 0l1.3-.8c.4 0 .8.3 1.5.2 0 .5 1 .4.8.9.7 0 .4-.3 1-.2 0 .3 0 .2-.2.4h.8c-.1.8 1.4.7 1.2 1.1.4 0 .6-.2.9-.3l.4.1-.1-.5h-.3c-.5-.1-.4-.6 0-.8.8.2.3.2 1 0 .4.3 0 .2 0 .6h-.3c.2 0 .5 0 .5.2l.2-.1c.6-.1.4.2.8.2h-.1.3c.5.4 1.1-.2 1.5.2.4-.2-.4-.6-.4-1-.6.2-.9.3-.9-.1l.2-.1h-.3c0-.3.6-.3.5-.7h.3l.1-.1h1.3v-.1h.3l-.1-.1c.6-.2.3-.4.5-.7-.3-.2-1-.2-.8-.6h.4l.2-.1.4-.1h.3l.3-.4v-.2c.5 0 .5.1.5.2h-.4l.5.3h.4c.5-.1.7-.2.4-.5 1 .1 1.2 1 1 1.3l-.3-.1c0 .3.3.5 0 .8h.3c.3 0 .6.3 1 .3 1-.3-1.2-1.2.1-1.6h.7c0 .2.3.4.3.2h.4v-.2c.6 0 1 .3 1.4.5-1.1-.1-.6 1.5 0 1.8 0-.1.7 0 .7-.2h.3l.1-.1c.3 0 .2.2.4.2 1-.1.3-.5 1.3-.5.3 1 .7 1.8 1.3 2.3.4 0-.2-.3.2-.4.2 0 .6.2 1.3.2 0 .2-.4.3.1.5 0-.2.5-.2.8-.3.3-.2-.7-.3-.5 0-.3-.4-.8-.7-1.7-.7 0-.5.2-.8 1.2-.8-.3-.3-.3-.5 0-.7.9.4 2.3.8 3.6.7.5.2 1 .5 1.6.6-.1.2-.7 0-.4.4.1.3 1-.2.4.2 2-.1-.1-1.1 0-1.7-.1.3-1 0-1-.3 1.5.5.9-.8 2.2-.6-.3.3 0 .5.8.5l1.1-1 1.2.5c.4 0 .4-.3.4-.5 1 0 1 .4 1.6.7h-.3.3l-.1.2.5.2c0 .5 1.8.6 2 1.2.5-.1 0-.5 0-.7h.2c-.1-.1-.1-.2 0-.4h.4l.1-.1c0-.5-.8-.5-.5-1h.3l.1-.1.5-.1c0 .2.2.3.4.4.7 0-.5-.3.1-.3 1 .6 1.9.5 2.8 1.4 1 0 1.7 0 1.6-.5-.6-.3-.4.2-1.2 0 .1-.4-1-.7-1.2-1.3.4.2.4 0 .8-.1h.3v-.2h-.3c-.1-.3-1-.4-1-.7 0 .1-.8.2-.7-.1l.3.1c-.3-.1-.6-.2-.3-.3h-.1c-.6 0-.8 0-.8-.4.5 0 1.8.1 2.3-.2 0-.4-.2-.4 0-.7 1 .1 1.7.4 1.6 1.1l-1.2.1c.3.2.4.6.8.8v.1l.7-.2h-.3c-.4-.3.1-.3.4-.6.7.2 1 0 1.6 0 0 .2.8.1.8.4.4-.2 1.5-.2 1.5.2l.3-.2.5-.1c0-.2.3-.3.4-.5.7.3.8.1 1.7.1.4 0 .1-.4.1-.6l1.4.1c-.2 0-.3-.2-.2-.3h.7c.2.5 1.8.5 2.3 1 .2.6-1.1.9-.5 1.4 0-.6 1.2-.8 2.5-.4.4-.1.7-.4 1.3-.4l.3.1.2-.1c.2.7-1.1 1.2-.4 1.9l-.2.3c0 .6-1 1-.2 1.4-.9.2-1.8-.1-2.4 0v.4c1.3-.2 2.2 0 3.2-.4.2-.7.3-1-.1-1.4l.1-.2-.1-.1c1.4-.5 1.3-1.8 2-2.7 1-.3.6-1.3 1.7-1.6.5 0 .5.4.9.5.3 0 1-.3.1-.3 1 0 1.5-.3 3.3-.2 0 .2.3.3.5.4l-.1.1-.1.1c0 .3-.6 0-.6.2l.4.2c.4 0 .8 0 .8-.3h.3l-.2-.2.6-.8c1.7-.2 2 1.4.1 1.8.4.8-.1 1-.8 1.4h.4c0-.1.7-.1 1-.5.3.2.7.4 1.6.3.4 0 .4-.3.4-.5.8 0 1.3-.1 1.3-.5h.4c1-.2 1-.2 1.7 0 .4-.2 1-.5 1.6-.3.1.7-1.3.5-1.2 1.1 0 .2.7.1.8.2 1-.4 2.4-1.6 4-.8l.2.1.3-.1c-.2 1.3-3 1.6-2.4 2.9.7 0 1.7 0 1.6-.3 2.2 0 3.8-.6 4.7-1 2.2.8 3.7 1.9 5.6 2.7.5-.1.4-.5 1.2-.5l.5.3c-.1.3-1 .2-.8.6.6.5 3.2.4 3.3-.1.1-.5-.6-.5-.4-1.1.5 0 .5-.3 1.2-.3-.1.4.7.2.5.6 1 0 .8-.6 1.2-1h.8c.3.4 0 .9.5 1-.5 0-.8.3-.5.7h-.8c-.3.7 0 1.4 1.6 1.1.6.2.5 1 .8 1.4h1.1c.6-.5 0-.8-.3-1.4 0-.4.7-.5.5-1 1.3 0 1.3-.5 1.7-1 1 .2.1 1.3.9 1.5h.4l-.1-.5.4-.1v-.1l.6-.3c.1-.3-.6-.2-.4-.6 1 0 1.5-.2 1.7-.7l1-.1c.3 0 .2.3.5.3 1.1-.4 1.4-1.2 3.1-1.2 1 0 3.4.7 4 1 .8-.2 1.2 0 2-.2l-.4-.1c.6-.3 1.2.2 1.6.3 0-.6.1-1.3-.1-1.7h1.3c.5 0-.4 0-.1-.3.9-.2 1.7.1 2-.3 1.1.3 0 1 .6 1.6 1.2-.3.6.5 1.7.2-.2.6 0 1 .5 1.4 1.4-.4 2.1-1.2 3.1-1.8l21 1c.4-.2.5-.7 1.2-1 .6-.1.1.3.8.2-.2.3-.2.6-.2.9l26.5 1.3h-.6c-1 .6.7 1.4 1.1 2 .2 0 .3-.3.4 0 0-1.5 2.1-1.3 4-1.6.6.7-1 1.5-.8 2.3.1.6 1.2.8 1.3 1.4.9-.2.2-.6 1.3-.6.4-.7-.3-2 .8-2.4.8.2.9.4 1.7.4-.3.3-.8.4-.3.7.8-1 .5-3.2 4.5-3-.7.7-.5 1.7-2 2a9.8 9.8 0 0 1-1.2 3.9c.4.5 1 .7 1.3 1.2 1-.2 1-1 .8-1.3.3-.2.7-.3.6-.7l.5.1-.3.1.8-.1h-.3c-.4-.1-.5-.5 0-.7-.5-.2-.5.1-1 0 .1-.5 1-1-.1-1.5 1-.3 1.7-.7 3.1-.8.5.3.7.8.5 1.4l1.2.3c.7 0 .8-.5 1.7-.5-.1-.3.3-.3.1-.5.8 0 1.5-.2 2.1-.3.2.1.4.6 0 .7l.8.3c.2-.2.7-.7.2-.9l1.3-.3c.1-.3-.3-.4-.2-.6.7.1.7-.2 1 0h.2l-.1-.2h.4l-.2.2.3.1c-.1.3.3.4.1.6h1.3c-.2-.4 0-.6.4-1 1 .2 1.5 0 2-.3.3.3 1.3 1 .1 1.3.3 0 1 .1 1.3.3 0 .3-.6.2-.7.3 1 .5 2.7-1.4.7-1.3v.1-.3h-.2c.2-.4-.5-.4-.4-.7.6-.1.8 0 1.2.2 1.3-.6 2.3-.6 3.6-1.1v.2l.2-.1c.2.3.4.7.9.9.4-.4 1.4-.5 1.7-1 .5.4 2 1.2.8 1.6l-.2.1.2.2h.1c.7 0 .8.1 1 .4h-.3v.1c-.6.2 0 .4-.7.6h-.1c-.2 0-.2.1-.4.3h.2c1 .4.7 1.6 1.4 2.1 0 .2-.2.3-.6.3.6.4 1.6.5 2.1.9.6-.4 1.2-.7 2.8-.6.1.5 1.6.5 1.2 1.3 1.3-.3 2.4-.5 2-1.3l.2-.2.1-.1c.1-.4 1-.5 1.2-.9.8 0 2 0 2 .4.9-.7 1.5-1.5 2-2.3.7 0 .5.4.7.5h-.1l.2.1.3.1-.1-.2v-.2h.2l.2-.2c.8 0 .9-.3 1.1-.6 2.7.1 1.2 1.4 2 2.3h.4c.1.1-.3 1.2.8 1.3h-.1l.5.2-.1-.2 1.1-.6h.3l.1-.1c.4-.3.7-.6 1.2-.8l-.8-.3c-.5-.4.8-.5.8-.9h1.3c.1.7 0 .7-.4 1.1l-.1.1.4.1.1-.2c2.1 0 3.8.3 4.9-.5.7.1 1.5.2 1.5.6.3-.6 2-.3 3.6-.3.1.3-.4.2-.4.4h2c1.1.1 1.3.2 2.4-.3.7-.3 1.3-.6 1.7-1 .6 0 .2.4.6.4v.1h.4c.2.3-.7.1-.4.4h-.6s.2.4-.7.2v.8c.6-.1.6-.4 1.5-.3-.4.3.8.4.4 1-.8-.1-.5.3-.9.3l1 .5c.2-.1.6-.3.7-.5.5 0 .5.4.5.8.4-.2.3 0 .6 0l-.2.2.3-.1c.4.4 2.2.2 2.5-.1 0-.4.2-.6.9-.6 0 .3.1.7-.4.7 1.2.3 1.8-.6 2.9-.7-.2-.4.2-1.1-.2-1.4.7-.3 1.2-.6 2.5-.6 0-.4.6-.6.8-.9l1.3.6c-1 .9 1 1.2.6 2 .6.2 3.1-.7 3.6.2-.5 0-1.8 0-2 .5.5.3.8 0 1.5.2.5-.5.8-1 2.1-1l-.1.3c1.3-.2 1.4 0 2.5 0-.4.4 2 .7 1.7 0 0 .2.2.2.5.2.9-.4-.1-1.6 1.2-2 .6 0 0 .3.7.2.4 0 .2-.6.2-.9.8 0 .6-.5 1.6-.5-.3-.2-.4-.2-.2-.5.7.1.4-.3 1-.2.6.4-.5.6 0 1h1.1l.1.1h.3l.4.1c-.1.2-.5.3-.4.6.4.4 1 0 .5.4h2.4l-.1-.2a3 3 0 0 0 .9-.2s0-.3.2-.4l.6.2c1.1-.3 2.2-.7 3.4-.4h.1c-.4-.6-.4-1.3-1.2-1.6h.3v-.2c-.1 0-.3-.2-.3-.4l.4.3c.7-.2 1.3 0 1.7 0 .4-.3 1-.4 1.3-.7l1.6.2c0 .4 1 .4.8.8.6.1.4-.2 1-.2 0 .3 0 .2-.2.4l.8.1c-.2.6 1.4.5 1.1 1 .4 0 .7-.2 1-.3h.4c-.2-.2 0-.4 0-.5h-.3c-.5 0-.4-.6 0-.7h.9c.5.2.1.2 0 .5h-.3l.6.2h.1c.5 0 .4.2.8.2l-.1.1H518.4c.6.2 1-.3 1.5.1.4-.2-.4-.6-.4-.9-.5.2-.8.2-1 .1 0 .1 0 .3-.4.2 0-.2-.3-.4.3-.4v.1H518.7h-.3c0-.4.6-.4.6-.7-.3.1-.3-.2-.8 0 .5-.4-.7-.8-.4-1.3l.5.3c.4 0 .4-.2.5-.4-.4.4.2.5.4.8h.2v.4h-.3l.3.1 1.3.1v-.2h.2-.1.1c.7-.1 1.3-.2 1.5-.5.1-.4-.3-.5-.4-.8l.2-.3.2-.1.1-.1c.3 0 .3 0 .3.2h-.4l.5.3h.3l.4-.1c.3 0 .5 0 .6-.2.4.3.5.8.4 1h-.3c.2 0 .2.3.3.4v.2c.1.5.5.7 1.6.5.6.2.5 1 .8 1.4h1.1c.6-.5 0-.8-.4-1.4 0-.3.3-.4.4-.6.2.4.4.8.7 1 .1-.2.8 0 .8-.3h.4l.4.1c.9 0 .2-.4 1.3-.4.2 1 .6 1.6 1.3 2.1.4 0-.3-.3.1-.4l1.3.2c0 .3-.4.4.2.5 0-.2.5-.2.7-.3.3-.2-.6-.3-.5 0-.2-.4-.8-.7-1.7-.7 0-.4.3-.7 1.2-.7-.3-.3-.3-.4.1-.6a9 9 0 0 0 3.6.6l1.5.5c0 .1-.6.1-.4.4.2.2 1-.2.4.2 2 0 0-1 0-1.5 0 .3-1 .1-.9-.3 1.5.5.8-.6 2.1-.4-.2.2 0 .4.8.3l.4-.3h-.4l.4-.1h.3l.6-.4c.3.2.7.4 1.2.4.4 0 .4-.2.4-.4 1 0 1 .4 1.6.5l-.2.1.6.1c0 .4 1.8.5 2 1.1.4 0 0-.5 0-.6h.2a.2.2 0 0 1 0-.4h.5c0-.3-.5-.4-.6-.6h-.6v-.2h.8l.1-.1H549.4c0 .2.1.3.4.4.6 0-.6-.3 0-.3 1.1.5 2 .4 2.8 1.1 1 0 1.7 0 1.6-.4-.5-.2-.4.2-1.2.1.2-.3-.9-.6-1.1-1.1.3.2.3 0 .7-.1h.3l.1-.2h-.2c-.2-.3-1-.3-1-.6l1.8-1.3c.2.2.5.4.4.7h-1.2c.2.3.4.6.8.8l.6-.1h-.2c-.4-.3 0-.3.3-.5.7.2 1 0 1.6-.1 0 .3.8.2.8.4.4-.1 1.6-.2 1.6.2h-.3l.5-.1c0-.2.3-.3.4-.4.6.2.8 0 1.7 0 .4 0 .2-.3.2-.4h1.3c-.2 0-.3 0-.2-.2h.4l.3-.1c.3.6 1.8.5 2.4 1 0 .5-1.2.8-.6 1.2 0-.5 1.2-.7 2.5-.4.4-.1.7-.4 1.3-.4h.6c0 .6-1.2 1-.4 1.6l-.2.1-.1.1c0 .5-1 1-.1 1.2-1 .2-1.9 0-2.5.1l.1.3c1.2-.2 2.1 0 3.2-.4 0-.6.2-.8-.2-1.2h.2l-.2-.2c1.3-.4 1.3-1.5 2-2.3l.6-.3h2.8c.4-.2.5-.7 1-1 .7-.1.2.3.8.2l-.1.9 3.1.2c.4.6-.2.8-.7 1.2h.4c0-.1.6 0 .9-.4.4.2.8.3 1.7.3.4 0 .4-.2.4-.4.6 0 1.1-.1 1.3-.4l3.1.2c-.2 0-.6.2-.5.5 0 .2.7 0 .8.2l1.3-.6 3.1.2c-.5.9-2.7 1.2-2.2 2.2.7 0 1.7.1 1.6-.3 2 0 3.7-.6 4.6-.7 2.2.5 3.6 1.5 5.6 2.2.5 0 .4-.5 1.2-.4l.5.3c-.1.2-1 .2-.8.6.5.5 3.2.3 3.3-.2.1-.4-.7-.5-.4-1 .5 0 .5-.3 1.2-.3v.1c-.2.2-.3.5-.3.7.1.6 1 .8 1.3 1.4.4 0 .6-.3.7-.4.1.3.6.5 1.6.4.6.2.5.8.7 1.2h1.2c.5-.5-.1-.7-.4-1.2 0-.4.8-.4.6-.9.5 0 .9 0 1-.3v-.3h.3c-.3.8-.4 1.7-.8 2.4.2.5 1 .7 1.3 1.2 1-.2.9-1 .8-1.3.2-.2.6-.3.5-.7l.5.1-.2.1h.6l-.2-.2c-.4 0-.6-.5-.2-.7h-.5l-.1-.5h.4v-.2l.6-.3c.1-.3-.6-.2-.4-.5 1 .1 1.5-.2 1.7-.6h.3c.2.3.4.7.4 1.2l1.2.3c.6 0 .7-.5 1.7-.5-.2-.3.2-.3 0-.5.9 0 1.4-.2 2.2-.3.1.1.4.6 0 .7l.8.3c.1-.2.6-.7.1-.9l1.3-.3v-.2l.7.2h1v.1h1.3c-.1-.2-.1-.3 0-.4l1 .3v-.7c.5 0 .9-.2 1.3-.5.2.4 1.1 1 0 1.3l1.4.3c-.1.3-.7.2-.8.3 1 .5 2.6-1.3.8-1.3l-.1.2.1-.3-.3.1c.3-.4-.5-.3-.4-.7.7-.1.8 0 1.2.2h.2c-.2.2-.2.5.2.6 1.2-.2.7.5 1.7.2-.1.5 0 1 .5 1.2 1.5-.3 2.1-1 3.2-1.5h1.4-.1l.1.2.2-.2c.6 0 .7.2.9.5h-.3l.1.1c-.6.2 0 .4-.7.6h-.2l-.4.3h.3c1 .4.5 1.6 1.3 2.1 0 .2-.1.3-.5.3.4.4 1.6.5 2 .9.6-.4 1.1-.7 2.7-.6.1.5 1.4.5 1.2 1.3 1.3-.3 2.3-.5 2-1.3l.2-.1.1-.1c.2-.4 1-.5 1.2-.9.8 0 2 0 1.9.4.9-.7 1.4-1.5 1.8-2.3.6 0 .5.3.8.5h-.2l.3.1.3.1h-.2v-.3h.4c.8 0 1-.4 1-.7 2.6.1 1.1 1.4 2 2.3h.3c.1.1-.3 1.2.8 1.3h-.1l.5.2-.1-.1 1.1-.6h.3l.1-.1c.4-.3.5-.6 1.2-.8l-.8-.3c-.5-.4.8-.5.8-.9h1.3c.1.7 0 .7-.4 1.1l-.1.1.4.1.1-.2c2 0 3.7.3 4.6-.5.8.1 1.4.2 1.4.6.3-.6 2-.3 3.4-.3.2.3-.3.2-.3.4h1.3l.4.1h.2l1 .1s0-.2.3-.3l-1.3-.9.1-.2c1 .3 2.4.3 2.8-.3 0-.3-.5-.9 0-1.2.8 0 .4.6 1 .7 0-.2.2-.5.7-.7l.8.4c.3 0 .5-.2.4-.5.9.1.8 0 1.2-.3-.4-.4-.4-1.2-1.2-1.6l.2-.1v-.2c.6-.2 1.4-.1 1.6 0l1.3-.8c.4 0 .8.3 1.6.2 0 .5 1 .4.8.9.6 0 .4-.3.9-.2.1.3.1.2-.1.4h.8c-.2.8 1.4.7 1.1 1.2.4 0 .7-.2 1-.3h.3v-.5h-.2c-.5-.1-.4-.6 0-.8.8.2.2.2.9 0 .5.3.1.2 0 .6h-.3c.3 0 .6 0 .6.2l.2-.1c.6-.1.4.2.8.2h-.1.2c.6.4 1.2-.2 1.6.2.4-.2-.4-.6-.4-1-.6.2-.9.3-.9-.1l.1-.1h-.2c0-.3.6-.3.5-.7h.3v-.1h1.4v-.1h.3l-.2-.1c.7-.2.4-.4.6-.7-.3-.2-1-.2-.8-.6h.4l.2-.1.4-.1h.3l.2-.4.2-.2c.4 0 .4.1.4.2h-.4l.5.3h.3c.6-.1.7-.2.5-.5.9.1 1.2 1 .9 1.3l-.3-.1c.2.3.4.5.2.8h.2c.3 0 .6.3 1 .3 1-.3-1.2-1.2 0-1.6l.3.1h.4c.2.1.4.3.4.1h.4v-.2l1.3.5c-1-.1-.5 1.5 0 1.8.2-.1.8 0 .8-.2h.3l.1-.1c.3 0 .1.2.4.2 1-.1.3-.5 1.3-.5.3 1 .7 1.8 1.3 2.4.4 0-.2-.4.2-.5.3 0 .6.3 1.3.2 0 .3-.4.4.1.5l.8-.2c.2-.2-.7-.3-.5-.1a2 2 0 0 0-1.7-.7c0-.5.2-.8 1.1-.8-.2-.3-.2-.5.3-.7.8.4 2.2.8 3.5.7.6.2 1 .5 1.6.6-.1.2-.6 0-.4.4.1.3 1-.2.4.2 2-.1-.1-1.1 0-1.7-.1.3-1 0-1-.3 1.5.5.9-.8 2.2-.6-.3.3 0 .5.8.5.2-.3.8-.6 1.2-1 .2.2.6.4 1.1.5.4 0 .4-.3.4-.5 1 0 1 .4 1.6.7h-.3.3l-.1.2.5.2c0 .5 1.8.6 2 1.2.5-.1 0-.5 0-.7h.2c-.1-.1-.1-.2 0-.4h.4l.1-.1c0-.5-.7-.5-.5-1h.3l.1-.1.5-.1c0 .2.2.3.4.4.7 0-.5-.3.2-.3 1 .6 1.8.5 2.7 1.4 1 0 1.7 0 1.6-.5-.5-.3-.4.2-1.2 0 .1-.4-1-.7-1.2-1.3.4.2.4 0 .8-.1l.3.1v-.3h-.3c-.1-.3-1-.4-1-.7 0 .1-.8.2-.7 0h.3c-.3 0-.6-.2-.3-.3h-.1c-.5 0-.8 0-.8-.4.5 0 1.8.1 2.3-.2 0-.4-.2-.4 0-.7 1.1.1 1.8.4 1.6 1.1l-1.2.1c.3.2.4.6.8.8v.1l.7-.2h-.3c-.4-.3.1-.3.4-.6.7.2 1 0 1.6 0 0 .2.8.1.8.4.4-.2 1.5-.2 1.5.2l-.2.1.5-.1c0-.2.3-.3.4-.5.7.3.8.1 1.7.1.4 0 .1-.4.1-.6l1.3.1s-.2-.2 0-.3h.6c.2.5 1.8.5 2.3 1 .2.6-1.2.9-.5 1.4 0-.6 1.2-.8 2.5-.4.4-.1.6-.4 1.3-.4l.3.1.2-.1c.2.7-1.2 1.2-.4 1.9h-.1l-.1.3c0 .6-1 1-.2 1.4-.9.2-1.8-.1-2.5 0 0 .2 0 .4.2.4 1.2-.2 2 0 3.1-.4.2-.7.3-1-.1-1.4l.1-.2-.1-.1c1.4-.5 1.3-1.8 2-2.7 1-.3.6-1.3 1.7-1.6.5 0 .5.4.9.5.2 0 1-.3.1-.3 1 0 1.5-.3 3.3-.2 0 .2.2.3.5.4l-.1.1-.2.1c0 .3-.5 0-.5.2l.4.2c.4 0 .8 0 .8-.3h.3l-.2-.2.6-.8c1.7-.2 2 1.4 0 1.8.5.8 0 1-.7 1.4h.4c0-.1.7-.1 1-.5.3.2.7.4 1.6.3.4 0 .4-.3.4-.5.8 0 1.3-.1 1.3-.5h.4c1-.2 1-.2 1.7 0 .4-.2 1-.5 1.6-.3.1.7-1.3.5-1.2 1.1 0 .2.7.1.8.2 1-.4 2.4-1.6 4-.8l.2.1h.3c-.2 1.2-3 1.5-2.4 2.8.6 0 1.7 0 1.6-.3 2.2 0 3.8-.6 4.7-1 2.2.8 3.6 1.9 5.6 2.7.5-.1.4-.5 1.2-.5l.5.3c-.1.3-1 .2-.8.7.6.4 3.2.3 3.3-.2.1-.5-.6-.5-.4-1.1.5 0 .5-.3 1.2-.3-.1.4.6.2.5.6 1 0 .8-.6 1.2-1h.8c.2.4 0 .9.5 1-.5 0-.8.3-.5.7h-.8c-.3.7 0 1.4 1.6 1.1.6.2.5 1 .8 1.4h1.1c.6-.5-.1-.8-.4-1.4 0-.4.8-.5.6-1 1.3 0 1.3-.5 1.7-1 1 .2.1 1.3.9 1.5h.4c0-.2 0-.3-.2-.5l.4-.1.2-.1.5-.3c.1-.3-.7-.2-.4-.6 1 0 1.4-.2 1.7-.7l1-.1c.3 0 .2.3.4.3 1.2-.4 1.5-1.2 3.2-1.2 1 0 3.4.7 4 1 .8-.2 1.2 0 2-.2l-.4-.1c.5-.3 1.2.2 1.6.3 0-.6.1-1.3-.1-1.7h1.3c.5 0-.4 0-.2-.3 1-.2 1.7.1 2.1-.3 1 .3 0 1 .6 1.6 1.1-.3.6.5 1.7.2-.2.6 0 1 .5 1.4 1.4-.4 2-1.2 3.1-1.8l21 1c.4-.2.5-.7 1.2-1 .6-.1.1.3.8.2-.2.3-.2.6-.2.9l26.5 1.3h-.7c-.9.6.8 1.4 1.2 2 .2 0 .3-.3.4 0 0-1.5 2.1-1.3 4-1.6.6.7-1.1 1.5-.8 2.3 0 .6 1.1.8 1.3 1.4.9-.2.2-.6 1.3-.6.4-.7-.3-2 .8-2.4.8.2.9.4 1.7.4-.3.3-.8.4-.3.7.8-1 .5-3.2 4.5-3-.7.7-.6 1.7-2 2a9.8 9.8 0 0 1-1.2 3.9c.4.5 1 .7 1.3 1.2 1-.2 1-1 .8-1.3.3-.2.7-.3.5-.7l.6.1-.3.1.8-.1h-.3c-.4-.1-.5-.5-.1-.7-.4-.2-.4.1-1 0 .2-.5 1.1-1-.2-1.5 1-.3 1.7-.7 3.2-.8.5.3.6.8.5 1.4l1.2.3c.6 0 .8-.5 1.7-.5-.2-.3.2-.3.1-.5.8 0 1.4-.2 2.1-.3.1.1.4.6 0 .7l.8.3c.1-.2.6-.7.1-.9l1.3-.3c.2-.3-.2-.4-.1-.6.6.1.6-.2 1 0h.2l-.2-.2h.4l-.1.2.3.1c-.2.3.2.4.1.6h1.3c-.3-.4 0-.6.4-1 1 .2 1.4 0 2-.3.2.3 1.3 1 .1 1.3.3 0 1 .1 1.3.3-.1.3-.6.2-.8.3 1 .5 2.8-1.4.8-1.3l-.1.1.1-.3h-.3c.3-.4-.5-.3-.4-.7.7-.1.8 0 1.2.2 1.3-.6 2.4-.6 3.7-1.1l-.1.2.2-.1c.3.3.4.7 1 .9.3-.4 1.4-.5 1.6-1 .6.4 2 1.2.8 1.6l-.1.1.1.2h.2c.6 0 .8.1.9.4h-.3l.2.1c-.7.2 0 .4-.8.6h-.2l-.4.3h.3c1 .4.7 1.6 1.3 2.1 0 .2-.1.3-.5.3.5.4 1.6.5 2 .9.6-.4 1.3-.7 2.8-.6.2.5 1.6.5 1.2 1.3 1.3-.3 2.5-.5 2.1-1.3l.1-.2.2-.1c.1-.4 1-.5 1.2-.9.7 0 2 0 2 .4.8-.7 1.5-1.5 1.9-2.3.8 0 .5.4.8.5h-.2l.3.1.3.1-.2-.2v-.2h.3l.1-.2c.8 0 1-.3 1.2-.6 2.6.1 1.2 1.4 2 2.3h.4c.1.1-.3 1.2.8 1.3h-.2c.3 0 .4.2.5.2v-.2l1-.6h.4v-.1c.5-.3.7-.6 1.3-.8l-.8-.3c-.5-.4.8-.5.8-.9h1.3c.1.7 0 .7-.4 1.1l-.1.1.3.1.2-.2c2 0 3.8.3 4.8-.5.8.1 1.6.2 1.6.6.3-.6 2-.3 3.5-.3.2.3-.4.2-.4.4h2.1c1 .1 1.2.2 2.4-.3a6 6 0 0 0 1.7-1c.5 0 .1.4.5.4l.2.1h.2c.3.3-.6.1-.4.4h-.5c-.1 0 .1.4-.8.2v.8c.7-.1.7-.4 1.6-.3-.4.3.8.4.4 1-.8-.1-.5.3-1 .3l1 .5.8-.5c.5 0 .5.4.5.8.4-.2.2 0 .5 0l-.1.2.2-.1c.4.4 2.3.2 2.5-.1 0-.4.3-.6 1-.6 0 .3 0 .7-.4.7 1.1.3 1.8-.6 2.8-.7 0-.4.3-1.1 0-1.4.6-.3 1-.6 2.4-.6 0-.4.5-.6.8-.9l1.3.6c-1 1 1 1.2.5 2 .7.2 3.2-.7 3.7.2-.5 0-1.9 0-2.1.5.5.3 1 0 1.6.2.5-.5.7-1 2-1v.3c1.2-.2 1.4 0 2.4 0-.4.4 2 .7 1.7 0 .1.2.3.2.5.2 1-.4 0-1.6 1.2-2 .7 0 .2.3.8.2.4 0 .1-.6.1-.9.8 0 .7-.5 1.6-.5-.3-.2-.4-.2-.1-.5.6.1.4-.3.9-.2.7.4-.4.6 0 1h1.2l.1.1h.3l.4.1c-.2.2-.6.3-.4.6.4.4 1 0 .5.4h2.4l-.2-.2a3 3 0 0 0 1-.2s0-.3.2-.4c.3 0 .4.1.5.2 1.2-.3 2.3-.7 3.4-.4h.2c-.4-.6-.4-1.3-1.2-1.6h.2v-.2l-.2-.4.4.3c.6-.2 1.3 0 1.7 0 .4-.3 1-.4 1.3-.6l1.6.1c0 .4.9.4.7.8.7.1.4-.2 1-.2.1.3.1.2-.2.4l.8.1c-.1.6 1.5.5 1.2 1 .4 0 .7-.2 1-.3h.3v-.5h-.3c-.5 0-.3-.6 0-.7h1c.5.2.1.2 0 .5h-.3l.5.2h.2c.5 0 .4.2.7.2v.1H983.2c.5.2 1-.3 1.4.1.4-.2-.3-.6-.3-.9-.6.2-.8.2-1 .1-.1.1-.1.3-.5.2 0-.2-.3-.4.4-.4v.1H983.6h-.3c0-.4.5-.4.5-.7-.2.1-.2-.2-.8 0 .7-.4-1-1-.2-1.4h.2c0-.1-.2-.2 0-.3.4-.1.4 0 .8.2-.8.6.8.7.4 1.3h-.2.2l1.3.1v-.1h.3l-.1-.1c.6-.2.4-.3.5-.6-.3-.2-1-.2-.8-.5h.4l.3-.1.3-.1h.3l.3-.3.1-.1-.1-.1h.1c.4 0 .4.2.4.3h-.4l.5.3h.4c.5-.1.7-.2.4-.4 1 0 1 .9 1 1.2h-.3c.1.2.4.5.1.6h.3c.2.1.5.3.9.3 1-.2-1-1 .1-1.3h.7l.5-.2-.5.3c.1 0 .2.2.4 0h.4v-.2h-.2v-.4h.4l-.2.2s.2 0 .3.2c.4 0 .8.2 1 .4-1-.1-.4 1.2 0 1.5.2 0 .9 0 .9-.2h.4l.4.1c.9 0 .2-.4 1.3-.4.2 1 .6 1.6 1.3 2.1.4 0-.3-.3.1-.4l1.3.2c0 .3-.4.4.2.5 0-.2.5-.2.7-.3.3-.2-.6-.3-.5 0-.2-.4-.8-.7-1.7-.7 0-.4.3-.7 1.2-.7-.3-.3-.3-.4.1-.6a9 9 0 0 0 3.6.6l1.5.5c0 .1-.6.1-.4.4.2.2 1-.2.4.2 2 0 0-1 0-1.5 0 .3-1 .1-.9-.3 1.5.5.8-.6 2.1-.4-.3.2 0 .4.8.3l.4-.3h-.4l.4-.1h.3l.6-.4c.3.2.7.4 1.2.4.4 0 .4-.2.4-.4 1 0 1 .4 1.6.5l-.2.1.6.1c0 .4 1.8.5 2 1.1.4 0 0-.5 0-.6h.2a.2.2 0 0 1 0-.4h.5c0-.3-.5-.4-.7-.6h-.5v-.2h.8l.1-.1H1014c0 .2 0 .3.4.4.6 0-.6-.3 0-.3 1.1.5 2 .4 2.8 1.1 1 0 1.7 0 1.6-.4-.5-.2-.4.2-1.2.1.2-.3-.9-.6-1.1-1.1.4.2.4 0 .7-.1h.3v-.2h-.3c0-.3-.9-.3-.9-.6-.1 0-.9.2-.8-.1h.3c-.3-.1-.4-.2-.3-.3h-.1c-.5 0-.8-.1-.8-.4.5-.1 1.9 0 2.4-.2 0-.4-.3-.3 0-.6 1 0 1.7.4 1.5 1h-1.1c.2.3.4.6.8.8l.6-.1h-.3c-.3-.3.2-.3.4-.5.7.2 1 0 1.6-.1 0 .3.8.2.8.4.4-.1 1.6-.2 1.6.2h-.3l.5-.1c0-.2.3-.3.4-.4.5.2.8 0 1.7 0 .4 0 .2-.3.2-.4h1.3c-.2 0-.3 0-.2-.2h.4l.3-.1c.3.6 1.8.5 2.3 1 .2.5-1.1.8-.5 1.2 0-.5 1.2-.7 2.5-.4.4-.1.7-.4 1.3-.4h.6c0 .6-1.2 1-.4 1.6l-.2.1-.1.1c0 .5-1 1-.1 1.2-1 .2-1.9 0-2.5.1l.1.3c1.2-.2 2.1 0 3.1-.4.2-.6.3-.8 0-1.2v-.2c1.2-.4 1.2-1.5 1.9-2.3 1-.2.6-1.2 1.7-1.4.5 0 .4.4 1 .4.2 0 1-.3 0-.3 1-.1 1.5-.3 3.3-.2 0 .2.3.3.5.4l-.2.2c0 .3-.5 0-.5.2 0 0 .3 0 .3.2.4 0 .8 0 .8-.3h.3l-.1-.1c0-.2.6-.7.5-.7 1.7-.2 2 1.3.1 1.6.4.7-.1.9-.8 1.2h.4c0-.1.7 0 1-.4.3.2.7.3 1.7.3.3 0 .3-.2.3-.4.8 0 1.3-.1 1.3-.4h.3l.1-.1h.6l-.3-.1v-.4l.4.5h1.2c.4-.1.9-.3 1.6-.2 0 .6-1.4.4-1.2 1 0 .2.6 0 .8.2 1-.3 2.3-1.4 3.9-.7h.5c-.1 1-2.9 1.4-2.4 2.5.7 0 1.8.1 1.6-.3 2.1 0 3.7-.6 4.6-.7 2.2.5 3.7 1.5 5.6 2.2.6 0 .4-.5 1.2-.4l.5.3c0 .2-1 .2-.7.6.5.5 3.1.3 3.2-.2.2-.4-.6-.5-.4-1 .6 0 .6-.3 1.2-.3-.1.3.7.2.6.5.9 0 .7-.5 1.1-.8h.8c.3.2 0 .7.5.8-.5.1-.8.3-.5.6h-.8c-.2.7 0 1.3 1.6 1.1.6.2.5.8.8 1.2h1.2c.5-.5-.2-.7-.4-1.2 0-.4.8-.4.5-.9.5 0 1 0 1-.3v-.3h.3l.4-.4c1 .1.1 1.1 1 1.3h.3l-.1-.6h.4l.1-.2.5-.3c.2-.3-.6-.2-.4-.5 1 .1 1.5-.2 1.7-.6h1c.3 0 .2.2.5.2 1.2-.4 1.4-1 3.1-1 .8 0 3.4.5 4 .8.9 0 1.3 0 2-.2h-.3c.5-.3 1.1.1 1.5.2 0-.5.2-1-.1-1.4h1.3c.5 0-.4 0-.1-.3.9-.2 1.7 0 2-.3 1.1.3 0 .9.6 1.4 1.2-.3.6.4 1.7.1-.1.5 0 1 .5 1.2 1.5-.3 2.1-1 3.2-1.5l15.2.6a3 3 0 0 0-.7-1l.1-.3-.2-.1c0-.2.1-.2.2-.3 0-1.1-.2-1.8.2-2.5 0-.8-.7.7-.8-.3 0-1 .5-.7.8-.3v-.5l.4.1.1-.6c.3 0 1-.8 1 .2l.4-.3c-.2.4-.3.4-.6.5l.3.1c-.2.6-.6.6-.8 1-.2 1.8 0 3.2-.3 4.1h1v-.8c.4 0 .4-.8.6-1.5h-.3c-.1-1.2.3-1.4.5-2.2.3.1.3.4.6.5l-.2.4h.3l-.3.5c.3.4-.1 1.3-.1 2 .1.5.7.5 1 .5v.4c0-.2.3-.3.4-.4l-.1-.3h.1c-.6-2 .6-3.1.7-4.3-.1.5-.7-.5-.7-1.5.7.5.7-2.2 0-1.8l.2-.3-.3.6h.3c.2 0 .1.5.1 1l-.5.2c0 .6.2.5.1 1.2h-.5l-.1-.4-.3.1-.1-1.8.2-.2h-.6v.3c0 .3-.2.7-.7.5l.1-.4-.2.1c.4-1 .1-1.8.2-3h.3c.3 0 .3.3.3.7.6 0 0-2.2.6-2.3l.2.4-.2-.6c-.5-.4-.5-.6-1 0-.3-.7-.2-1 .1-1.5h-.3l.2-.8h.2v.3c.2-.3.3-.7.2-1.2v.1c-.4.2-.3-.5-.6-.8l.2-.4h-.3c.1-.8.7-1 1-1.3l.2.4h.3v1.3c-.3.3-.7 0-.8.5 1.1.6 1-2 1.7-3v-.3c-.4.6-.6 0-1-.3v-.4h-.2l.1.8-.4-.5v-1.1l.2.6v-.6h.2l.2-.3c0-.4.6-.3.6-1h.1c0-.3 0-.6.2-.8.2.2.4.6.4 1l-.2.4.4-.6.5.6v-.4h.6l-.2-.2c0-.7-.4-1.4-.5-2.3.7-.3.7.5.8 1 .6-.4 1.4-1 2-.3l-.2.4h.7l-.3-.4c0-.6.4-.6.6 0l-.3.3.1.2c.2-.3.2-.6.4-.7.3.1.3.8.7.2 0-1.2-.6-.2-.8-1l.1-.2-.1-.3c.2-1 .8-1.3.8-2.7-.2-.8-.8-1-1-.2-.2-.2 0-.5-.2-1.3-.5.1-.3 1.3-1 1v-.4l-.2-.1c-.3-.3-.7-.9-.3-1.5-.2.5-.2 0-.7 0v-.5l-.2.1.2.4c-.2.4-.3.8-.7.7 0-.8-.1-1.8.1-2.3.4 0 .2.7.6.8.2-1.6.8-2.3.5-4.4.5-1.1 1.4-.3 1.6-1.7 0-.8-.7-.5-.7-1.2-.3.2 0 1.4-.5 1.5-.5-.1-.4-1.2-.5-2-.4-.4-.8-1-1-1.8-.4.4 0 1.8-.5 2.3.1.4.1 1 .7 1-.6.9-.3 3-1 3.8v-.3.4c.6.2.6 1 .3 1.8-.5-.3-.3-.5-.9-.2v-.8l.3-.3-.3-.6-.1.4c-.4.2-.7.5-.7 1.3-.3-.8-.8-1.3-1.6-1.3v-.4l-.3.1c-.3-2-.3-4.1-1.6-5.2-.6 0-.4.8-1 .5.2-1.4-1-.8-.9-2.2.4.1.8-.7 1.2-.3l-.1.4h.3c.3.2.7-.8.5-.9l.1-.4h-.3v-.4c.4 0 .3-.3.7 0a12 12 0 0 1 .1-3.1l.2-1-.2-.4-.1-.4h.1c.2-.8-.1-1-.5-1.2-.5 1.1-1.3-.2-1.8 0 .1-.3.2-.5.5-.5l-1-2c.9-1.2-.2-3.7.3-5.4 0-.3-.2-.2-.3-.2l.5-1.2-.5-1c.2-.2.3-.3.5-.3l.2.3v.3l.2-.4.2.8c.4-.4 1.2-.8 1.6 0-.1.4-.1 1.1-.7 1l.7.8c.4-.3.3-1 .3-2l.2.1-.5-1.2.1.3c-.5-.1-.5.3-.9.3-.5-1-.6-3.1.1-4-.7-.1-.9-2.6-1.5-2.2 0-1 1.3-1.7 1.1-3.2h.3c.4-.1.4.5.5 1 .6-1.6-.8-2.8-.8-4.3h-1.5c-.1-1.4.5-1.6 1-2-.5-.2-.9-.7-1.5-.7-.3-.6-.3-1.4-.7-1.8h-.3v-.7h.3c.1-.5.7-.8.7-.5l-.2.4.7-.5-.3-.1c.2-.4.7-.4.8-.8h.3l-.2-.3c.6.2.6-.4.7-1 .8-.4.6.6 1.2.5.1.9-.3 1-.2 1.8.3.6.4-1 1-.8 0-1.7 0-2.2-.7-2.8 0-1.6.1-5.4-1.8-5.2v-1c.2-.1.8-.8 1-1.6-.4.4-1.3.4-1-1 .8 0 .8-.2 1.1.5v.1c.4 0 .6.5.7-.2l.3.1c-.2-.4-.2-.8 0-1.3l-.3.1v-.5l.3.3c0-.2.3-.3.6-.4h-.3c.5-.4 0-1.3-.2-.6-.7-1.1 0-3.3-1-3.2.3-.4.5-1 .6-1.5-.3 0-.7-.3-1.2-.5.3-.9.4-2 1.2-2l.1-2.7c-.8-.3-.5 1-1.2.7-.3-.5 0-.8 0-2 .7.4.8-.6 1.6-.4v.8c.5 0 .5-.8 1-1v-.2c-.3 0-.5-.2-.7-.3v-1.3h.9v1.3c.7-.2.7-1.4 1-1.8-.5 0-.6-.2-.5-1.8-.9-.2-1.1.7-1.8 1l.1.3-.2.4v-.8a.8.8 0 0 0-.4-.2c.2-1.3.1-2.5-.7-2.7l.1-.4-.2-.1v-.5c.5 0 .8-.3 1-.5v-1c-.2-.3-.4-.8-.9-.8l.1-1.2c-.2-1 0-1.6.7-1.5v.4c.4-.4 1-.6 1.4-.9v-1c-.3.2-.9.1-1.1.5-.4-.4 0-.6-.2-1.2h-.2l.1-.4-.3-.1c.2-.8 1-.6 1-1.3.2.2.4.5.4.8v-2.5c.3.2.2-.5.5-.7h.1l-.1-.3-.2-.6.2.4c-.5.4-1.2.9-1 2.3-.6-.5-.5-1-1.1-.5-.2-.6-.2-1.6-1-1.5 0-.9.4-.8.6-1.5-.2-.6-.8 0-1-.3-.2-.5-.3-.9-.7-1 .2-1 .8-1.7 1.4-2.2.3.3.1 1.2.3 1.4.4.1.2-.3.2-.6.4 0 .3 1 .3 1.7.3 0 .4-.3.7-.2.3-.7 1.1-.7.9-2.2 0-.3-.4-.2-.7-.3h-.1l-.1-.4c0 .3 0 .6-.2.8l-.5-.2.4-.4c-.1-.4.3-.8 0-1.3-.4.7-.8.8-1.4.5v-1c.5-.4.5.2.9-.3-.3-1-1.2-1.8-.6-3l.3.1v-.5l-.3.1c-.6-.9-.9 1-1.5.8 0-1.2-.5-2.8-.3-4-.5-.6.4-2.3.5-3.2.7.6.3 2.6 0 3.3.6 0 .4-.6.8-.5.3.6.7.8.8 1.5.1-.2.4-.1.5-.5-.1-.7-1-1.2-.5-2.3h.3l-.2-.4v-.1c-.5-1-1.3-2.4-1.1-4v-.4l.2-.1-.1-.4c.3-1 .3-2.3.3-3.5-.2-.7-.3.6-.7.3-.3-2.7 1.7-2 1.8-4 .3 0 .3.2.6.3v-.5c-.4-.8-.6.8-1 0-.4.2 0 1.3-.7 1v-.4l-.2.1-.2-.8c.5-.8 0-3.2 1-3l.1-.6h.3l-.1-1.8.2-.9-.2.1c0-.6-.3-.8 0-1.2.9.4.9-.9 1.5-1 0 .3.3.2.6.2l.1 2c.1 0 .1-.3.3-.2v.4l.4-1-.2.1c-.2-.3-.1-1-.1-1.6-.3-.5-1 0-.8-1.3h.3l.1-.3h.1c.2-.8.6-1.1.7-1.8.5 0 .3 1.2.9 1-.5-1.4.1-2.1-.1-3.3-.4 1.7-1.9 1.6-1.7 4l-.3-.1-.1.4c-.7.6-.7-1.7-.5-2.7-.6.2-.8 1-1.2 1.2-.4-.3 0-2-.3-3.3.3-.6 1.2-.3 1.5-1 .4.2.4 1 1 .8.1-.2.1-.6.5-.5-.4-.2-.4-.9-.2-1.7-.3-.3-.4-.7-.8-.8l-.1-2.5-.5.5.5-.5v-.8l-.3-.1v-.3c-.3 0-.8 0-1-.7 0-.3.2-.5.3-.6l.5 1 .3-.4v-.4c.3-.4.7 1.2 1.2 1.2l-.5 1.3c.4 0 .4-.5.5-1 .7.2 1-.1 1.2-.6-.3-.3-.3-1-.3-1.7h-1l.2-.4h-.2v-1.3h.2l.2-.3c.4 0 .4-.5.7-.3.3.5 0 .6 0 1.2.6-.6 1 .8 2-.3.1 1-.1 1.3-.3 1.8-.7-.7-1.1.4-1.4 1.3l-.1-.4v.5h.2c.4.1 0 1.1-.1 1.1.1.4.4.5.8.5l.1.4c.1-.4.3-.6.5-.6v-.3c0-.1 0-.2.2-.3-.2-.1-.3-.3-.3-.7.1-.2.4 0 .5-.5.4.3 0 .8 0 1.2.3-.2.7-.2.7.8.3 0 .3-.2.5-.3v.3l.5-1.6-.2.1c-.1-1.7 1-2.5.9-3.6l-.3.2c.2 0 .2-.1.3-.2v-.3l.1-.5-.2-.3c.1-1.2.9-1.2 1.1-2l6.5 2ZM654.4 12.2Zm0 .2v.5c-.3 0-.2-.4 0-.5Zm-37.7-1.1c-.4.3-.8.3-1.3 0l-.1.2h-.2c.2-.1.3-.4.3-.6l1.3.4Zm-2.3-1c0-.1 0-.1 0 0Zm-11.2 5v.3c.1.3 1 .3.4.5H603.3l-.3.1c0 .1.2.1.2 0l.3.7-1.6-.2.1-.2-.2-.1c-.2-.5.5-.6.4-1h-.6l.3-.6.3.2-.2.2h.4l-.1-.2 1 .2Zm-2.5-1.7h-.6v-.3c.1.2.4.2.6.3ZM511 11.1c0 .4 1.4.4 2.2.4 0 .2-.1.2-.3.3 1 .2 1.2-.3 1.7.2h-.2l.1.3-1.4-.1c.4.3.9.4.8 1h-1.4c-.3-.3-1.1-.2-1-.6-1.3.1-2.8.2-3.3.7-1.2 0-1-1.1-.2-1.3 0-.4-.6-.5-1.5-.5-.2-.1.5-.8.8-1l.4.2.1-.1c.4 0 .8.2.8.5 1.2-.1 1.6.4 2.4 0Zm-6.8.6.1.2-1-.1.9-.1Zm48.6 473.9h.1v.3l-.1-.3Zm57.1 4.5.1-1c.2.2 0 .6.6.7-.4 0-.6.1-.7.3Zm6 1h-.2.2Z" fill="#AFADAC"/></svg>