<svg width="172" height="21" fill="none" xmlns="http://www.w3.org/2000/svg"><path d="M2 4c0 1.13.58 2.2 1.26 3.06.3.39.63.74.95 1.04-1.38-.03-3.1-.09-4.2-.1L0 9.12c2.42.03 5.63.11 9.2.23-.39.47-.85 1.16-1.25 1.97A8.45 8.45 0 0 0 7 15h.8c0-1.07.35-2.15.82-3.1A9.48 9.48 0 0 1 10 9.83l-.29-.46c3.08.1 6.45.23 9.83.37-.42.43-.87.98-1.28 1.6A6.86 6.86 0 0 0 17 15h1.07c0-1.07.46-2.15 1.08-3.1A9.85 9.85 0 0 1 21 9.83l-.03-.04c4.48.2 8.84.41 12.8.64-.48.39-1.03.9-1.51 1.52A5.13 5.13 0 0 0 31 15h1.07c0-.9.46-1.8 1.08-2.58A8.94 8.94 0 0 1 35 10.7l-.2-.2c2.8.17 5.54.33 7.51.5l.01.01h.03c1.67.14 3.6.26 5.46.38-.49.4-1.05.93-1.55 1.56A5.13 5.13 0 0 0 45 16h1.07c0-.9.46-1.8 1.08-2.58A8.94 8.94 0 0 1 49 11.7l-.23-.24c2.05.14 4.14.26 6.34.37l.21.18.13-.16c1.58.08 3.13.17 4.76.24-.32.36-.65.78-.95 1.24A6.86 6.86 0 0 0 58 17h1.07c0-1.07.46-2.15 1.08-3.1.48-.72 1.04-1.33 1.49-1.76 3.73.16 7.53.3 11.32.4-.33.38-.7.85-1.01 1.4A6.14 6.14 0 0 0 71 17h.8c0-.9.35-1.8.82-2.58A7.98 7.98 0 0 1 74 12.7l-.09-.12c3.97.1 7.81.2 11.53.26-.39.42-.8.92-1.18 1.5A6.86 6.86 0 0 0 83 18h1.07c0-1.07.46-2.15 1.08-3.1a9.89 9.89 0 0 1 1.8-2.04l6.3.09.07.05.04-.05 3.94.03c-.35.39-.7.84-1.04 1.34A6.86 6.86 0 0 0 95 18h1.07c0-1.07.46-2.15 1.08-3.1.54-.81 1.18-1.5 1.65-1.91l5.5-.01.02.02.02-.02c1.63-.01 2.92-.03 4.02-.06-.37.4-.75.88-1.1 1.4A6.86 6.86 0 0 0 106 18h1.07c0-1.07.46-2.15 1.08-3.1.6-.89 1.3-1.61 1.78-2.02l.53-.01c1.16-.06 6.45-.4 9.05-.55-.2.3-.39.64-.57 1A8.46 8.46 0 0 0 118 17h.8c0-1.07.35-2.15.82-3.1.33-.66.7-1.24 1.03-1.65l6.5-.4.17.15.14-.17 4.11-.25c-.43.37-.9.83-1.31 1.36A5.13 5.13 0 0 0 129 16h1.07c0-.9.46-1.8 1.08-2.58A8.95 8.95 0 0 1 133 11.7l-.18-.19 6.96-.42 4.05-.25c-.3.42-.6.92-.89 1.5A8.46 8.46 0 0 0 142 16h.8c0-1.07.35-2.15.82-3.1a9.48 9.48 0 0 1 1.38-2.08l-.04-.05c4.74-.3 6.75-.41 10.68-.65-.24.35-.48.76-.7 1.2A8.46 8.46 0 0 0 154 15h.8c0-1.07.35-2.15.82-3.1.38-.78.84-1.43 1.19-1.86l6.14-.37.37.33.3-.37c1.44-.08 4.78-.3 5.62-.34-.4.48-.88 1.19-1.3 2.03A8.46 8.46 0 0 0 167 15h.8c0-1.07.35-2.15.82-3.1A9.49 9.49 0 0 1 170 9.83l-.35-.55 2.35-.15-.04-1.12-8.66.53a10.2 10.2 0 0 1-1.15-1.44A5.81 5.81 0 0 1 161.07 4H160c0 1.36.58 2.65 1.26 3.68.22.33.45.64.69.93l-10.08.61a9.03 9.03 0 0 1-1.72-1.64A4.36 4.36 0 0 1 149.07 5H148c0 1.13.58 2.2 1.26 3.06.38.48.8.9 1.18 1.25l-10.7.65a10.12 10.12 0 0 1-1.59-1.87A5.81 5.81 0 0 1 137.07 5H136c0 1.36.58 2.65 1.26 3.68.34.51.7.97 1.06 1.36l-10.84.67c-.42-.42-.9-.97-1.33-1.62A5.81 5.81 0 0 1 125.07 6H124c0 1.36.58 2.65 1.26 3.68.27.4.55.78.84 1.1l-5.53.35-.08-.13-.12.14-4.47.27.1-.1a8.95 8.95 0 0 1-1.85-1.73A4.36 4.36 0 0 1 113.07 7H112c0 1.13.58 2.2 1.26 3.06a10 10 0 0 0 1.39 1.43l-4.24.26c-1.1.06-3.23.09-5.77.1-.45-.42-1-1.03-1.49-1.76A5.81 5.81 0 0 1 102.07 7H101c0 1.36.58 2.65 1.26 3.68.29.43.6.83.9 1.18-2.6.01-6.1-.03-9.59-.07-.43-.42-.96-1-1.42-1.7A5.81 5.81 0 0 1 91.07 7H90c0 1.36.58 2.65 1.26 3.68.26.4.55.77.83 1.1-3.7-.04-7.11-.07-11.32-.16l.23-.3a7.98 7.98 0 0 1-1.38-1.74A5.2 5.2 0 0 1 78.8 7H78c0 1.13.44 2.2.95 3.06.36.62.78 1.15 1.14 1.54-3.98-.09-8.05-.2-12.15-.35l.06-.07a9.85 9.85 0 0 1-1.85-2.09A5.81 5.81 0 0 1 65.07 6H64c0 1.36.58 2.65 1.26 3.68.38.58.8 1.1 1.2 1.52L61.34 11l-.01-.01-.01.01c-2-.09-3.89-.2-5.82-.3-.42-.4-.9-.97-1.34-1.62A5.81 5.81 0 0 1 53.07 6H52c0 1.36.58 2.65 1.26 3.68.23.34.47.67.71.96-4.03-.22-7.9-.46-11.3-.75a10.17 10.17 0 0 1-1.52-1.8A5.81 5.81 0 0 1 40.07 5H39c0 1.36.58 2.65 1.26 3.68.27.4.55.77.84 1.1-3.26-.25-7.52-.5-12.26-.74-.48-.42-1.13-1.1-1.69-1.95A5.81 5.81 0 0 1 26.07 4H25c0 1.36.58 2.65 1.26 3.68.31.47.66.9.99 1.28-4.15-.2-8.22-.38-12.37-.53l.12-.12a8.95 8.95 0 0 1-1.85-1.73A4.35 4.35 0 0 1 12.07 4H11c0 1.13.58 2.2 1.26 3.06.4.51.85.96 1.27 1.32-2.88-.1-5.34-.18-7.77-.24a9.1 9.1 0 0 1-1.6-1.56A4.36 4.36 0 0 1 3.06 4H2z" style="fill:#cac9c8;fill-opacity:1"/><path fill-rule="evenodd" clip-rule="evenodd" d="M26 4a1 1 0 1 0 0-2 1 1 0 0 0 0 2Zm0 1a2 2 0 1 0 0-4 2 2 0 0 0 0 4ZM12 3a1 1 0 1 0 0-2 1 1 0 0 0 0 2Zm0 1a2 2 0 1 0 0-4 2 2 0 0 0 0 4ZM40 5a1 1 0 1 0 0-2 1 1 0 0 0 0 2Zm0 1a2 2 0 1 0 0-4 2 2 0 0 0 0 4ZM53 5a1 1 0 1 0 0-2 1 1 0 0 0 0 2Zm0 1a2 2 0 1 0 0-4 2 2 0 0 0 0 4ZM65 6a1 1 0 1 0 0-2 1 1 0 0 0 0 2Zm0 1a2 2 0 1 0 0-4 2 2 0 0 0 0 4ZM78 6a1 1 0 1 0 0-2 1 1 0 0 0 0 2Zm0 1a2 2 0 1 0 0-4 2 2 0 0 0 0 4ZM91 6a1 1 0 1 0 0-2 1 1 0 0 0 0 2Zm0 1a2 2 0 1 0 0-4 2 2 0 0 0 0 4ZM101 6a1 1 0 1 0 0-2 1 1 0 0 0 0 2Zm0 1a2 2 0 1 0 0-4 2 2 0 0 0 0 4ZM113 6a1 1 0 1 0 0-2 1 1 0 0 0 0 2Zm0 1a2 2 0 1 0 0-4 2 2 0 0 0 0 4ZM137 5a1 1 0 1 0 0-2 1 1 0 0 0 0 2Zm0 1a2 2 0 1 0 0-4 2 2 0 0 0 0 4Z" fill="#CAC9C8"/><path fill-rule="evenodd" clip-rule="evenodd" d="M125 5.75c.55 0 1-.56 1-1.25s-.45-1.25-1-1.25-1 .56-1 1.25.45 1.25 1 1.25ZM125 7c1.1 0 2-1.12 2-2.5s-.9-2.5-2-2.5-2 1.12-2 2.5.9 2.5 2 2.5Z" fill="#CAC9C8" style="stroke:none"/><path fill-rule="evenodd" clip-rule="evenodd" d="M149 4a1 1 0 1 0 0-2 1 1 0 0 0 0 2Zm0 1a2 2 0 1 0 0-4 2 2 0 0 0 0 4ZM161 3.75c.55 0 1-.56 1-1.25s-.45-1.25-1-1.25-1 .56-1 1.25.45 1.25 1 1.25ZM161 5c1.1 0 2-1.12 2-2.5s-.9-2.5-2-2.5-2 1.12-2 2.5.9 2.5 2 2.5ZM2 3a1 1 0 1 0 0-2 1 1 0 0 0 0 2Zm0 1a2 2 0 1 0 0-4 2 2 0 0 0 0 4ZM18 15a1 1 0 1 1 0 2 1 1 0 0 1 0-2Zm0-1a2 2 0 1 1 0 4 2 2 0 0 1 0-4ZM7 15a1 1 0 1 1 0 2 1 1 0 0 1 0-2Zm0-1a2 2 0 1 1 0 4 2 2 0 0 1 0-4ZM32 16a1 1 0 1 1 0 2 1 1 0 0 1 0-2Zm0-1a2 2 0 1 1 0 4 2 2 0 0 1 0-4ZM45 17a1 1 0 1 1 0 2 1 1 0 0 1 0-2Zm0-1a2 2 0 1 1 0 4 2 2 0 0 1 0-4ZM58.5 17.25a1.25 1.25 0 1 1 0 2.5 1.25 1.25 0 0 1 0-2.5Zm0-1.25a2.5 2.5 0 1 1 0 5 2.5 2.5 0 0 1 0-5ZM71 18a1 1 0 1 1 0 2 1 1 0 0 1 0-2Zm0-1a2 2 0 1 1 0 4 2 2 0 0 1 0-4ZM84 18a1 1 0 1 1 0 2 1 1 0 0 1 0-2Zm0-1a2 2 0 1 1 0 4 2 2 0 0 1 0-4ZM95.5 18c.69 0 1.25.45 1.25 1s-.56 1-1.25 1-1.25-.45-1.25-1 .56-1 1.25-1Zm0-1c1.38 0 2.5.9 2.5 2s-1.12 2-2.5 2-2.5-.9-2.5-2 1.12-2 2.5-2ZM118 17.25c.55 0 1 .56 1 1.25s-.45 1.25-1 1.25-1-.56-1-1.25.45-1.25 1-1.25Zm0-1.25c1.1 0 2 1.12 2 2.5s-.9 2.5-2 2.5-2-1.12-2-2.5.9-2.5 2-2.5ZM106 18a1 1 0 1 1 0 2 1 1 0 0 1 0-2Zm0-1a2 2 0 1 1 0 4 2 2 0 0 1 0-4ZM130 17a1 1 0 1 1 0 2 1 1 0 0 1 0-2Zm0-1a2 2 0 1 1 0 4 2 2 0 0 1 0-4ZM142 16a1 1 0 1 1 0 2 1 1 0 0 1 0-2Zm0-1a2 2 0 1 1 0 4 2 2 0 0 1 0-4ZM154 16a1 1 0 1 1 0 2 1 1 0 0 1 0-2Zm0-1a2 2 0 1 1 0 4 2 2 0 0 1 0-4ZM167 15a1 1 0 1 1 0 2 1 1 0 0 1 0-2Zm0-1a2 2 0 1 1 0 4 2 2 0 0 1 0-4Z" fill="#CAC9C8"/></svg>