

<svg width="2412" height="9" viewBox="0 0 2412 9" fill="none" xmlns="http://www.w3.org/2000/svg">
<g clip-path="url(#clip0_1_150)">
<mask id="mask0_1_150" style="mask-type:luminance" maskUnits="userSpaceOnUse" x="-68" y="0" width="1502" height="9">
<path d="M1434 0H-68V9H1434V0Z" fill="white"/>
</mask>
<g mask="url(#mask0_1_150)">
<path d="M26 0H-68V3.27966L-45.1824 9L-21.035 2.8983L3.18243 9L26 3.27966V0Z" fill="#FAFAFA"/>
<path d="M120 0H26V3.27966L48.8176 9L72.965 2.8983L97.1824 9L120 3.27966V0Z" fill="#FAFAFA"/>
<path d="M214 0H120V3.27966L142.818 9L166.965 2.8983L191.182 9L214 3.27966V0Z" fill="#FAFAFA"/>
<path d="M307 0H214V3.27966L236.575 9L260.465 2.8983L284.425 9L307 3.27966V0Z" fill="#FAFAFA"/>
<path d="M401 0H307V3.27966L329.818 9L353.965 2.8983L378.182 9L401 3.27966V0Z" fill="#FAFAFA"/>
<path d="M495 0H401V3.27966L423.818 9L447.965 2.8983L472.182 9L495 3.27966V0Z" fill="#FAFAFA"/>
<path d="M589 0H495V3.27966L517.818 9L541.965 2.8983L566.182 9L589 3.27966V0Z" fill="#FAFAFA"/>
<path d="M682 0H589V3.27966L611.575 9L635.465 2.8983L659.425 9L682 3.27966V0Z" fill="#FAFAFA"/>
<path d="M776 0H682V3.27966L704.818 9L728.965 2.8983L753.182 9L776 3.27966V0Z" fill="#FAFAFA"/>
<path d="M870 0H776V3.27966L798.818 9L822.965 2.8983L847.182 9L870 3.27966V0Z" fill="#FAFAFA"/>
<path d="M964 0H870V3.27966L892.818 9L916.965 2.8983L941.182 9L964 3.27966V0Z" fill="#FAFAFA"/>
<path d="M1058 0H964V3.27966L986.818 9L1010.97 2.8983L1035.18 9L1058 3.27966V0Z" fill="#FAFAFA"/>
</g>
</g>
<mask id="mask1_1_150" style="mask-type:luminance" maskUnits="userSpaceOnUse" x="910" y="0" width="1502" height="9">
<path d="M2412 0H910V9H2412V0Z" fill="white"/>
</mask>
<g mask="url(#mask1_1_150)">
<path d="M1098 0H1004V3.27966L1026.82 9L1050.96 2.8983L1075.18 9L1098 3.27966V0Z" fill="#FAFAFA"/>
<path d="M1192 0H1098V3.27966L1120.82 9L1144.96 2.8983L1169.18 9L1192 3.27966V0Z" fill="#FAFAFA"/>
<path d="M1285 0H1192V3.27966L1214.57 9L1238.46 2.8983L1262.42 9L1285 3.27966V0Z" fill="#FAFAFA"/>
<path d="M1379 0H1285V3.27966L1307.82 9L1331.96 2.8983L1356.18 9L1379 3.27966V0Z" fill="#FAFAFA"/>
<path d="M1473 0H1379V3.27966L1401.82 9L1425.96 2.8983L1450.18 9L1473 3.27966V0Z" fill="#FAFAFA"/>
<path d="M1567 0H1473V3.27966L1495.82 9L1519.97 2.8983L1544.18 9L1567 3.27966V0Z" fill="#FAFAFA"/>
<path d="M1660 0H1567V3.27966L1589.58 9L1613.47 2.8983L1637.42 9L1660 3.27966V0Z" fill="#FAFAFA"/>
<path d="M1754 0H1660V3.27966L1682.82 9L1706.97 2.8983L1731.18 9L1754 3.27966V0Z" fill="#FAFAFA"/>
<path d="M1848 0H1754V3.27966L1776.82 9L1800.97 2.8983L1825.18 9L1848 3.27966V0Z" fill="#FAFAFA"/>
<path d="M1942 0H1848V3.27966L1870.82 9L1894.97 2.8983L1919.18 9L1942 3.27966V0Z" fill="#FAFAFA"/>
<path d="M2036 0H1942V3.27966L1964.82 9L1988.97 2.8983L2013.18 9L2036 3.27966V0Z" fill="#FAFAFA"/>
<path d="M2130 0H2036V3.27966L2058.82 9L2082.97 2.8983L2107.18 9L2130 3.27966V0Z" fill="#FAFAFA"/>
<path d="M2224 0H2130V3.27966L2152.82 9L2176.97 2.8983L2201.18 9L2224 3.27966V0Z" fill="#FAFAFA"/>
<path d="M2318 0H2224V3.27966L2246.82 9L2270.97 2.8983L2295.18 9L2318 3.27966V0Z" fill="#FAFAFA"/>
<path d="M2412 0H2318V3.27966L2340.82 9L2364.97 2.8983L2389.18 9L2412 3.27966V0Z" fill="#FAFAFA"/>
</g>
<defs>
<clipPath id="clip0_1_150">
<rect width="1366" height="9" fill="white"/>
</clipPath>
</defs>
</svg>
