<svg xmlns="http://www.w3.org/2000/svg" width="114" height="254" fill="none"><path fill="#FBE6D7" d="M75.908 39.664c-.282-.885-1.534-.885-1.816 0l-1.662 5.229a.952.952 0 0 1-1.345.557l-4.873-2.522c-.825-.427-1.71.459-1.284 1.284l2.522 4.873a.952.952 0 0 1-.557 1.345l-5.23 1.662c-.884.282-.884 1.534 0 1.816l5.23 1.662a.952.952 0 0 1 .557 1.345l-2.522 4.873c-.427.825.459 1.71 1.284 1.284l4.873-2.522a.952.952 0 0 1 1.345.557l1.662 5.23c.282.884 1.534.884 1.816 0l1.662-5.23a.952.952 0 0 1 1.345-.557l4.873 2.522c.825.427 1.71-.459 1.284-1.284l-2.522-4.873a.952.952 0 0 1 .557-1.345l5.23-1.662c.884-.282.884-1.534 0-1.816l-5.23-1.662a.952.952 0 0 1-.557-1.345l2.522-4.873c.427-.825-.459-1.71-1.284-1.284l-4.873 2.522a.952.952 0 0 1-1.345-.557l-1.662-5.23ZM114.713 85.522c-.221-.696-1.205-.696-1.426 0l-1.306 4.108a.748.748 0 0 1-1.057.438l-3.829-1.982c-.648-.335-1.344.36-1.009 1.009l1.982 3.829a.749.749 0 0 1-.438 1.057l-4.108 1.306c-.696.22-.696 1.205 0 1.426l4.108 1.306c.442.14.651.645.438 1.057l-1.982 3.829c-.335.648.361 1.344 1.009 1.009l3.829-1.982a.749.749 0 0 1 1.057.438l1.306 4.108c.221.696 1.205.696 1.426 0l1.306-4.108a.749.749 0 0 1 1.057-.438l3.829 1.982c.648.335 1.344-.361 1.009-1.009l-1.982-3.829a.749.749 0 0 1 .438-1.057l4.108-1.306c.696-.22.696-1.205 0-1.426l-4.108-1.306a.749.749 0 0 1-.438-1.057l1.982-3.829c.335-.648-.361-1.344-1.009-1.009l-3.829 1.982a.748.748 0 0 1-1.057-.438l-1.306-4.108ZM66.713 194.522c-.22-.696-1.205-.696-1.426 0l-1.306 4.108a.749.749 0 0 1-1.057.438l-3.829-1.982c-.648-.335-1.344.361-1.009 1.009l1.982 3.829a.748.748 0 0 1-.438 1.057l-4.108 1.306c-.696.221-.696 1.205 0 1.426l4.108 1.306a.748.748 0 0 1 .438 1.057l-1.982 3.829c-.335.648.36 1.344 1.009 1.009l3.829-1.982a.749.749 0 0 1 1.057.438l1.306 4.108c.22.696 1.205.696 1.426 0l1.306-4.108a.749.749 0 0 1 1.057-.438l3.829 1.982c.648.335 1.344-.361 1.009-1.009l-1.982-3.829a.748.748 0 0 1 .438-1.057l4.108-1.306c.696-.221.696-1.205 0-1.426l-4.108-1.306a.748.748 0 0 1-.438-1.057l1.982-3.829c.335-.648-.36-1.344-1.009-1.009l-3.829 1.982a.749.749 0 0 1-1.057-.438l-1.306-4.108ZM8.519 57.38a.544.544 0 0 0-1.038 0l-.95 2.987a.544.544 0 0 1-.768.319l-2.785-1.441c-.471-.244-.977.262-.733.733l1.44 2.785c.156.3.004.666-.318.769l-2.988.95a.544.544 0 0 0 0 1.037l2.988.95c.322.102.474.469.319.768l-1.441 2.785c-.244.471.262.977.733.733l2.785-1.44a.544.544 0 0 1 .768.318l.95 2.988a.544.544 0 0 0 1.038 0l.95-2.988a.544.544 0 0 1 .768-.319l2.785 1.441a.544.544 0 0 0 .733-.733l-1.44-2.785a.544.544 0 0 1 .318-.768l2.988-.95a.544.544 0 0 0 0-1.038l-2.988-.95a.544.544 0 0 1-.319-.768l1.441-2.785a.544.544 0 0 0-.733-.733l-2.785 1.44a.544.544 0 0 1-.768-.318l-.95-2.988ZM46.519 238.379c-.161-.505-.877-.505-1.038 0l-.95 2.988a.544.544 0 0 1-.768.319l-2.785-1.441c-.471-.244-.977.262-.733.733l1.44 2.785a.544.544 0 0 1-.318.768l-2.988.95a.545.545 0 0 0 0 1.038l2.988.95a.544.544 0 0 1 .319.768l-1.441 2.785c-.244.471.262.977.733.733l2.785-1.441a.544.544 0 0 1 .769.319l.95 2.988c.16.505.876.505 1.037 0l.95-2.988a.544.544 0 0 1 .768-.319l2.785 1.441c.471.244.977-.262.733-.733l-1.44-2.785a.544.544 0 0 1 .318-.768l2.988-.95a.545.545 0 0 0 0-1.038l-2.988-.95a.544.544 0 0 1-.319-.768l1.441-2.785c.244-.471-.262-.977-.733-.733l-2.785 1.441a.544.544 0 0 1-.769-.319l-.95-2.988ZM40.18 127.498c-.21-.664-1.15-.664-1.36 0l-1.248 3.922a.715.715 0 0 1-1.009.418l-3.654-1.892c-.619-.32-1.283.344-.963.963l1.892 3.654a.715.715 0 0 1-.418 1.01l-3.922 1.246c-.664.211-.664 1.151 0 1.362l3.922 1.246a.715.715 0 0 1 .418 1.01l-1.892 3.654c-.32.619.344 1.283.963.963l3.654-1.892a.715.715 0 0 1 1.01.418l1.246 3.922c.211.664 1.15.664 1.362 0l1.247-3.922a.715.715 0 0 1 1.009-.418l3.654 1.892c.619.32 1.283-.344.963-.963l-1.892-3.654a.715.715 0 0 1 .418-1.01l3.922-1.246c.664-.211.664-1.151 0-1.362l-3.922-1.246a.715.715 0 0 1-.418-1.01l1.892-3.654c.32-.619-.344-1.283-.963-.963l-3.654 1.892a.715.715 0 0 1-1.01-.418l-1.246-3.922Z"/><path fill="#F8E099" d="M43.988 27c.54 0 1.03.272 1.423.726.368.484.589 1.12.589 1.785 0 .666-.22 1.301-.589 1.786a1.767 1.767 0 0 1-2.822 0A2.973 2.973 0 0 1 42 29.51c0-.665.22-1.3.589-1.785A1.689 1.689 0 0 1 43.988 27ZM98.975 167c1.08 0 2.062.436 2.847 1.162.736.774 1.178 1.791 1.178 2.856s-.442 2.082-1.178 2.856c-1.472 1.501-4.172 1.501-5.644 0-.736-.774-1.178-1.791-1.178-2.856s.442-2.082 1.178-2.856c.687-.775 1.718-1.162 2.797-1.162ZM1.988 107c.54 0 1.03.218 1.423.581.368.387.589.896.589 1.428 0 .533-.22 1.041-.589 1.428-.736.751-2.086.751-2.822 0A2.083 2.083 0 0 1 0 109.009c0-.532.22-1.041.589-1.428.344-.387.859-.581 1.399-.581Z"/><path fill="#E59238" fill-rule="evenodd" d="M74 103c-.5-2.276-1.333-4-2.667-4-2.666 0-4.833 1.224-5.333 4 0 2.667 1.333 4 4 4s4-1.333 4-4Zm-1.5.224c0-1.334-1.833-2-2.5-2-1.333 0-2 .863-2 2 0 1.333.667 2.5 2 2.5s2.5-1.167 2.5-2.5ZM19 3c-.375-1.707-1-3-2-3-2 0-3.625.918-4 3 0 2 1 3 3 3s3-1 3-3Zm-1.125.168c0-1-1.375-1.5-1.875-1.5-1 0-1.5.647-1.5 1.5 0 1 .5 1.875 1.5 1.875s1.875-.875 1.875-1.875Z" clip-rule="evenodd"/></svg>