<svg width="114" height="254" viewBox="0 0 114 254" fill="none" xmlns="http://www.w3.org/2000/svg">
<g id="Group 7249">
<path id="Star 1" d="M38.0923 39.6639C38.3737 38.7787 39.6263 38.7787 39.9077 39.6639L41.57 44.8928C41.7488 45.4554 42.3911 45.7215 42.9154 45.4501L47.7882 42.9281C48.6131 42.5012 49.4988 43.3869 49.0719 44.2118L46.5499 49.0846C46.2785 49.6089 46.5446 50.2512 47.1072 50.43L52.3361 52.0923C53.2213 52.3737 53.2213 53.6263 52.3361 53.9077L47.1072 55.57C46.5446 55.7488 46.2785 56.3911 46.5499 56.9154L49.0719 61.7882C49.4988 62.6131 48.6131 63.4988 47.7882 63.0719L42.9154 60.5499C42.3911 60.2785 41.7488 60.5446 41.57 61.1072L39.9077 66.3361C39.6263 67.2213 38.3737 67.2213 38.0923 66.3361L36.43 61.1072C36.2512 60.5446 35.6089 60.2785 35.0846 60.5499L30.2118 63.0719C29.3869 63.4988 28.5012 62.6131 28.9281 61.7882L31.4501 56.9154C31.7215 56.3911 31.4554 55.7488 30.8928 55.57L25.6639 53.9077C24.7787 53.6263 24.7787 52.3737 25.6639 52.0923L30.8928 50.43C31.4554 50.2512 31.7215 49.6089 31.4501 49.0846L28.9281 44.2118C28.5012 43.3869 29.3869 42.5012 30.2118 42.9281L35.0846 45.4501C35.6089 45.7215 36.2512 45.4554 36.43 44.8928L38.0923 39.6639Z" fill="#FBE6D7"/>
<path id="Star 8" d="M-0.713168 85.5216C-0.492069 84.8261 0.492069 84.8261 0.713168 85.5216L2.01925 89.6301C2.15978 90.0721 2.66446 90.2812 3.07639 90.068L6.90505 88.0864C7.55318 87.7509 8.24907 88.4468 7.91362 89.095L5.93204 92.9236C5.71884 93.3355 5.92789 93.8402 6.36993 93.9807L10.4784 95.2868C11.1739 95.5079 11.1739 96.4921 10.4784 96.7132L6.36993 98.0193C5.92789 98.1598 5.71884 98.6645 5.93204 99.0764L7.91362 102.905C8.24907 103.553 7.55318 104.249 6.90505 103.914L3.07639 101.932C2.66446 101.719 2.15978 101.928 2.01925 102.37L0.713168 106.478C0.492069 107.174 -0.492069 107.174 -0.713168 106.478L-2.01925 102.37C-2.15978 101.928 -2.66446 101.719 -3.07639 101.932L-6.90505 103.914C-7.55318 104.249 -8.24907 103.553 -7.91362 102.905L-5.93204 99.0764C-5.71884 98.6645 -5.92789 98.1598 -6.36993 98.0193L-10.4784 96.7132C-11.1739 96.4921 -11.1739 95.5079 -10.4784 95.2868L-6.36993 93.9807C-5.92789 93.8402 -5.71884 93.3355 -5.93204 92.9236L-7.91362 89.095C-8.24907 88.4468 -7.55318 87.7509 -6.90505 88.0864L-3.07639 90.068C-2.66446 90.2812 -2.15978 90.0721 -2.01925 89.6301L-0.713168 85.5216Z" fill="#FBE6D7"/>
<path id="Star 10" d="M47.2868 194.522C47.5079 193.826 48.4921 193.826 48.7132 194.522L50.0193 198.63C50.1598 199.072 50.6645 199.281 51.0764 199.068L54.905 197.086C55.5532 196.751 56.2491 197.447 55.9136 198.095L53.932 201.924C53.7188 202.336 53.9279 202.84 54.3699 202.981L58.4784 204.287C59.1739 204.508 59.1739 205.492 58.4784 205.713L54.3699 207.019C53.9279 207.16 53.7188 207.664 53.932 208.076L55.9136 211.905C56.2491 212.553 55.5532 213.249 54.905 212.914L51.0764 210.932C50.6645 210.719 50.1598 210.928 50.0193 211.37L48.7132 215.478C48.4921 216.174 47.5079 216.174 47.2868 215.478L45.9807 211.37C45.8402 210.928 45.3355 210.719 44.9236 210.932L41.095 212.914C40.4468 213.249 39.7509 212.553 40.0864 211.905L42.068 208.076C42.2812 207.664 42.0721 207.16 41.6301 207.019L37.5216 205.713C36.8261 205.492 36.8261 204.508 37.5216 204.287L41.6301 202.981C42.0721 202.84 42.2812 202.336 42.068 201.924L40.0864 198.095C39.7509 197.447 40.4468 196.751 41.095 197.086L44.9236 199.068C45.3355 199.281 45.8402 199.072 45.9807 198.63L47.2868 194.522Z" fill="#FBE6D7"/>
<path id="Star 7" d="M105.481 57.3794C105.642 56.8735 106.358 56.8735 106.519 57.3794L107.469 60.3673C107.571 60.6888 107.938 60.8408 108.237 60.6858L111.022 59.2446C111.493 59.0007 111.999 59.5068 111.755 59.9781L110.314 62.7626C110.159 63.0622 110.311 63.4293 110.633 63.5315L113.621 64.4813C114.126 64.6421 114.126 65.3579 113.621 65.5187L110.633 66.4685C110.311 66.5707 110.159 66.9378 110.314 67.2374L111.755 70.0219C111.999 70.4932 111.493 70.9993 111.022 70.7554L108.237 69.3142C107.938 69.1592 107.571 69.3112 107.469 69.6327L106.519 72.6206C106.358 73.1265 105.642 73.1265 105.481 72.6206L104.531 69.6327C104.429 69.3112 104.062 69.1592 103.763 69.3142L100.978 70.7554C100.507 70.9993 100.001 70.4932 100.245 70.0219L101.686 67.2374C101.841 66.9378 101.689 66.5707 101.367 66.4685L98.3794 65.5187C97.8735 65.3579 97.8735 64.6421 98.3794 64.4813L101.367 63.5315C101.689 63.4293 101.841 63.0622 101.686 62.7626L100.245 59.9781C100.001 59.5068 100.507 59.0007 100.978 59.2446L103.763 60.6858C104.062 60.8408 104.429 60.6888 104.531 60.3673L105.481 57.3794Z" fill="#FBE6D7"/>
<path id="Star 11" d="M67.4813 238.379C67.6421 237.874 68.3579 237.874 68.5187 238.379L69.4685 241.367C69.5707 241.689 69.9378 241.841 70.2374 241.686L73.0219 240.245C73.4932 240.001 73.9993 240.507 73.7554 240.978L72.3142 243.763C72.1592 244.062 72.3112 244.429 72.6327 244.531L75.6206 245.481C76.1265 245.642 76.1265 246.358 75.6206 246.519L72.6327 247.469C72.3112 247.571 72.1592 247.938 72.3142 248.237L73.7554 251.022C73.9993 251.493 73.4932 251.999 73.0219 251.755L70.2374 250.314C69.9378 250.159 69.5707 250.311 69.4685 250.633L68.5187 253.621C68.3579 254.126 67.6421 254.126 67.4813 253.621L66.5315 250.633C66.4293 250.311 66.0622 250.159 65.7626 250.314L62.9781 251.755C62.5068 251.999 62.0007 251.493 62.2446 251.022L63.6858 248.237C63.8408 247.938 63.6888 247.571 63.3673 247.469L60.3794 246.519C59.8735 246.358 59.8735 245.642 60.3794 245.481L63.3673 244.531C63.6888 244.429 63.8408 244.062 63.6858 243.763L62.2446 240.978C62.0007 240.507 62.5068 240.001 62.9781 240.245L65.7626 241.686C66.0622 241.841 66.4293 241.689 66.5315 241.367L67.4813 238.379Z" fill="#FBE6D7"/>
<path id="Star 12" d="M73.8192 127.498C74.0303 126.834 74.9697 126.834 75.1808 127.498L76.4275 131.42C76.5616 131.842 77.0433 132.041 77.4366 131.838L81.0912 129.946C81.7099 129.626 82.3741 130.29 82.0539 130.909L80.1624 134.563C79.9589 134.957 80.1584 135.438 80.5804 135.573L84.5021 136.819C85.166 137.03 85.166 137.97 84.5021 138.181L80.5804 139.427C80.1584 139.562 79.9589 140.043 80.1624 140.437L82.0539 144.091C82.3741 144.71 81.7099 145.374 81.0912 145.054L77.4366 143.162C77.0433 142.959 76.5616 143.158 76.4275 143.58L75.1808 147.502C74.9697 148.166 74.0303 148.166 73.8192 147.502L72.5725 143.58C72.4384 143.158 71.9567 142.959 71.5634 143.162L67.9088 145.054C67.2901 145.374 66.6259 144.71 66.9461 144.091L68.8376 140.437C69.0411 140.043 68.8416 139.562 68.4196 139.427L64.4979 138.181C63.834 137.97 63.834 137.03 64.4979 136.819L68.4196 135.573C68.8416 135.438 69.0411 134.957 68.8376 134.563L66.9461 130.909C66.6259 130.29 67.2901 129.626 67.9088 129.946L71.5634 131.838C71.9567 132.041 72.4384 131.842 72.5725 131.42L73.8192 127.498Z" fill="#FBE6D7"/>
<path id="Vector" d="M70.0123 27C69.4724 27 68.9816 27.2723 68.589 27.7262C68.2209 28.2103 68 28.8457 68 29.5113C68 30.177 68.2209 30.8124 68.589 31.2965C69.3252 32.2345 70.6748 32.2345 71.411 31.2965C71.7791 30.8124 72 30.177 72 29.5113C72 28.8457 71.7791 28.2103 71.411 27.7262C71.0675 27.2421 70.5521 27 70.0123 27Z" fill="#F8E099"/>
<path id="Vector_2" d="M15.0245 167C13.9448 167 12.9632 167.436 12.1779 168.162C11.4417 168.936 11 169.953 11 171.018C11 172.083 11.4417 173.1 12.1779 173.874C13.6503 175.375 16.3497 175.375 17.8221 173.874C18.5583 173.1 19 172.083 19 171.018C19 169.953 18.5583 168.936 17.8221 168.162C17.135 167.387 16.1043 167 15.0245 167Z" fill="#F8E099"/>
<path id="Vector_3" d="M112.012 107C111.472 107 110.982 107.218 110.589 107.581C110.221 107.968 110 108.477 110 109.009C110 109.542 110.221 110.05 110.589 110.437C111.325 111.188 112.675 111.188 113.411 110.437C113.779 110.05 114 109.542 114 109.009C114 108.477 113.779 107.968 113.411 107.581C113.067 107.194 112.552 107 112.012 107Z" fill="#F8E099"/>
<path id="Subtract" fill-rule="evenodd" clip-rule="evenodd" d="M40 103C40.5 100.724 41.3333 99 42.6667 99C45.3333 99 47.5 100.224 48 103C48 105.667 46.6667 107 44 107C41.3333 107 40 105.667 40 103ZM41.5 103.224C41.5 101.89 43.3333 101.224 44 101.224C45.3333 101.224 46 102.087 46 103.224C46 104.557 45.3333 105.724 44 105.724C42.6667 105.724 41.5 104.557 41.5 103.224Z" fill="#E59238"/>
<path id="Subtract_2" fill-rule="evenodd" clip-rule="evenodd" d="M95 3C95.375 1.29272 96 0 97 0C99 0 100.625 0.917725 101 3C101 5 100 6 98 6C96 6 95 5 95 3ZM96.125 3.16772C96.125 2.16773 97.5 1.66772 98 1.66772C99 1.66772 99.5 2.31543 99.5 3.16772C99.5 4.16772 99 5.04272 98 5.04272C97 5.04272 96.125 4.16772 96.125 3.16772Z" fill="#E59238"/>
</g>
</svg>
