<svg width="1366" height="50" viewBox="0 0 1366 50" fill="none" xmlns="http://www.w3.org/2000/svg">
<path d="M0 0H1366V10C818.831 61.361 519.836 61.0163 0 10V0Z" fill="#FEFAF6"/>
<path fill-rule="evenodd" clip-rule="evenodd" d="M-3.99634 7C-3.49634 4.72363 -2.66301 3 -1.32968 3C1.33699 3 3.50366 4.22363 4.00366 7C4.00366 9.66667 2.67032 11 0.00365567 11C-2.66301 11 -3.99634 9.66667 -3.99634 7ZM-2.49634 7.22363C-2.49634 5.8903 -0.663005 5.22363 0.00366211 5.22363C1.337 5.22363 2.00366 6.08724 2.00366 7.22363C2.00366 8.55697 1.337 9.72363 0.00366211 9.72363C-1.32967 9.72363 -2.49634 8.55697 -2.49634 7.22363Z" fill="#C8AA5D"/>
<path fill-rule="evenodd" clip-rule="evenodd" d="M23.4482 9.66602C23.9482 7.38965 24.7816 5.66602 26.1149 5.66602C28.7816 5.66602 30.9482 6.88965 31.4482 9.66602C31.4482 12.3327 30.1149 13.666 27.4482 13.666C24.7816 13.666 23.4482 12.3327 23.4482 9.66602ZM24.9482 9.88965C24.9482 8.55632 26.7816 7.88965 27.4482 7.88965C28.7816 7.88965 29.4482 8.75326 29.4482 9.88965C29.4482 11.223 28.7816 12.3896 27.4482 12.3896C26.1149 12.3896 24.9482 11.223 24.9482 9.88965Z" fill="#C8AA5D"/>
<path fill-rule="evenodd" clip-rule="evenodd" d="M50.6926 12.2549C51.1926 9.97852 52.026 8.25488 53.3593 8.25488C56.026 8.25488 58.1926 9.47852 58.6926 12.2549C58.6926 14.9215 57.3593 16.2549 54.6926 16.2549C52.026 16.2549 50.6926 14.9215 50.6926 12.2549ZM52.1926 12.4785C52.1926 11.1452 54.026 10.4785 54.6926 10.4785C56.026 10.4785 56.6926 11.3421 56.6926 12.4785C56.6926 13.8118 56.026 14.9785 54.6926 14.9785C53.3593 14.9785 52.1926 13.8118 52.1926 12.4785Z" fill="#C8AA5D"/>
<path fill-rule="evenodd" clip-rule="evenodd" d="M77.9426 14.7832C78.4426 12.5068 79.276 10.7832 80.6093 10.7832C83.276 10.7832 85.4426 12.0068 85.9426 14.7832C85.9426 17.4499 84.6093 18.7832 81.9426 18.7832C79.276 18.7832 77.9426 17.4499 77.9426 14.7832ZM79.4426 15.0068C79.4426 13.6735 81.276 13.0068 81.9426 13.0068C83.276 13.0068 83.9426 13.8704 83.9426 15.0068C83.9426 16.3402 83.276 17.5068 81.9426 17.5068C80.6093 17.5068 79.4426 16.3402 79.4426 15.0068Z" fill="#C8AA5D"/>
<path fill-rule="evenodd" clip-rule="evenodd" d="M105.199 17.2461C105.699 14.9697 106.532 13.2461 107.865 13.2461C110.532 13.2461 112.699 14.4697 113.199 17.2461C113.199 19.9128 111.865 21.2461 109.199 21.2461C106.532 21.2461 105.199 19.9128 105.199 17.2461ZM106.699 17.4697C106.699 16.1364 108.532 15.4697 109.199 15.4697C110.532 15.4697 111.199 16.3333 111.199 17.4697C111.199 18.8031 110.532 19.9697 109.199 19.9697C107.865 19.9697 106.699 18.8031 106.699 17.4697Z" fill="#C8AA5D"/>
<path fill-rule="evenodd" clip-rule="evenodd" d="M132.461 19.6396C132.961 17.3633 133.794 15.6396 135.128 15.6396C137.794 15.6396 139.961 16.8633 140.461 19.6396C140.461 22.3063 139.128 23.6396 136.461 23.6396C133.794 23.6396 132.461 22.3063 132.461 19.6396ZM133.961 19.8633C133.961 18.5299 135.794 17.8633 136.461 17.8633C137.794 17.8633 138.461 18.7269 138.461 19.8633C138.461 21.1966 137.794 22.3633 136.461 22.3633C135.128 22.3633 133.961 21.1966 133.961 19.8633Z" fill="#C8AA5D"/>
<path fill-rule="evenodd" clip-rule="evenodd" d="M159.73 21.959C160.23 19.6826 161.063 17.959 162.397 17.959C165.063 17.959 167.23 19.1826 167.73 21.959C167.73 24.6256 166.397 25.959 163.73 25.959C161.063 25.959 159.73 24.6256 159.73 21.959ZM161.23 22.1826C161.23 20.8493 163.063 20.1826 163.73 20.1826C165.063 20.1826 165.73 21.0462 165.73 22.1826C165.73 23.5159 165.063 24.6826 163.73 24.6826C162.397 24.6826 161.23 23.5159 161.23 22.1826Z" fill="#C8AA5D"/>
<path fill-rule="evenodd" clip-rule="evenodd" d="M187.006 24.1992C187.506 21.9229 188.339 20.1992 189.672 20.1992C192.339 20.1992 194.506 21.4229 195.006 24.1992C195.006 26.8659 193.672 28.1992 191.006 28.1992C188.339 28.1992 187.006 26.8659 187.006 24.1992ZM188.506 24.4229C188.506 23.0895 190.339 22.4229 191.006 22.4229C192.339 22.4229 193.006 23.2865 193.006 24.4229C193.006 25.7562 192.339 26.9229 191.006 26.9229C189.672 26.9229 188.506 25.7562 188.506 24.4229Z" fill="#C8AA5D"/>
<path fill-rule="evenodd" clip-rule="evenodd" d="M214.288 26.3545C214.788 24.0781 215.621 22.3545 216.955 22.3545C219.621 22.3545 221.788 23.5781 222.288 26.3545C222.288 29.0212 220.955 30.3545 218.288 30.3545C215.621 30.3545 214.288 29.0212 214.288 26.3545ZM215.788 26.5781C215.788 25.2448 217.621 24.5781 218.288 24.5781C219.621 24.5781 220.288 25.4417 220.288 26.5781C220.288 27.9115 219.621 29.0781 218.288 29.0781C216.955 29.0781 215.788 27.9115 215.788 26.5781Z" fill="#C8AA5D"/>
<path fill-rule="evenodd" clip-rule="evenodd" d="M241.578 28.4209C242.078 26.1445 242.911 24.4209 244.245 24.4209C246.911 24.4209 249.078 25.6445 249.578 28.4209C249.578 31.0876 248.245 32.4209 245.578 32.4209C242.911 32.4209 241.578 31.0876 241.578 28.4209ZM243.078 28.6445C243.078 27.3112 244.911 26.6445 245.578 26.6445C246.911 26.6445 247.578 27.5081 247.578 28.6445C247.578 29.9779 246.911 31.1445 245.578 31.1445C244.245 31.1445 243.078 29.9779 243.078 28.6445Z" fill="#C8AA5D"/>
<path fill-rule="evenodd" clip-rule="evenodd" d="M268.875 30.3926C269.375 28.1162 270.208 26.3926 271.541 26.3926C274.208 26.3926 276.375 27.6162 276.875 30.3926C276.875 33.0592 275.541 34.3926 272.875 34.3926C270.208 34.3926 268.875 33.0592 268.875 30.3926ZM270.375 30.6162C270.375 29.2829 272.208 28.6162 272.875 28.6162C274.208 28.6162 274.875 29.4798 274.875 30.6162C274.875 31.9495 274.208 33.1162 272.875 33.1162C271.541 33.1162 270.375 31.9495 270.375 30.6162Z" fill="#C8AA5D"/>
<path fill-rule="evenodd" clip-rule="evenodd" d="M296.179 32.2646C296.679 29.9883 297.512 28.2646 298.845 28.2646C301.512 28.2646 303.679 29.4883 304.179 32.2646C304.179 34.9313 302.845 36.2646 300.179 36.2646C297.512 36.2646 296.179 34.9313 296.179 32.2646ZM297.679 32.4883C297.679 31.1549 299.512 30.4883 300.179 30.4883C301.512 30.4883 302.179 31.3519 302.179 32.4883C302.179 33.8216 301.512 34.9883 300.179 34.9883C298.845 34.9883 297.679 33.8216 297.679 32.4883Z" fill="#C8AA5D"/>
<path fill-rule="evenodd" clip-rule="evenodd" d="M323.49 34.0312C323.99 31.7549 324.823 30.0312 326.157 30.0312C328.823 30.0312 330.99 31.2549 331.49 34.0312C331.49 36.6979 330.157 38.0312 327.49 38.0312C324.823 38.0312 323.49 36.6979 323.49 34.0312ZM324.99 34.2549C324.99 32.9216 326.823 32.2549 327.49 32.2549C328.823 32.2549 329.49 33.1185 329.49 34.2549C329.49 35.5882 328.823 36.7549 327.49 36.7549C326.157 36.7549 324.99 35.5882 324.99 34.2549Z" fill="#C8AA5D"/>
<path fill-rule="evenodd" clip-rule="evenodd" d="M350.808 35.6875C351.308 33.4111 352.142 31.6875 353.475 31.6875C356.142 31.6875 358.308 32.9111 358.808 35.6875C358.808 38.3542 357.475 39.6875 354.808 39.6875C352.142 39.6875 350.808 38.3542 350.808 35.6875ZM352.308 35.9111C352.308 34.5778 354.142 33.9111 354.808 33.9111C356.142 33.9111 356.808 34.7747 356.808 35.9111C356.808 37.2445 356.142 38.4111 354.808 38.4111C353.475 38.4111 352.308 37.2445 352.308 35.9111Z" fill="#C8AA5D"/>
<path fill-rule="evenodd" clip-rule="evenodd" d="M378.134 37.2285C378.634 34.9521 379.467 33.2285 380.8 33.2285C383.467 33.2285 385.634 34.4521 386.134 37.2285C386.134 39.8952 384.8 41.2285 382.134 41.2285C379.467 41.2285 378.134 39.8952 378.134 37.2285ZM379.634 37.4521C379.634 36.1188 381.467 35.4521 382.134 35.4521C383.467 35.4521 384.134 36.3158 384.134 37.4521C384.134 38.7855 383.467 39.9521 382.134 39.9521C380.8 39.9521 379.634 38.7855 379.634 37.4521Z" fill="#C8AA5D"/>
<path fill-rule="evenodd" clip-rule="evenodd" d="M405.466 38.6484C405.966 36.3721 406.799 34.6484 408.132 34.6484C410.799 34.6484 412.966 35.8721 413.466 38.6484C413.466 41.3151 412.132 42.6484 409.466 42.6484C406.799 42.6484 405.466 41.3151 405.466 38.6484ZM406.966 38.8721C406.966 37.5387 408.799 36.8721 409.466 36.8721C410.799 36.8721 411.466 37.7357 411.466 38.8721C411.466 40.2054 410.799 41.3721 409.466 41.3721C408.132 41.3721 406.966 40.2054 406.966 38.8721Z" fill="#C8AA5D"/>
<path fill-rule="evenodd" clip-rule="evenodd" d="M432.804 39.9443C433.304 37.668 434.138 35.9443 435.471 35.9443C438.138 35.9443 440.304 37.168 440.804 39.9443C440.804 42.611 439.471 43.9443 436.804 43.9443C434.138 43.9443 432.804 42.611 432.804 39.9443ZM434.304 40.168C434.304 38.8346 436.138 38.168 436.804 38.168C438.138 38.168 438.804 39.0316 438.804 40.168C438.804 41.5013 438.138 42.668 436.804 42.668C435.471 42.668 434.304 41.5013 434.304 40.168Z" fill="#C8AA5D"/>
<path fill-rule="evenodd" clip-rule="evenodd" d="M460.149 41.1094C460.649 38.833 461.482 37.1094 462.815 37.1094C465.482 37.1094 467.649 38.333 468.149 41.1094C468.149 43.776 466.815 45.1094 464.149 45.1094C461.482 45.1094 460.149 43.776 460.149 41.1094ZM461.649 41.333C461.649 39.9997 463.482 39.333 464.149 39.333C465.482 39.333 466.149 40.1966 466.149 41.333C466.149 42.6663 465.482 43.833 464.149 43.833C462.815 43.833 461.649 42.6663 461.649 41.333Z" fill="#C8AA5D"/>
<path fill-rule="evenodd" clip-rule="evenodd" d="M487.499 42.1416C487.999 39.8652 488.832 38.1416 490.165 38.1416C492.832 38.1416 494.999 39.3652 495.499 42.1416C495.499 44.8083 494.165 46.1416 491.499 46.1416C488.832 46.1416 487.499 44.8083 487.499 42.1416ZM488.999 42.3652C488.999 41.0319 490.832 40.3652 491.499 40.3652C492.832 40.3652 493.499 41.2288 493.499 42.3652C493.499 43.6986 492.832 44.8652 491.499 44.8652C490.165 44.8652 488.999 43.6986 488.999 42.3652Z" fill="#C8AA5D"/>
<path fill-rule="evenodd" clip-rule="evenodd" d="M514.854 43.0371C515.354 40.7607 516.187 39.0371 517.52 39.0371C520.187 39.0371 522.354 40.2607 522.854 43.0371C522.854 45.7038 521.52 47.0371 518.854 47.0371C516.187 47.0371 514.854 45.7038 514.854 43.0371ZM516.354 43.2607C516.354 41.9274 518.187 41.2607 518.854 41.2607C520.187 41.2607 520.854 42.1244 520.854 43.2607C520.854 44.5941 520.187 45.7607 518.854 45.7607C517.52 45.7607 516.354 44.5941 516.354 43.2607Z" fill="#C8AA5D"/>
<path fill-rule="evenodd" clip-rule="evenodd" d="M542.213 43.791C542.713 41.5146 543.546 39.791 544.88 39.791C547.546 39.791 549.713 41.0146 550.213 43.791C550.213 46.4577 548.88 47.791 546.213 47.791C543.546 47.791 542.213 46.4577 542.213 43.791ZM543.713 44.0146C543.713 42.6813 545.546 42.0146 546.213 42.0146C547.546 42.0146 548.213 42.8783 548.213 44.0146C548.213 45.348 547.546 46.5146 546.213 46.5146C544.88 46.5146 543.713 45.348 543.713 44.0146Z" fill="#C8AA5D"/>
<path fill-rule="evenodd" clip-rule="evenodd" d="M569.576 44.4023C570.076 42.126 570.91 40.4023 572.243 40.4023C574.909 40.4023 577.076 41.626 577.576 44.4023C577.576 47.069 576.243 48.4023 573.576 48.4023C570.91 48.4023 569.576 47.069 569.576 44.4023ZM571.076 44.626C571.076 43.2926 572.91 42.626 573.576 42.626C574.91 42.626 575.576 43.4896 575.576 44.626C575.576 45.9593 574.91 47.126 573.576 47.126C572.243 47.126 571.076 45.9593 571.076 44.626Z" fill="#C8AA5D"/>
<path fill-rule="evenodd" clip-rule="evenodd" d="M596.942 44.8682C597.442 42.5918 598.275 40.8682 599.609 40.8682C602.275 40.8682 604.442 42.0918 604.942 44.8682C604.942 47.5348 603.609 48.8682 600.942 48.8682C598.275 48.8682 596.942 47.5348 596.942 44.8682ZM598.442 45.0918C598.442 43.7585 600.275 43.0918 600.942 43.0918C602.275 43.0918 602.942 43.9554 602.942 45.0918C602.942 46.4251 602.275 47.5918 600.942 47.5918C599.609 47.5918 598.442 46.4251 598.442 45.0918Z" fill="#C8AA5D"/>
<path fill-rule="evenodd" clip-rule="evenodd" d="M624.31 45.1875C624.81 42.9111 625.644 41.1875 626.977 41.1875C629.644 41.1875 631.81 42.4111 632.31 45.1875C632.31 47.8542 630.977 49.1875 628.31 49.1875C625.644 49.1875 624.31 47.8542 624.31 45.1875ZM625.81 45.4111C625.81 44.0778 627.644 43.4111 628.31 43.4111C629.644 43.4111 630.31 44.2747 630.31 45.4111C630.31 46.7445 629.644 47.9111 628.31 47.9111C626.977 47.9111 625.81 46.7445 625.81 45.4111Z" fill="#C8AA5D"/>
<path fill-rule="evenodd" clip-rule="evenodd" d="M651.68 45.3594C652.18 43.083 653.013 41.3594 654.346 41.3594C657.013 41.3594 659.18 42.583 659.68 45.3594C659.68 48.026 658.346 49.3594 655.68 49.3594C653.013 49.3594 651.68 48.026 651.68 45.3594ZM653.18 45.583C653.18 44.2497 655.013 43.583 655.68 43.583C657.013 43.583 657.68 44.4466 657.68 45.583C657.68 46.9163 657.013 48.083 655.68 48.083C654.346 48.083 653.18 46.9163 653.18 45.583Z" fill="#C8AA5D"/>
<path fill-rule="evenodd" clip-rule="evenodd" d="M679.05 45.3828C679.55 43.1064 680.383 41.3828 681.716 41.3828C684.383 41.3828 686.55 42.6064 687.05 45.3828C687.05 48.0495 685.716 49.3828 683.05 49.3828C680.383 49.3828 679.05 48.0495 679.05 45.3828ZM680.55 45.6064C680.55 44.2731 682.383 43.6064 683.05 43.6064C684.383 43.6064 685.05 44.4701 685.05 45.6064C685.05 46.9398 684.383 48.1064 683.05 48.1064C681.716 48.1064 680.55 46.9398 680.55 45.6064Z" fill="#C8AA5D"/>
<path fill-rule="evenodd" clip-rule="evenodd" d="M706.419 45.2598C706.919 42.9834 707.753 41.2598 709.086 41.2598C711.753 41.2598 713.919 42.4834 714.419 45.2598C714.419 47.9264 713.086 49.2598 710.419 49.2598C707.753 49.2598 706.419 47.9264 706.419 45.2598ZM707.919 45.4834C707.919 44.1501 709.753 43.4834 710.419 43.4834C711.753 43.4834 712.419 44.347 712.419 45.4834C712.419 46.8167 711.753 47.9834 710.419 47.9834C709.086 47.9834 707.919 46.8167 707.919 45.4834Z" fill="#C8AA5D"/>
<path fill-rule="evenodd" clip-rule="evenodd" d="M733.788 44.9902C734.288 42.7139 735.121 40.9902 736.455 40.9902C739.121 40.9902 741.288 42.2139 741.788 44.9902C741.788 47.6569 740.455 48.9902 737.788 48.9902C735.121 48.9902 733.788 47.6569 733.788 44.9902ZM735.288 45.2139C735.288 43.8805 737.121 43.2139 737.788 43.2139C739.121 43.2139 739.788 44.0775 739.788 45.2139C739.788 46.5472 739.121 47.7139 737.788 47.7139C736.455 47.7139 735.288 46.5472 735.288 45.2139Z" fill="#C8AA5D"/>
<path fill-rule="evenodd" clip-rule="evenodd" d="M761.154 44.5762C761.654 42.2998 762.488 40.5762 763.821 40.5762C766.488 40.5762 768.654 41.7998 769.154 44.5762C769.154 47.2428 767.821 48.5762 765.154 48.5762C762.488 48.5762 761.154 47.2428 761.154 44.5762ZM762.654 44.7998C762.654 43.4665 764.488 42.7998 765.154 42.7998C766.488 42.7998 767.154 43.6634 767.154 44.7998C767.154 46.1331 766.488 47.2998 765.154 47.2998C763.821 47.2998 762.654 46.1331 762.654 44.7998Z" fill="#C8AA5D"/>
<path fill-rule="evenodd" clip-rule="evenodd" d="M788.518 44.0205C789.018 41.7441 789.852 40.0205 791.185 40.0205C793.852 40.0205 796.018 41.2441 796.518 44.0205C796.518 46.6872 795.185 48.0205 792.518 48.0205C789.852 48.0205 788.518 46.6872 788.518 44.0205ZM790.018 44.2441C790.018 42.9108 791.852 42.2441 792.518 42.2441C793.852 42.2441 794.518 43.1077 794.518 44.2441C794.518 45.5775 793.852 46.7441 792.518 46.7441C791.185 46.7441 790.018 45.5775 790.018 44.2441Z" fill="#C8AA5D"/>
<path fill-rule="evenodd" clip-rule="evenodd" d="M815.879 43.3262C816.379 41.0498 817.212 39.3262 818.546 39.3262C821.212 39.3262 823.379 40.5498 823.879 43.3262C823.879 45.9928 822.546 47.3262 819.879 47.3262C817.212 47.3262 815.879 45.9928 815.879 43.3262ZM817.379 43.5498C817.379 42.2165 819.212 41.5498 819.879 41.5498C821.212 41.5498 821.879 42.4134 821.879 43.5498C821.879 44.8831 821.212 46.0498 819.879 46.0498C818.546 46.0498 817.379 44.8831 817.379 43.5498Z" fill="#C8AA5D"/>
<path fill-rule="evenodd" clip-rule="evenodd" d="M843.235 42.4951C843.735 40.2188 844.569 38.4951 845.902 38.4951C848.569 38.4951 850.735 39.7188 851.235 42.4951C851.235 45.1618 849.902 46.4951 847.235 46.4951C844.569 46.4951 843.235 45.1618 843.235 42.4951ZM844.735 42.7188C844.735 41.3854 846.569 40.7188 847.235 40.7188C848.569 40.7188 849.235 41.5824 849.235 42.7188C849.235 44.0521 848.569 45.2188 847.235 45.2188C845.902 45.2188 844.735 44.0521 844.735 42.7188Z" fill="#C8AA5D"/>
<path fill-rule="evenodd" clip-rule="evenodd" d="M870.588 41.5322C871.088 39.2559 871.921 37.5322 873.254 37.5322C875.921 37.5322 878.088 38.7559 878.588 41.5322C878.588 44.1989 877.254 45.5322 874.588 45.5322C871.921 45.5322 870.588 44.1989 870.588 41.5322ZM872.088 41.7559C872.088 40.4225 873.921 39.7559 874.588 39.7559C875.921 39.7559 876.588 40.6195 876.588 41.7559C876.588 43.0892 875.921 44.2559 874.588 44.2559C873.254 44.2559 872.088 43.0892 872.088 41.7559Z" fill="#C8AA5D"/>
<path fill-rule="evenodd" clip-rule="evenodd" d="M897.935 40.4414C898.435 38.165 899.268 36.4414 900.601 36.4414C903.268 36.4414 905.435 37.665 905.935 40.4414C905.935 43.1081 904.601 44.4414 901.935 44.4414C899.268 44.4414 897.935 43.1081 897.935 40.4414ZM899.435 40.665C899.435 39.3317 901.268 38.665 901.935 38.665C903.268 38.665 903.935 39.5286 903.935 40.665C903.935 41.9984 903.268 43.165 901.935 43.165C900.601 43.165 899.435 41.9984 899.435 40.665Z" fill="#C8AA5D"/>
<path fill-rule="evenodd" clip-rule="evenodd" d="M925.276 39.2275C925.776 36.9512 926.61 35.2275 927.943 35.2275C930.61 35.2275 932.776 36.4512 933.276 39.2275C933.276 41.8942 931.943 43.2275 929.276 43.2275C926.61 43.2275 925.276 41.8942 925.276 39.2275ZM926.776 39.4512C926.776 38.1178 928.61 37.4512 929.276 37.4512C930.61 37.4512 931.276 38.3148 931.276 39.4512C931.276 40.7845 930.61 41.9512 929.276 41.9512C927.943 41.9512 926.776 40.7845 926.776 39.4512Z" fill="#C8AA5D"/>
<path fill-rule="evenodd" clip-rule="evenodd" d="M952.612 37.8955C953.112 35.6191 953.946 33.8955 955.279 33.8955C957.946 33.8955 960.112 35.1191 960.612 37.8955C960.612 40.5622 959.279 41.8955 956.612 41.8955C953.946 41.8955 952.612 40.5622 952.612 37.8955ZM954.112 38.1191C954.112 36.7858 955.946 36.1191 956.612 36.1191C957.946 36.1191 958.612 36.9827 958.612 38.1191C958.612 39.4525 957.946 40.6191 956.612 40.6191C955.279 40.6191 954.112 39.4525 954.112 38.1191Z" fill="#C8AA5D"/>
<path fill-rule="evenodd" clip-rule="evenodd" d="M979.942 36.4492C980.442 34.1729 981.275 32.4492 982.609 32.4492C985.275 32.4492 987.442 33.6729 987.942 36.4492C987.942 39.1159 986.609 40.4492 983.942 40.4492C981.275 40.4492 979.942 39.1159 979.942 36.4492ZM981.442 36.6729C981.442 35.3395 983.275 34.6729 983.942 34.6729C985.275 34.6729 985.942 35.5365 985.942 36.6729C985.942 38.0062 985.275 39.1729 983.942 39.1729C982.609 39.1729 981.442 38.0062 981.442 36.6729Z" fill="#C8AA5D"/>
<path fill-rule="evenodd" clip-rule="evenodd" d="M1007.27 34.8936C1007.77 32.6172 1008.6 30.8936 1009.93 30.8936C1012.6 30.8936 1014.77 32.1172 1015.27 34.8936C1015.27 37.5602 1013.93 38.8936 1011.27 38.8936C1008.6 38.8936 1007.27 37.5602 1007.27 34.8936ZM1008.77 35.1172C1008.77 33.7839 1010.6 33.1172 1011.27 33.1172C1012.6 33.1172 1013.27 33.9808 1013.27 35.1172C1013.27 36.4505 1012.6 37.6172 1011.27 37.6172C1009.93 37.6172 1008.77 36.4505 1008.77 35.1172Z" fill="#C8AA5D"/>
<path fill-rule="evenodd" clip-rule="evenodd" d="M1034.58 33.2344C1035.08 30.958 1035.92 29.2344 1037.25 29.2344C1039.92 29.2344 1042.08 30.458 1042.58 33.2344C1042.58 35.901 1041.25 37.2344 1038.58 37.2344C1035.92 37.2344 1034.58 35.901 1034.58 33.2344ZM1036.08 33.458C1036.08 32.1247 1037.92 31.458 1038.58 31.458C1039.92 31.458 1040.58 32.3216 1040.58 33.458C1040.58 34.7913 1039.92 35.958 1038.58 35.958C1037.25 35.958 1036.08 34.7913 1036.08 33.458Z" fill="#C8AA5D"/>
<path fill-rule="evenodd" clip-rule="evenodd" d="M1061.89 31.4775C1062.39 29.2012 1063.23 27.4775 1064.56 27.4775C1067.23 27.4775 1069.39 28.7012 1069.89 31.4775C1069.89 34.1442 1068.56 35.4775 1065.89 35.4775C1063.23 35.4775 1061.89 34.1442 1061.89 31.4775ZM1063.39 31.7012C1063.39 30.3678 1065.23 29.7012 1065.89 29.7012C1067.23 29.7012 1067.89 30.5648 1067.89 31.7012C1067.89 33.0345 1067.23 34.2012 1065.89 34.2012C1064.56 34.2012 1063.39 33.0345 1063.39 31.7012Z" fill="#C8AA5D"/>
<path fill-rule="evenodd" clip-rule="evenodd" d="M1089.2 29.626C1089.7 27.3496 1090.53 25.626 1091.87 25.626C1094.53 25.626 1096.7 26.8496 1097.2 29.626C1097.2 32.2926 1095.87 33.626 1093.2 33.626C1090.53 33.626 1089.2 32.2926 1089.2 29.626ZM1090.7 29.8496C1090.7 28.5163 1092.53 27.8496 1093.2 27.8496C1094.53 27.8496 1095.2 28.7132 1095.2 29.8496C1095.2 31.1829 1094.53 32.3496 1093.2 32.3496C1091.87 32.3496 1090.7 31.1829 1090.7 29.8496Z" fill="#C8AA5D"/>
<path fill-rule="evenodd" clip-rule="evenodd" d="M1116.5 27.6865C1117 25.4102 1117.83 23.6865 1119.16 23.6865C1121.83 23.6865 1124 24.9102 1124.5 27.6865C1124.5 30.3532 1123.16 31.6865 1120.5 31.6865C1117.83 31.6865 1116.5 30.3532 1116.5 27.6865ZM1118 27.9102C1118 26.5768 1119.83 25.9102 1120.5 25.9102C1121.83 25.9102 1122.5 26.7738 1122.5 27.9102C1122.5 29.2435 1121.83 30.4102 1120.5 30.4102C1119.16 30.4102 1118 29.2435 1118 27.9102Z" fill="#C8AA5D"/>
<path fill-rule="evenodd" clip-rule="evenodd" d="M1143.79 25.6631C1144.29 23.3867 1145.12 21.6631 1146.46 21.6631C1149.12 21.6631 1151.29 22.8867 1151.79 25.6631C1151.79 28.3298 1150.46 29.6631 1147.79 29.6631C1145.12 29.6631 1143.79 28.3298 1143.79 25.6631ZM1145.29 25.8867C1145.29 24.5534 1147.12 23.8867 1147.79 23.8867C1149.12 23.8867 1149.79 24.7503 1149.79 25.8867C1149.79 27.2201 1149.12 28.3867 1147.79 28.3867C1146.46 28.3867 1145.29 27.2201 1145.29 25.8867Z" fill="#C8AA5D"/>
<path fill-rule="evenodd" clip-rule="evenodd" d="M1171.08 23.5605C1171.58 21.2842 1172.41 19.5605 1173.74 19.5605C1176.41 19.5605 1178.58 20.7842 1179.08 23.5605C1179.08 26.2272 1177.74 27.5605 1175.08 27.5605C1172.41 27.5605 1171.08 26.2272 1171.08 23.5605ZM1172.58 23.7842C1172.58 22.4508 1174.41 21.7842 1175.08 21.7842C1176.41 21.7842 1177.08 22.6478 1177.08 23.7842C1177.08 25.1175 1176.41 26.2842 1175.08 26.2842C1173.74 26.2842 1172.58 25.1175 1172.58 23.7842Z" fill="#C8AA5D"/>
<path fill-rule="evenodd" clip-rule="evenodd" d="M1198.36 21.3848C1198.86 19.1084 1199.69 17.3848 1201.02 17.3848C1203.69 17.3848 1205.86 18.6084 1206.36 21.3848C1206.36 24.0514 1205.02 25.3848 1202.36 25.3848C1199.69 25.3848 1198.36 24.0514 1198.36 21.3848ZM1199.86 21.6084C1199.86 20.2751 1201.69 19.6084 1202.36 19.6084C1203.69 19.6084 1204.36 20.472 1204.36 21.6084C1204.36 22.9417 1203.69 24.1084 1202.36 24.1084C1201.02 24.1084 1199.86 22.9417 1199.86 21.6084Z" fill="#C8AA5D"/>
<path fill-rule="evenodd" clip-rule="evenodd" d="M1225.63 19.1387C1226.13 16.8623 1226.97 15.1387 1228.3 15.1387C1230.97 15.1387 1233.13 16.3623 1233.63 19.1387C1233.63 21.8053 1232.3 23.1387 1229.63 23.1387C1226.97 23.1387 1225.63 21.8053 1225.63 19.1387ZM1227.13 19.3623C1227.13 18.029 1228.97 17.3623 1229.63 17.3623C1230.97 17.3623 1231.63 18.2259 1231.63 19.3623C1231.63 20.6956 1230.97 21.8623 1229.63 21.8623C1228.3 21.8623 1227.13 20.6956 1227.13 19.3623Z" fill="#C8AA5D"/>
<path fill-rule="evenodd" clip-rule="evenodd" d="M1252.9 16.8271C1253.4 14.5508 1254.23 12.8271 1255.57 12.8271C1258.23 12.8271 1260.4 14.0508 1260.9 16.8271C1260.9 19.4938 1259.57 20.8271 1256.9 20.8271C1254.23 20.8271 1252.9 19.4938 1252.9 16.8271ZM1254.4 17.0508C1254.4 15.7174 1256.23 15.0508 1256.9 15.0508C1258.23 15.0508 1258.9 15.9144 1258.9 17.0508C1258.9 18.3841 1258.23 19.5508 1256.9 19.5508C1255.57 19.5508 1254.4 18.3841 1254.4 17.0508Z" fill="#C8AA5D"/>
<path fill-rule="evenodd" clip-rule="evenodd" d="M1280.17 14.4541C1280.67 12.1777 1281.5 10.4541 1282.83 10.4541C1285.5 10.4541 1287.67 11.6777 1288.17 14.4541C1288.17 17.1208 1286.83 18.4541 1284.17 18.4541C1281.5 18.4541 1280.17 17.1208 1280.17 14.4541ZM1281.67 14.6777C1281.67 13.3444 1283.5 12.6777 1284.17 12.6777C1285.5 12.6777 1286.17 13.5413 1286.17 14.6777C1286.17 16.0111 1285.5 17.1777 1284.17 17.1777C1282.83 17.1777 1281.67 16.0111 1281.67 14.6777Z" fill="#C8AA5D"/>
<path fill-rule="evenodd" clip-rule="evenodd" d="M1307.42 12.0244C1307.92 9.74805 1308.76 8.02441 1310.09 8.02441C1312.76 8.02441 1314.92 9.24805 1315.42 12.0244C1315.42 14.6911 1314.09 16.0244 1311.42 16.0244C1308.76 16.0244 1307.42 14.6911 1307.42 12.0244ZM1308.92 12.248C1308.92 10.9147 1310.76 10.248 1311.42 10.248C1312.76 10.248 1313.42 11.1117 1313.42 12.248C1313.42 13.5814 1312.76 14.748 1311.42 14.748C1310.09 14.748 1308.92 13.5814 1308.92 12.248Z" fill="#C8AA5D"/>
<path fill-rule="evenodd" clip-rule="evenodd" d="M1334.71 9.53809C1335.21 7.26172 1336.04 5.53809 1337.37 5.53809C1340.04 5.53809 1342.21 6.76172 1342.71 9.53809C1342.71 12.2048 1341.37 13.5381 1338.71 13.5381C1336.04 13.5381 1334.71 12.2048 1334.71 9.53809ZM1336.21 9.76172C1336.21 8.42839 1338.04 7.76172 1338.71 7.76172C1340.04 7.76172 1340.71 8.62533 1340.71 9.76172C1340.71 11.0951 1340.04 12.2617 1338.71 12.2617C1337.37 12.2617 1336.21 11.0951 1336.21 9.76172Z" fill="#C8AA5D"/>
<path fill-rule="evenodd" clip-rule="evenodd" d="M1362 7C1362.5 4.72363 1363.33 3 1364.67 3C1367.33 3 1369.5 4.22363 1370 7C1370 9.66667 1368.67 11 1366 11C1363.33 11 1362 9.66667 1362 7ZM1363.5 7.22363C1363.5 5.8903 1365.33 5.22363 1366 5.22363C1367.33 5.22363 1368 6.08724 1368 7.22363C1368 8.55697 1367.33 9.72363 1366 9.72363C1364.67 9.72363 1363.5 8.55697 1363.5 7.22363Z" fill="#C8AA5D"/>
</svg>
