<svg width="1366" height="50" viewBox="0 0 1366 50" fill="none" xmlns="http://www.w3.org/2000/svg">
<path d="M0 50H1366V40.0809C818.831 -10.8644 519.836 -10.5226 0 40.0809V50Z" fill="#FEFAF6"/>
<path fill-rule="evenodd" clip-rule="evenodd" d="M-3.99634 43C-3.49634 45.2764 -2.66301 47 -1.32968 47C1.33699 47 3.50366 45.7764 4.00366 43C4.00366 40.3333 2.67032 39 0.00365567 39C-2.66301 39 -3.99634 40.3333 -3.99634 43ZM-2.49634 42.7764C-2.49634 44.1097 -0.663005 44.7764 0.00366211 44.7764C1.337 44.7764 2.00366 43.9128 2.00366 42.7764C2.00366 41.443 1.337 40.2764 0.00366211 40.2764C-1.32967 40.2764 -2.49634 41.443 -2.49634 42.7764Z" fill="#C8AA5D"/>
<path fill-rule="evenodd" clip-rule="evenodd" d="M23.4482 40.334C23.9482 42.6104 24.7816 44.334 26.1149 44.334C28.7816 44.334 30.9482 43.1104 31.4482 40.334C31.4482 37.6673 30.1149 36.334 27.4482 36.334C24.7816 36.334 23.4482 37.6673 23.4482 40.334ZM24.9482 40.1104C24.9482 41.4437 26.7816 42.1104 27.4482 42.1104C28.7816 42.1104 29.4482 41.2467 29.4482 40.1104C29.4482 38.777 28.7816 37.6104 27.4482 37.6104C26.1149 37.6104 24.9482 38.777 24.9482 40.1104Z" fill="#C8AA5D"/>
<path fill-rule="evenodd" clip-rule="evenodd" d="M50.6926 37.7451C51.1926 40.0215 52.026 41.7451 53.3593 41.7451C56.026 41.7451 58.1926 40.5215 58.6926 37.7451C58.6926 35.0785 57.3593 33.7451 54.6926 33.7451C52.026 33.7451 50.6926 35.0785 50.6926 37.7451ZM52.1926 37.5215C52.1926 38.8548 54.026 39.5215 54.6926 39.5215C56.026 39.5215 56.6926 38.6579 56.6926 37.5215C56.6926 36.1882 56.026 35.0215 54.6926 35.0215C53.3593 35.0215 52.1926 36.1882 52.1926 37.5215Z" fill="#C8AA5D"/>
<path fill-rule="evenodd" clip-rule="evenodd" d="M77.9426 35.2168C78.4426 37.4932 79.276 39.2168 80.6093 39.2168C83.276 39.2168 85.4426 37.9932 85.9426 35.2168C85.9426 32.5501 84.6093 31.2168 81.9426 31.2168C79.276 31.2168 77.9426 32.5501 77.9426 35.2168ZM79.4426 34.9932C79.4426 36.3265 81.276 36.9932 81.9426 36.9932C83.276 36.9932 83.9426 36.1296 83.9426 34.9932C83.9426 33.6598 83.276 32.4932 81.9426 32.4932C80.6093 32.4932 79.4426 33.6598 79.4426 34.9932Z" fill="#C8AA5D"/>
<path fill-rule="evenodd" clip-rule="evenodd" d="M105.199 32.7539C105.699 35.0303 106.532 36.7539 107.865 36.7539C110.532 36.7539 112.699 35.5303 113.199 32.7539C113.199 30.0872 111.865 28.7539 109.199 28.7539C106.532 28.7539 105.199 30.0872 105.199 32.7539ZM106.699 32.5303C106.699 33.8636 108.532 34.5303 109.199 34.5303C110.532 34.5303 111.199 33.6667 111.199 32.5303C111.199 31.1969 110.532 30.0303 109.199 30.0303C107.865 30.0303 106.699 31.1969 106.699 32.5303Z" fill="#C8AA5D"/>
<path fill-rule="evenodd" clip-rule="evenodd" d="M132.461 30.3604C132.961 32.6367 133.794 34.3604 135.128 34.3604C137.794 34.3604 139.961 33.1367 140.461 30.3604C140.461 27.6937 139.128 26.3604 136.461 26.3604C133.794 26.3604 132.461 27.6937 132.461 30.3604ZM133.961 30.1367C133.961 31.4701 135.794 32.1367 136.461 32.1367C137.794 32.1367 138.461 31.2731 138.461 30.1367C138.461 28.8034 137.794 27.6367 136.461 27.6367C135.128 27.6367 133.961 28.8034 133.961 30.1367Z" fill="#C8AA5D"/>
<path fill-rule="evenodd" clip-rule="evenodd" d="M159.73 28.041C160.23 30.3174 161.063 32.041 162.397 32.041C165.063 32.041 167.23 30.8174 167.73 28.041C167.73 25.3744 166.397 24.041 163.73 24.041C161.063 24.041 159.73 25.3744 159.73 28.041ZM161.23 27.8174C161.23 29.1507 163.063 29.8174 163.73 29.8174C165.063 29.8174 165.73 28.9538 165.73 27.8174C165.73 26.4841 165.063 25.3174 163.73 25.3174C162.397 25.3174 161.23 26.4841 161.23 27.8174Z" fill="#C8AA5D"/>
<path fill-rule="evenodd" clip-rule="evenodd" d="M187.006 25.8008C187.506 28.0771 188.339 29.8008 189.672 29.8008C192.339 29.8008 194.506 28.5771 195.006 25.8008C195.006 23.1341 193.672 21.8008 191.006 21.8008C188.339 21.8008 187.006 23.1341 187.006 25.8008ZM188.506 25.5771C188.506 26.9105 190.339 27.5771 191.006 27.5771C192.339 27.5771 193.006 26.7135 193.006 25.5771C193.006 24.2438 192.339 23.0771 191.006 23.0771C189.672 23.0771 188.506 24.2438 188.506 25.5771Z" fill="#C8AA5D"/>
<path fill-rule="evenodd" clip-rule="evenodd" d="M214.288 23.6455C214.788 25.9219 215.621 27.6455 216.955 27.6455C219.621 27.6455 221.788 26.4219 222.288 23.6455C222.288 20.9788 220.955 19.6455 218.288 19.6455C215.621 19.6455 214.288 20.9788 214.288 23.6455ZM215.788 23.4219C215.788 24.7552 217.621 25.4219 218.288 25.4219C219.621 25.4219 220.288 24.5583 220.288 23.4219C220.288 22.0885 219.621 20.9219 218.288 20.9219C216.955 20.9219 215.788 22.0885 215.788 23.4219Z" fill="#C8AA5D"/>
<path fill-rule="evenodd" clip-rule="evenodd" d="M241.578 21.5791C242.078 23.8555 242.911 25.5791 244.245 25.5791C246.911 25.5791 249.078 24.3555 249.578 21.5791C249.578 18.9124 248.245 17.5791 245.578 17.5791C242.911 17.5791 241.578 18.9124 241.578 21.5791ZM243.078 21.3555C243.078 22.6888 244.911 23.3555 245.578 23.3555C246.911 23.3555 247.578 22.4919 247.578 21.3555C247.578 20.0221 246.911 18.8555 245.578 18.8555C244.245 18.8555 243.078 20.0221 243.078 21.3555Z" fill="#C8AA5D"/>
<path fill-rule="evenodd" clip-rule="evenodd" d="M268.875 19.6074C269.375 21.8838 270.208 23.6074 271.541 23.6074C274.208 23.6074 276.375 22.3838 276.875 19.6074C276.875 16.9408 275.541 15.6074 272.875 15.6074C270.208 15.6074 268.875 16.9408 268.875 19.6074ZM270.375 19.3838C270.375 20.7171 272.208 21.3838 272.875 21.3838C274.208 21.3838 274.875 20.5202 274.875 19.3838C274.875 18.0505 274.208 16.8838 272.875 16.8838C271.541 16.8838 270.375 18.0505 270.375 19.3838Z" fill="#C8AA5D"/>
<path fill-rule="evenodd" clip-rule="evenodd" d="M296.179 17.7354C296.679 20.0117 297.512 21.7354 298.845 21.7354C301.512 21.7354 303.679 20.5117 304.179 17.7354C304.179 15.0687 302.845 13.7354 300.179 13.7354C297.512 13.7354 296.179 15.0687 296.179 17.7354ZM297.679 17.5117C297.679 18.8451 299.512 19.5117 300.179 19.5117C301.512 19.5117 302.179 18.6481 302.179 17.5117C302.179 16.1784 301.512 15.0117 300.179 15.0117C298.845 15.0117 297.679 16.1784 297.679 17.5117Z" fill="#C8AA5D"/>
<path fill-rule="evenodd" clip-rule="evenodd" d="M323.49 15.9688C323.99 18.2451 324.823 19.9688 326.157 19.9688C328.823 19.9688 330.99 18.7451 331.49 15.9688C331.49 13.3021 330.157 11.9688 327.49 11.9688C324.823 11.9688 323.49 13.3021 323.49 15.9688ZM324.99 15.7451C324.99 17.0784 326.823 17.7451 327.49 17.7451C328.823 17.7451 329.49 16.8815 329.49 15.7451C329.49 14.4118 328.823 13.2451 327.49 13.2451C326.157 13.2451 324.99 14.4118 324.99 15.7451Z" fill="#C8AA5D"/>
<path fill-rule="evenodd" clip-rule="evenodd" d="M350.808 14.3125C351.308 16.5889 352.142 18.3125 353.475 18.3125C356.142 18.3125 358.308 17.0889 358.808 14.3125C358.808 11.6458 357.475 10.3125 354.808 10.3125C352.142 10.3125 350.808 11.6458 350.808 14.3125ZM352.308 14.0889C352.308 15.4222 354.142 16.0889 354.808 16.0889C356.142 16.0889 356.808 15.2253 356.808 14.0889C356.808 12.7555 356.142 11.5889 354.808 11.5889C353.475 11.5889 352.308 12.7555 352.308 14.0889Z" fill="#C8AA5D"/>
<path fill-rule="evenodd" clip-rule="evenodd" d="M378.134 12.7715C378.634 15.0479 379.467 16.7715 380.8 16.7715C383.467 16.7715 385.634 15.5479 386.134 12.7715C386.134 10.1048 384.8 8.77148 382.134 8.77148C379.467 8.77148 378.134 10.1048 378.134 12.7715ZM379.634 12.5479C379.634 13.8812 381.467 14.5479 382.134 14.5479C383.467 14.5479 384.134 13.6842 384.134 12.5479C384.134 11.2145 383.467 10.0479 382.134 10.0479C380.8 10.0479 379.634 11.2145 379.634 12.5479Z" fill="#C8AA5D"/>
<path fill-rule="evenodd" clip-rule="evenodd" d="M405.466 11.3516C405.966 13.6279 406.799 15.3516 408.132 15.3516C410.799 15.3516 412.966 14.1279 413.466 11.3516C413.466 8.6849 412.132 7.35156 409.466 7.35156C406.799 7.35156 405.466 8.6849 405.466 11.3516ZM406.966 11.1279C406.966 12.4613 408.799 13.1279 409.466 13.1279C410.799 13.1279 411.466 12.2643 411.466 11.1279C411.466 9.7946 410.799 8.62793 409.466 8.62793C408.132 8.62793 406.966 9.7946 406.966 11.1279Z" fill="#C8AA5D"/>
<path fill-rule="evenodd" clip-rule="evenodd" d="M432.804 10.0557C433.304 12.332 434.138 14.0557 435.471 14.0557C438.138 14.0557 440.304 12.832 440.804 10.0557C440.804 7.389 439.471 6.05566 436.804 6.05566C434.138 6.05566 432.804 7.389 432.804 10.0557ZM434.304 9.83203C434.304 11.1654 436.138 11.832 436.804 11.832C438.138 11.832 438.804 10.9684 438.804 9.83203C438.804 8.4987 438.138 7.33203 436.804 7.33203C435.471 7.33203 434.304 8.4987 434.304 9.83203Z" fill="#C8AA5D"/>
<path fill-rule="evenodd" clip-rule="evenodd" d="M460.149 8.89062C460.649 11.167 461.482 12.8906 462.815 12.8906C465.482 12.8906 467.649 11.667 468.149 8.89062C468.149 6.22396 466.815 4.89062 464.149 4.89062C461.482 4.89062 460.149 6.22396 460.149 8.89062ZM461.649 8.66699C461.649 10.0003 463.482 10.667 464.149 10.667C465.482 10.667 466.149 9.80338 466.149 8.66699C466.149 7.33366 465.482 6.16699 464.149 6.16699C462.815 6.16699 461.649 7.33366 461.649 8.66699Z" fill="#C8AA5D"/>
<path fill-rule="evenodd" clip-rule="evenodd" d="M487.499 7.8584C487.999 10.1348 488.832 11.8584 490.165 11.8584C492.832 11.8584 494.999 10.6348 495.499 7.8584C495.499 5.19173 494.165 3.8584 491.499 3.8584C488.832 3.8584 487.499 5.19173 487.499 7.8584ZM488.999 7.63477C488.999 8.9681 490.832 9.63477 491.499 9.63477C492.832 9.63477 493.499 8.77116 493.499 7.63477C493.499 6.30143 492.832 5.13477 491.499 5.13477C490.165 5.13477 488.999 6.30143 488.999 7.63477Z" fill="#C8AA5D"/>
<path fill-rule="evenodd" clip-rule="evenodd" d="M514.854 6.96289C515.354 9.23926 516.187 10.9629 517.52 10.9629C520.187 10.9629 522.354 9.73926 522.854 6.96289C522.854 4.29623 521.52 2.96289 518.854 2.96289C516.187 2.96289 514.854 4.29623 514.854 6.96289ZM516.354 6.73926C516.354 8.07259 518.187 8.73926 518.854 8.73926C520.187 8.73926 520.854 7.87565 520.854 6.73926C520.854 5.40593 520.187 4.23926 518.854 4.23926C517.52 4.23926 516.354 5.40593 516.354 6.73926Z" fill="#C8AA5D"/>
<path fill-rule="evenodd" clip-rule="evenodd" d="M542.213 6.20898C542.713 8.48535 543.546 10.209 544.88 10.209C547.546 10.209 549.713 8.98535 550.213 6.20898C550.213 3.54232 548.88 2.20898 546.213 2.20898C543.546 2.20898 542.213 3.54232 542.213 6.20898ZM543.713 5.98535C543.713 7.31868 545.546 7.98535 546.213 7.98535C547.546 7.98535 548.213 7.12174 548.213 5.98535C548.213 4.65202 547.546 3.48535 546.213 3.48535C544.88 3.48535 543.713 4.65202 543.713 5.98535Z" fill="#C8AA5D"/>
<path fill-rule="evenodd" clip-rule="evenodd" d="M569.576 5.59766C570.076 7.87402 570.91 9.59766 572.243 9.59766C574.909 9.59766 577.076 8.37402 577.576 5.59766C577.576 2.93099 576.243 1.59766 573.576 1.59766C570.91 1.59766 569.576 2.93099 569.576 5.59766ZM571.076 5.37402C571.076 6.70736 572.91 7.37402 573.576 7.37402C574.91 7.37402 575.576 6.51041 575.576 5.37402C575.576 4.04069 574.91 2.87402 573.576 2.87402C572.243 2.87402 571.076 4.04069 571.076 5.37402Z" fill="#C8AA5D"/>
<path fill-rule="evenodd" clip-rule="evenodd" d="M596.942 5.13184C597.442 7.4082 598.275 9.13184 599.609 9.13184C602.275 9.13184 604.442 7.9082 604.942 5.13184C604.942 2.46517 603.609 1.13184 600.942 1.13184C598.275 1.13184 596.942 2.46517 596.942 5.13184ZM598.442 4.9082C598.442 6.24154 600.275 6.9082 600.942 6.9082C602.275 6.9082 602.942 6.04459 602.942 4.9082C602.942 3.57487 602.275 2.4082 600.942 2.4082C599.609 2.4082 598.442 3.57487 598.442 4.9082Z" fill="#C8AA5D"/>
<path fill-rule="evenodd" clip-rule="evenodd" d="M624.31 4.8125C624.81 7.08887 625.644 8.8125 626.977 8.8125C629.644 8.8125 631.81 7.58887 632.31 4.8125C632.31 2.14583 630.977 0.8125 628.31 0.8125C625.644 0.8125 624.31 2.14583 624.31 4.8125ZM625.81 4.58887C625.81 5.9222 627.644 6.58887 628.31 6.58887C629.644 6.58887 630.31 5.72526 630.31 4.58887C630.31 3.25553 629.644 2.08887 628.31 2.08887C626.977 2.08887 625.81 3.25553 625.81 4.58887Z" fill="#C8AA5D"/>
<path fill-rule="evenodd" clip-rule="evenodd" d="M651.68 4.64062C652.18 6.91699 653.013 8.64062 654.346 8.64062C657.013 8.64062 659.18 7.41699 659.68 4.64062C659.68 1.97396 658.346 0.640625 655.68 0.640625C653.013 0.640625 651.68 1.97396 651.68 4.64062ZM653.18 4.41699C653.18 5.75032 655.013 6.41699 655.68 6.41699C657.013 6.41699 657.68 5.55338 657.68 4.41699C657.68 3.08366 657.013 1.91699 655.68 1.91699C654.346 1.91699 653.18 3.08366 653.18 4.41699Z" fill="#C8AA5D"/>
<path fill-rule="evenodd" clip-rule="evenodd" d="M679.05 4.61719C679.55 6.89355 680.383 8.61719 681.716 8.61719C684.383 8.61719 686.55 7.39355 687.05 4.61719C687.05 1.95052 685.716 0.617188 683.05 0.617188C680.383 0.617188 679.05 1.95052 679.05 4.61719ZM680.55 4.39355C680.55 5.72689 682.383 6.39355 683.05 6.39355C684.383 6.39355 685.05 5.52995 685.05 4.39355C685.05 3.06022 684.383 1.89355 683.05 1.89355C681.716 1.89355 680.55 3.06022 680.55 4.39355Z" fill="#C8AA5D"/>
<path fill-rule="evenodd" clip-rule="evenodd" d="M706.419 4.74023C706.919 7.0166 707.753 8.74023 709.086 8.74023C711.753 8.74023 713.919 7.5166 714.419 4.74023C714.419 2.07357 713.086 0.740234 710.419 0.740234C707.753 0.740234 706.419 2.07357 706.419 4.74023ZM707.919 4.5166C707.919 5.84993 709.753 6.5166 710.419 6.5166C711.753 6.5166 712.419 5.65299 712.419 4.5166C712.419 3.18327 711.753 2.0166 710.419 2.0166C709.086 2.0166 707.919 3.18327 707.919 4.5166Z" fill="#C8AA5D"/>
<path fill-rule="evenodd" clip-rule="evenodd" d="M733.788 5.00977C734.288 7.28613 735.121 9.00977 736.455 9.00977C739.121 9.00977 741.288 7.78613 741.788 5.00977C741.788 2.3431 740.455 1.00977 737.788 1.00977C735.121 1.00977 733.788 2.3431 733.788 5.00977ZM735.288 4.78613C735.288 6.11947 737.121 6.78613 737.788 6.78613C739.121 6.78613 739.788 5.92252 739.788 4.78613C739.788 3.4528 739.121 2.28613 737.788 2.28613C736.455 2.28613 735.288 3.4528 735.288 4.78613Z" fill="#C8AA5D"/>
<path fill-rule="evenodd" clip-rule="evenodd" d="M761.154 5.42383C761.654 7.7002 762.488 9.42383 763.821 9.42383C766.488 9.42383 768.654 8.2002 769.154 5.42383C769.154 2.75716 767.821 1.42383 765.154 1.42383C762.488 1.42383 761.154 2.75716 761.154 5.42383ZM762.654 5.2002C762.654 6.53353 764.488 7.2002 765.154 7.2002C766.488 7.2002 767.154 6.33659 767.154 5.2002C767.154 3.86686 766.488 2.7002 765.154 2.7002C763.821 2.7002 762.654 3.86686 762.654 5.2002Z" fill="#C8AA5D"/>
<path fill-rule="evenodd" clip-rule="evenodd" d="M788.518 5.97949C789.018 8.25586 789.852 9.97949 791.185 9.97949C793.852 9.97949 796.018 8.75586 796.518 5.97949C796.518 3.31283 795.185 1.97949 792.518 1.97949C789.852 1.97949 788.518 3.31283 788.518 5.97949ZM790.018 5.75586C790.018 7.08919 791.852 7.75586 792.518 7.75586C793.852 7.75586 794.518 6.89225 794.518 5.75586C794.518 4.42253 793.852 3.25586 792.518 3.25586C791.185 3.25586 790.018 4.42253 790.018 5.75586Z" fill="#C8AA5D"/>
<path fill-rule="evenodd" clip-rule="evenodd" d="M815.879 6.67383C816.379 8.9502 817.212 10.6738 818.546 10.6738C821.212 10.6738 823.379 9.4502 823.879 6.67383C823.879 4.00716 822.546 2.67383 819.879 2.67383C817.212 2.67383 815.879 4.00716 815.879 6.67383ZM817.379 6.4502C817.379 7.78353 819.212 8.4502 819.879 8.4502C821.212 8.4502 821.879 7.58659 821.879 6.4502C821.879 5.11686 821.212 3.9502 819.879 3.9502C818.546 3.9502 817.379 5.11686 817.379 6.4502Z" fill="#C8AA5D"/>
<path fill-rule="evenodd" clip-rule="evenodd" d="M843.235 7.50488C843.735 9.78125 844.569 11.5049 845.902 11.5049C848.569 11.5049 850.735 10.2812 851.235 7.50488C851.235 4.83822 849.902 3.50488 847.235 3.50488C844.569 3.50488 843.235 4.83822 843.235 7.50488ZM844.735 7.28125C844.735 8.61458 846.569 9.28125 847.235 9.28125C848.569 9.28125 849.235 8.41764 849.235 7.28125C849.235 5.94792 848.569 4.78125 847.235 4.78125C845.902 4.78125 844.735 5.94792 844.735 7.28125Z" fill="#C8AA5D"/>
<path fill-rule="evenodd" clip-rule="evenodd" d="M870.588 8.46777C871.088 10.7441 871.921 12.4678 873.254 12.4678C875.921 12.4678 878.088 11.2441 878.588 8.46777C878.588 5.80111 877.254 4.46777 874.588 4.46777C871.921 4.46777 870.588 5.80111 870.588 8.46777ZM872.088 8.24414C872.088 9.57747 873.921 10.2441 874.588 10.2441C875.921 10.2441 876.588 9.38053 876.588 8.24414C876.588 6.91081 875.921 5.74414 874.588 5.74414C873.254 5.74414 872.088 6.91081 872.088 8.24414Z" fill="#C8AA5D"/>
<path fill-rule="evenodd" clip-rule="evenodd" d="M897.935 9.55859C898.435 11.835 899.268 13.5586 900.601 13.5586C903.268 13.5586 905.435 12.335 905.935 9.55859C905.935 6.89193 904.601 5.55859 901.935 5.55859C899.268 5.55859 897.935 6.89193 897.935 9.55859ZM899.435 9.33496C899.435 10.6683 901.268 11.335 901.935 11.335C903.268 11.335 903.935 10.4714 903.935 9.33496C903.935 8.00163 903.268 6.83496 901.935 6.83496C900.601 6.83496 899.435 8.00163 899.435 9.33496Z" fill="#C8AA5D"/>
<path fill-rule="evenodd" clip-rule="evenodd" d="M925.276 10.7725C925.776 13.0488 926.61 14.7725 927.943 14.7725C930.61 14.7725 932.776 13.5488 933.276 10.7725C933.276 8.1058 931.943 6.77246 929.276 6.77246C926.61 6.77246 925.276 8.1058 925.276 10.7725ZM926.776 10.5488C926.776 11.8822 928.61 12.5488 929.276 12.5488C930.61 12.5488 931.276 11.6852 931.276 10.5488C931.276 9.2155 930.61 8.04883 929.276 8.04883C927.943 8.04883 926.776 9.2155 926.776 10.5488Z" fill="#C8AA5D"/>
<path fill-rule="evenodd" clip-rule="evenodd" d="M952.612 12.1045C953.112 14.3809 953.946 16.1045 955.279 16.1045C957.946 16.1045 960.112 14.8809 960.612 12.1045C960.612 9.43783 959.279 8.10449 956.612 8.10449C953.946 8.10449 952.612 9.43783 952.612 12.1045ZM954.112 11.8809C954.112 13.2142 955.946 13.8809 956.612 13.8809C957.946 13.8809 958.612 13.0173 958.612 11.8809C958.612 10.5475 957.946 9.38086 956.612 9.38086C955.279 9.38086 954.112 10.5475 954.112 11.8809Z" fill="#C8AA5D"/>
<path fill-rule="evenodd" clip-rule="evenodd" d="M979.942 13.5508C980.442 15.8271 981.275 17.5508 982.609 17.5508C985.275 17.5508 987.442 16.3271 987.942 13.5508C987.942 10.8841 986.609 9.55078 983.942 9.55078C981.275 9.55078 979.942 10.8841 979.942 13.5508ZM981.442 13.3271C981.442 14.6605 983.275 15.3271 983.942 15.3271C985.275 15.3271 985.942 14.4635 985.942 13.3271C985.942 11.9938 985.275 10.8271 983.942 10.8271C982.609 10.8271 981.442 11.9938 981.442 13.3271Z" fill="#C8AA5D"/>
<path fill-rule="evenodd" clip-rule="evenodd" d="M1007.27 15.1064C1007.77 17.3828 1008.6 19.1064 1009.93 19.1064C1012.6 19.1064 1014.77 17.8828 1015.27 15.1064C1015.27 12.4398 1013.93 11.1064 1011.27 11.1064C1008.6 11.1064 1007.27 12.4398 1007.27 15.1064ZM1008.77 14.8828C1008.77 16.2161 1010.6 16.8828 1011.27 16.8828C1012.6 16.8828 1013.27 16.0192 1013.27 14.8828C1013.27 13.5495 1012.6 12.3828 1011.27 12.3828C1009.93 12.3828 1008.77 13.5495 1008.77 14.8828Z" fill="#C8AA5D"/>
<path fill-rule="evenodd" clip-rule="evenodd" d="M1034.58 16.7656C1035.08 19.042 1035.92 20.7656 1037.25 20.7656C1039.92 20.7656 1042.08 19.542 1042.58 16.7656C1042.58 14.099 1041.25 12.7656 1038.58 12.7656C1035.92 12.7656 1034.58 14.099 1034.58 16.7656ZM1036.08 16.542C1036.08 17.8753 1037.92 18.542 1038.58 18.542C1039.92 18.542 1040.58 17.6784 1040.58 16.542C1040.58 15.2087 1039.92 14.042 1038.58 14.042C1037.25 14.042 1036.08 15.2087 1036.08 16.542Z" fill="#C8AA5D"/>
<path fill-rule="evenodd" clip-rule="evenodd" d="M1061.89 18.5225C1062.39 20.7988 1063.23 22.5225 1064.56 22.5225C1067.23 22.5225 1069.39 21.2988 1069.89 18.5225C1069.89 15.8558 1068.56 14.5225 1065.89 14.5225C1063.23 14.5225 1061.89 15.8558 1061.89 18.5225ZM1063.39 18.2988C1063.39 19.6322 1065.23 20.2988 1065.89 20.2988C1067.23 20.2988 1067.89 19.4352 1067.89 18.2988C1067.89 16.9655 1067.23 15.7988 1065.89 15.7988C1064.56 15.7988 1063.39 16.9655 1063.39 18.2988Z" fill="#C8AA5D"/>
<path fill-rule="evenodd" clip-rule="evenodd" d="M1089.2 20.374C1089.7 22.6504 1090.53 24.374 1091.87 24.374C1094.53 24.374 1096.7 23.1504 1097.2 20.374C1097.2 17.7074 1095.87 16.374 1093.2 16.374C1090.53 16.374 1089.2 17.7074 1089.2 20.374ZM1090.7 20.1504C1090.7 21.4837 1092.53 22.1504 1093.2 22.1504C1094.53 22.1504 1095.2 21.2868 1095.2 20.1504C1095.2 18.8171 1094.53 17.6504 1093.2 17.6504C1091.87 17.6504 1090.7 18.8171 1090.7 20.1504Z" fill="#C8AA5D"/>
<path fill-rule="evenodd" clip-rule="evenodd" d="M1116.5 22.3135C1117 24.5898 1117.83 26.3135 1119.16 26.3135C1121.83 26.3135 1124 25.0898 1124.5 22.3135C1124.5 19.6468 1123.16 18.3135 1120.5 18.3135C1117.83 18.3135 1116.5 19.6468 1116.5 22.3135ZM1118 22.0898C1118 23.4232 1119.83 24.0898 1120.5 24.0898C1121.83 24.0898 1122.5 23.2262 1122.5 22.0898C1122.5 20.7565 1121.83 19.5898 1120.5 19.5898C1119.16 19.5898 1118 20.7565 1118 22.0898Z" fill="#C8AA5D"/>
<path fill-rule="evenodd" clip-rule="evenodd" d="M1143.79 24.3369C1144.29 26.6133 1145.12 28.3369 1146.46 28.3369C1149.12 28.3369 1151.29 27.1133 1151.79 24.3369C1151.79 21.6702 1150.46 20.3369 1147.79 20.3369C1145.12 20.3369 1143.79 21.6702 1143.79 24.3369ZM1145.29 24.1133C1145.29 25.4466 1147.12 26.1133 1147.79 26.1133C1149.12 26.1133 1149.79 25.2497 1149.79 24.1133C1149.79 22.7799 1149.12 21.6133 1147.79 21.6133C1146.46 21.6133 1145.29 22.7799 1145.29 24.1133Z" fill="#C8AA5D"/>
<path fill-rule="evenodd" clip-rule="evenodd" d="M1171.08 26.4395C1171.58 28.7158 1172.41 30.4395 1173.74 30.4395C1176.41 30.4395 1178.58 29.2158 1179.08 26.4395C1179.08 23.7728 1177.74 22.4395 1175.08 22.4395C1172.41 22.4395 1171.08 23.7728 1171.08 26.4395ZM1172.58 26.2158C1172.58 27.5492 1174.41 28.2158 1175.08 28.2158C1176.41 28.2158 1177.08 27.3522 1177.08 26.2158C1177.08 24.8825 1176.41 23.7158 1175.08 23.7158C1173.74 23.7158 1172.58 24.8825 1172.58 26.2158Z" fill="#C8AA5D"/>
<path fill-rule="evenodd" clip-rule="evenodd" d="M1198.36 28.6152C1198.86 30.8916 1199.69 32.6152 1201.02 32.6152C1203.69 32.6152 1205.86 31.3916 1206.36 28.6152C1206.36 25.9486 1205.02 24.6152 1202.36 24.6152C1199.69 24.6152 1198.36 25.9486 1198.36 28.6152ZM1199.86 28.3916C1199.86 29.7249 1201.69 30.3916 1202.36 30.3916C1203.69 30.3916 1204.36 29.528 1204.36 28.3916C1204.36 27.0583 1203.69 25.8916 1202.36 25.8916C1201.02 25.8916 1199.86 27.0583 1199.86 28.3916Z" fill="#C8AA5D"/>
<path fill-rule="evenodd" clip-rule="evenodd" d="M1225.63 30.8613C1226.13 33.1377 1226.97 34.8613 1228.3 34.8613C1230.97 34.8613 1233.13 33.6377 1233.63 30.8613C1233.63 28.1947 1232.3 26.8613 1229.63 26.8613C1226.97 26.8613 1225.63 28.1947 1225.63 30.8613ZM1227.13 30.6377C1227.13 31.971 1228.97 32.6377 1229.63 32.6377C1230.97 32.6377 1231.63 31.7741 1231.63 30.6377C1231.63 29.3044 1230.97 28.1377 1229.63 28.1377C1228.3 28.1377 1227.13 29.3044 1227.13 30.6377Z" fill="#C8AA5D"/>
<path fill-rule="evenodd" clip-rule="evenodd" d="M1252.9 33.1729C1253.4 35.4492 1254.23 37.1729 1255.57 37.1729C1258.23 37.1729 1260.4 35.9492 1260.9 33.1729C1260.9 30.5062 1259.57 29.1729 1256.9 29.1729C1254.23 29.1729 1252.9 30.5062 1252.9 33.1729ZM1254.4 32.9492C1254.4 34.2826 1256.23 34.9492 1256.9 34.9492C1258.23 34.9492 1258.9 34.0856 1258.9 32.9492C1258.9 31.6159 1258.23 30.4492 1256.9 30.4492C1255.57 30.4492 1254.4 31.6159 1254.4 32.9492Z" fill="#C8AA5D"/>
<path fill-rule="evenodd" clip-rule="evenodd" d="M1280.17 35.5459C1280.67 37.8223 1281.5 39.5459 1282.83 39.5459C1285.5 39.5459 1287.67 38.3223 1288.17 35.5459C1288.17 32.8792 1286.83 31.5459 1284.17 31.5459C1281.5 31.5459 1280.17 32.8792 1280.17 35.5459ZM1281.67 35.3223C1281.67 36.6556 1283.5 37.3223 1284.17 37.3223C1285.5 37.3223 1286.17 36.4587 1286.17 35.3223C1286.17 33.9889 1285.5 32.8223 1284.17 32.8223C1282.83 32.8223 1281.67 33.9889 1281.67 35.3223Z" fill="#C8AA5D"/>
<path fill-rule="evenodd" clip-rule="evenodd" d="M1307.42 37.9756C1307.92 40.252 1308.76 41.9756 1310.09 41.9756C1312.76 41.9756 1314.92 40.752 1315.42 37.9756C1315.42 35.3089 1314.09 33.9756 1311.42 33.9756C1308.76 33.9756 1307.42 35.3089 1307.42 37.9756ZM1308.92 37.752C1308.92 39.0853 1310.76 39.752 1311.42 39.752C1312.76 39.752 1313.42 38.8883 1313.42 37.752C1313.42 36.4186 1312.76 35.252 1311.42 35.252C1310.09 35.252 1308.92 36.4186 1308.92 37.752Z" fill="#C8AA5D"/>
<path fill-rule="evenodd" clip-rule="evenodd" d="M1334.71 40.4619C1335.21 42.7383 1336.04 44.4619 1337.37 44.4619C1340.04 44.4619 1342.21 43.2383 1342.71 40.4619C1342.71 37.7952 1341.37 36.4619 1338.71 36.4619C1336.04 36.4619 1334.71 37.7952 1334.71 40.4619ZM1336.21 40.2383C1336.21 41.5716 1338.04 42.2383 1338.71 42.2383C1340.04 42.2383 1340.71 41.3747 1340.71 40.2383C1340.71 38.9049 1340.04 37.7383 1338.71 37.7383C1337.37 37.7383 1336.21 38.9049 1336.21 40.2383Z" fill="#C8AA5D"/>
<path fill-rule="evenodd" clip-rule="evenodd" d="M1362 43C1362.5 45.2764 1363.33 47 1364.67 47C1367.33 47 1369.5 45.7764 1370 43C1370 40.3333 1368.67 39 1366 39C1363.33 39 1362 40.3333 1362 43ZM1363.5 42.7764C1363.5 44.1097 1365.33 44.7764 1366 44.7764C1367.33 44.7764 1368 43.9128 1368 42.7764C1368 41.443 1367.33 40.2764 1366 40.2764C1364.67 40.2764 1363.5 41.443 1363.5 42.7764Z" fill="#C8AA5D"/>
</svg>
