<svg width="274" height="256" viewBox="0 0 274 256" fill="none" xmlns="http://www.w3.org/2000/svg">
<path d="M26.4784 95.9795C26.4784 95.9795 3.67302 103.089 0.883874 123.98C-1.90527 144.926 2.798 155.645 2.798 155.645C2.798 155.645 3.23551 150.778 10.892 147.661C18.6032 144.543 38.2913 127.754 28.2285 98.5499C28.2285 98.5499 26.1503 119.66 13.8452 131.418C13.8999 131.418 26.9159 114.136 26.4784 95.9795Z" fill="#EBEBEA"/>
<path d="M49.9401 139.348C49.9401 139.348 41.3539 164.997 54.1512 180.037C66.9484 195.076 77.1206 196.936 77.1206 196.936C77.1206 196.936 74.058 193.654 76.4644 184.576C78.8707 175.497 78.9254 147.004 52.784 139.239C52.784 139.239 66.1281 153.676 67.0031 172.216C66.9485 172.161 62.7374 149.684 49.9401 139.348Z" fill="#EBEBEA"/>
<path d="M34.0802 80.6117C34.0802 80.6117 33.8615 108.175 50.3776 116.925C66.8937 125.676 77.0112 123.215 77.0112 123.215C77.0112 123.215 73.1283 121.41 72.6361 111.949C72.1439 102.433 63.503 75.7991 36.7053 79.3539C36.7053 79.3539 53.5496 87.2838 60.0029 104.292C59.9482 104.237 49.1744 84.9869 34.0802 80.6117Z" fill="#EBEBEA"/>
<path d="M33.0957 59.119C33.0957 59.119 42.7757 34.0167 30.6894 18.2115C18.5484 2.46101 8.48561 0 8.48561 0C8.48561 0 11.4388 3.44542 8.64967 12.4144C5.80584 21.3288 4.4933 49.7671 30.2519 59.0643C30.2519 59.0643 17.564 43.8607 17.5093 25.3211C17.5093 25.3211 20.7907 48.0718 33.0957 59.119Z" fill="#EBEBEA"/>
<path d="M87.2928 146.95C87.2928 146.95 95.1134 167.403 109.879 167.349C124.591 167.294 131.372 161.442 131.372 161.442C131.372 161.442 127.982 161.661 124.864 154.825C121.747 148.043 107.637 131.746 88.8788 144.981C88.8788 144.981 103.645 144.215 113.325 154.169C113.27 154.169 99.7073 144.215 87.2928 146.95Z" fill="#EBEBEA"/>
<path d="M129.513 51.9002C129.513 51.9002 122.677 72.8461 133.177 84.9324C143.678 97.0187 151.936 98.4953 151.936 98.4953C151.936 98.4953 149.42 95.8702 151.334 88.4325C153.248 81.0495 153.139 57.8613 131.865 51.7361C131.865 51.7361 142.803 63.3849 143.568 78.4244C143.568 78.4244 140.013 60.2129 129.513 51.9002Z" fill="#EBEBEA"/>
<path d="M128.747 135.629C128.747 135.629 125.138 146.731 130.662 153.13C136.185 159.528 140.615 160.294 140.615 160.294C140.615 160.294 139.302 158.872 140.287 154.989C141.271 151.051 141.217 138.801 129.951 135.574C129.951 135.574 135.748 141.754 136.13 149.684C136.185 149.684 134.271 140.004 128.747 135.629Z" fill="#EBEBEA"/>
<path d="M112.669 117.418C112.669 117.418 124.044 124.527 131.919 117.363C139.74 110.199 141.271 103.855 141.271 103.855C141.271 103.855 139.521 105.605 135.474 103.472C131.373 101.339 118.138 99.4797 112.833 115.558C112.833 115.558 120.435 108.011 129.076 108.667C129.076 108.722 118.302 109.925 112.669 117.418Z" fill="#EBEBEA"/>
<path d="M173.101 131.254C173.101 131.254 184.476 138.363 192.351 131.199C200.172 124.035 201.703 117.691 201.703 117.691C201.703 117.691 199.953 119.441 195.906 117.308C191.804 115.175 178.57 113.316 173.265 129.394C173.265 129.394 180.867 121.847 189.508 122.504C189.453 122.558 178.734 123.761 173.101 131.254Z" fill="#EBEBEA"/>
<path d="M199.022 149.083C199.022 149.083 202.523 163.63 212.367 165.271C222.211 166.911 227.187 163.794 227.187 163.794C227.187 163.794 224.89 163.521 223.414 158.653C221.883 153.731 213.898 141.262 200.226 147.934C200.226 147.934 210.124 149.138 215.757 156.903C215.703 156.903 207.499 148.7 199.022 149.083Z" fill="#EBEBEA"/>
<path d="M215.813 113.152C215.813 113.152 222.704 100.354 217.18 90.7291C211.602 81.1038 206.297 78.8616 206.297 78.8616C206.297 78.8616 207.664 80.9945 205.586 85.5883C203.508 90.1822 200.937 105.495 214.336 112.878C214.336 112.878 208.43 103.526 209.633 93.4089C209.578 93.4636 209.852 106.042 215.813 113.152Z" fill="#EBEBEA"/>
<path d="M242.884 104.456C242.884 104.456 251.525 115.722 260.931 112.113C270.392 108.503 273.674 103.144 273.674 103.144C273.674 103.144 271.541 104.074 268.314 100.464C265.088 96.8545 253.22 89.7449 243.485 102.761C243.485 102.761 252.837 98.714 260.767 102.816C260.822 102.87 250.376 99.6984 242.884 104.456Z" fill="#EBEBEA"/>
<path d="M260.767 56.2749C260.767 56.2749 270.666 53.8686 272.307 45.009C273.948 36.1493 272.143 31.3914 272.143 31.3914C272.143 31.3914 271.869 33.4695 268.479 34.5633C265.143 35.6571 256.338 42.2745 260.056 55.0718C260.056 55.0718 261.369 46.1027 266.893 41.3995C266.838 41.5089 260.931 48.5091 260.767 56.2749Z" fill="#EBEBEA"/>
<path d="M252.4 65.7363C252.4 65.7363 255.408 53.9782 249.228 47.9077C243.103 41.7825 238.509 41.3997 238.509 41.3997C238.509 41.3997 239.985 42.7122 239.22 46.8686C238.454 51.025 239.329 63.6035 251.142 65.9551C251.142 65.9551 244.798 60.158 243.814 51.9547C243.814 51.9547 246.439 61.744 252.4 65.7363Z" fill="#EBEBEA"/>
<path d="M213.734 40.0327C213.734 40.0327 216.742 28.2746 210.562 22.2041C204.437 16.1336 199.843 15.696 199.843 15.696C199.843 15.696 201.319 17.0086 200.554 21.165C199.788 25.3213 200.663 37.8998 212.476 40.2515C212.476 40.2515 206.132 34.4544 205.148 26.2511C205.093 26.2511 207.718 36.0404 213.734 40.0327Z" fill="#EBEBEA"/>
<path d="M216.14 49.9857C216.14 49.9857 205.914 47.3059 201.101 54.9077C196.343 62.5095 196.288 67.869 196.288 67.869C196.288 67.869 197.327 66.0643 200.882 66.6659C204.492 67.2674 215.156 65.408 216.359 51.4623C216.359 51.4623 211.82 59.2828 204.929 60.9782C204.929 60.9235 213.133 57.2593 216.14 49.9857Z" fill="#EBEBEA"/>
<path d="M189.015 40.7983C189.015 40.7983 182.07 31.6105 174.359 34.4544C166.702 37.2982 163.968 41.6186 163.968 41.6186C163.968 41.6186 165.718 40.853 168.288 43.8062C170.858 46.7594 180.484 52.5565 188.468 42.1108C188.468 42.1108 180.867 45.3375 174.413 41.9468C174.413 42.0015 182.89 44.6265 189.015 40.7983Z" fill="#EBEBEA"/>
<path d="M52.3457 53.3219C52.3457 53.3219 65.4711 69.674 79.3621 63.9863C93.2532 58.2986 98.0112 50.2046 98.0112 50.2046C98.0112 50.2046 94.8939 51.6812 90.0265 46.4311C85.1592 41.1809 67.3305 31.1728 53.2754 50.8062C53.2754 50.8062 67.0024 44.4076 78.9246 50.2046C78.9246 50.2046 63.2835 45.9389 52.3457 53.3219Z" fill="#EBEBEA"/>
<path d="M133.178 182.115C133.178 182.115 151.444 188.842 161.178 175.88C170.913 162.919 171.624 153.184 171.624 153.184C171.624 153.184 169.491 156.301 163.093 154.497C156.639 152.747 136.896 154.223 132.904 179.435C132.904 179.435 142.201 165.981 154.999 164.177C154.999 164.177 139.631 169.427 133.178 182.115Z" fill="#EBEBEA"/>
<path d="M159.592 54.9078C159.592 54.9078 160.358 77.2756 174.03 83.6196C187.757 89.9635 195.851 87.5025 195.851 87.5025C195.851 87.5025 192.624 86.2447 191.913 78.5335C191.148 70.877 183.272 49.6029 161.67 53.7593C161.67 53.7593 175.616 59.447 181.413 72.9005C181.413 72.9005 172.006 57.7516 159.592 54.9078Z" fill="#EBEBEA"/>
<path d="M108.842 34.1261C108.842 34.1261 124.647 46.7593 137.171 37.6809C149.695 28.6025 152.812 19.5241 152.812 19.5241C152.812 19.5241 150.023 21.7663 144.28 17.8834C138.538 14.0005 119.287 8.7503 109.225 31.501C109.225 31.501 121.42 21.821 134.163 24.3914C134.163 24.3914 118.139 24.1726 108.842 34.1261Z" fill="#EBEBEA"/>
<path d="M38.6748 226.523C38.6748 226.523 26.8619 218.046 18.057 225.101C9.25201 232.156 7.2832 238.882 7.2832 238.882C7.2832 238.882 9.25201 237.132 13.4631 239.703C17.7288 242.273 31.8386 245.281 38.4013 228.437C38.4013 228.437 29.8698 235.984 20.5727 234.617C20.6274 234.617 32.2215 234.124 38.6748 226.523Z" fill="#EBEBEA"/>
<path d="M103.152 188.076C103.152 188.076 100.199 204.374 109.059 211.866C117.973 219.358 124.208 219.304 124.208 219.304C124.208 219.304 122.075 217.718 122.786 211.975C123.442 206.288 121.09 189.279 104.848 187.584C104.848 187.584 114.035 194.694 116.114 205.631C116.059 205.686 111.684 192.725 103.152 188.076Z" fill="#EBEBEA"/>
<path d="M82.0967 216.897C82.0967 216.897 69.6822 225.101 70.776 237.843C71.8698 250.586 76.0262 256 76.0262 256C76.0262 256 75.6433 253.101 79.745 249.875C83.8467 246.703 93.1986 233.359 83.4639 218.046C83.4639 218.046 84.9952 230.788 79.3622 239.867C79.3622 239.921 84.7218 227.452 82.0967 216.897Z" fill="#EBEBEA"/>
<path d="M119.724 186.873C117.044 186.873 114.146 186.435 111.138 185.56C101.403 182.662 89.4263 174.185 84.9418 159.091C83.3011 153.622 82.8089 148.481 83.0823 143.778C82.8089 143.833 82.5901 143.887 82.3167 143.942C66.5115 147.606 45.839 142.301 35.2293 116.269C25.604 92.7528 28.5572 74.5413 32.7683 63.4394C37.3075 51.3531 44.089 44.9545 44.3624 44.6811C44.5812 44.4623 50.6517 38.6652 60.9332 34.5636C70.3944 30.79 85.434 27.9462 102.989 35.6027C108.841 38.173 113.708 42.3294 117.208 47.7437C125.849 43.4232 139.139 41.6185 156.967 52.611C157.46 52.9391 157.624 53.5954 157.35 54.1423C157.022 54.6345 156.366 54.7986 155.819 54.5251C139.248 44.3529 126.943 45.3373 118.302 49.6578C118.904 50.7516 119.505 51.8453 119.998 53.0485C123.115 60.1034 124.209 68.3615 123.115 76.2914C121.31 89.3621 114.255 98.3311 104.739 99.6437C100.856 100.191 97.7937 98.4405 96.0437 94.667C91.6138 85.151 96.7546 64.3145 109.771 52.8297C111.247 51.5172 113.052 50.15 115.24 48.8374C112.177 44.1342 107.857 40.1419 102.114 37.6262C69.8476 23.571 46.1671 46.0483 45.8937 46.267C45.7843 46.3217 39.1669 52.6657 34.7918 64.3145C30.7448 75.0335 27.901 92.5888 37.2528 115.449C47.3703 140.223 66.8943 145.309 81.8245 141.809C82.3167 141.7 82.8089 141.59 83.3011 141.426C84.3949 131.91 88.5512 124.691 92.3248 121.246C94.8405 118.949 97.3562 118.129 99.3797 118.949C100.747 119.496 102.497 121.082 102.825 125.457C103.317 132.512 95.989 139.731 85.434 143.122C85.0511 147.77 85.4886 152.966 87.0746 158.435C91.2857 172.654 102.606 180.693 111.794 183.427C118.849 185.506 125.466 184.904 129.131 181.787C129.568 181.404 130.279 181.459 130.662 181.896C131.045 182.334 130.99 183.045 130.553 183.427C127.818 185.67 124.045 186.873 119.724 186.873ZM97.739 120.863C96.6452 120.863 95.2233 121.574 93.7467 122.887C90.5201 125.84 86.8012 132.293 85.598 140.715C94.6217 137.543 100.966 131.363 100.528 125.621C100.364 123.105 99.5985 121.41 98.45 120.972C98.2859 120.863 98.0125 120.863 97.739 120.863ZM116.388 50.7516C114.474 51.9 112.779 53.1579 111.247 54.5251C98.3406 65.9551 94.4577 85.9167 98.0672 93.7919C99.3797 96.6358 101.567 97.8936 104.466 97.5108C112.888 96.3076 119.396 87.8855 120.982 76.018C122.076 67.9786 120.818 58.5721 116.388 50.7516Z" fill="#EBEBEA"/>
<path d="M40.5884 227.999C40.2056 227.999 39.8227 227.781 39.604 227.398C39.3305 226.851 39.5493 226.195 40.0962 225.921C46.4948 222.749 50.7606 218.593 53.3857 214.163C48.1902 209.022 45.7292 200.928 47.2605 192.78C48.2449 187.639 50.2684 186.49 51.7997 186.49C54.4248 186.436 57.1045 189.772 58.3624 194.858C59.7296 200.327 59.4562 207.218 56.1201 213.726C56.9951 214.436 57.9249 215.038 58.9093 215.585C65.636 219.14 73.2925 217.39 79.8005 210.772C95.4416 194.967 86.4179 164.068 86.3085 163.74C86.1445 163.138 86.4726 162.536 87.0195 162.372C87.6211 162.208 88.2227 162.536 88.3867 163.083C88.7695 164.396 97.8479 195.569 81.3318 212.304C74.1675 219.523 65.3626 221.491 57.8702 217.499C56.8858 216.952 55.9014 216.351 55.0263 215.64C52.1825 220.234 47.698 224.554 41.0259 227.89C40.9165 227.945 40.7525 227.999 40.5884 227.999ZM51.9637 188.623C51.909 188.623 51.909 188.623 51.9637 188.623C51.1434 188.623 50.1043 189.881 49.448 193.162C48.0808 200.327 50.1043 207.436 54.4794 212.085C57.2686 206.288 57.4873 200.217 56.2842 195.295C55.2451 191.194 53.2216 188.623 51.9637 188.623Z" fill="#EBEBEA"/>
<path d="M191.258 144.161C184.859 144.161 178.078 141.809 171.406 137.161C167.304 134.317 163.913 131.035 161.288 127.481C156.53 130.16 150.241 132.293 141.764 133.223C126.998 134.754 114.201 128.41 104.904 114.793C97.9035 104.62 95.3331 94.1202 95.2237 93.6826C95.0596 93.0811 95.4425 92.4795 96.0441 92.3701C96.6456 92.206 97.2472 92.5889 97.3566 93.1904C97.3566 93.2998 99.9817 103.745 106.708 113.589C115.677 126.66 127.381 132.512 141.491 131.035C149.53 130.215 155.546 128.192 159.976 125.676C155.929 119.441 154.179 112.496 155.163 105.66C156.093 99.0969 159.648 93.6826 163.968 92.2607C166.757 91.331 169.601 92.0967 171.898 94.4483C175.07 97.6203 176.82 104.894 174.085 112.714C172.718 116.543 169.71 121.957 163.038 126.332C165.499 129.613 168.726 132.676 172.554 135.356C186.172 144.872 196.563 142.465 202.852 138.801C211.602 133.715 216.415 123.762 215.868 117.418C215.868 117.144 215.923 116.816 216.141 116.597C216.36 116.379 216.634 116.215 216.907 116.215C216.962 116.215 222.923 115.777 228.993 111.511C237.087 105.769 241.025 96.1437 241.025 82.9636C241.025 82.9089 241.025 82.8542 241.025 82.7448C237.744 84.0027 234.408 83.8933 232.329 83.5651C223.689 82.2526 215.923 74.9243 215.595 67.76C215.43 64.0958 217.345 60.7051 220.571 58.6816C224.4 56.3299 229.376 56.2752 233.478 58.5175C236.978 60.4863 242.666 65.7365 243.486 79.4088C249.447 76.1821 254.479 69.2913 258.033 59.3378C258.252 58.791 258.854 58.4628 259.455 58.6816C260.002 58.9003 260.33 59.5019 260.112 60.1035C255.463 73.1742 249.174 79.19 243.595 81.8151C243.595 82.1432 243.595 82.5261 243.595 82.9089C243.595 100.355 236.376 109.05 230.361 113.316C225.275 116.871 220.243 117.965 218.11 118.238C218.22 125.348 213.134 135.301 204 140.606C200.063 143.012 195.742 144.161 191.258 144.161ZM166.374 94.0655C165.827 94.0655 165.281 94.1748 164.788 94.3389C161.234 95.5421 158.28 100.191 157.405 105.988C156.476 112.277 158.116 118.73 161.945 124.527C168.124 120.48 170.914 115.504 172.171 111.949C174.578 105.058 173.156 98.6047 170.531 95.9796C169.163 94.7217 167.796 94.0655 166.374 94.0655ZM227.189 59.1738C225.329 59.1738 223.47 59.666 221.829 60.6504C219.204 62.2911 217.782 64.8614 217.946 67.76C218.22 73.2289 224.4 80.2291 232.931 81.487C235.884 81.9245 238.783 81.5963 241.463 80.5572C240.916 67.2678 235.72 62.3457 232.548 60.541C230.798 59.6113 228.993 59.1738 227.189 59.1738Z" fill="#EBEBEA"/>
<path d="M236.867 63.6037C236.485 63.6037 236.156 63.4397 235.938 63.1115C235.774 62.8928 221.39 40.3062 194.101 41.3453C193.499 41.3999 193.007 40.9077 192.952 40.3062C192.952 39.7046 193.39 39.2124 193.991 39.1577C222.594 38.0639 237.633 61.6896 237.797 61.9631C238.125 62.4553 237.961 63.1662 237.469 63.4944C237.25 63.5491 237.086 63.6037 236.867 63.6037Z" fill="#EBEBEA"/>
</svg>
