<svg width="274" height="256" viewBox="0 0 274 256" fill="none" xmlns="http://www.w3.org/2000/svg">
<path d="M247.522 95.9795C247.522 95.9795 270.327 103.089 273.116 123.98C275.905 144.926 271.202 155.645 271.202 155.645C271.202 155.645 270.764 150.778 263.108 147.661C255.397 144.543 235.709 127.754 245.772 98.5499C245.772 98.5499 247.85 119.66 260.155 131.418C260.1 131.418 247.084 114.136 247.522 95.9795Z" fill="#EBEBEA"/>
<path d="M224.06 139.348C224.06 139.348 232.646 164.997 219.849 180.037C207.052 195.076 196.879 196.936 196.879 196.936C196.879 196.936 199.942 193.654 197.536 184.576C195.129 175.497 195.075 147.004 221.216 139.239C221.216 139.239 207.872 153.676 206.997 172.216C207.052 172.161 211.263 149.684 224.06 139.348Z" fill="#EBEBEA"/>
<path d="M239.92 80.6117C239.92 80.6117 240.139 108.175 223.622 116.925C207.106 125.676 196.989 123.215 196.989 123.215C196.989 123.215 200.872 121.41 201.364 111.949C201.856 102.433 210.497 75.7991 237.295 79.3539C237.295 79.3539 220.45 87.2838 213.997 104.292C214.052 104.237 224.826 84.9869 239.92 80.6117Z" fill="#EBEBEA"/>
<path d="M240.904 59.119C240.904 59.119 231.224 34.0167 243.311 18.2115C255.452 2.46101 265.514 0 265.514 0C265.514 0 262.561 3.44542 265.35 12.4144C268.194 21.3288 269.507 49.7671 243.748 59.0643C243.748 59.0643 256.436 43.8607 256.491 25.3211C256.491 25.3211 253.209 48.0718 240.904 59.119Z" fill="#EBEBEA"/>
<path d="M186.707 146.95C186.707 146.95 178.887 167.403 164.121 167.349C149.409 167.294 142.628 161.442 142.628 161.442C142.628 161.442 146.018 161.661 149.136 154.825C152.253 148.043 166.363 131.746 185.121 144.981C185.121 144.981 170.355 144.215 160.675 154.169C160.73 154.169 174.293 144.215 186.707 146.95Z" fill="#EBEBEA"/>
<path d="M144.487 51.9002C144.487 51.9002 151.323 72.8461 140.823 84.9324C130.322 97.0187 122.064 98.4953 122.064 98.4953C122.064 98.4953 124.58 95.8702 122.666 88.4325C120.752 81.0495 120.861 57.8613 142.135 51.7361C142.135 51.7361 131.197 63.3849 130.432 78.4244C130.432 78.4244 133.987 60.2129 144.487 51.9002Z" fill="#EBEBEA"/>
<path d="M145.253 135.629C145.253 135.629 148.862 146.731 143.338 153.13C137.815 159.528 133.385 160.294 133.385 160.294C133.385 160.294 134.698 158.872 133.713 154.989C132.729 151.051 132.783 138.801 144.049 135.574C144.049 135.574 138.252 141.754 137.87 149.684C137.815 149.684 139.729 140.004 145.253 135.629Z" fill="#EBEBEA"/>
<path d="M161.331 117.418C161.331 117.418 149.956 124.527 142.081 117.363C134.26 110.199 132.729 103.855 132.729 103.855C132.729 103.855 134.479 105.605 138.526 103.472C142.627 101.339 155.862 99.4797 161.167 115.558C161.167 115.558 153.565 108.011 144.924 108.667C144.924 108.722 155.698 109.925 161.331 117.418Z" fill="#EBEBEA"/>
<path d="M100.899 131.254C100.899 131.254 89.5239 138.363 81.6487 131.199C73.8281 124.035 72.2968 117.691 72.2968 117.691C72.2968 117.691 74.0469 119.441 78.0939 117.308C82.1955 115.175 95.4303 113.316 100.735 129.394C100.735 129.394 93.1334 121.847 84.4925 122.504C84.5472 122.558 95.2662 123.761 100.899 131.254Z" fill="#EBEBEA"/>
<path d="M74.9775 149.083C74.9775 149.083 71.4774 163.63 61.6334 165.271C51.7893 166.911 46.8126 163.794 46.8126 163.794C46.8126 163.794 49.1096 163.521 50.5862 158.653C52.1175 153.731 60.1021 141.262 73.7744 147.934C73.7744 147.934 63.8756 149.138 58.2427 156.903C58.2973 156.903 66.5007 148.7 74.9775 149.083Z" fill="#EBEBEA"/>
<path d="M58.1871 113.152C58.1871 113.152 51.2962 100.354 56.8198 90.7291C62.3981 81.1038 67.703 78.8616 67.703 78.8616C67.703 78.8616 66.3357 80.9945 68.4139 85.5883C70.4921 90.1822 73.0625 105.495 59.6637 112.878C59.6637 112.878 65.5701 103.526 64.3669 93.4089C64.4216 93.4636 64.1482 106.042 58.1871 113.152Z" fill="#EBEBEA"/>
<path d="M31.1162 104.456C31.1162 104.456 22.4753 115.722 13.0688 112.113C3.60756 108.503 0.32622 103.144 0.32622 103.144C0.32622 103.144 2.45909 104.074 5.68575 100.464C8.91241 96.8545 20.78 89.7449 30.5146 102.761C30.5146 102.761 21.1628 98.714 13.2329 102.816C13.1782 102.87 23.6238 99.6984 31.1162 104.456Z" fill="#EBEBEA"/>
<path d="M13.2326 56.2749C13.2326 56.2749 3.33384 53.8686 1.69317 45.009C0.052494 36.1493 1.85723 31.3914 1.85723 31.3914C1.85723 31.3914 2.13068 33.4695 5.52141 34.5633C8.85745 35.6571 17.6624 42.2745 13.9435 55.0718C13.9435 55.0718 12.631 46.1027 7.10739 41.3995C7.16208 41.5089 13.0685 48.5091 13.2326 56.2749Z" fill="#EBEBEA"/>
<path d="M21.6002 65.7363C21.6002 65.7363 18.5923 53.9782 24.7721 47.9077C30.8973 41.7825 35.4912 41.3997 35.4912 41.3997C35.4912 41.3997 34.0146 42.7122 34.7803 46.8686C35.5459 51.025 34.6709 63.6035 22.858 65.9551C22.858 65.9551 29.202 60.158 30.1864 51.9547C30.1864 51.9547 27.5613 61.744 21.6002 65.7363Z" fill="#EBEBEA"/>
<path d="M60.2662 40.0327C60.2662 40.0327 57.2583 28.2746 63.4381 22.2041C69.5633 16.1336 74.1572 15.696 74.1572 15.696C74.1572 15.696 72.6806 17.0086 73.4463 21.165C74.2119 25.3213 73.3369 37.8998 61.524 40.2515C61.524 40.2515 67.868 34.4544 68.8524 26.2511C68.9071 26.2511 66.282 36.0404 60.2662 40.0327Z" fill="#EBEBEA"/>
<path d="M57.8596 49.9857C57.8596 49.9857 68.0864 47.3059 72.8991 54.9077C77.657 62.5095 77.7117 67.869 77.7117 67.869C77.7117 67.869 76.6726 66.0643 73.1178 66.6659C69.5084 67.2674 58.844 65.408 57.6408 51.4623C57.6408 51.4623 62.18 59.2828 69.0708 60.9782C69.0708 60.9235 60.8675 57.2593 57.8596 49.9857Z" fill="#EBEBEA"/>
<path d="M84.9847 40.7983C84.9847 40.7983 91.9302 31.6105 99.6414 34.4544C107.298 37.2982 110.032 41.6186 110.032 41.6186C110.032 41.6186 108.282 40.853 105.712 43.8062C103.142 46.7594 93.5162 52.5565 85.5316 42.1108C85.5316 42.1108 93.1334 45.3375 99.5867 41.9468C99.5867 42.0015 91.1099 44.6265 84.9847 40.7983Z" fill="#EBEBEA"/>
<path d="M221.654 53.3219C221.654 53.3219 208.529 69.674 194.638 63.9863C180.747 58.2986 175.989 50.2046 175.989 50.2046C175.989 50.2046 179.106 51.6812 183.973 46.4311C188.841 41.1809 206.669 31.1728 220.725 50.8062C220.725 50.8062 206.998 44.4076 195.075 50.2046C195.075 50.2046 210.716 45.9389 221.654 53.3219Z" fill="#EBEBEA"/>
<path d="M140.822 182.115C140.822 182.115 122.556 188.842 112.822 175.88C103.087 162.919 102.376 153.184 102.376 153.184C102.376 153.184 104.509 156.301 110.907 154.497C117.361 152.747 137.104 154.223 141.096 179.435C141.096 179.435 131.799 165.981 119.001 164.177C119.001 164.177 134.369 169.427 140.822 182.115Z" fill="#EBEBEA"/>
<path d="M114.408 54.9078C114.408 54.9078 113.642 77.2756 99.9701 83.6196C86.2432 89.9635 78.1492 87.5025 78.1492 87.5025C78.1492 87.5025 81.3758 86.2447 82.0868 78.5335C82.8524 70.877 90.7277 49.6029 112.33 53.7593C112.33 53.7593 98.3842 59.447 92.5871 72.9005C92.5871 72.9005 101.994 57.7516 114.408 54.9078Z" fill="#EBEBEA"/>
<path d="M165.158 34.1261C165.158 34.1261 149.353 46.7593 136.829 37.6809C124.305 28.6025 121.188 19.5241 121.188 19.5241C121.188 19.5241 123.977 21.7663 129.72 17.8834C135.462 14.0005 154.713 8.7503 164.775 31.501C164.775 31.501 152.58 21.821 139.837 24.3914C139.837 24.3914 155.861 24.1726 165.158 34.1261Z" fill="#EBEBEA"/>
<path d="M235.325 226.523C235.325 226.523 247.138 218.046 255.943 225.101C264.748 232.156 266.717 238.882 266.717 238.882C266.717 238.882 264.748 237.132 260.537 239.703C256.271 242.273 242.161 245.281 235.599 228.437C235.599 228.437 244.13 235.984 253.427 234.617C253.373 234.617 241.779 234.124 235.325 226.523Z" fill="#EBEBEA"/>
<path d="M170.848 188.076C170.848 188.076 173.801 204.374 164.941 211.866C156.027 219.358 149.792 219.304 149.792 219.304C149.792 219.304 151.925 217.718 151.214 211.975C150.558 206.288 152.91 189.279 169.152 187.584C169.152 187.584 159.965 194.694 157.886 205.631C157.941 205.686 162.316 192.725 170.848 188.076Z" fill="#EBEBEA"/>
<path d="M191.903 216.897C191.903 216.897 204.318 225.101 203.224 237.843C202.13 250.586 197.974 256 197.974 256C197.974 256 198.357 253.101 194.255 249.875C190.153 246.703 180.801 233.359 190.536 218.046C190.536 218.046 189.005 230.788 194.638 239.867C194.638 239.921 189.278 227.452 191.903 216.897Z" fill="#EBEBEA"/>
<path d="M154.276 186.873C156.956 186.873 159.854 186.435 162.862 185.56C172.597 182.662 184.574 174.185 189.058 159.091C190.699 153.622 191.191 148.481 190.918 143.778C191.191 143.833 191.41 143.887 191.683 143.942C207.488 147.606 228.161 142.301 238.771 116.269C248.396 92.7528 245.443 74.5413 241.232 63.4394C236.693 51.3531 229.911 44.9545 229.638 44.6811C229.419 44.4623 223.348 38.6652 213.067 34.5636C203.606 30.79 188.566 27.9462 171.011 35.6027C165.159 38.173 160.292 42.3294 156.792 47.7437C148.151 43.4232 134.861 41.6185 117.033 52.611C116.54 52.9391 116.376 53.5954 116.65 54.1423C116.978 54.6345 117.634 54.7986 118.181 54.5251C134.752 44.3529 147.057 45.3373 155.698 49.6578C155.096 50.7516 154.495 51.8453 154.002 53.0485C150.885 60.1034 149.791 68.3615 150.885 76.2914C152.69 89.3621 159.745 98.3311 169.261 99.6437C173.144 100.191 176.206 98.4405 177.956 94.667C182.386 85.151 177.245 64.3145 164.229 52.8297C162.753 51.5172 160.948 50.15 158.76 48.8374C161.823 44.1342 166.143 40.1419 171.886 37.6262C204.152 23.571 227.833 46.0483 228.106 46.267C228.216 46.3217 234.833 52.6657 239.208 64.3145C243.255 75.0335 246.099 92.5888 236.747 115.449C226.63 140.223 207.106 145.309 192.176 141.809C191.683 141.7 191.191 141.59 190.699 141.426C189.605 131.91 185.449 124.691 181.675 121.246C179.16 118.949 176.644 118.129 174.62 118.949C173.253 119.496 171.503 121.082 171.175 125.457C170.683 132.512 178.011 139.731 188.566 143.122C188.949 147.77 188.511 152.966 186.925 158.435C182.714 172.654 171.394 180.693 162.206 183.427C155.151 185.506 148.534 184.904 144.869 181.787C144.432 181.404 143.721 181.459 143.338 181.896C142.955 182.334 143.01 183.045 143.447 183.427C146.182 185.67 149.955 186.873 154.276 186.873ZM176.261 120.863C177.355 120.863 178.777 121.574 180.253 122.887C183.48 125.84 187.199 132.293 188.402 140.715C179.378 137.543 173.034 131.363 173.472 125.621C173.636 123.105 174.402 121.41 175.55 120.972C175.714 120.863 175.988 120.863 176.261 120.863ZM157.612 50.7516C159.526 51.9 161.221 53.1579 162.753 54.5251C175.659 65.9551 179.542 85.9167 175.933 93.7919C174.62 96.6358 172.433 97.8936 169.534 97.5108C161.112 96.3076 154.604 87.8855 153.018 76.018C151.924 67.9786 153.182 58.5721 157.612 50.7516Z" fill="#EBEBEA"/>
<path d="M233.412 227.999C233.794 227.999 234.177 227.781 234.396 227.398C234.669 226.851 234.451 226.195 233.904 225.921C227.505 222.749 223.239 218.593 220.614 214.163C225.81 209.022 228.271 200.928 226.74 192.78C225.755 187.639 223.732 186.49 222.2 186.49C219.575 186.436 216.895 189.772 215.638 194.858C214.27 200.327 214.544 207.218 217.88 213.726C217.005 214.436 216.075 215.038 215.091 215.585C208.364 219.14 200.707 217.39 194.199 210.772C178.558 194.967 187.582 164.068 187.691 163.74C187.856 163.138 187.527 162.536 186.981 162.372C186.379 162.208 185.777 162.536 185.613 163.083C185.23 164.396 176.152 195.569 192.668 212.304C199.832 219.523 208.637 221.491 216.13 217.499C217.114 216.952 218.099 216.351 218.974 215.64C221.818 220.234 226.302 224.554 232.974 227.89C233.083 227.945 233.248 227.999 233.412 227.999ZM222.036 188.623C222.091 188.623 222.091 188.623 222.036 188.623C222.857 188.623 223.896 189.881 224.552 193.162C225.919 200.327 223.896 207.436 219.521 212.085C216.731 206.288 216.513 200.217 217.716 195.295C218.755 191.194 220.778 188.623 222.036 188.623Z" fill="#EBEBEA"/>
<path d="M82.7421 144.161C89.1408 144.161 95.9222 141.809 102.594 137.161C106.696 134.317 110.087 131.035 112.712 127.481C117.47 130.16 123.759 132.293 132.236 133.223C147.002 134.754 159.799 128.41 169.096 114.793C176.097 104.62 178.667 94.1202 178.776 93.6826C178.94 93.0811 178.558 92.4795 177.956 92.3701C177.354 92.206 176.753 92.5889 176.643 93.1904C176.643 93.2998 174.018 103.745 167.292 113.589C158.323 126.66 146.619 132.512 132.509 131.035C124.47 130.215 118.454 128.192 114.024 125.676C118.071 119.441 119.821 112.496 118.837 105.66C117.907 99.0969 114.352 93.6826 110.032 92.2607C107.243 91.331 104.399 92.0967 102.102 94.4483C98.9301 97.6203 97.1801 104.894 99.9145 112.714C101.282 116.543 104.29 121.957 110.962 126.332C108.501 129.613 105.274 132.676 101.446 135.356C87.8282 144.872 77.4373 142.465 71.148 138.801C62.3978 133.715 57.5851 123.762 58.132 117.418C58.132 117.144 58.0773 116.816 57.8586 116.597C57.6398 116.379 57.3663 116.215 57.0929 116.215C57.0382 116.215 51.0771 115.777 45.0066 111.511C36.9126 105.769 32.975 96.1437 32.975 82.9636C32.975 82.9089 32.975 82.8542 32.975 82.7448C36.2563 84.0027 39.5924 83.8933 41.6706 83.5651C50.3114 82.2526 58.0773 74.9243 58.4054 67.76C58.5695 64.0958 56.6554 60.7051 53.4287 58.6816C49.6005 56.3299 44.6238 56.2752 40.5221 58.5175C37.022 60.4863 31.3343 65.7365 30.514 79.4088C24.5528 76.1821 19.5214 69.2913 15.9666 59.3378C15.7479 58.791 15.1463 58.4628 14.5447 58.6816C13.9978 58.9003 13.6697 59.5019 13.8884 60.1035C18.537 73.1742 24.8263 79.19 30.4046 81.8151C30.4046 82.1432 30.4046 82.5261 30.4046 82.9089C30.4046 100.355 37.6236 109.05 43.6394 113.316C48.7255 116.871 53.7569 117.965 55.8897 118.238C55.7804 125.348 60.8664 135.301 69.9995 140.606C73.9372 143.012 78.2576 144.161 82.7421 144.161ZM107.626 94.0655C108.173 94.0655 108.719 94.1748 109.212 94.3389C112.766 95.5421 115.72 100.191 116.595 105.988C117.524 112.277 115.884 118.73 112.055 124.527C105.876 120.48 103.086 115.504 101.829 111.949C99.4223 105.058 100.844 98.6047 103.469 95.9796C104.837 94.7217 106.204 94.0655 107.626 94.0655ZM46.8113 59.1738C48.6708 59.1738 50.5302 59.666 52.1709 60.6504C54.796 62.2911 56.2179 64.8614 56.0538 67.76C55.7804 73.2289 49.6005 80.2291 41.069 81.487C38.1158 81.9245 35.2172 81.5963 32.5375 80.5572C33.0844 67.2678 38.2798 62.3457 41.4518 60.541C43.2019 59.6113 45.0066 59.1738 46.8113 59.1738Z" fill="#EBEBEA"/>
<path d="M37.1326 63.6037C37.5154 63.6037 37.8435 63.4397 38.0623 63.1115C38.2264 62.8928 52.6096 40.3062 79.8995 41.3453C80.5011 41.3999 80.9933 40.9077 81.048 40.3062C81.048 39.7046 80.6105 39.2124 80.0089 39.1577C51.4064 38.0639 36.3669 61.6896 36.2029 61.9631C35.8747 62.4553 36.0388 63.1662 36.531 63.4944C36.7498 63.5491 36.9138 63.6037 37.1326 63.6037Z" fill="#EBEBEA"/>
</svg>
