
<svg viewBox="0 0 40.93 28.64" fill="#efece8"
    xmlns="http://www.w3.org/2000/svg">
    <path d="M3.6 19.97c0 .76-.62 1.26-1.48 1.26-1 0-2.1-.88-2.1-1.88 0-.76.61-1.26 1.48-1.26a1.9 1.9 0 0 1 2.1 1.88zM10.15 17.96c.99 0 1.48.63 1.48 1.39-.12 1-1.11 2-2.1 1.88-.86 0-1.48-.63-1.48-1.38.12-1 1.11-1.89 2.1-1.89zM1.5 26C.5 26-.1 25.5.02 24.74c0-1 .98-1.88 2.1-1.88.98 0 1.6.5 1.48 1.26 0 1-.99 1.88-2.1 1.88zM9.65 22.74c1.12 0 1.98 1 1.98 2 0 .76-.62 1.26-1.6 1.13-1.12 0-1.98-1-1.98-2 0-.63.62-1.13 1.6-1.13zM7.3 17.34c0 1-.74 1.88-1.48 1.88-.86 0-1.48-1-1.48-2.13.12-1 .87-1.89 1.6-1.76.75.12 1.37 1 1.37 2zM7.3 26.63c0 1-.74 2-1.48 2s-1.48-1-1.48-1.88c0-1 .74-2 1.48-2s1.49 1 1.49 1.88zM30.67 2.65c1 0 2.1.88 2.1 1.88.13.76-.49 1.38-1.48 1.38s-2.1-.88-2.1-1.88c0-.75.5-1.38 1.48-1.38zM38.83 5.91c-.87 0-1.6-.5-1.6-1.25 0-1 .98-2.01 1.97-2.01.86 0 1.6.5 1.6 1.25.13 1-.86 2.01-1.97 2.01zM30.8 10.56c-.87 0-1.61-.5-1.61-1.26 0-1 .99-2 2.1-2 .87 0 1.6.5 1.6 1.25-.12 1-1.1 2-2.1 2zM40.93 9.3c0 .76-.62 1.26-1.6 1.26-1 0-1.98-1-2.1-2.01 0-.75.61-1.26 1.6-1.26.99 0 1.98 1 2.1 2.01zM36.48 2.02c0 1-.74 1.88-1.48 1.88s-1.49-1-1.49-2.13c0-1 .87-1.88 1.61-1.76.74 0 1.48 1 1.36 2.01zM36.48 11.31c0 1-.74 1.88-1.48 1.88s-1.49-.87-1.49-1.88c0-1 .75-2.13 1.61-2 .74.12 1.36 1.12 1.36 2z" />
</svg>