
<svg width="1366" height="244" viewBox="0 0 1366 244" fill="none" xmlns="http://www.w3.org/2000/svg">
<g opacity="0.5">
<path d="M-1.16129 96.8387L4 94L-1.16129 91.1613L-4 86L-6.83871 91.1613L-12 94L-6.83871 96.8387L-4 102L-1.16129 96.8387ZM-5.89247 92.1075L-4 88.6667L-2.10753 92.1075L1.33333 94L-2.10753 95.8925L-4 99.3333L-5.89247 95.8925L-9.33333 94L-5.89247 92.1075Z" fill="#9F5C15"/>
<path d="M54.8387 96.8387L60 94L54.8387 91.1613L52 86L49.1613 91.1613L44 94L49.1613 96.8387L52 102L54.8387 96.8387ZM50.1075 92.1075L52 88.6667L53.8925 92.1075L57.3333 94L53.8925 95.8925L52 99.3333L50.1075 95.8925L46.6667 94L50.1075 92.1075Z" fill="#9F5C15"/>
<path d="M110.839 96.8387L116 94L110.839 91.1613L108 86L105.161 91.1613L100 94L105.161 96.8387L108 102L110.839 96.8387ZM106.108 92.1075L108 88.6667L109.892 92.1075L113.333 94L109.892 95.8925L108 99.3333L106.108 95.8925L102.667 94L106.108 92.1075Z" fill="#9F5C15"/>
<path d="M166.839 96.8387L172 94L166.839 91.1613L164 86L161.161 91.1613L156 94L161.161 96.8387L164 102L166.839 96.8387ZM162.108 92.1075L164 88.6667L165.892 92.1075L169.333 94L165.892 95.8925L164 99.3333L162.108 95.8925L158.667 94L162.108 92.1075Z" fill="#9F5C15"/>
<path d="M222.839 96.8387L228 94L222.839 91.1613L220 86L217.161 91.1613L212 94L217.161 96.8387L220 102L222.839 96.8387ZM218.108 92.1075L220 88.6667L221.892 92.1075L225.333 94L221.892 95.8925L220 99.3333L218.108 95.8925L214.667 94L218.108 92.1075Z" fill="#9F5C15"/>
<path d="M278.839 96.8387L284 94L278.839 91.1613L276 86L273.161 91.1613L268 94L273.161 96.8387L276 102L278.839 96.8387ZM274.108 92.1075L276 88.6667L277.892 92.1075L281.333 94L277.892 95.8925L276 99.3333L274.108 95.8925L270.667 94L274.108 92.1075Z" fill="#9F5C15"/>
<path d="M334.839 96.8387L340 94L334.839 91.1613L332 86L329.161 91.1613L324 94L329.161 96.8387L332 102L334.839 96.8387ZM330.108 92.1075L332 88.6667L333.892 92.1075L337.333 94L333.892 95.8925L332 99.3333L330.108 95.8925L326.667 94L330.108 92.1075Z" fill="#9F5C15"/>
<path d="M390.839 96.8387L396 94L390.839 91.1613L388 86L385.161 91.1613L380 94L385.161 96.8387L388 102L390.839 96.8387ZM386.108 92.1075L388 88.6667L389.892 92.1075L393.333 94L389.892 95.8925L388 99.3333L386.108 95.8925L382.667 94L386.108 92.1075Z" fill="#9F5C15"/>
<path d="M446.839 96.8387L452 94L446.839 91.1613L444 86L441.161 91.1613L436 94L441.161 96.8387L444 102L446.839 96.8387ZM442.108 92.1075L444 88.6667L445.892 92.1075L449.333 94L445.892 95.8925L444 99.3333L442.108 95.8925L438.667 94L442.108 92.1075Z" fill="#9F5C15"/>
<path d="M502.839 96.8387L508 94L502.839 91.1613L500 86L497.161 91.1613L492 94L497.161 96.8387L500 102L502.839 96.8387ZM498.108 92.1075L500 88.6667L501.892 92.1075L505.333 94L501.892 95.8925L500 99.3333L498.108 95.8925L494.667 94L498.108 92.1075Z" fill="#9F5C15"/>
<path d="M558.839 96.8387L564 94L558.839 91.1613L556 86L553.161 91.1613L548 94L553.161 96.8387L556 102L558.839 96.8387ZM554.108 92.1075L556 88.6667L557.892 92.1075L561.333 94L557.892 95.8925L556 99.3333L554.108 95.8925L550.667 94L554.108 92.1075Z" fill="#9F5C15"/>
<path d="M614.839 96.8387L620 94L614.839 91.1613L612 86L609.161 91.1613L604 94L609.161 96.8387L612 102L614.839 96.8387ZM610.108 92.1075L612 88.6667L613.892 92.1075L617.333 94L613.892 95.8925L612 99.3333L610.108 95.8925L606.667 94L610.108 92.1075Z" fill="#9F5C15"/>
<path d="M670.839 96.8387L676 94L670.839 91.1613L668 86L665.161 91.1613L660 94L665.161 96.8387L668 102L670.839 96.8387ZM666.108 92.1075L668 88.6667L669.892 92.1075L673.333 94L669.892 95.8925L668 99.3333L666.108 95.8925L662.667 94L666.108 92.1075Z" fill="#9F5C15"/>
<path d="M726.839 96.8387L732 94L726.839 91.1613L724 86L721.161 91.1613L716 94L721.161 96.8387L724 102L726.839 96.8387ZM722.108 92.1075L724 88.6667L725.892 92.1075L729.333 94L725.892 95.8925L724 99.3333L722.108 95.8925L718.667 94L722.108 92.1075Z" fill="#9F5C15"/>
<path d="M782.839 96.8387L788 94L782.839 91.1613L780 86L777.161 91.1613L772 94L777.161 96.8387L780 102L782.839 96.8387ZM778.108 92.1075L780 88.6667L781.892 92.1075L785.333 94L781.892 95.8925L780 99.3333L778.108 95.8925L774.667 94L778.108 92.1075Z" fill="#9F5C15"/>
<path d="M838.839 96.8387L844 94L838.839 91.1613L836 86L833.161 91.1613L828 94L833.161 96.8387L836 102L838.839 96.8387ZM834.108 92.1075L836 88.6667L837.892 92.1075L841.333 94L837.892 95.8925L836 99.3333L834.108 95.8925L830.667 94L834.108 92.1075Z" fill="#9F5C15"/>
<path d="M894.839 96.8387L900 94L894.839 91.1613L892 86L889.161 91.1613L884 94L889.161 96.8387L892 102L894.839 96.8387ZM890.108 92.1075L892 88.6667L893.892 92.1075L897.333 94L893.892 95.8925L892 99.3333L890.108 95.8925L886.667 94L890.108 92.1075Z" fill="#9F5C15"/>
<path d="M950.839 96.8387L956 94L950.839 91.1613L948 86L945.161 91.1613L940 94L945.161 96.8387L948 102L950.839 96.8387ZM946.108 92.1075L948 88.6667L949.892 92.1075L953.333 94L949.892 95.8925L948 99.3333L946.108 95.8925L942.667 94L946.108 92.1075Z" fill="#9F5C15"/>
<path d="M1006.84 96.8387L1012 94L1006.84 91.1613L1004 86L1001.16 91.1613L996 94L1001.16 96.8387L1004 102L1006.84 96.8387ZM1002.11 92.1075L1004 88.6667L1005.89 92.1075L1009.33 94L1005.89 95.8925L1004 99.3333L1002.11 95.8925L998.667 94L1002.11 92.1075Z" fill="#9F5C15"/>
<path d="M1062.84 96.8387L1068 94L1062.84 91.1613L1060 86L1057.16 91.1613L1052 94L1057.16 96.8387L1060 102L1062.84 96.8387ZM1058.11 92.1075L1060 88.6667L1061.89 92.1075L1065.33 94L1061.89 95.8925L1060 99.3333L1058.11 95.8925L1054.67 94L1058.11 92.1075Z" fill="#9F5C15"/>
<path d="M1118.84 96.8387L1124 94L1118.84 91.1613L1116 86L1113.16 91.1613L1108 94L1113.16 96.8387L1116 102L1118.84 96.8387ZM1114.11 92.1075L1116 88.6667L1117.89 92.1075L1121.33 94L1117.89 95.8925L1116 99.3333L1114.11 95.8925L1110.67 94L1114.11 92.1075Z" fill="#9F5C15"/>
<path d="M1174.84 96.8387L1180 94L1174.84 91.1613L1172 86L1169.16 91.1613L1164 94L1169.16 96.8387L1172 102L1174.84 96.8387ZM1170.11 92.1075L1172 88.6667L1173.89 92.1075L1177.33 94L1173.89 95.8925L1172 99.3333L1170.11 95.8925L1166.67 94L1170.11 92.1075Z" fill="#9F5C15"/>
<path d="M1230.84 96.8387L1236 94L1230.84 91.1613L1228 86L1225.16 91.1613L1220 94L1225.16 96.8387L1228 102L1230.84 96.8387ZM1226.11 92.1075L1228 88.6667L1229.89 92.1075L1233.33 94L1229.89 95.8925L1228 99.3333L1226.11 95.8925L1222.67 94L1226.11 92.1075Z" fill="#9F5C15"/>
<path d="M1286.84 96.8387L1292 94L1286.84 91.1613L1284 86L1281.16 91.1613L1276 94L1281.16 96.8387L1284 102L1286.84 96.8387ZM1282.11 92.1075L1284 88.6667L1285.89 92.1075L1289.33 94L1285.89 95.8925L1284 99.3333L1282.11 95.8925L1278.67 94L1282.11 92.1075Z" fill="#9F5C15"/>
<path d="M1342.84 96.8387L1348 94L1342.84 91.1613L1340 86L1337.16 91.1613L1332 94L1337.16 96.8387L1340 102L1342.84 96.8387ZM1338.11 92.1075L1340 88.6667L1341.89 92.1075L1345.33 94L1341.89 95.8925L1340 99.3333L1338.11 95.8925L1334.67 94L1338.11 92.1075Z" fill="#9F5C15"/>
<path d="M28.8387 40.8387L34 38L28.8387 35.1613L26 30L23.1613 35.1613L18 38L23.1613 40.8387L26 46L28.8387 40.8387ZM24.1075 36.1075L26 32.6667L27.8925 36.1075L31.3333 38L27.8925 39.8925L26 43.3333L24.1075 39.8925L20.6667 38L24.1075 36.1075Z" fill="#9F5C15"/>
<path d="M84.8387 40.8387L90 38L84.8387 35.1613L82 30L79.1613 35.1613L74 38L79.1613 40.8387L82 46L84.8387 40.8387ZM80.1075 36.1075L82 32.6667L83.8925 36.1075L87.3333 38L83.8925 39.8925L82 43.3333L80.1075 39.8925L76.6667 38L80.1075 36.1075Z" fill="#9F5C15"/>
<path d="M140.839 40.8387L146 38L140.839 35.1613L138 30L135.161 35.1613L130 38L135.161 40.8387L138 46L140.839 40.8387ZM136.108 36.1075L138 32.6667L139.892 36.1075L143.333 38L139.892 39.8925L138 43.3333L136.108 39.8925L132.667 38L136.108 36.1075Z" fill="#9F5C15"/>
<path d="M196.839 40.8387L202 38L196.839 35.1613L194 30L191.161 35.1613L186 38L191.161 40.8387L194 46L196.839 40.8387ZM192.108 36.1075L194 32.6667L195.892 36.1075L199.333 38L195.892 39.8925L194 43.3333L192.108 39.8925L188.667 38L192.108 36.1075Z" fill="#9F5C15"/>
<path d="M252.839 40.8387L258 38L252.839 35.1613L250 30L247.161 35.1613L242 38L247.161 40.8387L250 46L252.839 40.8387ZM248.108 36.1075L250 32.6667L251.892 36.1075L255.333 38L251.892 39.8925L250 43.3333L248.108 39.8925L244.667 38L248.108 36.1075Z" fill="#9F5C15"/>
<path d="M308.839 40.8387L314 38L308.839 35.1613L306 30L303.161 35.1613L298 38L303.161 40.8387L306 46L308.839 40.8387ZM304.108 36.1075L306 32.6667L307.892 36.1075L311.333 38L307.892 39.8925L306 43.3333L304.108 39.8925L300.667 38L304.108 36.1075Z" fill="#9F5C15"/>
<path d="M364.839 40.8387L370 38L364.839 35.1613L362 30L359.161 35.1613L354 38L359.161 40.8387L362 46L364.839 40.8387ZM360.108 36.1075L362 32.6667L363.892 36.1075L367.333 38L363.892 39.8925L362 43.3333L360.108 39.8925L356.667 38L360.108 36.1075Z" fill="#9F5C15"/>
<path d="M420.839 40.8387L426 38L420.839 35.1613L418 30L415.161 35.1613L410 38L415.161 40.8387L418 46L420.839 40.8387ZM416.108 36.1075L418 32.6667L419.892 36.1075L423.333 38L419.892 39.8925L418 43.3333L416.108 39.8925L412.667 38L416.108 36.1075Z" fill="#9F5C15"/>
<path d="M476.839 40.8387L482 38L476.839 35.1613L474 30L471.161 35.1613L466 38L471.161 40.8387L474 46L476.839 40.8387ZM472.108 36.1075L474 32.6667L475.892 36.1075L479.333 38L475.892 39.8925L474 43.3333L472.108 39.8925L468.667 38L472.108 36.1075Z" fill="#9F5C15"/>
<path d="M532.839 40.8387L538 38L532.839 35.1613L530 30L527.161 35.1613L522 38L527.161 40.8387L530 46L532.839 40.8387ZM528.108 36.1075L530 32.6667L531.892 36.1075L535.333 38L531.892 39.8925L530 43.3333L528.108 39.8925L524.667 38L528.108 36.1075Z" fill="#9F5C15"/>
<path d="M588.839 40.8387L594 38L588.839 35.1613L586 30L583.161 35.1613L578 38L583.161 40.8387L586 46L588.839 40.8387ZM584.108 36.1075L586 32.6667L587.892 36.1075L591.333 38L587.892 39.8925L586 43.3333L584.108 39.8925L580.667 38L584.108 36.1075Z" fill="#9F5C15"/>
<path d="M644.839 40.8387L650 38L644.839 35.1613L642 30L639.161 35.1613L634 38L639.161 40.8387L642 46L644.839 40.8387ZM640.108 36.1075L642 32.6667L643.892 36.1075L647.333 38L643.892 39.8925L642 43.3333L640.108 39.8925L636.667 38L640.108 36.1075Z" fill="#9F5C15"/>
<path d="M700.839 40.8387L706 38L700.839 35.1613L698 30L695.161 35.1613L690 38L695.161 40.8387L698 46L700.839 40.8387ZM696.108 36.1075L698 32.6667L699.892 36.1075L703.333 38L699.892 39.8925L698 43.3333L696.108 39.8925L692.667 38L696.108 36.1075Z" fill="#9F5C15"/>
<path d="M756.839 40.8387L762 38L756.839 35.1613L754 30L751.161 35.1613L746 38L751.161 40.8387L754 46L756.839 40.8387ZM752.108 36.1075L754 32.6667L755.892 36.1075L759.333 38L755.892 39.8925L754 43.3333L752.108 39.8925L748.667 38L752.108 36.1075Z" fill="#9F5C15"/>
<path d="M812.839 40.8387L818 38L812.839 35.1613L810 30L807.161 35.1613L802 38L807.161 40.8387L810 46L812.839 40.8387ZM808.108 36.1075L810 32.6667L811.892 36.1075L815.333 38L811.892 39.8925L810 43.3333L808.108 39.8925L804.667 38L808.108 36.1075Z" fill="#9F5C15"/>
<path d="M868.839 40.8387L874 38L868.839 35.1613L866 30L863.161 35.1613L858 38L863.161 40.8387L866 46L868.839 40.8387ZM864.108 36.1075L866 32.6667L867.892 36.1075L871.333 38L867.892 39.8925L866 43.3333L864.108 39.8925L860.667 38L864.108 36.1075Z" fill="#9F5C15"/>
<path d="M924.839 40.8387L930 38L924.839 35.1613L922 30L919.161 35.1613L914 38L919.161 40.8387L922 46L924.839 40.8387ZM920.108 36.1075L922 32.6667L923.892 36.1075L927.333 38L923.892 39.8925L922 43.3333L920.108 39.8925L916.667 38L920.108 36.1075Z" fill="#9F5C15"/>
<path d="M980.839 40.8387L986 38L980.839 35.1613L978 30L975.161 35.1613L970 38L975.161 40.8387L978 46L980.839 40.8387ZM976.108 36.1075L978 32.6667L979.892 36.1075L983.333 38L979.892 39.8925L978 43.3333L976.108 39.8925L972.667 38L976.108 36.1075Z" fill="#9F5C15"/>
<path d="M1036.84 40.8387L1042 38L1036.84 35.1613L1034 30L1031.16 35.1613L1026 38L1031.16 40.8387L1034 46L1036.84 40.8387ZM1032.11 36.1075L1034 32.6667L1035.89 36.1075L1039.33 38L1035.89 39.8925L1034 43.3333L1032.11 39.8925L1028.67 38L1032.11 36.1075Z" fill="#9F5C15"/>
<path d="M1092.84 40.8387L1098 38L1092.84 35.1613L1090 30L1087.16 35.1613L1082 38L1087.16 40.8387L1090 46L1092.84 40.8387ZM1088.11 36.1075L1090 32.6667L1091.89 36.1075L1095.33 38L1091.89 39.8925L1090 43.3333L1088.11 39.8925L1084.67 38L1088.11 36.1075Z" fill="#9F5C15"/>
<path d="M1148.84 40.8387L1154 38L1148.84 35.1613L1146 30L1143.16 35.1613L1138 38L1143.16 40.8387L1146 46L1148.84 40.8387ZM1144.11 36.1075L1146 32.6667L1147.89 36.1075L1151.33 38L1147.89 39.8925L1146 43.3333L1144.11 39.8925L1140.67 38L1144.11 36.1075Z" fill="#9F5C15"/>
<path d="M1204.84 40.8387L1210 38L1204.84 35.1613L1202 30L1199.16 35.1613L1194 38L1199.16 40.8387L1202 46L1204.84 40.8387ZM1200.11 36.1075L1202 32.6667L1203.89 36.1075L1207.33 38L1203.89 39.8925L1202 43.3334L1200.11 39.8925L1196.67 38L1200.11 36.1075Z" fill="#9F5C15"/>
<path d="M1260.84 40.8387L1266 38L1260.84 35.1613L1258 30L1255.16 35.1613L1250 38L1255.16 40.8387L1258 46L1260.84 40.8387ZM1256.11 36.1075L1258 32.6667L1259.89 36.1075L1263.33 38L1259.89 39.8925L1258 43.3334L1256.11 39.8925L1252.67 38L1256.11 36.1075Z" fill="#9F5C15"/>
<path d="M1316.84 40.8387L1322 38L1316.84 35.1613L1314 30L1311.16 35.1613L1306 38L1311.16 40.8387L1314 46L1316.84 40.8387ZM1312.11 36.1075L1314 32.6667L1315.89 36.1075L1319.33 38L1315.89 39.8925L1314 43.3334L1312.11 39.8925L1308.67 38L1312.11 36.1075Z" fill="#9F5C15"/>
<path d="M1372.84 40.8387L1378 38L1372.84 35.1613L1370 30L1367.16 35.1613L1362 38L1367.16 40.8387L1370 46L1372.84 40.8387ZM1368.11 36.1075L1370 32.6667L1371.89 36.1075L1375.33 38L1371.89 39.8925L1370 43.3334L1368.11 39.8925L1364.67 38L1368.11 36.1075Z" fill="#9F5C15"/>
<path d="M-1.16129 208.839L4 206L-1.16129 203.161L-4 198L-6.83871 203.161L-12 206L-6.83871 208.839L-4 214L-1.16129 208.839ZM-5.89247 204.108L-4 200.667L-2.10753 204.108L1.33333 206L-2.10753 207.892L-4 211.333L-5.89247 207.892L-9.33333 206L-5.89247 204.108Z" fill="#9F5C15"/>
<path d="M54.8387 208.839L60 206L54.8387 203.161L52 198L49.1613 203.161L44 206L49.1613 208.839L52 214L54.8387 208.839ZM50.1075 204.108L52 200.667L53.8925 204.108L57.3333 206L53.8925 207.892L52 211.333L50.1075 207.892L46.6667 206L50.1075 204.108Z" fill="#9F5C15"/>
<path d="M110.839 208.839L116 206L110.839 203.161L108 198L105.161 203.161L100 206L105.161 208.839L108 214L110.839 208.839ZM106.108 204.108L108 200.667L109.892 204.108L113.333 206L109.892 207.892L108 211.333L106.108 207.892L102.667 206L106.108 204.108Z" fill="#9F5C15"/>
<path d="M166.839 208.839L172 206L166.839 203.161L164 198L161.161 203.161L156 206L161.161 208.839L164 214L166.839 208.839ZM162.108 204.108L164 200.667L165.892 204.108L169.333 206L165.892 207.892L164 211.333L162.108 207.892L158.667 206L162.108 204.108Z" fill="#9F5C15"/>
<path d="M222.839 208.839L228 206L222.839 203.161L220 198L217.161 203.161L212 206L217.161 208.839L220 214L222.839 208.839ZM218.108 204.108L220 200.667L221.892 204.108L225.333 206L221.892 207.892L220 211.333L218.108 207.892L214.667 206L218.108 204.108Z" fill="#9F5C15"/>
<path d="M278.839 208.839L284 206L278.839 203.161L276 198L273.161 203.161L268 206L273.161 208.839L276 214L278.839 208.839ZM274.108 204.108L276 200.667L277.892 204.108L281.333 206L277.892 207.892L276 211.333L274.108 207.892L270.667 206L274.108 204.108Z" fill="#9F5C15"/>
<path d="M334.839 208.839L340 206L334.839 203.161L332 198L329.161 203.161L324 206L329.161 208.839L332 214L334.839 208.839ZM330.108 204.108L332 200.667L333.892 204.108L337.333 206L333.892 207.892L332 211.333L330.108 207.892L326.667 206L330.108 204.108Z" fill="#9F5C15"/>
<path d="M390.839 208.839L396 206L390.839 203.161L388 198L385.161 203.161L380 206L385.161 208.839L388 214L390.839 208.839ZM386.108 204.108L388 200.667L389.892 204.108L393.333 206L389.892 207.892L388 211.333L386.108 207.892L382.667 206L386.108 204.108Z" fill="#9F5C15"/>
<path d="M446.839 208.839L452 206L446.839 203.161L444 198L441.161 203.161L436 206L441.161 208.839L444 214L446.839 208.839ZM442.108 204.108L444 200.667L445.892 204.108L449.333 206L445.892 207.892L444 211.333L442.108 207.892L438.667 206L442.108 204.108Z" fill="#9F5C15"/>
<path d="M502.839 208.839L508 206L502.839 203.161L500 198L497.161 203.161L492 206L497.161 208.839L500 214L502.839 208.839ZM498.108 204.108L500 200.667L501.892 204.108L505.333 206L501.892 207.892L500 211.333L498.108 207.892L494.667 206L498.108 204.108Z" fill="#9F5C15"/>
<path d="M558.839 208.839L564 206L558.839 203.161L556 198L553.161 203.161L548 206L553.161 208.839L556 214L558.839 208.839ZM554.108 204.108L556 200.667L557.892 204.108L561.333 206L557.892 207.892L556 211.333L554.108 207.892L550.667 206L554.108 204.108Z" fill="#9F5C15"/>
<path d="M614.839 208.839L620 206L614.839 203.161L612 198L609.161 203.161L604 206L609.161 208.839L612 214L614.839 208.839ZM610.108 204.108L612 200.667L613.892 204.108L617.333 206L613.892 207.892L612 211.333L610.108 207.892L606.667 206L610.108 204.108Z" fill="#9F5C15"/>
<path d="M670.839 208.839L676 206L670.839 203.161L668 198L665.161 203.161L660 206L665.161 208.839L668 214L670.839 208.839ZM666.108 204.108L668 200.667L669.892 204.108L673.333 206L669.892 207.892L668 211.333L666.108 207.892L662.667 206L666.108 204.108Z" fill="#9F5C15"/>
<path d="M726.839 208.839L732 206L726.839 203.161L724 198L721.161 203.161L716 206L721.161 208.839L724 214L726.839 208.839ZM722.108 204.108L724 200.667L725.892 204.108L729.333 206L725.892 207.892L724 211.333L722.108 207.892L718.667 206L722.108 204.108Z" fill="#9F5C15"/>
<path d="M782.839 208.839L788 206L782.839 203.161L780 198L777.161 203.161L772 206L777.161 208.839L780 214L782.839 208.839ZM778.108 204.108L780 200.667L781.892 204.108L785.333 206L781.892 207.892L780 211.333L778.108 207.892L774.667 206L778.108 204.108Z" fill="#9F5C15"/>
<path d="M838.839 208.839L844 206L838.839 203.161L836 198L833.161 203.161L828 206L833.161 208.839L836 214L838.839 208.839ZM834.108 204.108L836 200.667L837.892 204.108L841.333 206L837.892 207.892L836 211.333L834.108 207.892L830.667 206L834.108 204.108Z" fill="#9F5C15"/>
<path d="M894.839 208.839L900 206L894.839 203.161L892 198L889.161 203.161L884 206L889.161 208.839L892 214L894.839 208.839ZM890.108 204.108L892 200.667L893.892 204.108L897.333 206L893.892 207.892L892 211.333L890.108 207.892L886.667 206L890.108 204.108Z" fill="#9F5C15"/>
<path d="M950.839 208.839L956 206L950.839 203.161L948 198L945.161 203.161L940 206L945.161 208.839L948 214L950.839 208.839ZM946.108 204.108L948 200.667L949.892 204.108L953.333 206L949.892 207.892L948 211.333L946.108 207.892L942.667 206L946.108 204.108Z" fill="#9F5C15"/>
<path d="M1006.84 208.839L1012 206L1006.84 203.161L1004 198L1001.16 203.161L996 206L1001.16 208.839L1004 214L1006.84 208.839ZM1002.11 204.108L1004 200.667L1005.89 204.108L1009.33 206L1005.89 207.892L1004 211.333L1002.11 207.892L998.667 206L1002.11 204.108Z" fill="#9F5C15"/>
<path d="M1062.84 208.839L1068 206L1062.84 203.161L1060 198L1057.16 203.161L1052 206L1057.16 208.839L1060 214L1062.84 208.839ZM1058.11 204.108L1060 200.667L1061.89 204.108L1065.33 206L1061.89 207.892L1060 211.333L1058.11 207.892L1054.67 206L1058.11 204.108Z" fill="#9F5C15"/>
<path d="M1118.84 208.839L1124 206L1118.84 203.161L1116 198L1113.16 203.161L1108 206L1113.16 208.839L1116 214L1118.84 208.839ZM1114.11 204.108L1116 200.667L1117.89 204.108L1121.33 206L1117.89 207.892L1116 211.333L1114.11 207.892L1110.67 206L1114.11 204.108Z" fill="#9F5C15"/>
<path d="M1174.84 208.839L1180 206L1174.84 203.161L1172 198L1169.16 203.161L1164 206L1169.16 208.839L1172 214L1174.84 208.839ZM1170.11 204.108L1172 200.667L1173.89 204.108L1177.33 206L1173.89 207.892L1172 211.333L1170.11 207.892L1166.67 206L1170.11 204.108Z" fill="#9F5C15"/>
<path d="M1230.84 208.839L1236 206L1230.84 203.161L1228 198L1225.16 203.161L1220 206L1225.16 208.839L1228 214L1230.84 208.839ZM1226.11 204.108L1228 200.667L1229.89 204.108L1233.33 206L1229.89 207.892L1228 211.333L1226.11 207.892L1222.67 206L1226.11 204.108Z" fill="#9F5C15"/>
<path d="M1286.84 208.839L1292 206L1286.84 203.161L1284 198L1281.16 203.161L1276 206L1281.16 208.839L1284 214L1286.84 208.839ZM1282.11 204.108L1284 200.667L1285.89 204.108L1289.33 206L1285.89 207.892L1284 211.333L1282.11 207.892L1278.67 206L1282.11 204.108Z" fill="#9F5C15"/>
<path d="M1342.84 208.839L1348 206L1342.84 203.161L1340 198L1337.16 203.161L1332 206L1337.16 208.839L1340 214L1342.84 208.839ZM1338.11 204.108L1340 200.667L1341.89 204.108L1345.33 206L1341.89 207.892L1340 211.333L1338.11 207.892L1334.67 206L1338.11 204.108Z" fill="#9F5C15"/>
<path d="M28.8387 152.839L34 150L28.8387 147.161L26 142L23.1613 147.161L18 150L23.1613 152.839L26 158L28.8387 152.839ZM24.1075 148.108L26 144.667L27.8925 148.108L31.3333 150L27.8925 151.892L26 155.333L24.1075 151.892L20.6667 150L24.1075 148.108Z" fill="#9F5C15"/>
<path d="M84.8387 152.839L90 150L84.8387 147.161L82 142L79.1613 147.161L74 150L79.1613 152.839L82 158L84.8387 152.839ZM80.1075 148.108L82 144.667L83.8925 148.108L87.3333 150L83.8925 151.892L82 155.333L80.1075 151.892L76.6667 150L80.1075 148.108Z" fill="#9F5C15"/>
<path d="M140.839 152.839L146 150L140.839 147.161L138 142L135.161 147.161L130 150L135.161 152.839L138 158L140.839 152.839ZM136.108 148.108L138 144.667L139.892 148.108L143.333 150L139.892 151.892L138 155.333L136.108 151.892L132.667 150L136.108 148.108Z" fill="#9F5C15"/>
<path d="M196.839 152.839L202 150L196.839 147.161L194 142L191.161 147.161L186 150L191.161 152.839L194 158L196.839 152.839ZM192.108 148.108L194 144.667L195.892 148.108L199.333 150L195.892 151.892L194 155.333L192.108 151.892L188.667 150L192.108 148.108Z" fill="#9F5C15"/>
<path d="M252.839 152.839L258 150L252.839 147.161L250 142L247.161 147.161L242 150L247.161 152.839L250 158L252.839 152.839ZM248.108 148.108L250 144.667L251.892 148.108L255.333 150L251.892 151.892L250 155.333L248.108 151.892L244.667 150L248.108 148.108Z" fill="#9F5C15"/>
<path d="M308.839 152.839L314 150L308.839 147.161L306 142L303.161 147.161L298 150L303.161 152.839L306 158L308.839 152.839ZM304.108 148.108L306 144.667L307.892 148.108L311.333 150L307.892 151.892L306 155.333L304.108 151.892L300.667 150L304.108 148.108Z" fill="#9F5C15"/>
<path d="M364.839 152.839L370 150L364.839 147.161L362 142L359.161 147.161L354 150L359.161 152.839L362 158L364.839 152.839ZM360.108 148.108L362 144.667L363.892 148.108L367.333 150L363.892 151.892L362 155.333L360.108 151.892L356.667 150L360.108 148.108Z" fill="#9F5C15"/>
<path d="M420.839 152.839L426 150L420.839 147.161L418 142L415.161 147.161L410 150L415.161 152.839L418 158L420.839 152.839ZM416.108 148.108L418 144.667L419.892 148.108L423.333 150L419.892 151.892L418 155.333L416.108 151.892L412.667 150L416.108 148.108Z" fill="#9F5C15"/>
<path d="M476.839 152.839L482 150L476.839 147.161L474 142L471.161 147.161L466 150L471.161 152.839L474 158L476.839 152.839ZM472.108 148.108L474 144.667L475.892 148.108L479.333 150L475.892 151.892L474 155.333L472.108 151.892L468.667 150L472.108 148.108Z" fill="#9F5C15"/>
<path d="M532.839 152.839L538 150L532.839 147.161L530 142L527.161 147.161L522 150L527.161 152.839L530 158L532.839 152.839ZM528.108 148.108L530 144.667L531.892 148.108L535.333 150L531.892 151.892L530 155.333L528.108 151.892L524.667 150L528.108 148.108Z" fill="#9F5C15"/>
<path d="M588.839 152.839L594 150L588.839 147.161L586 142L583.161 147.161L578 150L583.161 152.839L586 158L588.839 152.839ZM584.108 148.108L586 144.667L587.892 148.108L591.333 150L587.892 151.892L586 155.333L584.108 151.892L580.667 150L584.108 148.108Z" fill="#9F5C15"/>
<path d="M644.839 152.839L650 150L644.839 147.161L642 142L639.161 147.161L634 150L639.161 152.839L642 158L644.839 152.839ZM640.108 148.108L642 144.667L643.892 148.108L647.333 150L643.892 151.892L642 155.333L640.108 151.892L636.667 150L640.108 148.108Z" fill="#9F5C15"/>
<path d="M700.839 152.839L706 150L700.839 147.161L698 142L695.161 147.161L690 150L695.161 152.839L698 158L700.839 152.839ZM696.108 148.108L698 144.667L699.892 148.108L703.333 150L699.892 151.892L698 155.333L696.108 151.892L692.667 150L696.108 148.108Z" fill="#9F5C15"/>
<path d="M756.839 152.839L762 150L756.839 147.161L754 142L751.161 147.161L746 150L751.161 152.839L754 158L756.839 152.839ZM752.108 148.108L754 144.667L755.892 148.108L759.333 150L755.892 151.892L754 155.333L752.108 151.892L748.667 150L752.108 148.108Z" fill="#9F5C15"/>
<path d="M812.839 152.839L818 150L812.839 147.161L810 142L807.161 147.161L802 150L807.161 152.839L810 158L812.839 152.839ZM808.108 148.108L810 144.667L811.892 148.108L815.333 150L811.892 151.892L810 155.333L808.108 151.892L804.667 150L808.108 148.108Z" fill="#9F5C15"/>
<path d="M868.839 152.839L874 150L868.839 147.161L866 142L863.161 147.161L858 150L863.161 152.839L866 158L868.839 152.839ZM864.108 148.108L866 144.667L867.892 148.108L871.333 150L867.892 151.892L866 155.333L864.108 151.892L860.667 150L864.108 148.108Z" fill="#9F5C15"/>
<path d="M924.839 152.839L930 150L924.839 147.161L922 142L919.161 147.161L914 150L919.161 152.839L922 158L924.839 152.839ZM920.108 148.108L922 144.667L923.892 148.108L927.333 150L923.892 151.892L922 155.333L920.108 151.892L916.667 150L920.108 148.108Z" fill="#9F5C15"/>
<path d="M980.839 152.839L986 150L980.839 147.161L978 142L975.161 147.161L970 150L975.161 152.839L978 158L980.839 152.839ZM976.108 148.108L978 144.667L979.892 148.108L983.333 150L979.892 151.892L978 155.333L976.108 151.892L972.667 150L976.108 148.108Z" fill="#9F5C15"/>
<path d="M1036.84 152.839L1042 150L1036.84 147.161L1034 142L1031.16 147.161L1026 150L1031.16 152.839L1034 158L1036.84 152.839ZM1032.11 148.108L1034 144.667L1035.89 148.108L1039.33 150L1035.89 151.892L1034 155.333L1032.11 151.892L1028.67 150L1032.11 148.108Z" fill="#9F5C15"/>
<path d="M1092.84 152.839L1098 150L1092.84 147.161L1090 142L1087.16 147.161L1082 150L1087.16 152.839L1090 158L1092.84 152.839ZM1088.11 148.108L1090 144.667L1091.89 148.108L1095.33 150L1091.89 151.892L1090 155.333L1088.11 151.892L1084.67 150L1088.11 148.108Z" fill="#9F5C15"/>
<path d="M1148.84 152.839L1154 150L1148.84 147.161L1146 142L1143.16 147.161L1138 150L1143.16 152.839L1146 158L1148.84 152.839ZM1144.11 148.108L1146 144.667L1147.89 148.108L1151.33 150L1147.89 151.892L1146 155.333L1144.11 151.892L1140.67 150L1144.11 148.108Z" fill="#9F5C15"/>
<path d="M1204.84 152.839L1210 150L1204.84 147.161L1202 142L1199.16 147.161L1194 150L1199.16 152.839L1202 158L1204.84 152.839ZM1200.11 148.108L1202 144.667L1203.89 148.108L1207.33 150L1203.89 151.892L1202 155.333L1200.11 151.892L1196.67 150L1200.11 148.108Z" fill="#9F5C15"/>
<path d="M1260.84 152.839L1266 150L1260.84 147.161L1258 142L1255.16 147.161L1250 150L1255.16 152.839L1258 158L1260.84 152.839ZM1256.11 148.108L1258 144.667L1259.89 148.108L1263.33 150L1259.89 151.892L1258 155.333L1256.11 151.892L1252.67 150L1256.11 148.108Z" fill="#9F5C15"/>
<path d="M1316.84 152.839L1322 150L1316.84 147.161L1314 142L1311.16 147.161L1306 150L1311.16 152.839L1314 158L1316.84 152.839ZM1312.11 148.108L1314 144.667L1315.89 148.108L1319.33 150L1315.89 151.892L1314 155.333L1312.11 151.892L1308.67 150L1312.11 148.108Z" fill="#9F5C15"/>
<path d="M1372.84 152.839L1378 150L1372.84 147.161L1370 142L1367.16 147.161L1362 150L1367.16 152.839L1370 158L1372.84 152.839ZM1368.11 148.108L1370 144.667L1371.89 148.108L1375.33 150L1371.89 151.892L1370 155.333L1368.11 151.892L1364.67 150L1368.11 148.108Z" fill="#9F5C15"/>
</g>
</svg>
