<svg width="232" height="33" viewBox="0 0 232 33" fill="none" xmlns="http://www.w3.org/2000/svg">
<path d="M97.4856 17.406C96.5803 17.7673 88.4736 21.1501 90.3513 25.7698C91.223 25.4382 92.0166 25.0433 92.7468 24.6037C93.6446 24.0635 94.4344 23.4599 95.1274 22.834C96.0476 22.0033 96.7964 21.1278 97.4 20.3007C98.1227 19.3134 98.6331 18.3895 98.9758 17.6854L97.4856 17.406ZM89.9042 26.3025C87.1808 20.6658 97.3143 16.8024 97.3441 16.7912L97.426 16.7577L97.5117 16.7726L99.49 17.1489L99.8812 17.2234L99.7172 17.5848C99.3745 18.3373 98.7933 19.455 97.9066 20.6695C97.2807 21.5264 96.5021 22.4354 95.5446 23.2997C94.8219 23.9517 93.9986 24.5813 93.0634 25.1439C92.2289 25.6468 91.305 26.0939 90.2879 26.4627L90.0234 26.5596L89.9042 26.3025Z" fill="#918F8D"/>
<path d="M128.586 32.3452C104.855 11.5195 77.8855 15.6549 55.1822 19.1382C35.1873 22.2043 18.4746 24.7675 9.99902 9.49285L10.5467 9.19108C18.8099 24.082 35.3289 21.5486 55.0928 18.5198C77.9228 15.0178 105.048 10.8601 129 31.8758L128.586 32.3452Z" fill="#918F8D"/>
<path d="M101.293 18.1587C101.263 18.1475 91.1301 14.2842 93.8534 8.64744L93.9764 8.3941L94.2409 8.49097C95.2617 8.8598 96.1856 9.30686 97.0164 9.8098C97.9478 10.3724 98.7748 10.9982 99.4976 11.6539C102.888 14.72 104.065 18.3487 104.069 18.3562L104.251 18.9038L103.693 18.7548C103.29 18.6467 102.899 18.5462 102.519 18.453C102.117 18.3524 101.725 18.2593 101.338 18.1736L101.316 18.1699L101.293 18.1587ZM94.3042 9.18019C92.3707 13.9377 101.018 17.3801 101.498 17.5701C101.897 17.6595 102.288 17.7526 102.672 17.8495C102.873 17.8979 103.07 17.9501 103.264 17.9985C102.806 16.8995 101.558 14.3549 99.0803 12.1159C98.3874 11.49 97.5976 10.8865 96.6997 10.3463C95.9695 9.90667 95.1723 9.51176 94.3042 9.18019Z" fill="#918F8D"/>
<path d="M89.0033 16.4372C88.9735 16.4335 78.2663 14.7011 79.7901 8.62854L79.8571 8.35658L80.1365 8.39756C81.2058 8.55031 82.2005 8.80364 83.1207 9.12776C84.1489 9.48914 85.0803 9.9362 85.9223 10.428C89.8639 12.7415 91.7527 16.1466 91.7564 16.1578L92.0321 16.6533L91.4659 16.6198C91.138 16.6012 90.7953 16.5714 90.4525 16.5378C89.9794 16.4931 89.5062 16.4521 89.0405 16.441L89.0107 16.441L89.0033 16.4372ZM80.3414 9.0607C79.4101 14.1311 88.6456 15.7443 89.089 15.8188C89.5696 15.83 90.0427 15.8747 90.5158 15.9157C90.6425 15.9268 90.7692 15.938 90.8996 15.9492C90.229 14.9433 88.4966 12.6596 85.6131 10.9644C84.8083 10.4913 83.9105 10.0591 82.9232 9.71267C82.1222 9.43326 81.2616 9.20972 80.3414 9.0607Z" fill="#918F8D"/>
<path d="M86.3762 16.3181C85.9366 16.3963 76.742 18.0728 77.6734 23.147C78.5936 22.9979 79.4542 22.7707 80.2552 22.4913C81.2424 22.1448 82.1403 21.7126 82.945 21.2395C85.836 19.5406 87.505 17.3649 88.1347 16.4187C87.885 16.4112 87.6429 16.3888 87.4007 16.3702C87.058 16.3441 86.7152 16.3143 86.3762 16.3181ZM77.1257 23.5754C75.602 17.5065 86.2533 15.7034 86.2868 15.6959L86.3054 15.6922L86.339 15.6922C86.7376 15.6847 87.0952 15.7145 87.4566 15.7443C87.8664 15.7779 88.2725 15.8151 88.686 15.789L89.2598 15.7555L88.9766 16.2547C88.9729 16.2622 87.207 19.4587 83.2654 21.776C82.4234 22.2677 81.492 22.7185 80.4638 23.0799C79.5436 23.404 78.5489 23.6573 77.4797 23.8101L77.2002 23.8511L77.1257 23.5754Z" fill="#918F8D"/>
<path d="M77.5502 16.4486C77.5204 16.4449 66.8132 14.7125 68.3369 8.63991L68.404 8.36794L68.6834 8.40892C69.7526 8.56167 70.7473 8.815 71.6675 9.13912C72.6958 9.5005 73.6272 9.94756 74.4691 10.4431C78.4033 12.7529 80.3257 15.86 80.3294 15.8674L80.6163 16.3219L80.0798 16.3443L77.6098 16.4561L77.5762 16.4561L77.5502 16.4486ZM68.8883 9.07207C67.9644 14.0941 77.0286 15.7259 77.6247 15.8302L79.4986 15.7445C78.828 14.8243 77.0658 12.6821 74.1599 10.9795C73.3552 10.5064 72.4574 10.0742 71.4701 9.72776C70.6691 9.44834 69.8085 9.22109 68.8883 9.07207Z" fill="#918F8D"/>
<path d="M75.6281 16.5787C75.2145 16.6494 65.9454 18.2589 66.8768 23.3368C67.797 23.1877 68.6576 22.9605 69.4586 22.6811C70.4459 22.3346 71.3437 21.9024 72.1484 21.4293C75.032 19.7379 76.8053 17.4653 77.4946 16.4632L75.6281 16.5787ZM66.3292 23.7689C64.8054 17.6963 75.5089 15.9677 75.5424 15.9602L75.5573 15.9565L75.5759 15.9565L78.0757 15.8075L78.6644 15.774L78.3663 16.2806C78.3589 16.2918 76.4067 19.6597 72.4688 21.9732C71.6269 22.465 70.6955 22.9158 69.6672 23.2772C68.747 23.6013 67.7523 23.8546 66.6831 24.0074L66.4037 24.0483L66.3292 23.7689Z" fill="#918F8D"/>
<path d="M65.8675 17.5736C65.8377 17.5699 55.1306 15.8375 56.6543 9.76491L56.7214 9.49294L57.0008 9.53392C58.07 9.68667 59.0647 9.94 59.9849 10.2641C61.0132 10.6255 61.9446 11.0726 62.7865 11.5643C66.7207 13.8742 68.5574 16.795 68.5611 16.8061L68.8256 17.2234L68.3338 17.283L65.9495 17.5773L65.9048 17.5811L65.8675 17.5736ZM57.202 10.1933C56.2855 15.1818 65.2156 16.8248 65.9234 16.9477L67.7489 16.7205C67.1081 15.8599 65.3944 13.8108 62.4736 12.0971C61.6689 11.6239 60.771 11.1918 59.7838 10.8453C58.9828 10.5696 58.1222 10.3424 57.202 10.1933Z" fill="#918F8D"/>
<path d="M64.3842 17.7821C64.3544 17.7858 54.6643 19.358 55.618 24.5439C56.5382 24.3949 57.3988 24.1676 58.1998 23.8882C59.1871 23.5418 60.0849 23.1096 60.8897 22.6365C63.7546 20.9525 65.5913 18.5905 66.3252 17.5325L64.3842 17.7821ZM55.0704 24.9724C53.5466 18.8998 64.2501 17.1711 64.2836 17.1637L64.2948 17.1637L66.9138 16.8246L67.5472 16.7427L67.2193 17.2941C67.2119 17.3052 65.1405 20.8631 61.2026 23.1729C60.3606 23.6647 59.4292 24.1155 58.401 24.4769C57.4808 24.801 56.4861 25.0543 55.4169 25.2071L55.1374 25.248L55.0704 24.9724Z" fill="#918F8D"/>
<path d="M54.7503 19.1866C54.7205 19.1829 44.0134 17.4505 45.5371 11.3779L45.6042 11.1059L45.8836 11.1469C46.9528 11.2996 47.9475 11.553 48.8677 11.8771C49.896 12.2385 50.8274 12.6855 51.6693 13.181C55.6035 15.4909 57.3992 18.3483 57.4029 18.3595L57.6563 18.7619L57.1831 18.8327L54.8398 19.1903L54.7913 19.1978L54.7503 19.1866ZM46.0885 11.81C45.172 16.7873 54.0649 18.434 54.8062 18.5644L56.6019 18.2887C55.9761 17.4468 54.2884 15.435 51.3601 13.7175C50.5554 13.2444 49.6576 12.8122 48.6703 12.4657C47.8693 12.1863 47.0087 11.9591 46.0885 11.81Z" fill="#918F8D"/>
<path d="M53.1705 19.4473C52.9693 19.4808 43.4655 21.0679 44.4081 26.2091C45.3879 26.0489 46.2895 25.7881 47.1277 25.4752C48.0516 25.1287 48.9048 24.7152 49.6909 24.2979C52.8836 22.5991 54.6831 20.1886 55.3686 19.112L53.1705 19.4473ZM43.8604 26.6338C42.3367 20.5612 53.0401 18.8326 53.0736 18.8251L53.0774 18.8251L55.9274 18.3892L56.5346 18.2961L56.2515 18.84C56.2478 18.8512 54.3701 22.5096 49.9852 24.8418C49.1767 25.274 48.3012 25.695 47.3475 26.0526C46.3863 26.4103 45.3432 26.7046 44.2106 26.8648L43.9312 26.9058L43.8604 26.6338Z" fill="#918F8D"/>
<path d="M43.7787 20.7475C43.7489 20.7438 33.0417 19.0114 34.5655 12.9388L34.6325 12.6668L34.9119 12.7078C35.9811 12.8606 36.9759 13.1139 37.8961 13.438C38.9243 13.7994 39.8557 14.2464 40.6977 14.7419C44.6318 17.0518 46.476 19.9651 46.4797 19.9763L46.7442 20.3936L46.2561 20.4569L43.8644 20.7587L43.8159 20.7661L43.7787 20.7475ZM35.1131 13.3672C34.1966 18.3632 43.1491 20.0024 43.8383 20.1216L45.6675 19.8906C45.0267 19.03 43.3055 16.9884 40.3847 15.2747C39.58 14.8015 38.6822 14.3694 37.6949 14.0229C36.8939 13.7435 36.037 13.5162 35.1131 13.3672Z" fill="#918F8D"/>
<path d="M41.5545 21.0048C41.2192 21.0606 31.8607 22.6626 32.7958 27.7629C33.7719 27.6027 34.6734 27.3381 35.5117 27.0215C36.4319 26.675 37.285 26.2615 38.0823 25.8479C41.3607 24.1416 43.1229 21.7871 43.7786 20.7514L41.5545 21.0048ZM32.2481 28.195C30.7244 22.1224 41.4278 20.3938 41.4613 20.3863L41.48 20.3826L44.33 20.0622L44.9074 19.9989L44.6429 20.5167C44.6392 20.5279 42.8621 24.0746 38.3766 26.4068C37.5682 26.8277 36.6964 27.2487 35.7389 27.6101C34.7777 27.9715 33.7383 28.2658 32.602 28.4297L32.3226 28.4707L32.2481 28.195Z" fill="#918F8D"/>
<path d="M32.2259 21.4442C32.1961 21.4405 21.489 19.7081 23.0127 13.6355L23.0798 13.3635L23.3592 13.4045C24.4284 13.5573 25.4231 13.8106 26.3433 14.1347C27.3716 14.4961 28.303 14.9432 29.1449 15.4349C33.0903 17.7485 34.9009 20.9748 34.9083 20.9822L35.1766 21.4517L34.6364 21.4517L32.2781 21.4479L32.2483 21.4479L32.2259 21.4442ZM23.5604 14.0677C22.6327 19.1232 31.8199 20.7438 32.3042 20.8258L34.0663 20.8258C33.4256 19.8795 31.7304 17.674 28.832 15.9714C28.0273 15.4983 27.1294 15.0661 26.1422 14.7196C25.3449 14.4439 24.4843 14.2167 23.5604 14.0677Z" fill="#918F8D"/>
<path d="M28.7981 21.2433C28.1573 21.3513 19.1453 22.9906 20.0692 27.9977C20.9894 27.8486 21.85 27.6214 22.651 27.342C23.6383 26.9955 24.5361 26.5633 25.3408 26.0902C28.2393 24.3876 30.102 22.2864 30.8248 21.3849L28.7981 21.2433ZM19.5216 28.4261C17.9978 22.3535 28.7012 20.6249 28.7348 20.6174L28.772 20.6099L28.8093 20.6137L31.4507 20.7962L32.0021 20.8335L31.6891 21.2843C31.6817 21.2917 29.5916 24.3168 25.6612 26.6229C24.8192 27.1147 23.8879 27.5655 22.8596 27.9232C21.9394 28.2473 20.9447 28.5006 19.8755 28.6534L19.5961 28.6943L19.5216 28.4261Z" fill="#918F8D"/>
<path d="M20.4344 19.1978C20.4083 19.1792 11.3777 13.1774 15.2783 8.27832L15.4534 8.05851L15.6918 8.21126C16.6046 8.79617 17.4093 9.43696 18.1097 10.1113C18.8958 10.8638 19.5626 11.6574 20.1215 12.4546C22.748 16.1876 23.1466 19.7082 23.1503 19.7194L23.2137 20.2261L22.7331 20.051L20.5052 19.2351L20.4679 19.2202L20.4344 19.1978ZM15.595 8.89675C12.6853 13.0768 20.2109 18.2925 20.7511 18.6576L22.4387 19.2761C22.2264 18.1957 21.5483 15.5729 19.6073 12.8123C19.0671 12.0448 18.4301 11.2848 17.6738 10.5583C17.0591 9.97343 16.3699 9.41088 15.595 8.89675Z" fill="#918F8D"/>
<path d="M17.8752 17.8901C17.1711 17.756 8.22611 16.1578 7.33571 21.15C8.24846 21.3325 9.13513 21.4256 9.98083 21.4443C11.024 21.4666 12.0187 21.3772 12.9426 21.217C16.277 20.6396 18.6017 19.3319 19.507 18.7507L17.8752 17.8901ZM6.67256 21.3623C7.37669 15.1407 18.0093 17.2829 18.0391 17.2866L18.0838 17.294L18.1248 17.3164L20.2558 18.4415L20.6954 18.6725L20.3005 18.9668C20.2931 18.9743 17.5436 21.0531 13.0507 21.8317C12.0932 21.9994 11.065 22.0888 9.97338 22.0664C9.00102 22.0441 7.9765 21.9323 6.92217 21.6976L6.64648 21.638L6.67256 21.3623Z" fill="#918F8D"/>
<path d="M0.67432 4.98873C3.70317 8.69935 9.03812 9.04955 10.1111 9.07935C10.8301 7.61522 11.2585 6.546 11.5528 5.42834C11.8546 4.27715 12.0185 3.05518 12.2197 1.28183C11.5715 -0.037004 9.64911 1.28928 9.64538 1.29301L9.44793 1.42713L9.26538 1.27438C7.46222 -0.249359 6.65379 1.57615 6.65006 1.57987L6.5532 1.7885L6.32594 1.7587C3.88572 1.44575 4.26945 3.99774 4.26945 4.00519L4.34396 4.51931L3.85592 4.34794C1.4157 3.48362 0.808438 4.5901 0.67432 4.98873ZM10.3011 9.70897C10.2824 9.70897 3.62866 9.75367 0.0856869 5.25697L-1.99489e-07 5.1452L0.0260785 5.00736C0.0260785 4.9999 0.402356 2.68263 3.62493 3.61401C3.62493 2.72361 3.90435 0.931632 6.19182 1.11791C6.51967 0.570256 7.59262 -0.811914 9.49263 0.652217C10.1185 0.283391 12.067 -0.68152 12.827 1.10673L12.8605 1.18124L12.8531 1.2632C12.6444 3.11106 12.4768 4.37402 12.1601 5.58481C11.8434 6.79933 11.3778 7.93934 10.5879 9.53387L10.5023 9.70897L10.3011 9.70897Z" fill="#918F8D"/>
<path d="M4.19084 3.83743C4.20202 3.84861 7.72264 7.56668 10.4236 9.06807L10.1219 9.61572C7.33891 8.0659 3.7475 4.27705 3.73633 4.26587L4.19084 3.83743Z" fill="#918F8D"/>
<path d="M9.77584 0.976151C9.77957 0.991054 10.7817 6.28875 10.588 9.3623L9.96212 9.32505C10.1521 6.326 9.16486 1.11027 9.16113 1.09537L9.77584 0.976151Z" fill="#918F8D"/>
<path d="M6.08427 1.58663L9.99023 9.48047L10.5512 9.20289L6.64525 1.30905L6.08427 1.58663Z" fill="#918F8D"/>
<path d="M134.514 17.406C135.42 17.7673 143.526 21.1501 141.649 25.7698C140.777 25.4382 139.983 25.0433 139.253 24.6037C138.355 24.0635 137.566 23.4599 136.873 22.834C135.952 22.0033 135.204 21.1278 134.6 20.3007C133.877 19.3134 133.367 18.3895 133.024 17.6854L134.514 17.406ZM142.096 26.3025C144.819 20.6658 134.686 16.8024 134.656 16.7912L134.574 16.7577L134.488 16.7726L132.51 17.1489L132.119 17.2234L132.283 17.5848C132.626 18.3373 133.207 19.455 134.093 20.6695C134.719 21.5264 135.498 22.4354 136.455 23.2997C137.178 23.9517 138.001 24.5813 138.937 25.1439C139.771 25.6468 140.695 26.0939 141.712 26.4627L141.977 26.5596L142.096 26.3025Z" fill="#918F8D"/>
<path d="M103.414 32.3452C127.145 11.5195 154.114 15.6549 176.818 19.1382C196.813 22.2043 213.525 24.7675 222.001 9.49285L221.453 9.19108C213.19 24.082 196.671 21.5486 176.907 18.5198C154.077 15.0178 126.952 10.8601 103 31.8758L103.414 32.3452Z" fill="#918F8D"/>
<path d="M130.707 18.1587C130.737 18.1475 140.87 14.2842 138.147 8.64744L138.024 8.3941L137.759 8.49097C136.738 8.8598 135.814 9.30686 134.984 9.8098C134.052 10.3724 133.225 10.9982 132.502 11.6539C129.112 14.72 127.935 18.3487 127.931 18.3562L127.749 18.9038L128.307 18.7548C128.71 18.6467 129.101 18.5462 129.481 18.453C129.883 18.3524 130.275 18.2593 130.662 18.1736L130.684 18.1699L130.707 18.1587ZM137.696 9.18019C139.629 13.9377 130.982 17.3801 130.502 17.5701C130.103 17.6595 129.712 17.7526 129.328 17.8495C129.127 17.8979 128.93 17.9501 128.736 17.9985C129.194 16.8995 130.442 14.3549 132.92 12.1159C133.613 11.49 134.402 10.8865 135.3 10.3463C136.03 9.90667 136.828 9.51176 137.696 9.18019Z" fill="#918F8D"/>
<path d="M142.997 16.4372C143.027 16.4335 153.734 14.7011 152.21 8.62854L152.143 8.35658L151.863 8.39756C150.794 8.55031 149.8 8.80364 148.879 9.12776C147.851 9.48914 146.92 9.9362 146.078 10.428C142.136 12.7415 140.247 16.1466 140.244 16.1578L139.968 16.6533L140.534 16.6198C140.862 16.6012 141.205 16.5714 141.547 16.5378C142.021 16.4931 142.494 16.4521 142.959 16.441L142.989 16.441L142.997 16.4372ZM151.659 9.0607C152.59 14.1311 143.354 15.7443 142.911 15.8188C142.43 15.83 141.957 15.8747 141.484 15.9157C141.357 15.9268 141.231 15.938 141.1 15.9492C141.771 14.9433 143.503 12.6596 146.387 10.9644C147.192 10.4913 148.09 10.0591 149.077 9.71267C149.878 9.43326 150.738 9.20972 151.659 9.0607Z" fill="#918F8D"/>
<path d="M145.624 16.3181C146.063 16.3963 155.258 18.0728 154.327 23.147C153.406 22.9979 152.546 22.7707 151.745 22.4913C150.758 22.1448 149.86 21.7126 149.055 21.2395C146.164 19.5406 144.495 17.3649 143.865 16.4187C144.115 16.4112 144.357 16.3888 144.599 16.3702C144.942 16.3441 145.285 16.3143 145.624 16.3181ZM154.874 23.5754C156.398 17.5065 145.747 15.7034 145.713 15.6959L145.695 15.6922L145.661 15.6922C145.262 15.6847 144.905 15.7145 144.543 15.7443C144.134 15.7779 143.728 15.8151 143.314 15.789L142.74 15.7555L143.023 16.2547C143.027 16.2622 144.793 19.4587 148.735 21.776C149.577 22.2677 150.508 22.7185 151.536 23.0799C152.456 23.404 153.451 23.6573 154.52 23.8101L154.8 23.8511L154.874 23.5754Z" fill="#918F8D"/>
<path d="M154.45 16.4486C154.48 16.4449 165.187 14.7125 163.663 8.63991L163.596 8.36794L163.317 8.40892C162.247 8.56167 161.253 8.815 160.332 9.13912C159.304 9.5005 158.373 9.94756 157.531 10.4431C153.597 12.7529 151.674 15.86 151.671 15.8674L151.384 16.3219L151.92 16.3443L154.39 16.4561L154.424 16.4561L154.45 16.4486ZM163.112 9.07207C164.036 14.0941 154.971 15.7259 154.375 15.8302L152.501 15.7445C153.172 14.8243 154.934 12.6821 157.84 10.9795C158.645 10.5064 159.543 10.0742 160.53 9.72776C161.331 9.44834 162.191 9.22109 163.112 9.07207Z" fill="#918F8D"/>
<path d="M156.372 16.5787C156.785 16.6494 166.055 18.2589 165.123 23.3368C164.203 23.1877 163.342 22.9605 162.541 22.6811C161.554 22.3346 160.656 21.9024 159.852 21.4293C156.968 19.7379 155.195 17.4653 154.505 16.4632L156.372 16.5787ZM165.671 23.7689C167.195 17.6963 156.491 15.9677 156.458 15.9602L156.443 15.9565L156.424 15.9565L153.924 15.8075L153.336 15.774L153.634 16.2806C153.641 16.2918 155.593 19.6597 159.531 21.9732C160.373 22.465 161.305 22.9158 162.333 23.2772C163.253 23.6013 164.248 23.8546 165.317 24.0074L165.596 24.0483L165.671 23.7689Z" fill="#918F8D"/>
<path d="M166.132 17.5736C166.162 17.5699 176.869 15.8375 175.346 9.76491L175.279 9.49294L174.999 9.53392C173.93 9.68667 172.935 9.94 172.015 10.2641C170.987 10.6255 170.055 11.0726 169.213 11.5643C165.279 13.8742 163.443 16.795 163.439 16.8061L163.174 17.2234L163.666 17.283L166.05 17.5773L166.095 17.5811L166.132 17.5736ZM174.798 10.1933C175.715 15.1818 166.784 16.8248 166.077 16.9477L164.251 16.7205C164.892 15.8599 166.606 13.8108 169.526 12.0971C170.331 11.6239 171.229 11.1918 172.216 10.8453C173.017 10.5696 173.878 10.3424 174.798 10.1933Z" fill="#918F8D"/>
<path d="M167.616 17.7821C167.646 17.7858 177.336 19.358 176.382 24.5439C175.462 24.3949 174.601 24.1676 173.8 23.8882C172.813 23.5418 171.915 23.1096 171.11 22.6365C168.245 20.9525 166.409 18.5905 165.675 17.5325L167.616 17.7821ZM176.93 24.9724C178.453 18.8998 167.75 17.1711 167.716 17.1637L167.705 17.1637L165.086 16.8246L164.453 16.7427L164.781 17.2941C164.788 17.3052 166.86 20.8631 170.797 23.1729C171.639 23.6647 172.571 24.1155 173.599 24.4769C174.519 24.801 175.514 25.0543 176.583 25.2071L176.863 25.248L176.93 24.9724Z" fill="#918F8D"/>
<path d="M177.25 19.1866C177.279 19.1829 187.987 17.4505 186.463 11.3779L186.396 11.1059L186.116 11.1469C185.047 11.2996 184.052 11.553 183.132 11.8771C182.104 12.2385 181.173 12.6855 180.331 13.181C176.397 15.4909 174.601 18.3483 174.597 18.3595L174.344 18.7619L174.817 18.8327L177.16 19.1903L177.209 19.1978L177.25 19.1866ZM185.911 11.81C186.828 16.7873 177.935 18.434 177.194 18.5644L175.398 18.2887C176.024 17.4468 177.712 15.435 180.64 13.7175C181.445 13.2444 182.342 12.8122 183.33 12.4657C184.131 12.1863 184.991 11.9591 185.911 11.81Z" fill="#918F8D"/>
<path d="M178.83 19.4473C179.031 19.4808 188.534 21.0679 187.592 26.2091C186.612 26.0489 185.711 25.7881 184.872 25.4752C183.948 25.1287 183.095 24.7152 182.309 24.2979C179.116 22.5991 177.317 20.1886 176.631 19.112L178.83 19.4473ZM188.14 26.6338C189.663 20.5612 178.96 18.8326 178.926 18.8251L178.923 18.8251L176.073 18.3892L175.465 18.2961L175.748 18.84C175.752 18.8512 177.63 22.5096 182.015 24.8418C182.823 25.274 183.699 25.695 184.652 26.0526C185.614 26.4103 186.657 26.7046 187.789 26.8648L188.069 26.9058L188.14 26.6338Z" fill="#918F8D"/>
<path d="M188.221 20.7475C188.251 20.7438 198.958 19.0114 197.435 12.9388L197.367 12.6668L197.088 12.7078C196.019 12.8606 195.024 13.1139 194.104 13.438C193.076 13.7994 192.144 14.2464 191.302 14.7419C187.368 17.0518 185.524 19.9651 185.52 19.9763L185.256 20.3936L185.744 20.4569L188.136 20.7587L188.184 20.7661L188.221 20.7475ZM196.887 13.3672C197.803 18.3632 188.851 20.0024 188.162 20.1216L186.332 19.8906C186.973 19.03 188.694 16.9884 191.615 15.2747C192.42 14.8015 193.318 14.3694 194.305 14.0229C195.106 13.7435 195.963 13.5162 196.887 13.3672Z" fill="#918F8D"/>
<path d="M190.446 21.0048C190.781 21.0606 200.139 22.6626 199.204 27.7629C198.228 27.6027 197.327 27.3381 196.488 27.0215C195.568 26.675 194.715 26.2615 193.918 25.8479C190.639 24.1416 188.877 21.7871 188.221 20.7514L190.446 21.0048ZM199.752 28.195C201.276 22.1224 190.572 20.3938 190.539 20.3863L190.52 20.3826L187.67 20.0622L187.093 19.9989L187.357 20.5167C187.361 20.5279 189.138 24.0746 193.623 26.4068C194.432 26.8277 195.304 27.2487 196.261 27.6101C197.222 27.9715 198.262 28.2658 199.398 28.4297L199.677 28.4707L199.752 28.195Z" fill="#918F8D"/>
<path d="M199.774 21.4442C199.804 21.4405 210.511 19.7081 208.987 13.6355L208.92 13.3635L208.641 13.4045C207.572 13.5573 206.577 13.8106 205.657 14.1347C204.628 14.4961 203.697 14.9432 202.855 15.4349C198.91 17.7485 197.099 20.9748 197.092 20.9822L196.823 21.4517L197.364 21.4517L199.722 21.4479L199.752 21.4479L199.774 21.4442ZM208.44 14.0677C209.367 19.1232 200.18 20.7438 199.696 20.8258L197.934 20.8258C198.574 19.8795 200.27 17.674 203.168 15.9714C203.973 15.4983 204.871 15.0661 205.858 14.7196C206.655 14.4439 207.516 14.2167 208.44 14.0677Z" fill="#918F8D"/>
<path d="M203.202 21.2433C203.843 21.3513 212.855 22.9906 211.931 27.9977C211.011 27.8486 210.15 27.6214 209.349 27.342C208.362 26.9955 207.464 26.5633 206.659 26.0902C203.761 24.3876 201.898 22.2864 201.175 21.3849L203.202 21.2433ZM212.478 28.4261C214.002 22.3535 203.299 20.6249 203.265 20.6174L203.228 20.6099L203.191 20.6137L200.549 20.7962L199.998 20.8335L200.311 21.2843C200.318 21.2917 202.408 24.3168 206.339 26.6229C207.181 27.1147 208.112 27.5655 209.14 27.9232C210.061 28.2473 211.055 28.5006 212.125 28.6534L212.404 28.6943L212.478 28.4261Z" fill="#918F8D"/>
<path d="M211.566 19.1978C211.592 19.1792 220.622 13.1774 216.722 8.27832L216.547 8.05851L216.308 8.21126C215.395 8.79617 214.591 9.43696 213.89 10.1113C213.104 10.8638 212.437 11.6574 211.879 12.4546C209.252 16.1876 208.853 19.7082 208.85 19.7194L208.786 20.2261L209.267 20.051L211.495 19.2351L211.532 19.2202L211.566 19.1978ZM216.405 8.89675C219.315 13.0768 211.789 18.2925 211.249 18.6576L209.561 19.2761C209.774 18.1957 210.452 15.5729 212.393 12.8123C212.933 12.0448 213.57 11.2848 214.326 10.5583C214.941 9.97343 215.63 9.41088 216.405 8.89675Z" fill="#918F8D"/>
<path d="M214.125 17.8901C214.829 17.756 223.774 16.1578 224.664 21.15C223.752 21.3325 222.865 21.4256 222.019 21.4443C220.976 21.4666 219.981 21.3772 219.057 21.217C215.723 20.6396 213.398 19.3319 212.493 18.7507L214.125 17.8901ZM225.327 21.3623C224.623 15.1407 213.991 17.2829 213.961 17.2866L213.916 17.294L213.875 17.3164L211.744 18.4415L211.305 18.6725L211.699 18.9668C211.707 18.9743 214.456 21.0531 218.949 21.8317C219.907 21.9994 220.935 22.0888 222.027 22.0664C222.999 22.0441 224.024 21.9323 225.078 21.6976L225.354 21.638L225.327 21.3623Z" fill="#918F8D"/>
<path d="M231.326 4.98873C228.297 8.69935 222.962 9.04955 221.889 9.07935C221.17 7.61522 220.741 6.546 220.447 5.42834C220.145 4.27715 219.981 3.05518 219.78 1.28183C220.429 -0.037004 222.351 1.28928 222.355 1.29301L222.552 1.42713L222.735 1.27438C224.538 -0.249359 225.346 1.57615 225.35 1.57987L225.447 1.7885L225.674 1.7587C228.114 1.44575 227.731 3.99774 227.731 4.00519L227.656 4.51931L228.144 4.34794C230.584 3.48362 231.192 4.5901 231.326 4.98873ZM221.699 9.70897C221.718 9.70897 228.371 9.75367 231.914 5.25697L232 5.1452L231.974 5.00736C231.974 4.9999 231.598 2.68263 228.375 3.61401C228.375 2.72361 228.096 0.931632 225.808 1.11791C225.48 0.570256 224.407 -0.811914 222.507 0.652217C221.881 0.283391 219.933 -0.68152 219.173 1.10673L219.139 1.18124L219.147 1.2632C219.356 3.11106 219.523 4.37402 219.84 5.58481C220.157 6.79933 220.622 7.93934 221.412 9.53387L221.498 9.70897L221.699 9.70897Z" fill="#918F8D"/>
<path d="M227.809 3.83743C227.798 3.84861 224.277 7.56668 221.576 9.06807L221.878 9.61572C224.661 8.0659 228.252 4.27705 228.264 4.26587L227.809 3.83743Z" fill="#918F8D"/>
<path d="M222.224 0.976151C222.22 0.991054 221.218 6.28875 221.412 9.3623L222.038 9.32505C221.848 6.326 222.835 1.11027 222.839 1.09537L222.224 0.976151Z" fill="#918F8D"/>
<path d="M225.916 1.58663L222.01 9.48047L221.449 9.20289L225.355 1.30905L225.916 1.58663Z" fill="#918F8D"/>
</svg>
