<svg width="227" height="11" viewBox="0 0 227 11" fill="none" xmlns="http://www.w3.org/2000/svg">
<path fill-rule="evenodd" clip-rule="evenodd" d="M6.98701 2.77953C6.21581 3.35314 5.65707 4.23835 5.54819 5.49123L4.58691 5.40755C4.71946 3.88233 5.41665 2.74436 6.41145 2.00443C7.39576 1.2723 8.64474 0.948205 9.87389 0.980736C12.3077 1.04515 14.8794 2.54073 15.2019 5.39511L14.2431 5.50362C13.9924 3.28497 11.978 2.00248 9.84838 1.94611C8.79581 1.91825 7.76871 2.1981 6.98701 2.77953Z" fill="#C8AA5D"/>
<path fill-rule="evenodd" clip-rule="evenodd" d="M6.98701 2.77953C6.21581 3.35314 5.65707 4.23835 5.54819 5.49123L4.58691 5.40755C4.71946 3.88233 5.41665 2.74436 6.41145 2.00443C7.39576 1.2723 8.64474 0.948205 9.87389 0.980736C12.3077 1.04515 14.8794 2.54073 15.2019 5.39511L14.2431 5.50362C13.9924 3.28497 11.978 2.00248 9.84838 1.94611C8.79581 1.91825 7.76871 2.1981 6.98701 2.77953Z" fill="#C8AA5D"/>
<path fill-rule="evenodd" clip-rule="evenodd" d="M16.8275 2.77953C16.0563 3.35314 15.4975 4.23835 15.3886 5.49123L14.4274 5.40755C14.5599 3.88233 15.2571 2.74436 16.2519 2.00443C17.2362 1.2723 18.4852 0.948205 19.7143 0.980736C22.1481 1.04515 24.7198 2.54073 25.0423 5.39511L24.0835 5.50362C23.8328 3.28497 21.8185 2.00248 19.6888 1.94611C18.6363 1.91825 17.6092 2.1981 16.8275 2.77953Z" fill="#C8AA5D"/>
<path fill-rule="evenodd" clip-rule="evenodd" d="M26.6678 2.77953C25.8966 3.35314 25.3379 4.23835 25.229 5.49123L24.2677 5.40755C24.4002 3.88233 25.0974 2.74436 26.0922 2.00443C27.0765 1.2723 28.3255 0.948205 29.5547 0.980736C31.9885 1.04515 34.5601 2.54073 34.8827 5.39511L33.9239 5.50362C33.6732 3.28497 31.6588 2.00248 29.5292 1.94611C28.4766 1.91825 27.4495 2.1981 26.6678 2.77953Z" fill="#C8AA5D"/>
<path fill-rule="evenodd" clip-rule="evenodd" d="M36.5081 2.77953C35.7369 3.35314 35.1782 4.23835 35.0693 5.49123L34.108 5.40755C34.2406 3.88233 34.9378 2.74436 35.9326 2.00443C36.9169 1.2723 38.1659 0.948205 39.395 0.980736C41.8288 1.04515 44.4005 2.54073 44.723 5.39511L43.7642 5.50362C43.5135 3.28497 41.4992 2.00248 39.3695 1.94611C38.3169 1.91825 37.2898 2.1981 36.5081 2.77953Z" fill="#C8AA5D"/>
<path fill-rule="evenodd" clip-rule="evenodd" d="M46.3486 2.77953C45.5774 3.35314 45.0186 4.23835 44.9098 5.49123L43.9485 5.40755C44.081 3.88233 44.7782 2.74436 45.773 2.00443C46.7573 1.2723 48.0063 0.948205 49.2355 0.980736C51.6693 1.04515 54.2409 2.54073 54.5634 5.39511L53.6046 5.50362C53.354 3.28497 51.3396 2.00248 49.21 1.94611C48.1574 1.91825 47.1303 2.1981 46.3486 2.77953Z" fill="#C8AA5D"/>
<path fill-rule="evenodd" clip-rule="evenodd" d="M56.1889 2.77953C55.4177 3.35314 54.859 4.23835 54.7501 5.49123L53.7888 5.40755C53.9214 3.88233 54.6186 2.74436 55.6134 2.00443C56.5977 1.2723 57.8466 0.948205 59.0758 0.980736C61.5096 1.04515 64.0813 2.54073 64.4038 5.39511L63.445 5.50362C63.1943 3.28497 61.1799 2.00248 59.0503 1.94611C57.9977 1.91825 56.9706 2.1981 56.1889 2.77953Z" fill="#C8AA5D"/>
<path fill-rule="evenodd" clip-rule="evenodd" d="M66.0293 2.77953C65.2581 3.35314 64.6993 4.23835 64.5904 5.49123L63.6292 5.40755C63.7617 3.88233 64.4589 2.74436 65.4537 2.00443C66.438 1.2723 67.687 0.948205 68.9161 0.980736C71.3499 1.04515 73.9216 2.54073 74.2441 5.39511L73.2853 5.50362C73.0346 3.28497 71.0203 2.00248 68.8906 1.94611C67.8381 1.91825 66.8109 2.1981 66.0293 2.77953Z" fill="#C8AA5D"/>
<path fill-rule="evenodd" clip-rule="evenodd" d="M75.8696 2.77953C75.0984 3.35314 74.5396 4.23835 74.4308 5.49123L73.4695 5.40755C73.602 3.88233 74.2992 2.74436 75.294 2.00443C76.2783 1.2723 77.5273 0.948205 78.7565 0.980736C81.1903 1.04515 83.7619 2.54073 84.0844 5.39511L83.1256 5.50362C82.875 3.28497 80.8606 2.00248 78.731 1.94611C77.6784 1.91825 76.6513 2.1981 75.8696 2.77953Z" fill="#C8AA5D"/>
<path fill-rule="evenodd" clip-rule="evenodd" d="M85.71 2.77953C84.9388 3.35314 84.3801 4.23835 84.2712 5.49123L83.3099 5.40755C83.4425 3.88233 84.1397 2.74436 85.1345 2.00443C86.1188 1.2723 87.3678 0.948205 88.5969 0.980736C91.0307 1.04515 93.6024 2.54073 93.9249 5.39511L92.9661 5.50362C92.7154 3.28497 90.7011 2.00248 88.5714 1.94611C87.5188 1.91825 86.4917 2.1981 85.71 2.77953Z" fill="#C8AA5D"/>
<path fill-rule="evenodd" clip-rule="evenodd" d="M95.5504 2.77953C94.7792 3.35314 94.2204 4.23835 94.1115 5.49123L93.1503 5.40755C93.2828 3.88233 93.98 2.74436 94.9748 2.00443C95.9591 1.2723 97.2081 0.948205 98.4372 0.980736C100.871 1.04515 103.443 2.54073 103.765 5.39511L102.806 5.50362C102.556 3.28497 100.541 2.00248 98.4117 1.94611C97.3592 1.91825 96.3321 2.1981 95.5504 2.77953Z" fill="#C8AA5D"/>
<path fill-rule="evenodd" clip-rule="evenodd" d="M105.391 2.77953C104.619 3.35314 104.061 4.23835 103.952 5.49123L102.99 5.40755C103.123 3.88233 103.82 2.74436 104.815 2.00443C105.799 1.2723 107.048 0.948205 108.277 0.980736C110.711 1.04515 113.283 2.54073 113.605 5.39511L112.647 5.50362C112.396 3.28497 110.382 2.00248 108.252 1.94611C107.199 1.91825 106.172 2.1981 105.391 2.77953Z" fill="#C8AA5D"/>
<path fill-rule="evenodd" clip-rule="evenodd" d="M115.231 2.77953C114.46 3.35314 113.901 4.23835 113.792 5.49123L112.831 5.40755C112.963 3.88233 113.661 2.74436 114.655 2.00443C115.64 1.2723 116.889 0.948205 118.118 0.980736C120.552 1.04515 123.123 2.54073 123.446 5.39511L122.487 5.50362C122.236 3.28497 120.222 2.00248 118.092 1.94611C117.04 1.91825 116.013 2.1981 115.231 2.77953Z" fill="#C8AA5D"/>
<path fill-rule="evenodd" clip-rule="evenodd" d="M125.071 2.77953C124.3 3.35314 123.741 4.23835 123.633 5.49123L122.671 5.40755C122.804 3.88233 123.501 2.74436 124.496 2.00443C125.48 1.2723 126.729 0.948205 127.958 0.980736C130.392 1.04515 132.964 2.54073 133.286 5.39511L132.327 5.50362C132.077 3.28497 130.062 2.00248 127.933 1.94611C126.88 1.91825 125.853 2.1981 125.071 2.77953Z" fill="#C8AA5D"/>
<path fill-rule="evenodd" clip-rule="evenodd" d="M134.912 2.77953C134.14 3.35314 133.582 4.23835 133.473 5.49123L132.512 5.40755C132.644 3.88233 133.341 2.74436 134.336 2.00443C135.32 1.2723 136.569 0.948205 137.799 0.980736C140.232 1.04515 142.804 2.54073 143.127 5.39511L142.168 5.50362C141.917 3.28497 139.903 2.00248 137.773 1.94611C136.72 1.91825 135.693 2.1981 134.912 2.77953Z" fill="#C8AA5D"/>
<path fill-rule="evenodd" clip-rule="evenodd" d="M144.752 2.77953C143.981 3.35314 143.422 4.23835 143.313 5.49123L142.352 5.40755C142.485 3.88233 143.182 2.74436 144.177 2.00443C145.161 1.2723 146.41 0.948205 147.639 0.980736C150.073 1.04515 152.644 2.54073 152.967 5.39511L152.008 5.50362C151.758 3.28497 149.743 2.00248 147.614 1.94611C146.561 1.91825 145.534 2.1981 144.752 2.77953Z" fill="#C8AA5D"/>
<path fill-rule="evenodd" clip-rule="evenodd" d="M154.592 2.77953C153.821 3.35314 153.263 4.23835 153.154 5.49123L152.192 5.40755C152.325 3.88233 153.022 2.74436 154.017 2.00443C155.001 1.2723 156.25 0.948205 157.479 0.980736C159.913 1.04515 162.485 2.54073 162.807 5.39511L161.849 5.50362C161.598 3.28497 159.584 2.00248 157.454 1.94611C156.401 1.91825 155.374 2.1981 154.592 2.77953Z" fill="#C8AA5D"/>
<path fill-rule="evenodd" clip-rule="evenodd" d="M164.433 2.77953C163.662 3.35314 163.103 4.23835 162.994 5.49123L162.033 5.40755C162.165 3.88233 162.862 2.74436 163.857 2.00443C164.842 1.2723 166.091 0.948205 167.32 0.980736C169.753 1.04515 172.325 2.54073 172.648 5.39511L171.689 5.50362C171.438 3.28497 169.424 2.00248 167.294 1.94611C166.242 1.91825 165.215 2.1981 164.433 2.77953Z" fill="#C8AA5D"/>
<path fill-rule="evenodd" clip-rule="evenodd" d="M174.273 2.77953C173.502 3.35314 172.943 4.23835 172.834 5.49123L171.873 5.40755C172.006 3.88233 172.703 2.74436 173.698 2.00443C174.682 1.2723 175.931 0.948205 177.16 0.980736C179.594 1.04515 182.165 2.54073 182.488 5.39511L181.529 5.50362C181.279 3.28497 179.264 2.00248 177.135 1.94611C176.082 1.91825 175.055 2.1981 174.273 2.77953Z" fill="#C8AA5D"/>
<path fill-rule="evenodd" clip-rule="evenodd" d="M184.114 2.77953C183.343 3.35314 182.784 4.23835 182.675 5.49123L181.714 5.40755C181.846 3.88233 182.543 2.74436 183.538 2.00443C184.522 1.2723 185.771 0.948205 187.001 0.980736C189.434 1.04515 192.006 2.54073 192.329 5.39511L191.37 5.50362C191.119 3.28497 189.105 2.00248 186.975 1.94611C185.923 1.91825 184.895 2.1981 184.114 2.77953Z" fill="#C8AA5D"/>
<path fill-rule="evenodd" clip-rule="evenodd" d="M193.954 2.77953C193.183 3.35314 192.624 4.23835 192.515 5.49123L191.554 5.40755C191.686 3.88233 192.384 2.74436 193.378 2.00443C194.363 1.2723 195.612 0.948205 196.841 0.980736C199.275 1.04515 201.846 2.54073 202.169 5.39511L201.21 5.50362C200.959 3.28497 198.945 2.00248 196.815 1.94611C195.763 1.91825 194.736 2.1981 193.954 2.77953Z" fill="#C8AA5D"/>
<path fill-rule="evenodd" clip-rule="evenodd" d="M203.794 2.77953C203.023 3.35314 202.464 4.23835 202.356 5.49123L201.394 5.40755C201.527 3.88233 202.224 2.74436 203.219 2.00443C204.203 1.2723 205.452 0.948205 206.681 0.980736C209.115 1.04515 211.687 2.54073 212.009 5.39511L211.05 5.50362C210.8 3.28497 208.785 2.00248 206.656 1.94611C205.603 1.91825 204.576 2.1981 203.794 2.77953Z" fill="#C8AA5D"/>
<path fill-rule="evenodd" clip-rule="evenodd" d="M213.449 2.77953C212.678 3.35314 212.119 4.23835 212.01 5.49123L211.049 5.40755C211.182 3.88233 211.879 2.74436 212.874 2.00443C213.858 1.2723 215.107 0.948205 216.336 0.980736C218.77 1.04515 221.342 2.54073 221.664 5.39511L220.705 5.50362C220.455 3.28497 218.44 2.00248 216.311 1.94611C215.258 1.91825 214.231 2.1981 213.449 2.77953Z" fill="#C8AA5D"/>
<path fill-rule="evenodd" clip-rule="evenodd" d="M223.112 2.77328C222.337 3.3468 221.774 4.23395 221.665 5.49122L220.704 5.40754C220.837 3.87676 221.539 2.73619 222.539 1.99655C223.529 1.26477 224.784 0.943694 226.017 0.981494L225.988 1.94675C224.931 1.91438 223.899 2.1919 223.112 2.77328Z" fill="#C8AA5D"/>
<path d="M4.83815 6.31814C4.83815 7.38484 3.97414 8.24957 2.90833 8.24957C1.84252 8.24957 0.978516 7.38484 0.978516 6.31814C0.978516 5.25145 1.84252 4.38672 2.90833 4.38672C3.97414 4.38672 4.83815 5.25145 4.83815 6.31814Z" fill="#C8AA5D"/>
<path d="M4.83815 6.31814C4.83815 7.38484 3.97414 8.24957 2.90833 8.24957C1.84252 8.24957 0.978516 7.38484 0.978516 6.31814C0.978516 5.25145 1.84252 4.38672 2.90833 4.38672C3.97414 4.38672 4.83815 5.25145 4.83815 6.31814Z" fill="#C8AA5D"/>
<path d="M8.32704 6.31814C8.32704 7.38484 7.46303 8.24957 6.39722 8.24957C5.33142 8.24957 4.46741 7.38484 4.46741 6.31814C4.46741 5.25145 5.33142 4.38672 6.39722 4.38672C7.46303 4.38672 8.32704 5.25145 8.32704 6.31814Z" fill="#C8AA5D"/>
<path d="M8.32704 6.31814C8.32704 7.38484 7.46303 8.24957 6.39722 8.24957C5.33142 8.24957 4.46741 7.38484 4.46741 6.31814C4.46741 5.25145 5.33142 4.38672 6.39722 4.38672C7.46303 4.38672 8.32704 5.25145 8.32704 6.31814Z" fill="#C8AA5D"/>
<path d="M6.76808 9.06912C6.76808 10.1358 5.90407 11.0005 4.83826 11.0005C3.77246 11.0005 2.90845 10.1358 2.90845 9.06912C2.90845 8.00242 3.77246 7.1377 4.83826 7.1377C5.90407 7.1377 6.76808 8.00242 6.76808 9.06912Z" fill="#C8AA5D"/>
<path d="M6.76808 9.06912C6.76808 10.1358 5.90407 11.0005 4.83826 11.0005C3.77246 11.0005 2.90845 10.1358 2.90845 9.06912C2.90845 8.00242 3.77246 7.1377 4.83826 7.1377C5.90407 7.1377 6.76808 8.00242 6.76808 9.06912Z" fill="#C8AA5D"/>
<path fill-rule="evenodd" clip-rule="evenodd" d="M4.35896 5.50308C4.10967 3.29684 2.11706 2.01667 0 1.94663L0.0318799 0.981445C2.45244 1.06153 4.9971 2.55662 5.31775 5.39456L4.35896 5.50308Z" fill="#C8AA5D"/>
<path d="M14.908 6.31814C14.908 7.38484 14.044 8.24957 12.9782 8.24957C11.9123 8.24957 11.0483 7.38484 11.0483 6.31814C11.0483 5.25145 11.9123 4.38672 12.9782 4.38672C14.044 4.38672 14.908 5.25145 14.908 6.31814Z" fill="#C8AA5D"/>
<path d="M24.7484 6.31814C24.7484 7.38484 23.8844 8.24957 22.8186 8.24957C21.7528 8.24957 20.8888 7.38484 20.8888 6.31814C20.8888 5.25145 21.7528 4.38672 22.8186 4.38672C23.8844 4.38672 24.7484 5.25145 24.7484 6.31814Z" fill="#C8AA5D"/>
<path d="M34.5888 6.31814C34.5888 7.38484 33.7248 8.24957 32.6589 8.24957C31.5931 8.24957 30.7291 7.38484 30.7291 6.31814C30.7291 5.25145 31.5931 4.38672 32.6589 4.38672C33.7248 4.38672 34.5888 5.25145 34.5888 6.31814Z" fill="#C8AA5D"/>
<path d="M44.4291 6.31814C44.4291 7.38484 43.5651 8.24957 42.4993 8.24957C41.4335 8.24957 40.5695 7.38484 40.5695 6.31814C40.5695 5.25145 41.4335 4.38672 42.4993 4.38672C43.5651 4.38672 44.4291 5.25145 44.4291 6.31814Z" fill="#C8AA5D"/>
<path d="M54.2695 6.31814C54.2695 7.38484 53.4055 8.24957 52.3397 8.24957C51.2739 8.24957 50.4099 7.38484 50.4099 6.31814C50.4099 5.25145 51.2739 4.38672 52.3397 4.38672C53.4055 4.38672 54.2695 5.25145 54.2695 6.31814Z" fill="#C8AA5D"/>
<path d="M64.1099 6.31814C64.1099 7.38484 63.2459 8.24957 62.1801 8.24957C61.1143 8.24957 60.2502 7.38484 60.2502 6.31814C60.2502 5.25145 61.1143 4.38672 62.1801 4.38672C63.2459 4.38672 64.1099 5.25145 64.1099 6.31814Z" fill="#C8AA5D"/>
<path d="M73.9501 6.31814C73.9501 7.38484 73.0861 8.24957 72.0203 8.24957C70.9545 8.24957 70.0905 7.38484 70.0905 6.31814C70.0905 5.25145 70.9545 4.38672 72.0203 4.38672C73.0861 4.38672 73.9501 5.25145 73.9501 6.31814Z" fill="#C8AA5D"/>
<path d="M83.7905 6.31814C83.7905 7.38484 82.9265 8.24957 81.8607 8.24957C80.7949 8.24957 79.9309 7.38484 79.9309 6.31814C79.9309 5.25145 80.7949 4.38672 81.8607 4.38672C82.9265 4.38672 83.7905 5.25145 83.7905 6.31814Z" fill="#C8AA5D"/>
<path d="M93.6309 6.31814C93.6309 7.38484 92.7669 8.24957 91.7011 8.24957C90.6352 8.24957 89.7712 7.38484 89.7712 6.31814C89.7712 5.25145 90.6352 4.38672 91.7011 4.38672C92.7669 4.38672 93.6309 5.25145 93.6309 6.31814Z" fill="#C8AA5D"/>
<path d="M103.471 6.31814C103.471 7.38484 102.607 8.24957 101.541 8.24957C100.476 8.24957 99.6116 7.38484 99.6116 6.31814C99.6116 5.25145 100.476 4.38672 101.541 4.38672C102.607 4.38672 103.471 5.25145 103.471 6.31814Z" fill="#C8AA5D"/>
<path d="M113.312 6.31814C113.312 7.38484 112.448 8.24957 111.382 8.24957C110.316 8.24957 109.452 7.38484 109.452 6.31814C109.452 5.25145 110.316 4.38672 111.382 4.38672C112.448 4.38672 113.312 5.25145 113.312 6.31814Z" fill="#C8AA5D"/>
<path d="M123.152 6.31814C123.152 7.38484 122.288 8.24957 121.222 8.24957C120.156 8.24957 119.292 7.38484 119.292 6.31814C119.292 5.25145 120.156 4.38672 121.222 4.38672C122.288 4.38672 123.152 5.25145 123.152 6.31814Z" fill="#C8AA5D"/>
<path d="M132.992 6.31814C132.992 7.38484 132.128 8.24957 131.063 8.24957C129.997 8.24957 129.133 7.38484 129.133 6.31814C129.133 5.25145 129.997 4.38672 131.063 4.38672C132.128 4.38672 132.992 5.25145 132.992 6.31814Z" fill="#C8AA5D"/>
<path d="M142.833 6.31814C142.833 7.38484 141.969 8.24957 140.903 8.24957C139.837 8.24957 138.973 7.38484 138.973 6.31814C138.973 5.25145 139.837 4.38672 140.903 4.38672C141.969 4.38672 142.833 5.25145 142.833 6.31814Z" fill="#C8AA5D"/>
<path d="M152.673 6.31814C152.673 7.38484 151.809 8.24957 150.743 8.24957C149.677 8.24957 148.813 7.38484 148.813 6.31814C148.813 5.25145 149.677 4.38672 150.743 4.38672C151.809 4.38672 152.673 5.25145 152.673 6.31814Z" fill="#C8AA5D"/>
<path d="M162.513 6.31814C162.513 7.38484 161.649 8.24957 160.584 8.24957C159.518 8.24957 158.654 7.38484 158.654 6.31814C158.654 5.25145 159.518 4.38672 160.584 4.38672C161.649 4.38672 162.513 5.25145 162.513 6.31814Z" fill="#C8AA5D"/>
<path d="M172.354 6.31814C172.354 7.38484 171.49 8.24957 170.424 8.24957C169.358 8.24957 168.494 7.38484 168.494 6.31814C168.494 5.25145 169.358 4.38672 170.424 4.38672C171.49 4.38672 172.354 5.25145 172.354 6.31814Z" fill="#C8AA5D"/>
<path d="M182.194 6.31814C182.194 7.38484 181.33 8.24957 180.264 8.24957C179.198 8.24957 178.334 7.38484 178.334 6.31814C178.334 5.25145 179.198 4.38672 180.264 4.38672C181.33 4.38672 182.194 5.25145 182.194 6.31814Z" fill="#C8AA5D"/>
<path d="M192.035 6.31814C192.035 7.38484 191.171 8.24957 190.105 8.24957C189.039 8.24957 188.175 7.38484 188.175 6.31814C188.175 5.25145 189.039 4.38672 190.105 4.38672C191.171 4.38672 192.035 5.25145 192.035 6.31814Z" fill="#C8AA5D"/>
<path d="M201.875 6.31814C201.875 7.38484 201.011 8.24957 199.945 8.24957C198.879 8.24957 198.015 7.38484 198.015 6.31814C198.015 5.25145 198.879 4.38672 199.945 4.38672C201.011 4.38672 201.875 5.25145 201.875 6.31814Z" fill="#C8AA5D"/>
<path d="M211.715 6.31814C211.715 7.38484 210.851 8.24957 209.785 8.24957C208.72 8.24957 207.856 7.38484 207.856 6.31814C207.856 5.25145 208.72 4.38672 209.785 4.38672C210.851 4.38672 211.715 5.25145 211.715 6.31814Z" fill="#C8AA5D"/>
<path d="M221.37 6.31814C221.37 7.38484 220.506 8.24957 219.44 8.24957C218.374 8.24957 217.51 7.38484 217.51 6.31814C217.51 5.25145 218.374 4.38672 219.44 4.38672C220.506 4.38672 221.37 5.25145 221.37 6.31814Z" fill="#C8AA5D"/>
<path d="M18.3964 6.31814C18.3964 7.38484 17.5324 8.24957 16.4666 8.24957C15.4008 8.24957 14.5367 7.38484 14.5367 6.31814C14.5367 5.25145 15.4008 4.38672 16.4666 4.38672C17.5324 4.38672 18.3964 5.25145 18.3964 6.31814Z" fill="#C8AA5D"/>
<path d="M28.2367 6.31814C28.2367 7.38484 27.3727 8.24957 26.3069 8.24957C25.2411 8.24957 24.3771 7.38484 24.3771 6.31814C24.3771 5.25145 25.2411 4.38672 26.3069 4.38672C27.3727 4.38672 28.2367 5.25145 28.2367 6.31814Z" fill="#C8AA5D"/>
<path d="M38.0772 6.31814C38.0772 7.38484 37.2132 8.24957 36.1473 8.24957C35.0815 8.24957 34.2175 7.38484 34.2175 6.31814C34.2175 5.25145 35.0815 4.38672 36.1473 4.38672C37.2132 4.38672 38.0772 5.25145 38.0772 6.31814Z" fill="#C8AA5D"/>
<path d="M47.9175 6.31814C47.9175 7.38484 47.0535 8.24957 45.9877 8.24957C44.9219 8.24957 44.0579 7.38484 44.0579 6.31814C44.0579 5.25145 44.9219 4.38672 45.9877 4.38672C47.0535 4.38672 47.9175 5.25145 47.9175 6.31814Z" fill="#C8AA5D"/>
<path d="M57.7578 6.31814C57.7578 7.38484 56.8938 8.24957 55.828 8.24957C54.7622 8.24957 53.8982 7.38484 53.8982 6.31814C53.8982 5.25145 54.7622 4.38672 55.828 4.38672C56.8938 4.38672 57.7578 5.25145 57.7578 6.31814Z" fill="#C8AA5D"/>
<path d="M67.5983 6.31814C67.5983 7.38484 66.7343 8.24957 65.6685 8.24957C64.6027 8.24957 63.7386 7.38484 63.7386 6.31814C63.7386 5.25145 64.6027 4.38672 65.6685 4.38672C66.7343 4.38672 67.5983 5.25145 67.5983 6.31814Z" fill="#C8AA5D"/>
<path d="M77.4385 6.31814C77.4385 7.38484 76.5745 8.24957 75.5087 8.24957C74.4429 8.24957 73.5789 7.38484 73.5789 6.31814C73.5789 5.25145 74.4429 4.38672 75.5087 4.38672C76.5745 4.38672 77.4385 5.25145 77.4385 6.31814Z" fill="#C8AA5D"/>
<path d="M87.2788 6.31814C87.2788 7.38484 86.4148 8.24957 85.349 8.24957C84.2832 8.24957 83.4192 7.38484 83.4192 6.31814C83.4192 5.25145 84.2832 4.38672 85.349 4.38672C86.4148 4.38672 87.2788 5.25145 87.2788 6.31814Z" fill="#C8AA5D"/>
<path d="M97.1192 6.31814C97.1192 7.38484 96.2551 8.24957 95.1893 8.24957C94.1235 8.24957 93.2595 7.38484 93.2595 6.31814C93.2595 5.25145 94.1235 4.38672 95.1893 4.38672C96.2551 4.38672 97.1192 5.25145 97.1192 6.31814Z" fill="#C8AA5D"/>
<path d="M106.96 6.31814C106.96 7.38484 106.096 8.24957 105.03 8.24957C103.964 8.24957 103.1 7.38484 103.1 6.31814C103.1 5.25145 103.964 4.38672 105.03 4.38672C106.096 4.38672 106.96 5.25145 106.96 6.31814Z" fill="#C8AA5D"/>
<path d="M116.8 6.31814C116.8 7.38484 115.936 8.24957 114.87 8.24957C113.804 8.24957 112.94 7.38484 112.94 6.31814C112.94 5.25145 113.804 4.38672 114.87 4.38672C115.936 4.38672 116.8 5.25145 116.8 6.31814Z" fill="#C8AA5D"/>
<path d="M126.64 6.31814C126.64 7.38484 125.776 8.24957 124.71 8.24957C123.645 8.24957 122.781 7.38484 122.781 6.31814C122.781 5.25145 123.645 4.38672 124.71 4.38672C125.776 4.38672 126.64 5.25145 126.64 6.31814Z" fill="#C8AA5D"/>
<path d="M136.481 6.31814C136.481 7.38484 135.617 8.24957 134.551 8.24957C133.485 8.24957 132.621 7.38484 132.621 6.31814C132.621 5.25145 133.485 4.38672 134.551 4.38672C135.617 4.38672 136.481 5.25145 136.481 6.31814Z" fill="#C8AA5D"/>
<path d="M146.321 6.31814C146.321 7.38484 145.457 8.24957 144.391 8.24957C143.325 8.24957 142.461 7.38484 142.461 6.31814C142.461 5.25145 143.325 4.38672 144.391 4.38672C145.457 4.38672 146.321 5.25145 146.321 6.31814Z" fill="#C8AA5D"/>
<path d="M156.161 6.31814C156.161 7.38484 155.297 8.24957 154.232 8.24957C153.166 8.24957 152.302 7.38484 152.302 6.31814C152.302 5.25145 153.166 4.38672 154.232 4.38672C155.297 4.38672 156.161 5.25145 156.161 6.31814Z" fill="#C8AA5D"/>
<path d="M166.002 6.31814C166.002 7.38484 165.138 8.24957 164.072 8.24957C163.006 8.24957 162.142 7.38484 162.142 6.31814C162.142 5.25145 163.006 4.38672 164.072 4.38672C165.138 4.38672 166.002 5.25145 166.002 6.31814Z" fill="#C8AA5D"/>
<path d="M175.842 6.31814C175.842 7.38484 174.978 8.24957 173.912 8.24957C172.847 8.24957 171.983 7.38484 171.983 6.31814C171.983 5.25145 172.847 4.38672 173.912 4.38672C174.978 4.38672 175.842 5.25145 175.842 6.31814Z" fill="#C8AA5D"/>
<path d="M185.683 6.31814C185.683 7.38484 184.819 8.24957 183.753 8.24957C182.687 8.24957 181.823 7.38484 181.823 6.31814C181.823 5.25145 182.687 4.38672 183.753 4.38672C184.819 4.38672 185.683 5.25145 185.683 6.31814Z" fill="#C8AA5D"/>
<path d="M195.523 6.31814C195.523 7.38484 194.659 8.24957 193.593 8.24957C192.527 8.24957 191.663 7.38484 191.663 6.31814C191.663 5.25145 192.527 4.38672 193.593 4.38672C194.659 4.38672 195.523 5.25145 195.523 6.31814Z" fill="#C8AA5D"/>
<path d="M215.204 6.31814C215.204 7.38484 214.34 8.24957 213.274 8.24957C212.208 8.24957 211.344 7.38484 211.344 6.31814C211.344 5.25145 212.208 4.38672 213.274 4.38672C214.34 4.38672 215.204 5.25145 215.204 6.31814Z" fill="#C8AA5D"/>
<path d="M205.363 6.31814C205.363 7.38484 204.499 8.24957 203.433 8.24957C202.368 8.24957 201.504 7.38484 201.504 6.31814C201.504 5.25145 202.368 4.38672 203.433 4.38672C204.499 4.38672 205.363 5.25145 205.363 6.31814Z" fill="#C8AA5D"/>
<path d="M224.859 6.31814C224.859 7.38484 223.995 8.24957 222.929 8.24957C221.863 8.24957 220.999 7.38484 220.999 6.31814C220.999 5.25145 221.863 4.38672 222.929 4.38672C223.995 4.38672 224.859 5.25145 224.859 6.31814Z" fill="#C8AA5D"/>
<path d="M16.8378 9.06912C16.8378 10.1358 15.9738 11.0005 14.908 11.0005C13.8422 11.0005 12.9781 10.1358 12.9781 9.06912C12.9781 8.00242 13.8422 7.1377 14.908 7.1377C15.9738 7.1377 16.8378 8.00242 16.8378 9.06912Z" fill="#C8AA5D"/>
<path d="M26.6782 9.06912C26.6782 10.1358 25.8142 11.0005 24.7484 11.0005C23.6826 11.0005 22.8186 10.1358 22.8186 9.06912C22.8186 8.00242 23.6826 7.1377 24.7484 7.1377C25.8142 7.1377 26.6782 8.00242 26.6782 9.06912Z" fill="#C8AA5D"/>
<path d="M36.5186 9.06912C36.5186 10.1358 35.6546 11.0005 34.5888 11.0005C33.5229 11.0005 32.6589 10.1358 32.6589 9.06912C32.6589 8.00242 33.5229 7.1377 34.5888 7.1377C35.6546 7.1377 36.5186 8.00242 36.5186 9.06912Z" fill="#C8AA5D"/>
<path d="M46.3589 9.06912C46.3589 10.1358 45.4949 11.0005 44.4291 11.0005C43.3633 11.0005 42.4993 10.1358 42.4993 9.06912C42.4993 8.00242 43.3633 7.1377 44.4291 7.1377C45.4949 7.1377 46.3589 8.00242 46.3589 9.06912Z" fill="#C8AA5D"/>
<path d="M56.1994 9.06912C56.1994 10.1358 55.3353 11.0005 54.2695 11.0005C53.2037 11.0005 52.3397 10.1358 52.3397 9.06912C52.3397 8.00242 53.2037 7.1377 54.2695 7.1377C55.3353 7.1377 56.1994 8.00242 56.1994 9.06912Z" fill="#C8AA5D"/>
<path d="M66.0397 9.06912C66.0397 10.1358 65.1757 11.0005 64.1099 11.0005C63.0441 11.0005 62.1801 10.1358 62.1801 9.06912C62.1801 8.00242 63.0441 7.1377 64.1099 7.1377C65.1757 7.1377 66.0397 8.00242 66.0397 9.06912Z" fill="#C8AA5D"/>
<path d="M75.8799 9.06912C75.8799 10.1358 75.0159 11.0005 73.9501 11.0005C72.8843 11.0005 72.0203 10.1358 72.0203 9.06912C72.0203 8.00242 72.8843 7.1377 73.9501 7.1377C75.0159 7.1377 75.8799 8.00242 75.8799 9.06912Z" fill="#C8AA5D"/>
<path d="M85.7204 9.06912C85.7204 10.1358 84.8563 11.0005 83.7905 11.0005C82.7247 11.0005 81.8607 10.1358 81.8607 9.06912C81.8607 8.00242 82.7247 7.1377 83.7905 7.1377C84.8563 7.1377 85.7204 8.00242 85.7204 9.06912Z" fill="#C8AA5D"/>
<path d="M95.5607 9.06912C95.5607 10.1358 94.6967 11.0005 93.6309 11.0005C92.5651 11.0005 91.701 10.1358 91.701 9.06912C91.701 8.00242 92.5651 7.1377 93.6309 7.1377C94.6967 7.1377 95.5607 8.00242 95.5607 9.06912Z" fill="#C8AA5D"/>
<path d="M105.401 9.06912C105.401 10.1358 104.537 11.0005 103.471 11.0005C102.405 11.0005 101.541 10.1358 101.541 9.06912C101.541 8.00242 102.405 7.1377 103.471 7.1377C104.537 7.1377 105.401 8.00242 105.401 9.06912Z" fill="#C8AA5D"/>
<path d="M115.241 9.06912C115.241 10.1358 114.377 11.0005 113.312 11.0005C112.246 11.0005 111.382 10.1358 111.382 9.06912C111.382 8.00242 112.246 7.1377 113.312 7.1377C114.377 7.1377 115.241 8.00242 115.241 9.06912Z" fill="#C8AA5D"/>
<path d="M125.082 9.06912C125.082 10.1358 124.218 11.0005 123.152 11.0005C122.086 11.0005 121.222 10.1358 121.222 9.06912C121.222 8.00242 122.086 7.1377 123.152 7.1377C124.218 7.1377 125.082 8.00242 125.082 9.06912Z" fill="#C8AA5D"/>
<path d="M134.922 9.06912C134.922 10.1358 134.058 11.0005 132.992 11.0005C131.927 11.0005 131.062 10.1358 131.062 9.06912C131.062 8.00242 131.927 7.1377 132.992 7.1377C134.058 7.1377 134.922 8.00242 134.922 9.06912Z" fill="#C8AA5D"/>
<path d="M144.762 9.06912C144.762 10.1358 143.898 11.0005 142.833 11.0005C141.767 11.0005 140.903 10.1358 140.903 9.06912C140.903 8.00242 141.767 7.1377 142.833 7.1377C143.898 7.1377 144.762 8.00242 144.762 9.06912Z" fill="#C8AA5D"/>
<path d="M154.603 9.06912C154.603 10.1358 153.739 11.0005 152.673 11.0005C151.607 11.0005 150.743 10.1358 150.743 9.06912C150.743 8.00242 151.607 7.1377 152.673 7.1377C153.739 7.1377 154.603 8.00242 154.603 9.06912Z" fill="#C8AA5D"/>
<path d="M164.443 9.06912C164.443 10.1358 163.579 11.0005 162.513 11.0005C161.448 11.0005 160.584 10.1358 160.584 9.06912C160.584 8.00242 161.448 7.1377 162.513 7.1377C163.579 7.1377 164.443 8.00242 164.443 9.06912Z" fill="#C8AA5D"/>
<path d="M174.284 9.06912C174.284 10.1358 173.42 11.0005 172.354 11.0005C171.288 11.0005 170.424 10.1358 170.424 9.06912C170.424 8.00242 171.288 7.1377 172.354 7.1377C173.42 7.1377 174.284 8.00242 174.284 9.06912Z" fill="#C8AA5D"/>
<path d="M184.124 9.06912C184.124 10.1358 183.26 11.0005 182.194 11.0005C181.128 11.0005 180.264 10.1358 180.264 9.06912C180.264 8.00242 181.128 7.1377 182.194 7.1377C183.26 7.1377 184.124 8.00242 184.124 9.06912Z" fill="#C8AA5D"/>
<path d="M213.645 9.06912C213.645 10.1358 212.781 11.0005 211.715 11.0005C210.649 11.0005 209.785 10.1358 209.785 9.06912C209.785 8.00242 210.649 7.1377 211.715 7.1377C212.781 7.1377 213.645 8.00242 213.645 9.06912Z" fill="#C8AA5D"/>
<path d="M193.964 9.06912C193.964 10.1358 193.1 11.0005 192.035 11.0005C190.969 11.0005 190.105 10.1358 190.105 9.06912C190.105 8.00242 190.969 7.1377 192.035 7.1377C193.1 7.1377 193.964 8.00242 193.964 9.06912Z" fill="#C8AA5D"/>
<path d="M203.805 9.06912C203.805 10.1358 202.941 11.0005 201.875 11.0005C200.809 11.0005 199.945 10.1358 199.945 9.06912C199.945 8.00242 200.809 7.1377 201.875 7.1377C202.941 7.1377 203.805 8.00242 203.805 9.06912Z" fill="#C8AA5D"/>
<path d="M223.3 9.06912C223.3 10.1358 222.436 11.0005 221.37 11.0005C220.304 11.0005 219.44 10.1358 219.44 9.06912C219.44 8.00242 220.304 7.1377 221.37 7.1377C222.436 7.1377 223.3 8.00242 223.3 9.06912Z" fill="#C8AA5D"/>
</svg>
