<svg viewBox="0 0 554 404" xmlns="http://www.w3.org/2000/svg"><path d="M553.5 254.9v-.3c.1-.7.8-1.3.4-1.9 0 .4-.1.9-.3 1l-.1-.3-.2.8.2.1v.3l-.1-.1-.1.3-.9.8c.1.3.2.6 0 .8-.2-.4-.1-1-.4-.8.2-.7 0-1.1.1-1.8.3 0 .6.7.8.2h.1v-.9c-.1-.2-.2-.2-.2-.5-.1.3 0 1.2-.4 1 0-.5-.3-.4-.3-1.1l-.2-.2-.6 1.3h.1l.1 1.5-.3.6c-.3-1-.4-2.5-.8-3.5.1-.7.2-1 0-1.6-.2 0-.1.7 0 1.2-.2-.4-.2 0-.3.4-.4.3-.3-.2-.8-.2l-.1-.4-.1.1c0-.5-.2-.5-.1-1 .4.1.3-1 .7-1v.4l.2-.6-.1-.1c.1-1 .7-1 .7-2.3-.1-.5-.1.5-.4.4v-1h-.1l-.1-.1v-1.1h.1l-.1-.8c0-.2.1-.5.3-.4l.2.8v-.3c.1-1.8-.2-3.5-.2-5.9 0 .4-.2.7-.3 1-.3-.3-.3-1.5-.5-1.8l.1-1.2c0-.4-.2-.7-.4-.6v-.5l.2-.4V234c-.2.2-.3-.8-.6-1l.1-1.2c.5.5.3-.3.4-.8.1.8 1-1.4 1.2-.3.1 0 .2-.3.1-.8 0-.6-.1.2-.3 0v-1h.4c.6-2.4-.8-2.9-.9-4.7-.4.2-.3-.1-.7-.2-.1-.9-.3-2.8 0-3.6l.3.4-.1.3.3-.6-.1.1v-.8c-.2-.4-.6-.6-.5-2 .2.4.2 0 .4-.3v.4-.5l-.1-.3v.3c-.2.2-.3-.9-.5-.3l-.1-1v-.4l.1-.3.1.1v-.4.1-1.5c0-.6-.3.3-.5 0-.2 0-.1.8-.3 1.1-.5.2-.5-1.7-.9-1.6l-.2-1.9v-.4c0 .2-.1.3-.2.3l.1.1-.1.8-.1-.1c-.2-.2-.2-.4-.2-.8.2 0 .2-.4.4-.3 0-.8.6-.4.5-1.4 0-.8-.2-1-.3-.6v-1.2c-.4-.2-.2 1.2-.5 1 0-1-.1-.3-.4-.6 0-.4 0-2-.1-1.2-.2-.3 0-1 .1-1.3-.1 0 .2-.6-.1-.4.1-.5.4-.4.4-1 .2.2.1 1.5 0 1.5v.5c.4 0 .2-1.5.4-2 .3-.1.3.7.5.7v1.8c.2-.5.6-1 .7 0 .2 0 .1-.7.3-.8.3 0 .1 1.6.6 1.2-.3 1.2.2 1.6.3 2.4.1-.7 0-1.8.4-2.4.2 0 .4.5.2.8.4.1.3-.5.6-.1v1c.1-.2.3-.4.3-1-.2.1 0-1.8-.4-1.9 0-.8.2-.6 0-1.4.4.1.6-.3.6-1 .2.2.3.6.3 1.6-.1 0-.2 0-.2.6.2.2.1-.7.3-.2v.3l.4-.5h-.1c0-1.2.5-1.2.7-1.9l.1-1c0-.4-.4-.4-.4 0-.2-1 .3-1.6.5-1.8l-.4-1c-.5 0-.3 1.7-.5 2.3-.4-.1-.4-1.2-.4-1.8 0-.5-.1.4-.3.2.2-1.5.7-2.1.7-3.5.4.5.7 1.2.9 2.4l.2-.4.2-1.1h-.1V196c0-.8.4-1 .5-2v-.1c-.2.1-.2.6-.4.5v-1.4c0 1-.2 2.1-.4 3-.3-.3-.2-2-.3-2.8-.3.2-.3-.4-.5-.6 0-.8.4-.6.4-.7.2 0 .2-.8.4-.8l-.2-.3.2-.8-.1-.5c0-.1-.1-.3-.3-.3.2.7-.8 2.6-.7.3l.6-.4c-.1-.1-.2-.2-.2 0-.1-.2 0-.7.2-.9h-.1c-.4 0-.7 1.8-.5 2 0 .4-.3 0-.3-.1-.2 0-.1.5-.2.6-.6-.2-1-.6-1.5-.4 0 .3-.2.6-.3.8-.2-.1-.3-.4-.3-.8s.3-.6 0-1.3v-1.3l-.2-.8-.2.2v-.2l-.2-.1.1-1v-.2.1c-.3.3-.8 1-1 .3-.2.3-.2.9-.5.6l-.1-.2v.2l-.2-.1v-1.7c.4 0 .6 0 .8-.5l-.3-.6v-1c.3.4.5.2.5.8.4 0 0-1.4.4-1.4v-.6.4c0-.3.1-.5.3-.5v1c0 .4.3.9.4.7v-.9.6l.1-.7c.3 0 .3.4.2.8h.2c-.2-.5-.2-1.3 0-1.5-.1-.3-.4-.3-.4-1 .4 0 .2-1.1.5-1.4.3.2 0 .7 0 1.3l.2.3h.4v.3c0-.2.2-.2.2-.3v-.1c-.2-.7 0-1.2.1-1.6l.3-1c-.1.4-.4-.2-.4-.8.4.3.4-1.4 0-1l.1-.3-.1.4h.1v.5l-.2.1c0 .4.1.4 0 .8h-.2v-.3l-.2.1v-1.2h-.2v.2c0 .1-.1.4-.4.3l.1-.3-.1.1c.2-.6 0-1.1.1-1.8.1-.2.3 0 .3.4.3 0 0-1.3.3-1.3l.1.2v-.4c-.3-.2-.3-.3-.6 0v-.6l-.1-.5.1.2v.1c.2-.2.3-.6.2-1 .6.3.6-1.2.9-1.8v-.3c-.2.4-.3.1-.5-.1v-.3l-.2.1v-.6l.1.1.1-.2c0-.3.3-.2.3-.6.2 0 .2.3.4.2v.2l.1-.4.3.4v-.2c.2 0 .3-.2.4-.4v.2l.1-.2-.3.2v-.8l-.2-.8-.1 1.1c-.2-.1-.2-.9-.5-.8v-1c-.3-.5-.2-2.7.2-3v.3l.1.2h.2l.1 1.3.4-1.1v.8c-.1.3-.3.6-.5.3v1.3c.3 0 .3.3.4.7l.3-.3c.2-.5.5-.9.5-1.7h-.1v-.3h-.1c-.1-.2-.3-.6-.1-1-.2.3-.2 0-.4 0v-.2.3c0 .3-.1.5-.3.4v-1l-.2.1v-.3h-.2v-.3h-.2v-.4l.1-.2-.1-.3v.2l-.4.5.1 1.2h.1c.3.3 0 .8 0 1.2v-.1l-.3.6c-.2-.2 0-.5 0-1h-.3v-.6h.3c0-.2 0-.3-.2-.3v-1h.2v-.3a.7.7 0 0 0-.6-.2v-.3l-.2.1c-.1-1.3-.1-2.5-.8-3-.2-.2-.2.4-.4.3 0-.9-.5-.5-.5-1.3.2 0 .4-.4.6-.2v.2c.3.1.5-.4.3-.4l.1-.3h-.1v-.2c.2 0 .1-.3.3 0l.1-2.5v-.3l-.1-.2c.1-.5 0-.6-.2-.7-.3.6-.6-.2-.9 0 0-.2.1-.4.3-.4l-.5-1.2c.4-.7 0-2.2.1-3.2 0-.2 0-.2-.2-.2.1 0 .4-.7.3-1.2h.1v-.1c.2 0 .2.2.2.4.2-.3.6-.5.8 0 0 .2 0 .6-.3.5 0 .2.2.3.3.4.2-.1.1-.6.1-1.2h.1l-.2-.6v.2l-.4.2c-.3-.7-.3-1.9 0-2.4-.3-.1-.4-1.6-.7-1.3 0-.6.6-1 .6-2h.1c.2 0 .2.4.3.7.2-1-.4-1.7-.4-2.5h-.8c0-.9.3-1 .5-1.3-.2-.1-.4-.4-.7-.4-.2-.4-.2-1-.4-1.2 0-.4.3-.8.4-.5l-.1.2.3-.3-.1-.1c0-.2.3-.2.4-.4v-.2c.3.1.3-.2.4-.5.3-.3.3.3.5.3v1c0 .4.2-.5.4-.4 0-1 0-1.3-.3-1.6 0-1 0-3.2-1-3v-.7c.2 0 .5-.6.6-1.2.3 0 .3.3.4-.2l.1.1v-.7h-.1v-.3l.1.2.3-.2v-.1c.1-.2-.2-.7-.2-.3-.3-.8 0-2-.5-2 .2-.2.2-.5.3-.9l-.6-.3c.1-.6.2-1.1.6-1.2V121c-.3-.2-.2.5-.5.4-.2-.3 0-.6 0-1.2.3.1.4-.4.7-.4v.4c.3 0 .3-.4.5-.5v-.2c-.1.1-.2 0-.3-.1v-.8h.4v.8c.3-.1.3-.8.5-1-.2 0-.3-.3-.2-1.1-.5-.1-.6.4-1 .5l.1.3v.2-.5h-.3c.2-.8 0-1.6-.3-1.7V115.5c.2 0 .3-.2.5-.3v-.6c-.2-.2-.2-.5-.5-.4 0-1.4.6-1.5 1.2-2v-.5c-.2 0-.5 0-.6.3-.2-.2 0-.3 0-.7h-.2v-.3c0-.5.4-.4.4-.8l.2.4v-1.4c.2 0 .1-.3.2-.4v-.5.2c-.2.3-.6.5-.5 1.3-.2-.3-.2-.5-.5-.3 0-.4 0-1-.5-.9 0-.5.2-.5.3-.9 0-.3-.4 0-.5-.1 0-.4-.1-.5-.3-.6.1-.6.4-1 .7-1.3l.1.9c.2 0 .1-.3.1-.4.2 0 .2.6.2 1l.3-.1c.2-.4.6-.4.4-1.3 0-.2-.2-.2-.3-.2l-.1-.2v.5l-.3-.1.2-.3c-.1-.2 0-.4 0-.8-.2.4-.4.4-.8.4v-.6c.3-.3.3 0 .5-.2-.1-.6-.6-1-.3-1.7h.2v-.3h-.2c-.3-.5-.4.7-.7.5 0-.7-.3-1.8 0-2.5v.2h.1c.3.1.2-.5.5-.4 0 .4.3.4.3 1l.3-.4c0-.4-.5-.7-.3-1.3h.2l-.1-.2V99c-.3-.7-.7-1.5-.5-2.7h.1V94c0-.4 0 .3-.2.1-.2-1.6.8-1.1.9-2.3l.2.1v-.3c-.2-.5-.2.5-.5 0-.1.1 0 .7-.3.6V92v.1l-.2-.4c.3-.5 0-2 .5-1.8v-.4l.2.1V88c0-.3-.2-.4 0-.6.4.2.4-.6.7-.6 0 .2.1.2.3.2v1.2l.1-.2.1.2.1-.5c-.2-.1 0-.6 0-1-.2-.3-.6 0-.5-.7h.2v-.2l.4-1c.3 0 .1.6.5.5-.3-.8 0-1.2-.1-1.9-.2 1-1 1-.8 2.3h-.2v.2c-.4.3-.4-1-.3-1.6-.3 0-.4.6-.6.7-.2-.1 0-1.3-.1-2 .2-.2.6 0 .7-.5.2.2.2.6.5.4 0 0 0-.3.3-.3-.2-.2-.2-.6-.2-1 0-.2-.1-.5-.3-.5l-.1-1.6v-.4h-.1l-.1-.5.1-.1v-.3c.2-.2.4.8.6.8l-.2.7.2-.6c.3.1.5 0 .6-.4v.3l.2-.1c.2 0 0 .6 0 .7 0 .2.1.3.3.3v.3l.3-.4v-.2c.1-.2.5-.5.5.3.1.1.1-.1.2-.1v.1l.3-1-.1.1c-.1-1.1.6-1.5.4-2.3v-.4c0-.7.4-.7.6-1.2h.1V75c.1-.5.8-.9.4-1.3 0 .3-.1.7-.3.7v-.2l-.3.6h.2v.2h-.1v.2l-1 .5c.1.3.2.4 0 .6-.2-.2-.1-.7-.4-.6.2-.4.1-.8.2-1.3.2 0 .5.6.7.2h.2V74l-.2-.1-.1-.3c-.1.2 0 .8-.4.7 0-.4-.2-.3-.2-.9l-.3-.2-.6 1 .2-.2v1.3l-.2.4c-.4-.8-.5-1.8-.9-2.5.2-.6.2-.8 0-1.3-.2.1-.1.6 0 1-.2-.4-.2 0-.3.3-.4.2-.3-.2-.8-.2v-.2h-.2V72c.3 0 .2-.7.6-.7v.2l.2-.4h-.1c.1-.8.7-.7.8-1.7-.2-.4-.2.4-.5.3V69h-.2v-.9l.1.1v-.6c0-.1 0-.4.2-.3l.2.7v-.3c.2-1.4-.2-2.6-.2-4.3 0 .4-.2.5-.3.8-.2-.4-.2-1.2-.5-1.3l.1-1c0-.2-.2-.4-.4-.3V61.3l.2-.4V60c-.2.2-.3-.5-.5-.7v-.9c.5.4.3-.1.4-.5.1.5 1-1 1.2-.2.2 0 .2-.2.2-.6-.1-.4-.2.2-.4 0v-.7h.4c.6-1.7-.7-2-.9-3.4-.4.2-.3 0-.7-.1-.1-.7-.2-2 0-2.7l.3.3v.3l.2-.5-.1.1V50c-.2-.3-.6-.4-.4-1.5 0 .3 0 0 .3-.2v.3l.1-.3-.2-.3v.3c-.2.1-.3-.7-.5-.2l-.1-.7.1-.1v-.4h.1v-.3.1-1c0-.5-.3.1-.5 0-.2 0-.1.5-.2.7-.6.2-.6-1.2-1-1.2l-.2-1.3v-.3l-.2.2.1.1v.6l-.2-.1v-.1l-.1-.6c.1.1.1-.2.3-.1.1-.6.6-.3.6-1-.1-.6-.2-.7-.4-.5.2-.3-.1-.4 0-.9-.4-.1-.2 1-.5.8 0-.7-.1-.3-.4-.4v-1c-.3-.2 0-.7 0-1l.1.3v2c.3 0 .1-1 .4-1.3.3-.2.2.5.5.4v1.3c.2-.4.6-.7.7 0 .1 0 0-.6.3-.6.3.1 0 1.1.5 1-.3.7.3 1 .4 1.7 0-.5 0-1.3.3-1.8.2 0 .4.3.3.6.4 0 .3-.4.6-.2 0 .4-.2.5 0 .7.1-.1.3-.3.3-.7-.3 0 0-1.3-.5-1.3 0-.6.3-.5.1-1 .4.1.5-.2.5-.8.2.3.4.5.4 1.3-.2-.1-.2 0-.2.4.2 0 0-.6.3-.2v.2l.4-.3h-.2c0-1 .5-1 .7-1.4.1-.1 0-.7.2-.7 0-.2-.4-.2-.4 0-.3-.6.2-1.1.5-1.3l-.5-.7c-.5 0-.3 1.3-.5 1.8-.4-.2-.3-1-.3-1.3 0-.4-.2.2-.4.1.2-1 .7-1.5.8-2.5.4.4.7 1 .8 1.8.2 0 .2-.2.3-.3l.1-.8v-1.3h-.1c.1-.6.5-.7.6-1.5V33v.2c-.1 0-.1.4-.4.3l.2-1.2c.1.1.2.1.3.4l.1.2h.1v.3c.4.2.3-.4.4-.5v.2-1.3l-.1.3c-.3-.1-.5 0-.7.1v-1.8c-.3.4-.3 0-.6.3-.2-.3-.2-.5-.2-1-.2-.4-.4-.2-.6-.6l.3-.8c.3.5.4.2.6-.1v1.3l.1-.2h.1l.2-.8h-.2v-.5c.3.1.2-.6.4-.9 0-.3-.2-.3-.3-.5 0-.5.2-.8.5-.6-.2-.8-.1-1.2-.1-2.2h-.3c-.1.3 0 1-.2 1-.2.1-.2-.3-.3-.3v-.4c0-1-.4-1.2 0-1.5v-1c-.2-.7-1.2.5-1.4 0V21l-.1-.2c.2 0 .3-.5.4-1 .2.2.2.6.4.6.5-1 0-1.6 0-3.2-.1.3-.4.4-.4.9-.3.2-.3-.2-.4-.3l-.1 1h-.2v.2c-.2 0-.3 0-.3-.4-.1.2-.3.1-.5.1 0-1 .2-1.6.5-1.4l-.1-.3v-.2c.2-.5.6-.8.4-1.4.4 0 0-.4.5-.2v.2l.3-.4h-.1v-.4c0-.5-.1-.1-.3-.1-.2-1.4 1.1-1.3.9-2.8l.1.1-.1-.7V11l.1-.3V10l-.1.3c-.1-.5-.4-.6-.8-.7v1c-.2.3-.3-.2-.4.1h-.1v.3c.2 0 .2.2.2.4l.1.2.2-.3c0-.1 0-.3.1-.2V11v1.8l-.4-.2V14c-.2-.1-.2-.7-.5-.6V11c0 .2 0 0-.2 0l-.1-.7c0 .6 0 1.4-.2 1.7-.4-.2.2-1.3-.3-1.3 0-.2.1-.4 0-.8l.2.1-.1-.2.1-.2v.2l.2-.1-.2-.6c-.2 0-.3.5-.6.4l.1.4c-.2 0 0 .7-.1 1l-.2-.6v-.8c.1.3 0-.2 0-.2l.1-.5-.1-.3c0-.3 0 0 .1-.2v-.9c-.2 0-.2.4-.3.4h-.1c-.2-.2 0-.8-.2-1v-.2c0-.6-.1-.5-.3-.5l-.1-1 .1-.3c-.2 0-.3-.2-.4-.7 0 .1 0-.1-.2 0l.1-.8h-.1v-.1L547 3c-.2.1-.2 0-.2-.1-.1 0 0 .5 0 .4 0 .6 0 1-.2 1 .2-.5-.1-1.3-.2-1.7v-.2c-.2-.2-.3 0-.5 0l-.1-.6c0-.3 0-.7-.3-.8l.2-.1V.4c0-.2-.2 0-.2-.2V0l-.1.2v.1c0 .3-.2 0-.2.2 0 .1.2 0 .1.4V1.7c0 .2-.3 0-.4 0V1v.1l-.2.7c0 .3.2.6.3.4v.4c0 .1 0 0 0 0 0 .1 0 .4.2.2v.3c-.1.4-.4-.3-.6 0l-.1-.5v.7l-.1.3c-.1-.3-.3 0-.4.1-.2-.6 0-1.3.2-1.7-.2 0-.4-.3-.4-1l-.1.3.1.1c-.2.3-.1.5-.2 1v.2c.1-.1.2-.1.2-.3 0 .1.1 0 .2 0l-.3.3v.6h-.1l-.3 1.1h-.3v.1c-.3 0-.5-.5-.6-.9V4.8c-.2.1-.2-.1-.3-.2.2-.3.1-1 0-1.3-.2 0 0 .2-.1.5-.2.2-.4.7-.5.3v.3c-.2-.1-.1-.6-.2-.8v-.3.2l-.2.2c0-.3-.1 0-.2-.1v-.8l-.2.2h-.1v.2l-.1-.1c0-1-.5-.8-.6-1.5-.2.1-.4.1-.5-.2V2c.1.1.1-.2.2-.1.2.4 0 .8-.1.8v.5c0-.5.2-.8.5-.5V3l-.2.2c.1.1.2.1.2.4 0 0 0-.2 0 0v.3l-.4-.2c-.1.1 0 .4 0 .4v.1h.2c0 .6.2.6.2 1l-.1.2c-.1-.1-.3-.2-.3-.5-.1.3-.3.1-.5.2h-.1s-.1-.3-.1 0V4c0-.2-.2-.1-.2-.2l-.3.5c-.2 0 0-.3-.1-.5v1.1h-.1l-.1.5c.1.3.3.4.3 1-.2 0-.1.2-.2.3v-.5c0 .1-.2.2-.2 0v-.2c0-.2-.2-.5 0-.6V5l-.2-.2V5s0-.3-.1-.2c0-.6.3-.5.3-1l-.3.6c-.2-.1-.2-.5-.2-1 0 0 0-.3.2-.2 0-.6 0-1.2-.3-1.2 0-.2-.2-.5 0-.6 0-.3-.1-.3-.3-.5 0-.2.1 0 .2 0V.5c.1-.2.1-.4 0-.4 0 0 0 .3-.2.2l.2.4c-.3 0 0 .7-.3.7l-.1-.5c-.2.1 0 .5 0 .8l.1-.3V2c0 .3.3.1.2.6.1-.3.3-.3.5-.4V3a.6.6 0 0 1-.2-.3c-.1 0-.1.3-.2.2v.3h-.2c.2.2.1 1 .4 1 0 .4.2.5.3.9-.2 0-.2-.3-.3-.2-.1-.5-.4-.5-.4-1v.4h-.2s-.2-.4-.2-.2l-.1-.5v-.1l-.2-.2v.2s0-.2-.2-.2l.1-.2c0-.2-.1-.2-.2-.2-.2-.2-.2 0-.3.2 0 .1.1-.1.1.2h-.2l.1.3V4h-.1v.1l.2.2v-.1c0 .3.2.4.3.8v.3l-.3-.5v-.3l-.4.1V5l-.3-.2H534.4l-.1.3v.4l-.1-.1-.1-.1V5h-.1v-.2.1c0 .2-.3 0-.3.1v-.2h-.8v.6c.4 0 .8-.1 1.2.2.5 0 .3-.3.7-.3 0 .5 1 .8 1.2 1.3 0 .2 0 .3-.2.5-.4-.2-.5-.9-1.3-.6V6c-.6-.3-1-.3-1.5 0 .2 0 .5 0 .5.4.3 0 .4.4.6.4 0 .8.3.4.3 1 .1-.1.2.3.3 0 0 .3.3.3.4.3v.2c.2.2.2-.2.2.2v.2h-.3l.1.7c-.4.3-1 .4-1.4.4v-.2c0-.2.2-.2.2-.6v.1l-.2-.7v.1c-.2-.2-.5-.1-.6-.3 0-.8-.3-.9-.4-1.2V7 7l-.5-.5c-.2.1-.3.3-.5.3v.3-.3l-.5.3-.2.4c-.2 0-.2 0-.2-.2V7l-.6.3h-.1v-.6c-.6 0-.4.3-.4.6-.3 0-.2.4-.5.5l-.1-.1c0 .5.3.6.2 1l-.1-.2v-.2l-.2.3v.2l.4.4V9c0-.4 0 .1.1 0v.2c.3.3.6.4 1 .6-.2.2-.4.2-.6 0l-.1.1v.1l-.3-.3h-.1v.2c0 .4 0-.2-.2-.1v-.3h-.3c-.3.3-.6.4-.7.8 0 .1.3-.1.4 0-.4.2-.2.6-.3 1l-.2.2c-.3-.1-.3-.4-.3-.8 0 0-.2 0-.2.2-.2 0-.2-.3-.4-.2 0-.3.1-.2.2-.4 0-.2-.2-.1-.2-.4h.1v-.1c.2.1.4-.2.5-.6l.1.5c.3 0 .1-.5.5-.5l-.6-.2c0-.1.4-.4.1-.4l.1-.1h-.1v-.1h-.2v-.2c-.2-.2-.5-.4-.5-.8-.5 0-.6-.5-1.2-.5.5-.7 0-1.5-.4-2.2-.3 0-.3.1-.5.2.2.2 0 1 .3 1s0 0 0 .2h-.1c0 .1 0 .3-.1.2v-.2c-.5.1-.7.4-1 .5l-.1.3.1.6c.2-.1.2-.6.3-.7h.4c0 .3.3.2.9.2 0 .6-.7.7-.6 1h-.2l-.1.2c-.3 0-.2-.3-.4-.3h-.1v.5c-.2.4-.4.2-.5-.2-.1 0-.1-.2-.3-.2v-.5c-.4.3-.5.7-1 1 .3.2 1 .4.8.8.2.2.4 0 .7.2-.1.1-.1.4-.3.4.2.3.6 1.2-.2 1.2.2.3.7 0 .9-.1v.2l.2-.1c.1 0 .2.3.1.4.8.5 1.4 1.3 2.5 1.6v.6c-.5 0-.9-.1-1-.3l.2-.1c-1-.2-1.3-.8-1.9-1.3-.5.1-.7.6-.6 1 .1.3.5.3.2.5H523.8c0 .2.1.2.1 0 .5 1.2-.5 1.9-1.2 2.3h-.2v-.1l-.4.1.1.1c0 .2-.4.2-.5.3V16h-.2c0-.4-.3-.8-1-.7 0-.2-.4-.2-.2-.3h.2V15c.3 0 .4-.2.7-.1 0-.2 0-.4-.3-.4.1-.3.4-.7.4-1.1.3-.2.6-.3.7-.5.5 0 .7.3 1 .6 0-.4.4-1.2 0-1.4.2-.1.5-.1.4-.4-.1-.1-.4 0-.4-.4-.3 0-.2.4-.8.4 0-.4.2-.5 0-.8.3 0 1-.4.9.1.3 0 .3 0 .3-.3l-.4-.2a2 2 0 0 1-.9.3v-.1h-.2c-.2-.3-.1-.7-.5-.9 0-.3.4-.4.7-.5-.2-.3-.5.2-1 0a1 1 0 0 1-.3-.3c-.5.2-.6.6-1 .8h-.4V9c-.2.2 0 .8-.7.6.2-.4.4-.9-.3-1-.4 0-.6.3-.7.6-.7-.2-.6.3-1.3.2 0-.4.5-.6 1-.8-.5-.1-.7-.4-1.2-.1 0 .3-.5.5-.2.8-.6.1.2 1-.1 1.3.3.5 0 1.2-.7 1.3-.4.4-.4 1-1 1 .1.4.3.7.3 1.1-1.1.4-1-.2-1.3-1-.4 0-.5.4-.7.2h-.5.3c-.3-.3-.4-.7-.4-1.3.7.2 1-.8 1-1 .3-.5.8-.3 1.2-.3 0-.4.6-1.3 0-1.5.2-.1.4-.4.7-.2 0-.3-.2-.4-.2-.5-.2 0-.2.2-.5.1 0-.2.2-.5-.2-.7-.6 0-.2.4-.5.6-.3-.2-.8-.1-1 0 0 .3.3.3.4.5l.3-.3c.3.1.7.3.4.5 0 .2.2 0 .5 0-.3.7-1.9.4-2.1 1.1l-.7.1v.4c-.5.1-.3-.4-.9-.3l.1-.2h-.1l.1-.1c-.4-.1-.2-.7-.9-.7v-.4h-.3v.1h-.1l-.4-.1c-.6.3-.6 1-1.5 1h-.3.2v.2c.2.2.6-.2.8.1 0 .3-.3.3-.4.4-.3.1-.2-.2-.5-.1-.3.2 0 .3-.1.6-.3 0-.5 0-.4-.2-.5.3-1.1.7-1.8.6-.6 0-.6-.6-1-.6.2-.4 1 0 1.3-.4-.1-.6-.2-.8-.9-1v-1h-.3c0-.3.3-.2.2-.5-1-.3-.1 1-1 1-.1.3.2.4 0 .6h-.2c-.3 0-.2-.4-.7-.3v.5c.1.3-.4.3-.5.5v.3l-.4.1s0 .3-.2.3c-.1.1-.5 0-.5.3-.4-.2-.9-.3-1.4-.3-.4-.7 0-1 .1-1.4.3 0 .2-.2.4 0 0-.3-.2-.5-.4-.7-.4.2-.6.7-1 1h-1V10c-.1 0-.3 0-.3.2-.2 0-.3-.2-.3-.4-.6 0-.5.2-.6.5h-.8V10h-.2c-.1.2-.2.2-.4.2v.1c.2.1.3.3.3.1 0 .4.4.7 0 .9.2.2 1 .2 1-.2h.2c0-.3 0-.4.3-.4 0 .2 0 .4.2.6-.2 0-.4 0-.4.2l.1.3c.2 0 .3-.1.3-.2.3.3 0 .3.1 1-.3-.3-.3.1-.9 0 .2.1.6.1.4.6-.4 0-.5-.1-.7-.2l.2-.4h-1c-.3.1 0 .2-.3.4-.5-.2-.7-.7-.3-1l.1-.3h-.1l-.4-1.6h.2v-.3c0-.1-.2-.4 0-.4l.2.1c0-.1 0-.4.2-.5-.1-.1 0-.3.2-.3h-.1c-.6 0-.3-.8-.9-.9-.3.3-.2 1-.7 1.2l-.2.2h.2c.2 0-.2.4.2.6 0 .2-.2.3-.3.4-.4-.3-.5-.2-1-.2.2-.6-.6-.7-1-.6v.6c.3 0 .5-.2.8 0 .2.4.4.4 1.2.4v.2c0 .2 0 .5.4.4 0 .4.2.7-.1 1l-.7-.1c-.1.2-1 .3-1.1.2-.5 0 0-.2-.4-.2s-.4.3-.5.5c-.2.1-.4-.1-.4-.2h-.3s.3-.3-.2-.2c.2.3.3.4.2.8.3 0 .2-.2.3-.2.5 0 .4.5.6.6-.6.1-1 .8-1 1.5l-.8.2c0-.3-.2-.3-.2-.5h-.2.1v-.1c.1-1-.2-1.2 0-2 0-.2-.2-.2-.4-.1 0-.5.2-1.4.8-1.6 0-.3-.6 0-.6-.2h-.4c0 .4.1.7.3 1H487c.3-.2.1-.3-.4-.3l-.2.6c-.2-.2-.4 0-.5.2.2.4.7.3 1 .6 0 .2-.5 0-.7.2 0 .5-.3 1 .4 1.3-.4 0-.2.4-.2.6h-.2c-.1.7.4 1.5.5 1.7.2 0 0 .2-.2.2-.1.4.3.3.3.5-.2-.2-.2.2-.3.3l.4.1c0 .1 0 .2-.2.2h-.5l.4.3c-.1.3 0 1-.8.7 0-.3-.2-.4-.3-.6-.3 0-.2.2-.6 0 .3-.2-.1-.3-.3-.4-.1-.2.3 0 .3-.2-.3.1-.7-.3-1-.7 0-.2.2 0 .2-.2 0-.4-.4-.3-.6-.4 0-.2-.3-.5-.2-.7.5 0 1 .3 1 0H484.7c.2.1.2.4.2.7 0 .2.4-.1.6-.1l-.5-.2c.4-.2-.1-.4-.1-.7 0 0 .1-.2.3-.2-.3-.2-.2-.3-.3-.7h.3c-.2-.7 0-1-.3-1.8-.6-.1-.4.3-.8.3.2-.4-.3-.3-.3-.5.7 0 .9-.5 1.4-.3l.1-.1c-.6-.3-.8.3-1.6.1.3-.2 0-.4-.1-.7-.4.4-.3.9-.4 1.4-.1.6-.4 1-.3 2l.2.4c-.3.3-.1 1-1 .9.3-.2 0-.2 0-.3-.1-.2.1-.1.1-.3l-.2-.4c-1 .1-.6.8-.3 1.3h-.2s0 .4-.3.6c0 .2.4 0 .3.3-.4.3-.9 0-.9-.3-.9.2-1.7-.6-1.2-1-.3-.2-.6-.1-1-.2 0-.4.6-.1.3-.3v-.2l.1-.2.5-.4v-.1c-.8.2-.2-.3-.6-.3-.1 0 .1.7-.1.8v.4h-.5c0 .1 0 .2.2.2-1.5.2-.6-.8-.8-1.4.4.1.5.1.8 0-.1-.3-.4-.4-.2-.8.5-.1.3.3.8.3v.1l.5-.1h.4l-.1-.3V13h.2l-.3-.7-.1.4-.6-.1.1-.3c-.1 0 0-.2.2-.2 0 0-.1-.2-.3-.2.1-.5.3-.2.6-.7h-.4c0-.3.5-.1.4-.6-.2-.1-.6 0-.5-.4-.7.1-1.4.2-1.6.6-.6 0-.6-1-.2-1.1 0-.3-.2-.4-.7-.4-.1-.1.3-.7.4-.8l.2.1c.4-.4.9-.8.7-1.6-.6.2-.8.6-1.7.7-.2 0 0 .2-.2.3l-.3-.1c-.1 0-.1.2 0 .2-.1.2-.4.1-.6 0 .2.1 0 .2 0 .4-.9-.2-.3.7-.3 1.1l.6-.2.1.3-.1-.1c0 .2 0 .4-.3.4 0 .2 0 .2.2.2 0 .2-.4.1-.5.2 0 0 .2 0 .2.2h-.2v.2c-.7 0-.6-.2-1.3 0-.5-.4.3-1.1-.3-1.1v-.2c.1-.2.2-.5.5-.6-.2-.4-.4 0-.7-.1.2-.2-.2-.3-.2-.7-.4.2-.8-.4-.7-.7h.1l-.2.1c-.3.2 0 .5-.5.5-.3-.3-.1-.5.1-.7l.1.1v-.2l-.1.1c-.6-.3-.5.5-.6.8-.3 0-.5 0-.4-.3-.3.1-.3.5-.8.4-.1-.3.2-.5.2-.7-.4-.6-1.6-.3-1.8 0h-.2v.2-.1c.3.3 1.3 0 1.2.6h-.9l-.1.3h.5c0 .5.4.7.7 1 0 .2-.6.1-.7 0 .1.4.2.6-.3.7.5 0 .2 1-.1 1-.2 0-.3-.1-.3-.3-.4 0-.4.2-.6 0 0 .4-1 .5-1.1.8-.8-.2-.5-1.7.2-1.9-.5-.6-.1-1-1.1-1.3v-.2h.1l-.1-.2c-.3.1-.4-.4-.8-.5-.2 0-.4.3-.5.5h-.2l-.1.2c-.3 0-.3-.2-.6 0 .1-.6-.4-.6-.6-.7 0 .2.4.4.4.2.3.2-.5.6-.7.3-.3.4-.5 1-.6 1.3l-.3.1H461c0 .7.3.7.2 1 .3 0 .3-.3.4-.5.6 0 .4.6 1 .6l.1.1.1-.1c.3.1 0 .4.3.6v.2c0 .4-.2.5-.4.7h-.5c0-.2-.2-.2-.2-.3h.3v-.3c-.3.3-.7.2-1.1 0v-.2s.1-.2.3-.2l-.2-.1c-.1 0-.3.3-1 .3-.2-.2 0-.4-.3-.7h.2l-.4-.2.1.2c-.5 0-.8-.1-.9-.4l-.3.1c0 .6-.1 1.2.3 1.5 0 .9-.1 1.8-1.5 1.4-.9-.1-1.2-1.3-1.4-1.7-.5.1-1.3-.1-1.6-.4 0-.2-.1-.6.2-.6l-.6-.3c.1-.7.5-1 .2-1.7.2 0 .2-.1.2-.3.6.3.7-.4 1-.6v-.1c-.2 0-.1-.2-.4-.2-.2.2-.2.4-.1.5-.2 0-.2.1-.2.2-.5 0-.6-.2-.6-.4-.4 0-.3.3-.5.4l.7.1c-.3.2-.5.4-.8.4-.4.3-.9.9-.6 1.3h-.1l-.1.1c-.2.2-.2.4-.2.7l-.6-.2c0-.3.2-.4-.2-.5.4-.4.6-.9.9-1.4-.6.1-1 .8-1 1-.7 0-.3 1-1 1-.5 0-.4-.4-.5-.7l-.6.2c-.2.2.5.8.1.9.1 0 .3.2.7.2 0 .3-.3.3-.4.4 0-.2-.3-.3-.7-.1v.2-.1c.2 0 .2 0 .2.2l-.8.4c0-.5-.5-.4-.5-1h-.5c0-.4-.4-.8-.5-.5-.2-.1 0-.3-.2-.5-.2 0-.2.3-.4.1.2.6.5 1 1 1-.2.4 0 .4-.2.7.1.1.6 0 .6.4v.1h.1v-.1c.7.2 1.2.6 2.2.8-.1.4.4.7-.1 1.2-1.1 0-1.4-.6-2.3-.7v-.1l-.1-.1c0-.4.3-.5.2-.9-.3.2-.5 0-.8 0-.1-.4-.6-.8-1.1-1 0-.3.3-.2.5-.4-.2-.1-.5-.3-.5-.6-.5 0-.7.6-1.6.4-.1.2 0 .3.3.4-.6 0 0 .7-.4 1l-.6-.5c.3-.3.1-.6 0-1 .4.4.2 0-.2 0 .3-.2.6-.2.6-.6h.2v-.1h-.2l-.4-.2c0-.3.3.1.4-.1l-.1-1c-.4 0-.4.4-.9.4h-.2c-.4-.2 0-.7-.4-1v-.2c0-.7-.4-.5-.9-.5.3-.4.1-.8-.4-1 .1 0 0-.3.3-.3-.5 0-1-.2-1-.7-.4 0-.4-.2-.6-.1 0-.4-.2-.6.1-.7l-.4-.1h.1c-.1 0-.4 0-.5-.2v.2c-.3 0-.4 0-.5-.2-.1 0 0 .5.3.4 0 .6 0 1-1 1 .5-.5-.1-1.3-.6-1.7h.1-.1c-.3-.3-.9 0-1.1 0 .2-.3-.4-.7-.4-.7-.2-.3-.3-.7-.7-.8l.4-.1V2c0-.1-.6 0-.6-.2v-.2l-.4.2h.1c0 .2 0 0-.2 0 0 .4-.3 0-.5.2.2.2.7.1.6.4-.3-.2-.1.3-.3.3 0 .2.4.1.4.3l-.5.4v.2c-.4.2-.7 0-1.3-.1V3h-.1l-.4.7c.1.3.5.7 1 .5.1 0 0 .3.2.3 0 .2-.2 0-.3 0 0 .2.3.4.5.3h.1c.1 0 .2.1.2.3-.5.4-1.4-.3-2 0 0-.3-.2-.5-.4-.5-.3 0-.2.7.2.7-.2 0-.2.2-.4.3-.4-.3-.7 0-1.1 0-.5-.6 0-1.2.5-1.6-.5-.3-1-.6-1-1.3-.3 0-.2.2-.4.3l.4.2c-.6.2-.4.4-.5 1l-.1.2h.1l.4-.3h.5l-.9.1-.2.6h.3-.4v.1c-.2.4-.4 1-.8 1.2h-1.1c-.7 0-1-.4-1.4-.8-.1 0-.2.8.2.7l-.4.5c-.3 0-.4-.2-.5-.3.5-.3 0-1-.4-1.3-.3.1 0 .2 0 .5-.3.3-1.3.7-1.4.3-.4 0 0 .2-.2.3-.4-.1-.2-.6-.4-.7h.2v-.1l-.2-.3V5c-.4 0-.5 0-.8.3.2-.4-.2-.1-.6-.2v-.7l-.5.1-.1.1v.2l-.3-.1c0-1-1.4-.7-1.6-1.5-.5.1-1.4.1-1.4-.2-.2 0-.1.2-.2.2-.2.3.2.2.2.4.3.1.3-.2.7-.1.3.5 0 .8-.6.9v.4c.1-.4.8-.8 1.5-.5v.2l-.3.2c.1.1.6.2.3.4.3 0 .2-.2.4 0v.3c-.7.1-1-.1-1.5-.2-.3.1 0 .5.2.5l-.1.1h.3-.1c0 .5.8.5 1 1H419c-.4 0-.8 0-1-.3-.4.2-1 0-1.4.1h-.2c-.2 0-.3-.3-.3 0-.1-.3 0-.8-.2-1.1 0-.2-.3 0-.4-.2-.3.4-.6.4-1 .5-.3 0 .2-.3-.1-.5-.4.4-.2.6-.2 1.2l-.1-.1c0 .1 0 .3-.2.5h.2c.2.3.7.5.5 1-.3.1-.1.2-.3.3-.4 0 0-.2-.2-.4 0 0-.5.1-.4-.1l.1-.1h-.1.2c0-.3-.6-.6-.4-.7h.2l-.1-.2-.2-.2v.2c-.3 0-.2-.3-.6-.2.1-.6 1-.5 1-1l-1 .6c-.4-.1-.6-.5-.7-1 .2 0 .4-.3.6-.2 0-.6.3-1.2-.8-1.2-.1-.2-.5-.5 0-.6 0-.3-.4-.4-.7-.5.1-.2.2 0 .4 0v-.3c-.2-.2-.3-.4-.7-.4-.2 0 .2.3-.4.2l.4.4c-.7 0 0 .7-.9.7l-.1-.5c-.5.1.1.5.2.8l.2-.3c.4.1 0 .3 0 .5 0 .3.6.1.5.6.3-.3.9-.3 1.3-.4l.4.2c-.2.3.2.3-.1.6-.3 0-.5-.2-.7-.3-.3 0-.2.3-.6.2l.1.2-.2.1h-.2c.5.3.3 1 1 1 .2.5.7.6.8 1-.1-.1-.2-.1-.2 0-.4 0-.3-.3-.8-.2-.2-.6-1-.6-1.3-1l-.1.4-.2-.1h-.1c-.3.1-.5-.3-.6-.1l-.3-.6-.2-.2v.2l-.4-.2v-.3l-.5-.1h-.2c-.4-.3-.4 0-.8 0 0 .2.5 0 .4.3l-.6-.2V5h-.5c0 .3.2.2.3.3 0 .1-.2.1-.1.4h-.2c-.4 0-.2-.3-.6-.3l-.1.5.1.1V6.5l-.8-.3h.2-1.1V6c-.9.1-1.4-.3-2-.6l.1-.1h-.2l-.2.1h.2l-.2.1c0 .3.3.4.5.4-.2.2.2.7-.3.7 0 .1.3.3.1.3l-.3-.1H401.2v-.2h-.3l-.3-.1v.1c-.1.2-.5 0-.7.1.2-.2.2-.5.2-.8h.3c0-.2 0 0-.3 0 0-.3-.2-.3-.2-.5-.2 0-.1 0-.1-.1h.2l-.1-.3c-.1.3-.2.3-.4.5.4 0 .3.2.6.2 0 .3-.7.3-.6 0h.1l-.3-.2v.2c-.3 0-.7-.4-.7-.1-.2-.1 0-.3 0-.4l-1.2-.3c.5-.2-1-.5-1-.7-.2 0 .1.2-.1.3-.4 0-.2-.2-.7-.2 0 .3.2.8 0 1-.4.1-.6-.7-1.1-.9l-.5.2h.2c-.3.2.1.2 0 .6-.6 0-1.3-.6-2.2-.7-.2.2.4.3.4.3V5c.3.2.9.2 1.3.3h-.2c.2.3.5.4.8.5.2 1.2 1.7 1 2.5 1.5.2.1.1.3 0 .5.4-.1.4-.4.8-.4l.3.1c.5.1 1.4.1 1.4.5 1 0 1.4.3 2 .4-.3.7.9.3.8.9.6 0 .8.3 1 0 0 .3.8.3 1.2.3l-.1.3c.4.1.5-.3.8.1l-.1.1v.2l-.7-.1c.2.2.5.4.4.8-1.3.2-3 .3-4.2.3h.2l-.2-.1c.2-.3.6-.2.5-.6h.2l-1-.7c-.6-.2-1.2 0-1.7-.3 0-.8-.7-.9-1.2-1.2 0 0 .2 0 .2-.2-.2-.1-.4.2-.3.2-.5 0-1.6-.6-1.5-.9-.2.2-1 0-1.4 0l.1.3H394l-.8-.5.1-.2c-.4-.5-1-.8-1.7-1.3h-.2c-.5-.5-1.6-.1-2-.5-.3.3.5.4.6.7h-.1c.3.5 1 .6 1.7.6v.2c0 .3.1.3-.1.6.4.3 1 .5 1.6.7l-1.1.8c-.3 0-.4 0-.6-.2l.2-.5c-.1-.2-.7-.2-.7-.5l-.4.1c0 .1.3 0 .2.4h-.5V8c-1.2-.3-2.5-.6-3-1.5h.2l-.4-.2.1.2c-.4 0-.4-.2-.7-.2 0-.2 0-.2.3-.2l-.3-.4c-.3 0-.3.2-.6.1l.1.2c-.1.5-.5.5-1 .2 0-.1.4 0 .4-.2-.2-.1-.6.3-.8.5l.4.1c-.2.3-1 .5-1.4.3-.3 0 .1.1 0 .3-.6.5-1.2-.2-2 0 0 0 0-.4-.2-.4 0-.2 0 0 .3 0-.2 0-.3-.3-.6-.3-.1-.3.3-.5 0-.6v-.2h-.1c-.3.3-.5.7-1.1.7-.1 0 .2.3 0 .5l-.1.1v.2h-.5c0-.3.3-.5 0-.6v.1-.3c-.4.2-.8.5-1.2.5-.2-.4 1-.7.8-1.2.4-.1.8-.4 1.2-.4l-.7-.3c-.2 0-.3.3-.4.5-.3 0-.3-.2-.5-.3-.7.4-.3 1.6-1.6 1.7v-.5c-.5-.1-.3.3-.3.5-.4 0-.2.5-.5.5l-.1-.1-.4.3h.2c0 .3-.3 0-.4.2.6.5 1.2 1.2 2 1.4-.4.5-.8-.2-1.5 0-.2.2-.6.3-.7.7 0 .1.3-.1.4 0-.5.2 0 .8-.5 1.2-.5-.1-.2-1-.3-1.7.3-.1 0-.6.5-.5l-.6-.3s.4-.3.1-.4c-.2-.4-.7-.6-.6-1.2-.6 0-.7-.5-1.2-.5.4-.6-.1-1.4-.4-2.1-.4-.1-.4.1-.6.2.2.2.1 1 .4.9.2 0-.1.2 0 .3-.7 0-1 .4-1.4.6.1.4-.2.5.2.8.2-.2.1-.6.3-.7h.4c0 .3.2.2.8.2 0 .6-.6.6-.6 1l.4-.1h-.1V8h.7c-.3.4-.5 1-.9 1.2-.5 0 0-.5 0-.7l-.2-.2-.3.2c-.3-.3-1 0-1.6 0 .3.2.5.3.4.6.2.2.4 0 .7.2-.2 0-.2.3-.4.4.2.3.7 1.1 0 1.1 0 .4.6.1.8 0h-.2l.2-.1s.2.3 0 .4c1 .6 1.5 1.3 2.6 1.6v.6c-.5 0-1-.1-1.1-.3l.3-.1c-1-.2-1.3-.8-2-1.2-.4 0-.6.5-.5 1 0 .2.5.2.2.4H370.6c0 .2.1.2.1 0 .5 1.2-.6 1.9-1.2 2.4l-.2-.1V15c-.1.2-.3.2-.4.2 0 .2-.3.2-.4.3h-.2c0-.6-.3-1-1-.9-.1-.2-.4-.2-.2-.3h.2l-.1-.1c.4 0 .4-.2.8 0 0-.2 0-.5-.3-.5.1-.3.4-.6.4-1.1.2-.2.6-.3.7-.5.5 0 .7.3.9.6 0-.4.4-1.2.1-1.3.2-.2.5-.2.3-.5 0 0-.3 0-.3-.3-.4 0-.2.4-.8.3 0-.4.2-.5 0-.7.2 0 1-.4.9 0 .2 0 .3 0 .3-.3l-.4-.1a2 2 0 0 1-.9.2h-.2c-.2-.3-.2-.8-.6-1 .1-.3.4-.4.8-.5-.2-.3-.5.2-1 .1a1 1 0 0 1-.3-.4l-1 .8h-.4v-.5c-.2.1 0 .7-.7.5.2-.4.4-.9-.3-1-.5 0-.6.3-.7.6-.7-.2-.6.4-1.4.3 0-.5.6-.7 1-.8-.4-.2-.6-.4-1.1-.2 0 .3-.5.5-.2.8-.6.2.2 1-.2 1.4.4.4.1 1.1-.5 1.2-.4.4-.5 1-1.1 1.1.2.3.3.6.3 1-1.1.5-1-.2-1.3-.9-.4 0-.4.3-.7.2v-.1h-.4.3c-.4-.3-.5-.7-.4-1.2.6.1 1-1 .9-1.2.3-.4.8-.1 1.2-.2.1-.4.6-1.3.1-1.5.2-.1.3-.4.6-.2l-.2-.5c-.2 0-.2.3-.5.2 0-.3.3-.6-.2-.7-.6 0-.2.4-.5.5-.3-.1-.8 0-.9.1 0 .2.3.2.3.4l.3-.2c.3 0 .7.2.4.4 0 .2.3 0 .5 0-.3.7-1.8.5-2 1.2-.4-.1-.5 0-.8 0v.5c-.4 0-.3-.4-.8-.4v-.2c-.4-.2-.1-.7-.9-.7v-.1h-.2v.2h-.2V9l-.4-.1c-.6.3-.6 1-1.5 1h.1l-.3.1h.1v.1c.3.2.7-.2.8.2 0 .2-.2.3-.3.4-.4 0-.2-.3-.6-.2-.2.2 0 .3 0 .7-.3 0-.6 0-.5-.3-.4.3-1 .7-1.8.7-.5-.1-.5-.7-1-.7.3-.3 1 0 1.3-.4 0-.6-.2-.7-.8-.9 0-.5-.2-.7 0-1-.1-.2-.2 0-.4-.1 0-.3.3-.2.2-.4-.9-.3 0 1-1 1 0 .3.2.4 0 .5l-.2.1c-.3 0-.2-.5-.7-.4v.6c.1.2-.4.2-.5.4v.4h-.4l-.1.4c-.2 0-.6 0-.5.2L346 11c-.4-.7 0-.9 0-1.4h.5c0-.3-.2-.5-.4-.7-.5.2-.7.7-1.1 1.1h-1l.1-.2-.3.1c-.2 0-.3-.1-.3-.4-.7 0-.6.2-.6.5h-.9.1-.2l-.4.2c.1.1.2.3.2.1 0 .4.5.7 0 1 .3.2 1 0 1.1-.2h.1c0-.3 0-.4.3-.4l.2.6c-.1 0-.4 0-.4.3l.1.2c.2 0 .3 0 .4-.2.3.3-.1.4 0 1-.2-.3-.3.2-.8 0 .2.2.5.2.4.6-.4 0-.5-.1-.7-.2l.2-.4h-1.1l-.2.4c-.5-.2-.7-.6-.4-1h.1v-.4h-.1c-.2-.6-.3-1-.3-1.6h.2v-.3h-.1s-.1-.4.1-.4l.2.2c-.1-.2 0-.4.2-.5-.2-.2 0-.4.1-.4-.7-.1-.3-.8-1-1-.2.4-.2 1-.6 1.3h-.2V9h.2c.2 0-.2.4.2.5 0 .3-.2.3-.4.5-.3-.3-.5-.2-1-.2.2-.7-.6-.8-1-.6l.1.6c.3 0 .4-.2.7-.1.3.5.5.5 1.2.5l.1.1c0 .3 0 .5.3.4.1.4.2.8 0 1h-.8c0 .2-1 .2-1 .2-.5 0 0-.3-.4-.3-.5 0-.5.3-.6.6-.2 0-.4-.2-.4-.3l-.2.1s.2-.4-.2-.2l.2.8c.2 0 .1-.3.3-.3.4 0 .3.5.6.7-.7 0-1 .8-1 1.4-.2.1-.4.3-.9.2l-.2-.4h-.1l.1-.2c0-1-.2-1 0-2h-.5c0-.5.2-1.4.8-1.7 0-.2-.6.1-.5-.1h-.4c0 .4.1.7.3 1h-1c.2-.2 0-.3-.5-.3 0 .2-.2.2-.2.6-.2-.2-.4 0-.5.1.2.5.7.3 1 .7l-.7.2c0 .5-.3 1 .4 1.2-.4.1-.2.4-.2.7h-.2c0 .6.4 1.4.5 1.7.2 0 0 .2-.2.1-.1.4.3.3.3.6-.2-.3-.2.2-.3.2 0 .2.2.2.4.2l-.1.2-.2-.1-.4.1.4.3c-.1.3 0 .9-.8.7 0-.3-.2-.5-.3-.6h-.5c.2-.2-.2-.4-.4-.4 0-.3.4-.1.4-.3-.4.2-.8-.2-1-.6-.1-.2.1-.1.1-.3 0-.4-.4-.2-.6-.3 0-.2-.3-.6-.1-.7.4-.1.8.2 1-.1h.2c.2.2.2.5.2.8 0 .2.4-.2.6-.2l-.5-.1c.4-.3-.1-.4-.1-.7l.3-.3c-.3-.2-.2-.2-.3-.6h.3c-.1-.8 0-1-.3-1.8-.6-.2-.4.2-.7.2 0-.3-.4-.2-.4-.5.7.1.9-.4 1.4-.2l.1-.2c-.6-.2-.8.4-1.6.2.3-.2 0-.5-.1-.7-.4.4-.3.9-.4 1.3-.1.6-.4 1.1-.3 2.1l.2.4c-.3.3-.1 1-1 .9.3-.2 0-.2 0-.4-.1-.1.1 0 .1-.2l-.2-.5c-1 .2-.6.8-.3 1.4H328.3s0 .5-.3.6c0 .3.4.1.3.4-.4.2-.9 0-.9-.4-.9.2-1.7-.5-1.2-1-.3-.2-.6-.1-1-.2-.1-.4.5 0 .3-.3l.1-.2c0-.2.4-.3.5-.5l-.1-.1c-.7.2-.1-.3-.5-.3-.1 0 .1.7-.1.9l-.1.1c-.1.3-.2 0-.5 0 0 .3.1.3.2.3-1.4.2-.5-.8-.7-1.3l.7-.1c0-.3-.3-.3-.2-.7.6-.2.4.3.9.2v.2l.5-.2h.4s0-.2-.2-.2l.1-.1V13h.2c-.2-.3-.3-.3-.3-.6-.2 0 0 .1-.2.3h-.5v-.2l.1-.2c-.1-.1 0-.3.2-.3l-.3-.1c.1-.6.3-.3.5-.7l-.3-.1c0-.3.5-.1.3-.5-.1-.2-.5 0-.5-.4-.6 0-1.3.1-1.6.5-.5 0-.5-1-.1-1 0-.4-.3-.5-.7-.5l.4-.7s.1.1.2 0c.4-.3.9-.7.7-1.6-.7.2-.9.6-1.8.8v.2h-.4c-.1 0-.1.1 0 .1-.1.2-.4.2-.6 0 .2.2 0 .2 0 .5-.9-.3-.3.6-.3 1 .3 0 .3-.2.6-.1l.1.2h-.1v.3l-.4.1c0 .2 0 .2.2.2 0 .2-.4.1-.5.2l.2.2h-.2l.1.1h-.6v-.3.3h-.6c.1-.2.2-.4.1-.8l.1.1v-.2l.1-.2v.2l.1-.1-.2-.6s-.2.5-.5.4v.2h-.2v-.4l.4-.6h-.3l-.2-.3c0-.3 0 0 .1-.2.2 0 .2-.4.2-.7l-.2.3-.2.1V6.7h-.1c0-.6-.2-.5-.3-.5l-.1-1V5c-.1 0-.2-.2-.3-.7-.1 0-.1-.2-.2 0v-1h-.2c-.1.1-.1 0-.2-.1 0 0 0 .5.2.4 0 .5 0 1-.4 1 .2-.5 0-1.3-.2-1.8v-.1c0-.3-.3 0-.4 0l-.1-.7c0-.2 0-.6-.3-.7l.1-.1V.5c0-.2-.2 0-.2-.3V.1.4c0 .3-.2 0-.3.2 0 .1.3 0 .2.4-.1-.3 0 .2-.1.3l.1.2v.2c-.1.3-.3 0-.4 0v-.5l-.2.7c0 .4.2.7.3.5v.3c0 .2 0 0 0 0 0 .2 0 .5.1.3.2 0 .2.2.2.3-.2.4-.5-.3-.7 0 0-.3-.1-.5-.2-.5v1c-.2-.3-.3 0-.4 0-.2-.6 0-1.2.2-1.6-.2-.3-.4-.6-.4-1.2v.4l-.1 1v.1l.1-.2c.1 0 .2-.1.2 0l-.3.2v.6h-.1c0 .5-.1 1-.3 1.2h-.4c-.2 0-.3-.4-.5-.8 0 0 0 .8.1.7l-.1.5c-.2 0-.2-.2-.2-.3.2-.3 0-1-.1-1.2-.2 0 0 .1-.1.4-.1.3-.4.8-.5.4v.2c-.2 0 0-.6-.2-.7h.1V3.2v.1c-.2 0-.2 0-.3.3 0-.4 0-.1-.2-.2v-.7l-.2.1V3h-.2c0-1-.4-.8-.6-1.5-.2 0-.4 0-.5-.3V2c.2 0 .2-.3.3-.2.1.5 0 .8-.2.9V3c0-.5.2-.8.5-.6v.2l-.1.2c0 .2.2.2.1.4 0 0 0-.1.1 0v.3c-.2.1-.3-.1-.5-.2v.5h.2c0 .6.2.6.3 1l-.1.1c-.2 0-.3 0-.4-.3-.1.2-.3 0-.4.1h-.1c-.1 0-.2-.3-.2 0v-1c0-.2-.2-.2-.2-.2l-.3.4c-.1 0 0-.3 0-.4-.2.3-.1.5-.1 1v.2l-.1.5c.1.3.3.4.3 1-.2 0-.1.2-.2.3v-.5c0 .1-.2.2-.2 0v-.2c0-.2-.2-.5 0-.6V5l-.2-.2V5s0-.3-.1-.2c0-.6.3-.5.3-1l-.3.6-.2-1 .2-.2c0-.6.1-1.2-.2-1.2-.1-.2-.2-.5 0-.6l-.3-.5c0-.2 0 0 .1 0V.5c0-.2 0-.4-.2-.4 0 0 0 .3-.1.2v.4c-.2 0 0 .7-.2.7l-.1-.5c-.2.1 0 .5 0 .8l.1-.3c.2.1 0 .3 0 .5 0 .3.3.1.2.6.1-.3.3-.3.5-.4v.2c0 .3.2.3 0 .6a.6.6 0 0 1-.2-.3s0 .3-.2.2v.3h-.1c.1.2 0 1 .3 1 0 .4.2.5.3.9-.2 0-.2-.3-.3-.2 0-.5-.3-.5-.4-1v.4h-.2s-.2-.4-.2-.2l-.1-.5v-.1l-.2-.2v.2V3.2l-.1-.2h-.1c-.2-.3-.2 0-.3 0l.1.3h-.3c0 .3.1.3.2.3l-.1.4v.1l.1.2v-.1h.2l.2.8-.1.3c-.1-.2-.1-.5-.3-.5v-.3l-.3.1V5l-.3-.2H305.9l-.1.3h-.1c0 .2.1.3 0 .4v-.1l-.1-.1V5h-.2v-.2.1c0 .2-.2 0-.3.1v-.2h-.7v.6c.3 0 .8-.1 1.2.2.5 0 .3-.3.7-.3 0 .5 1 .8 1.2 1.3 0 .2 0 .3-.2.5-.4-.2-.6-.9-1.3-.6V6c-.6-.3-1-.3-1.5 0 .2 0 .4 0 .4.4.4 0 .5.4.7.4 0 .8.3.4.2 1 .2-.1.3.3.4 0 0 .3.3.3.4.3v.2c.1.2.1-.2.2.2v.2h-.3l.1.7c-.4.3-1 .4-1.4.4v-.2c0-.2.2-.2.2-.6v.1l-.3-.7v.1l-.6-.3c0-.8-.2-.9-.3-1.2V7c0-.1-.1.2 0 .2-.2 0-.4-.2-.5-.5-.2.1-.3.3-.5.3v.3-.3l-.6.3-.2.4-.2-.2.1-.5-.6.3h-.2v-.6c-.5 0-.4.3-.3.6-.4 0-.2.4-.5.5l-.1-.1.2.6-.1.1.1.1v.2l-.1-.2v-.2l-.1.3v.2l.1.2h-.1c-.3.3-.7.8-.7 1.3v.1h-.1v.1c-.2.2-.3.4-.3.8l-.1-.1v-.3c-.1 0-.2 0-.3.2l-.2-.2-.1-.3v-.2l.4-.8c0 .1 0 .3.2.4.2-.1 0-.5.4-.5l-.4-.2v-.1h-.2s.3-.2 0-.4l-.1-.1-.1-.1v-.1c-.2-.2-.5-.4-.5-.9-.6 0-.6-.5-1.2-.5.4-.6 0-1.4-.4-2.2-.4 0-.4.2-.6.3.2.2.2 1 .4.9.3 0-.1.1 0 .3h-.2v.2-.2c-.5 0-.7.3-1 .5l-.1.2.1.7c.2-.2.1-.6.3-.8h.4c0 .4.3.3.8.3 0 .6-.7.6-.5 1h-.2l-.2.1c-.2 0 0-.2-.3-.2h-.2l.1.5c-.2.4-.4.1-.5-.3l-.3-.1h-.1v-.5c-.3.3-.4.7-.8 1 .2.2 1 .4.7.8.2.2.4 0 .7.2-.2 0-.2.3-.3.4.1.2.6 1.1-.2 1.1.2.4.7.1.9 0v.1h.2s.2.3 0 .3l.3.2h-.3l-.1.3c.2 0 .2 0 .2.2h-.2c-.3 0-.5.1-.5.4 0-.5-.5-.4-.5-1 0-.1-.2 0-.4 0v-.3c-.1-.2-.5-.4-.6-.2-.1 0 0-.1 0-.2.3 0 .8-.4.8 0 .2 0 .3 0 .3-.3l-.4-.1-.7.2v-.1l-.3.1h-.2c-.2-.3-.1-.8-.5-1 0-.3.4-.3.7-.4-.1-.3-.5.1-1 0a1 1 0 0 1-.3-.3l-1 .8-.2-.1h-.1v-.5l-.2.2c-.2 0-.3.2-.5.3.2-.4.3-.8-.4-1-.2 0-.2.2-.4.3l-.1-.2v-.2h-.1c0-.7-.4-.5-.8-.5.2-.4 0-.8-.4-1 .1 0 0-.3.3-.3-.5-.1-1-.3-1.1-.8h-.6c0-.4-.2-.6.1-.8h-.3v-.1L286 5v.2l-.4-.2c-.2 0 0 .5.3.4 0 .6 0 1-1 1 .5-.5-.2-1.3-.6-1.7v-.1c-.3-.3-1 0-1.2 0 .3-.3-.4-.7-.4-.7-.1-.2-.1-.6-.7-.7l.4-.1v-.6c0-.2-.6 0-.6-.3v-.1l-.3.1v.1c0 .3 0 .1-.1.1 0 .3-.3 0-.5.2.1.1.6 0 .6.4-.4-.3-.2.2-.4.3 0 .2.4 0 .4.2v.2c-.4.2-.8 0-1.3 0v-.6l-.2.1-.4.7c.1.3.5.6 1 .4.2.1 0 .4.2.4h-.3c.1.1.3.4.5.2h.1c.2 0 .2.2.2.3-.5.4-1.4-.3-2 0 0-.3-.1-.5-.4-.5-.3 0-.2.8.2.7-.2 0-.2.2-.4.3-.4-.3-.6 0-1 .1-.6-.6 0-1.3.4-1.7-.5-.2-1-.6-1-1.2-.3 0-.2.2-.3.2l.3.2c-.6.2-.4.5-.5 1v.1c.2 0 .4 0 .4-.2h.6l-.9.2-.2.6h.3-.4v.2c-.2.4-.4.8-.8 1h-.9l-.2.2c-.7-.1-1-.5-1.4-1-.1.2-.2.9.2.8l-.4.5c-.4 0-.4-.2-.5-.3.5-.3 0-1-.4-1.2-.3 0 0 .1 0 .4-.3.3-1.3.8-1.4.4-.4 0 0 .1-.2.2-.4 0-.2-.6-.4-.7h.2v-.1l-.2-.2v.1c-.4 0-.5.1-.8.3.2-.4-.2-.1-.6-.2v-.7l-.5.1-.1.1h-.3c0-1-1.4-.7-1.6-1.4-.5 0-1.4 0-1.4-.3-.2 0-.1.2-.2.2-.2.3.2.2.2.5.3 0 .3-.3.7-.2.3.5 0 .8-.6.9v.5c.1-.5.8-.8 1.5-.6l-.4-.4v.2l-.3.1c.2.2.6.2.3.4.3 0 .2-.1.4 0v.4c-.7 0-1-.2-1.5-.3-.3.2 0 .5.2.5h.3-.1c0 .6.7.6 1 1h-.2l-.1.1c-.5 0-.8-.1-1-.4-.4.3-1 .1-1.4.2l-.1-.1h-.1c-.2 0-.4-.2-.4 0l-.1-1c0-.2-.3-.1-.4-.2-.3.3-.6.3-1 .5-.3-.1.2-.3-.1-.5-.4.3-.2.6-.2 1.1h-.2c.2.2.1.3 0 .5.3.2.8.4.6 1-.4 0-.2.1-.3.3-.4 0 0-.2-.2-.5 0 .1-.5.2-.4 0v-.1c-.1-.2 0-.2.2-.2 0-.3-.6-.5-.4-.7h.2l-.2-.1-.1-.2v.2c-.3 0-.3-.3-.6-.3 0-.5 1-.4 1-.8-.5 0-.7.3-1.1.4-.3 0-.5-.4-.6-1 .2 0 .3-.3.5 0 .2-.7.4-1.3-.7-1.3-.2-.2-.5-.6 0-.7-.1-.2-.4-.3-.7-.4l.4-.1v-.3c-.2-.1-.3-.4-.7-.4-.2.1.1.4-.4.3l.4.4c-.7 0 0 .7-.9.6l-.1-.5c-.5.2.1.6.2.9l.2-.3c.3 0 0 .3 0 .5s.6 0 .5.6c.3-.3.9-.3 1.3-.4 0 0 .1.2.4.2-.1.2.1.3-.1.6l-.7-.4c-.3.1-.2.4-.6.3l.1.2-.2.1H257.5c.5.2.3 1 1.1 1 0 .5.6.5.7 1-.1-.1-.2-.1-.2 0-.4 0-.3-.3-.8-.2-.1-.6-1-.6-1.2-1-.2.1-.2.2-.2.3h-.2c-.3.1-.5-.4-.7-.1l-.3-.6-.2-.2v.1l-.5-.1.1-.3-.5-.1-.2-.1h-.1c-.3-.2-.4 0-.7.1 0 .2.4 0 .3.3h-.7c0 .2.2.1.3.2.1.2-.2.2 0 .4h-.4c-.3.1 0-.3-.5-.2v.7l.1.1-.1.3-.7-.2.1-.1h-1v-.2c-1 .1-1.4-.4-2-.6H248.7l-.1.2c.1.3.3.4.6.4-.2.1.1.7-.4.7h-.1s.3.2.2.3c-.2 0-.4 0-.4-.2v.1l-.3-.1v-.1h-.3l-.3-.2v.2h-.7c.2-.1.2-.4.2-.7h.3c0-.3 0-.1-.3-.1 0-.3-.2-.3-.2-.4-.2 0-.1-.1-.1-.2h.2l-.3-.2.1.2-.4.4c.4 0 .3.3.5.3 0 .2-.6.2-.5 0v-.1l-.2-.2-.1.1c-.3 0-.6-.4-.6 0-.2-.2-.1-.3-.1-.5-.2 0-.8-.3-1.1-.2.4-.3-1-.6-1-.8-.2 0 .1.3-.2.4-.3 0-.1-.3-.7-.3 0 .3.3.8.2 1-.5.2-.7-.7-1.2-.8h-.5l.1.1c-.2.2.2.3.2.6-.7 0-1.5-.6-2.3-.6-.2.1.3.2.3.2l.2.2c.2.2.7.2 1.2.3h-.2c.2.3.5.4.8.6.2 1.2 1.7 1 2.5 1.4.2.2 0 .3 0 .5.3 0 .3-.3.7-.4l.4.2c.5 0 1.4 0 1.4.4l1.2.2v.2L247 8c-.2 0-.2.1 0 .1-.2.3-.5.2-.6 0 .2.2 0 .3 0 .5-.9-.2-.4.5-.3 1-.4 0-.6 0-.9-.2 0-.8-.7-.9-1.2-1.2 0 0 .3 0 .2-.2-.2-.1-.4.2-.3.2l-.5-.1a.5.5 0 0 1-.1-.5h-.1v.1l-.2.1-.3-.2v-.1h.2l-.1-.2H241l.1.2c-.2-.2-.6-.3-.9-.2l-.2-.2s.2 0 .2-.2c-.5-.5-1.1-.8-1.8-1.3h-.2c-.4-.6-1.6-.2-2-.6-.3.3.6.4.7.7l-.2.1c.4.4 1 .6 1.7.6 0 .4.2.4-.1.7l1 .5h-.2v.1h.1l.7.2-1 .7-.6-.1c0-.3.1-.4.2-.5-.1-.3-.6-.3-.7-.6l-.4.2s.3-.1.2.3h-.5v-.2c-1.2-.3-2.5-.5-2.9-1.4l.1-.1-.4-.2.1.2c-.4 0-.4-.2-.7-.2V6.7l-.1 2 .2-.1-.2.9v.1l-.3.1h-.3c-.1.6.3.6.1 1 .3-.1.3-.3.4-.4v.7c0 .2.2.2.2.3h-.3v.5h-.3V11.4l.3-.2-.2-.1s-.3.3-1 .3c-.2-.3 0-.4-.2-.7h.1l-.3-.2c-.5.1-.8 0-.9-.3l-.3.1c0 .6-.1 1.2.3 1.5 0 .9 0 1.8-1.5 1.4-.8-.1-1.2-1.3-1.3-1.7-.6.1-1.4-.1-1.6-.4 0-.2-.2-.6 0-.6 0-.2-.2-.3-.5-.3.1-.7.5-1 .2-1.7.2 0 .2-.1.2-.3.6.3.7-.4 1-.6v-.1c-.2 0-.1-.2-.4-.2-.2.2-.2.4-.1.5-.2 0-.2.1-.2.2-.4 0-.6-.2-.6-.4-.4 0-.3.3-.5.4l.7.1c-.2.2-.4.4-.8.4-.3.3-.8.9-.6 1.3h-.1v.1c-.2.2-.3.4-.3.7l-.5-.2c0-.3 0-.4-.2-.5l.8-1.4c-.6.1-.9.8-.9 1-.8 0-.4 1-1 1-.5 0-.5-.4-.6-.7l-.6.2c-.2.2.5.8.1.9l.7.2c0 .3-.3.3-.3.4-.2-.2-.4-.3-.7-.1l-.1.2v-.1c.2 0 .3 0 .3.2-.2.2-.6.3-.9.4 0-.5-.4-.4-.5-1h-.5c.1-.4-.4-.8-.5-.5-.2-.1 0-.3-.1-.5-.2 0-.2.3-.4.1.1.6.4 1 .9 1-.2.4 0 .4-.2.7.2.1.6 0 .6.4v.1h.1v-.1c.7.2 1.3.6 2.2.8-.1.4.4.7-.1 1.2-1 0-1.4-.6-2.3-.7v-.2c-.1-.4.2-.5.1-.9-.2.2-.4 0-.8 0 0-.4-.5-.8-1.1-1 0-.3.4-.2.5-.4-.2-.1-.5-.3-.5-.6-.5 0-.7.6-1.6.4 0 .2.1.3.3.4-.6 0 0 .7-.4 1l-.6-.5c.3-.3.2-.6 0-1 .4.4.2 0-.1 0 .3-.2.5-.2.5-.6h.2v-.1h-.2l-.4-.2c0-.3.3.1.4-.1l-.1-1c-.4 0-.4.4-.8.4h-.2c-.5-.2 0-.7-.5-1v-.2c0-.7-.4-.5-.9-.5.3-.4.2-.8-.4-1 .2 0 .1-.3.4-.3-.5 0-1-.2-1.1-.7-.3 0-.3-.2-.6-.1 0-.4-.2-.6.1-.7l-.4-.1h.2c-.2 0-.5 0-.6-.2v.2c-.3 0-.3 0-.5-.2 0 0 0 .5.4.4-.1.6-.1 1-1 1 .5-.5-.2-1.3-.6-1.7h-.1c-.3-.3-.8 0-1 0 .2-.3-.5-.7-.5-.7-.2-.3-.2-.7-.7-.8l.4-.1V2c0-.1-.6 0-.6-.2h-.8l-.3.2h.1c0 .3 0 .1-.2.1 0 .3-.3 0-.5.2.1.1.6 0 .6.4-.3-.3-.2.2-.3.3 0 .2.3 0 .3.2l.1.2v.2c-.4.2-.8 0-1.3-.1V3h-.2l-.4.7c.2.3.6.7 1 .5.2 0 0 .3.3.3-.1.2-.2 0-.4 0 .2.2.4.4.6.3.2 0 .3.1.3.3-.5.4-1.4-.3-2 0 0-.3-.2-.5-.5-.5-.2 0-.2.7.2.7-.2 0-.2.2-.4.3-.3-.3-.6 0-1 0-.6-.6 0-1.2.5-1.6-.5-.3-1-.6-1-1.3-.3 0-.3.2-.4.3l.3.2c-.5.2-.3.4-.5 1 .3 0 .4 0 .5-.2h.5l-1 .2-.1.6h.3-.4v.1c-.2.4-.4 1-.8 1.2h-1c-.8 0-1.2-.4-1.5-.8-.1 0-.3.8.1.7l-.3.5c-.4 0-.4-.2-.6-.3.6-.3.2-1-.3-1.3-.4.1 0 .2-.1.5-.3.3-1.2.7-1.4.3-.3 0 .1.2-.2.3-.3-.1-.1-.6-.3-.7h.2l-.1-.1-.1-.3V5c-.4 0-.5 0-.9.3.3-.4-.1-.1-.5-.2v-.7l-.5.1-.1.1v.2l-.3-.1c0-1-1.5-.7-1.7-1.5-.5.1-1.3.1-1.4-.2 0 0 0 .2-.2.2 0 .3.3.2.2.4.4.1.4-.2.7-.1.4.5.1.8-.5.9v.4c0-.4.8-.8 1.5-.5v.2l-.3.2c.1.1.6.2.3.4.3 0 .2-.2.4 0v.3c-.7.1-1-.1-1.6-.2-.3.1 0 .5.2.5v.1h.3-.1c0 .5.7.5 1 1H190.4c-.5 0-.8 0-1-.3-.4.2-1 0-1.4.1H187.7c-.1 0-.3-.3-.3 0l-.1-1.1c0-.2-.3 0-.4-.2-.3.4-.6.4-1 .5-.3 0 .2-.3-.1-.5-.4.4-.2.6-.2 1.2l-.2-.1c.1.1 0 .3-.2.5h.2c.2.3.7.5.6 1-.4.1-.2.2-.4.3-.4 0 0-.2-.2-.4 0 0-.5.1-.3-.1v-.1h-.1.2c0-.3-.6-.6-.4-.7h.2l-.1-.2-.2-.2v.2c-.3 0-.2-.3-.5-.2 0-.6.9-.5.9-1l-1 .6c-.4-.1-.6-.5-.7-1 .2 0 .4-.3.6-.2 0-.6.3-1.2-.7-1.2-.2-.2-.6-.5 0-.6-.2-.3-.5-.4-.7-.5 0-.2 0 0 .3 0v-.3c-.2-.2-.3-.4-.7-.4-.2 0 .2.3-.4.2l.4.4c-.7 0 0 .7-.9.7v-.5c-.6.1 0 .5.1.8l.2-.3c.4.1 0 .3 0 .5 0 .3.6.1.5.6.3-.3.9-.3 1.3-.4l.4.2c0 .3.2.3 0 .6-.4 0-.6-.2-.8-.3-.3 0-.2.3-.6.2 0 .2 0 .2.2.2H182c.5.2.2 1 1 1 .1.4.6.5.8 1-.2-.2-.2-.2-.2 0-.4 0-.3-.3-.9-.3 0-.5-.9-.5-1.2-1l-.2.4h-.2c-.3 0-.5-.4-.6-.2-.1-.1-.3-.3-.3-.5V5l-.2-.2v.2l-.5-.2s0-.2.2-.2c-.1-.2-.4-.2-.6-.2H178.8c-.3-.2-.4 0-.7.1 0 .2.5 0 .3.2l-.1.1h-.6c0 .3.2.2.4.3 0 .1-.2.1-.2.4h-.2c-.3 0-.1-.3-.5-.3-.1.1 0 .3-.2.5l.2.1-.1.2h.1l-.1.4-.7-.3h.1-1V6c-.9.1-1.4-.3-2-.6v-.1h-.2l-.1.1h.1l-.2.1c.2.3.3.4.6.4-.2.2.1.7-.4.7v.1h-.2c.2 0 .4.2.2.2l-.4-.1h-.2v-.2h-.3l-.3-.1v.1c-.1.2-.6 0-.8.1.3-.2.2-.5.2-.8h.4c0-.2-.1 0-.4 0l-.1-.5c-.3 0-.1 0-.1-.1h.2l-.2-.3c-.1.3-.2.3-.4.5.4 0 .3.2.6.2 0 .3-.7.3-.6 0h.1l-.2-.2h-.2c-.2 0-.6-.3-.6 0-.2 0 0-.2 0-.4l-1.2-.3c.5-.2-1-.5-1-.7-.2 0 .1.3-.1.3-.3 0-.2-.2-.7-.2 0 .3.2.8.1 1-.4.1-.7-.7-1.2-.8l-.5.1h.2c-.3.2.2.3 0 .6-.6 0-1.3-.6-2.2-.7-.1.2.4.3.4.3v.2c.3.2.9.2 1.3.3h-.2c.2.3.5.4.9.5 0 1.2 1.6 1 2.5 1.5v.5c.3-.1.3-.3.7-.4l.3.1c.6.1 1.4.1 1.5.5 1 0 1.3.3 1.9.4-.3.8.9.3.8 1 .6-.2.8.2 1.1 0 0 .2.7.2 1 .2v.3c.4.1.5-.3.8.1l-.1.1v.2l-.7-.1c.2.2.5.4.4.8-1.3.3-3 .3-4.2.3h.2l-.2-.1c.2-.3.6-.2.6-.6l-.8-.7c-.7-.2-1.3 0-1.8-.3 0-.8-.7-.9-1.2-1.2 0 0 .2 0 .2-.2-.2-.1-.4.2-.3.2-.5 0-1.6-.6-1.5-.9-.2.2-1 0-1.4 0l.2.3h-.4l-.8-.5.1-.2c-.4-.5-1-.8-1.7-1.3h-.2c-.4-.5-1.6-.1-2-.5-.3.3.5.4.7.7h-.2c.3.5 1 .6 1.7.6v.2c0 .3.1.3-.1.6.4.3 1 .5 1.6.7l-1.1.8c-.3 0-.4 0-.6-.2l.2-.4c-.1-.3-.6-.3-.7-.6-.1 0-.3 0-.4.2 0 0 .3-.1.2.3h-.5V8c-1.2-.4-2.5-.6-2.9-1.5l.1-.1-.4-.1.1.2c-.4 0-.4-.2-.7-.2 0-.2 0-.2.3-.2l-.3-.4c-.3 0-.3.2-.6.1l.2.2h-.2c-.1.5-.5.5-.9.2 0-.1.3 0 .3-.2-.1-.1-.6.3-.8.5l.4.1c-.1.3-1 .5-1.3.3-.4 0 0 .1 0 .3-.7.5-1.3-.2-2 0-.1 0 0-.4-.3-.4 0-.2.1 0 .3 0-.2 0-.3-.3-.5-.3-.2-.3.3-.5 0-.6h-.1v-.2c-.4.3-.5.7-1.2.7 0 0 .3.3 0 .5V7.2h-.5c0-.3.2-.5 0-.6l-.1.1h.1v-.3c-.4.2-.8.5-1.3.5 0-.4 1-.7.9-1.2.4-.1.7-.4 1.1-.4l-.6-.3c-.2 0-.4.3-.5.5-.3 0-.3-.2-.5-.3-.6.4-.2 1.6-1.5 1.7v-.5c-.5-.1-.4.3-.3.5-.4 0-.3.5-.6.5v-.1l-.5.3h.2c0 .3-.2 0-.4.2.7.5 1.2 1.2 2.1 1.4-.5.5-.9-.2-1.5 0-.3.2-.6.3-.7.7h.3c-.5.2 0 .8-.5 1.2-.5-.1-.2-1-.3-1.7.3-.1 0-.6.5-.5-.1-.2-.4-.2-.6-.3 0 0 .4-.3.2-.4h-.1c-.1-.4-.6-.6-.6-1.2-.6 0-.6-.5-1.2-.5.5-.6 0-1.4-.4-2.1-.4-.1-.4.1-.6.2.2.2.2 1 .4.9.3 0-.1.2 0 .3-.7 0-.9.4-1.4.6.1.4 0 .5.2.8.2-.2.1-.6.3-.7h.4c0 .3.3.2.9.2 0 .6-.6.6-.7 1l.4-.1V8h.6c-.2.4-.4 1-.9 1.2-.4 0 0-.5 0-.7l-.2-.2-.3.2c-.3-.3-1 0-1.5 0 .2.2.4.3.3.6.2.2.5 0 .7.2l-.3.4c.2.3.6 1.1-.1 1.1 0 .4.6.1.8 0h.2c.1 0 .2.3.1.4.9.5 1.4 1.3 2.5 1.6v.6c-.5 0-.9-.1-1-.3 0 0 0-.2.2-.2-1-.1-1.3-.7-1.9-1.2-.5.1-.7.6-.6 1 .1.3.5.3.2.5h-.3c0 .2.1.2.1 0 .6 1.2-.5 1.9-1.2 2.3h-.2l.1-.2c-.2.2-.4.2-.5.2h.1c0 .2-.4.2-.5.3v-.1h-.2c0-.5-.2-.9-1-.8 0-.2-.3-.2-.1-.3v-.1c.4 0 .5-.2.9-.1-.1-.2 0-.4-.4-.4.2-.3.4-.6.4-1.1.3-.2.6-.3.7-.5.5 0 .7.3 1 .6 0-.4.4-1.2 0-1.3.2-.2.6-.2.4-.5 0-.1-.4 0-.3-.4-.4 0-.3.5-.9.4 0-.4.2-.5 0-.8.3 0 1-.4 1 .1.2 0 .2 0 .2-.3l-.3-.2a2 2 0 0 1-1 .3V10h-.2c-.2-.2-.1-.7-.5-.9 0-.3.4-.4.7-.5-.1-.3-.5.2-1 .1a1 1 0 0 1-.3-.4l-1 .8-.3-.1h-.2v-.5c-.2.1 0 .7-.7.5.2-.4.4-.9-.3-1-.4 0-.6.3-.7.6-.7-.2-.6.4-1.3.3 0-.5.5-.7 1-.8-.5-.2-.7-.4-1.2-.2 0 .3-.5.5-.2.8-.6.2.2 1-.2 1.4.4.4.1 1.1-.5 1.2-.4.4-.5 1-1.1 1.1.2.3.4.6.4 1-1.2.5-1.1-.2-1.4-.9-.4 0-.4.3-.7.2v-.1h-.4.3c-.3-.3-.5-.7-.4-1.2.6.1 1-1 .9-1.2.3-.4.8-.1 1.2-.2.1-.4.7-1.3.1-1.5.2-.1.4-.4.6-.2l-.2-.5c-.2 0-.2.3-.5.2 0-.3.3-.6-.2-.7-.6 0-.2.4-.5.5-.3-.1-.8 0-.9.1 0 .2.3.2.3.4.2 0 .3-.2.3-.2.3 0 .8.2.4.4 0 .2.3 0 .5 0-.3.7-1.8.5-2 1.2-.4-.1-.5 0-.8 0v.5c-.4 0-.3-.4-.8-.4v-.2c-.4-.2-.1-.7-.8-.7v-.1h-.3v.2h-.2V9l-.4-.1c-.6.3-.6 1-1.5 1h.1l-.3.1h.1v.1c.3.2.7-.2.9.2 0 .2-.3.3-.4.4-.4 0-.2-.3-.5-.2-.3.2-.1.3-.2.7-.2 0-.5 0-.4-.3-.4.3-1 .7-1.8.7-.5-.1-.5-.7-1-.7.3-.3 1 0 1.3-.4 0-.6-.2-.7-.8-.9.1-.5-.2-.7 0-1 0-.2-.2 0-.3-.1-.1-.3.2-.2.1-.4-.9-.3 0 1-1 1 0 .3.2.4 0 .5l-.2.1c-.3 0-.2-.5-.7-.4v.6c.1.2-.4.2-.5.4v.4h-.4l-.1.4c-.2 0-.6 0-.5.2l-1.4-.3c-.4-.7 0-.9.1-1.4.3 0 .2-.1.4 0 0-.3-.2-.5-.4-.7-.5.2-.6.7-1 1.1h-1.1l.1-.2-.3.1c-.2 0-.3-.1-.3-.4-.7 0-.5.2-.6.5-.4 0-.6.1-.8 0h-.2l-.4.2c.1.1.2.3.2.1 0 .4.5.7 0 1 .3.2 1 0 1.1-.2h.2-.1c0-.3 0-.4.3-.4l.2.6c-.1 0-.4 0-.4.3l.1.2c.2 0 .3 0 .4-.2.3.3 0 .4.1 1-.3-.3-.4.2-.9 0 .2.2.5.2.4.6-.4 0-.5-.1-.7-.2l.2-.4H113l-.2.4c-.5-.2-.7-.6-.4-1h.1l.1-.4h-.2c-.2-.6-.3-1-.3-1.6h.2v-.3s-.2-.4 0-.4l.2.2c-.1-.2 0-.4.2-.5-.2-.2 0-.4.2-.4h-.2c-.6-.1-.2-.8-.8-1-.3.4-.3 1-.7 1.3h-.1l-.1.2h.2c.2 0-.2.4.2.5 0 .3-.2.3-.3.5-.4-.3-.6-.2-1-.2.1-.7-.6-.8-1-.6 0 .2-.2.5 0 .6.3 0 .4-.2.7-.1.3.5.5.5 1.3.5h-.1l.1.1c0 .3 0 .5.3.4.1.4.2.8 0 1h-.8c0 .2-1 .2-1 .2-.5 0 0-.3-.4-.3-.5 0-.5.3-.6.6-.2 0-.4-.2-.4-.3l-.2.1s.2-.4-.2-.2l.2.8c.2 0 .1-.3.3-.3.4 0 .3.5.6.7-.7 0-1 .8-1 1.4-.2.1-.4.3-.9.2l-.2-.4h-.1l.1-.2c0-1-.2-1 0-2h-.5c0-.5.2-1.4.8-1.7 0-.2-.6.1-.5-.1h-.4c0 .4.1.7.3 1h-1c.2-.2 0-.3-.5-.3 0 .2-.2.2-.2.6-.2-.2-.3 0-.5.1.2.5.7.3 1 .7l-.7.2c0 .5-.3 1 .4 1.2-.4.1-.2.4-.2.7h-.2c0 .6.4 1.4.5 1.7.3 0 0 .2-.2.1-.1.4.3.3.3.6-.2-.3-.2.2-.3.2 0 .2.2.2.4.2l-.1.2-.2-.1-.4.1.4.3c-.1.3 0 .9-.8.7 0-.3-.2-.5-.3-.6h-.5c.2-.2-.2-.4-.4-.4 0-.3.4-.1.4-.3-.4.2-.8-.2-1-.6-.1-.2.1-.1.1-.3 0-.4-.4-.2-.5-.3-.1-.2-.4-.6-.2-.7.4-.1.9.2 1-.1h.2c.2.2.2.5.2.8.1.2.4-.2.6-.2l-.5-.1c.4-.3-.1-.4-.1-.7.1-.1.2-.3.4-.3-.4-.2-.3-.2-.4-.6h.4c-.2-.8-.1-1-.4-1.8-.5-.2-.4.2-.7.2 0-.3-.4-.2-.4-.5.7.1.9-.4 1.4-.2l.1-.2c-.6-.2-.8.4-1.6.2.3-.2 0-.5-.1-.7-.4.4-.3.9-.4 1.3-.1.6-.4 1.1-.3 2.1l.2.4c-.3.3 0 1-1 .9.3-.2 0-.2 0-.4-.1-.1.1 0 .1-.2s0-.3-.2-.5c-1 .2-.6.8-.3 1.4H99.7s0 .5-.3.6c0 .3.4.1.3.4-.4.2-.9 0-.9-.4-.9.2-1.7-.5-1.2-1-.3-.2-.6-.1-1-.2-.1-.4.5 0 .3-.3l.1-.2c0-.2.4-.3.5-.5l-.1-.1c-.7.2-.1-.3-.5-.3-.1 0 .1.7-.1.9l-.1.1c-.1.3-.2 0-.5 0 0 .3.1.3.2.3-1.4.2-.5-.8-.7-1.3l.7-.1c0-.3-.3-.3-.2-.7.6-.2.4.3.9.2v.2l.5-.2h.4s0-.2-.2-.2l.1-.1V13h.2c-.2-.3-.3-.3-.3-.6l-.1.3H97v-.2l.1-.1c-.1-.1 0-.3.2-.3l-.3-.1c.1-.6.3-.3.6-.8h-.4c0-.3.5-.1.4-.5-.2-.2-.6-.1-.6-.4-.6 0-1.3.1-1.6.5-.5 0-.5-1 0-1.1 0-.3-.3-.4-.8-.4l.4-.7s.1.1.2 0c.4-.4.9-.8.7-1.6-.7.2-.8.6-1.7.8-.2 0-.1.1-.2.2h-.3c-.1 0-.1 0 0 0-.1.3-.4.2-.6 0 .2.2 0 .3 0 .6-.9-.3-.3.6-.3 1 .3 0 .3-.2.6-.1l.1.2h-.1c0 .2 0 .4-.3.4-.1.2 0 .2.2.2 0 .2-.4.1-.6.2 0 0 .2 0 .2.2l.1.1c-.8 0-.6-.2-1.3 0-.6-.4.2-1.1-.4-1.1l.1-.2h-.1c.2-.2.2-.4.5-.6-.1-.3-.3 0-.7 0 .2-.3-.2-.4-.1-.7-.5.1-.9-.4-.8-.8h.1l-.2.1v.1c-.3 0 0 .4-.5.4-.3-.2-.2-.5.1-.6h.2c-.2 0-.2-.1-.2-.2-.6-.3-.5.6-.6.8-.3 0-.5 0-.4-.2-.3 0-.3.4-.8.4l.2-.8c-.4-.5-1.6-.3-1.8 0h-.2v.2h.1c.3.3 1.2 0 1.1.6-.4.1-.5 0-.8 0-.2 0 0 .3-.2.4h.5c0 .5.4.6.8 1-.1.1-.7 0-.8 0 .1.3.2.5-.3.6.5 0 .2 1-.1 1.1-.2 0-.3-.2-.3-.4-.3 0-.3.2-.6 0 0 .4-.9.5-1 .8-1-.2-.6-1.7.1-1.8-.5-.7-.1-1.2-1-1.4V8.2h-.2c-.2.1-.3-.4-.7-.5-.2 0-.4.3-.5.5h-.2v.1h-.7c.2-.5-.4-.5-.5-.7-.2.2.3.4.3.2.3.2-.5.6-.7.3-.3.4-.5 1-.5 1.4h-.4.1-.3c-.1.7.2.7.1 1 .3 0 .3-.3.4-.5.6 0 .4.7 1 .6h.2c.3.1 0 .4.3.6v.2c0 .4-.3.6-.4.7h-.6l-.1-.3h.3l-.1-.3c-.3.3-.7.2-1 0v-.1h-.1c0-.2.2-.2.3-.2l-.2-.2s-.2.3-.9.3c-.2-.2 0-.4-.3-.6h.1l-.3-.2c-.4.2-.8 0-.8-.3l-.4.1c.1.6 0 1.3.4 1.5 0 .9-.2 1.8-1.6 1.5-.8-.2-1.1-1.3-1.3-1.8-.5.1-1.4-.1-1.6-.4 0-.2-.2-.6.1-.6-.1-.2-.3-.3-.6-.3.2-.7.5-1 .2-1.7.2 0 .2-.1.2-.3.7.3.7-.4 1.1-.6v-.2c-.3 0-.2-.2-.4-.1s-.2.3-.2.5l-.2.1c-.4.1-.5-.1-.5-.4-.4 0-.4.3-.6.4.1.2.7 0 .7.2-.2.1-.4.4-.8.3-.3.3-.8.9-.6 1.4l-.2.1-.1.8-.6-.3c0-.3.1-.4-.2-.5l.8-1.3c-.6 0-.9.7-.9 1-.7-.1-.4.8-1 1-.5 0-.5-.5-.6-.8l-.6.2c-.2.3.6.8.2 1h.5c.1.4-.2.4-.3.6-.1-.3-.4-.4-.7-.2v.2l-.1-.1c.1 0 .2 0 .2.2-.2.3-.5.3-.8.4 0-.5-.5-.4-.6-1h-.5c.2-.4-.4-.8-.5-.4-.2-.2 0-.4-.1-.6-.2 0-.2.3-.4.2.1.5.4.9.9 1l-.1.6c.1.1.5 0 .5.4v.1h.2v-.1c.7.2 1.2.6 2.2.8-.2.4.3.7-.2 1.2-1 0-1.3-.6-2.3-.6v-.2c-.1-.5.2-.6.1-1-.2.2-.4 0-.8 0 0-.4-.5-.8-1-1 0-.3.3-.2.4-.3-.2-.2-.5-.4-.5-.7-.4 0-.7.6-1.6.4 0 .3.1.3.3.4-.5 0 .1.7-.3 1l-.6-.5c.2-.3.1-.6 0-.9.3.3.2-.2-.2-.2.3 0 .6-.1.6-.4h.2l-.1-.2h-.1c-.2 0-.4 0-.4-.2 0-.3.2.1.4-.1-.2-.3-.2-.6-.2-1-.4 0-.4.4-.8.4H61c-.3-.2.1-.8-.3-1V8h-.1c0-.7-.4-.6-.8-.6.2-.4 0-.8-.4-1 .1 0 0-.3.3-.3-.5 0-1-.2-1-.7H58c0-.3-.2-.4 0-.6l-.4-.1h.2-1.1s0 .4.4.3c-.1.6-.1 1-1 1 .5-.5-.2-1.3-.6-1.7v-.1h-.1c-.3-.2-.8 0-1 0 .2-.2-.5-.6-.5-.6-.2-.3-.2-.7-.7-.8l.4-.1V2c0-.2-.6 0-.6-.2v-.2c-.2 0-.4 0-.5.2h.1c0 .3 0 .1-.1.1-.1.3-.4 0-.6.2.2.1.7 0 .6.4-.3-.3-.1.2-.3.3 0 .2.4 0 .4.3l.1.1c-.4.3-.8 0-1.3 0v-.6l-.2.1-.4.7c.1.3.5.6 1 .5.1 0 0 .3.2.3h-.3c.1.1.3.4.5.2v.1h.1c.2 0 .2 0 .2.2-.5.5-1.4-.3-2 0 0-.3-.2-.4-.4-.4-.3 0-.2.7.2.6-.2 0-.2.3-.4.3-.4-.3-.7 0-1.1.1-.5-.6 0-1.3.5-1.7-.5-.2-1-.5-1-1.2-.3 0-.2.2-.3.2l.3.2c-.6.3-.4.5-.5 1V4c.2 0 .4 0 .4-.2h.5L48 4l-.2.6h.3-.4c-.3.5-.5 1-1 1.2h-.8l-.2.1c-.7 0-1.1-.5-1.4-.9-.1 0-.3.8.1.7l-.3.5c-.4.1-.5-.1-.6-.2.6-.3.1-1-.3-1.3-.4 0 0 .1-.1.5-.3.2-1.3.7-1.4.3-.4 0 0 .2-.2.2-.3 0-.2-.5-.4-.7h.2l-.2-.3v.1c-.3 0-.4.1-.8.3.3-.3-.1 0-.5-.2v-.7c-.3 0-.5 0-.5.2H39l.1.1h-.4c0-1-1.4-.8-1.6-1.5-.5 0-1.3 0-1.4-.3-.1 0 0 .2-.2.2-.1.3.3.3.2.5.4 0 .3-.2.7-.2.3.5 0 .8-.6 1v.4c.2-.5.9-.8 1.6-.6l-.1.2v.2l-.3.1c.1.2.6.2.3.4.3 0 .2-.1.4 0v.4c-.7 0-1-.2-1.5-.3-.4.2 0 .5.2.5l-.1.2.3-.1h-.1c0 .5.8.5 1 1H37.2c-.5 0-.8-.1-1-.4-.4.3-1 .1-1.4.2h-.2c-.2 0-.4-.3-.4 0v-1c0-.2-.4-.1-.5-.2-.3.3-.6.3-1 .5-.3-.1.2-.4-.1-.5-.4.3-.2.5-.2 1.1h-.1c0 .2 0 .3-.2.5l.2-.2c.3.3.7.5.6 1-.4.2-.2.2-.3.4-.4 0 0-.2-.2-.5 0 .1-.5.2-.4 0v-.1c-.1-.2 0-.2.1-.2 0-.3-.6-.5-.4-.7h.2l-.1-.1-.1-.2v.2c-.3 0-.3-.3-.6-.3 0-.5.9-.4.9-.8-.4 0-.6.3-1 .4-.4 0-.5-.4-.6-1 .2 0 .3-.3.5 0 0-.7.3-1.3-.8-1.3-.2-.2-.5-.6 0-.7 0-.2-.4-.3-.7-.4l.4-.1v-.3c-.2-.1-.3-.4-.7-.4-.2.2.1.4-.4.3l.3.4c-.7 0 0 .7-.9.6.2-.2 0-.2 0-.5-.5.2.1.6.2.9l.2-.3c.4 0 0 .3 0 .5s.6 0 .5.6c.3-.3.9-.3 1.3-.4l.4.2c-.1.2.1.3-.1.6l-.7-.4c-.3.1-.2.4-.6.3l.1.2-.1.1H29c.5.2.2 1 1 1 .1.5.6.5.8 1-.2-.1-.2-.1-.2 0-.4 0-.3-.3-.8-.2-.2-.6-1-.6-1.3-1-.2.1-.2.2-.2.3H28c-.3.1-.5-.4-.7-.1l-.3-.6-.2-.2v.1l-.5-.1.1-.3-.5-.1h-.4c-.3-.2-.4 0-.7.1 0 .2.4 0 .3.3l-.1-.1h-.6c-.1.3.1.2.3.3l-.2.4h-.1c-.4.1-.2-.3-.6-.2l-.1.5h.1V6.3l-.8-.2.2-.1h-1.1v-.3c-.8.2-1.4-.3-2-.5l.1-.1h-.2l-.2.2h.2-.2c.1.4.3.4.6.4-.2.2 0 .8-.4.8h-.2c.2 0 .4.2.2.3-.2 0-.4 0-.4-.2v.1s-.2 0-.2-.2h-.3l-.3-.2v.2c-.1.1-.6 0-.8 0 .3-.1.2-.4.2-.8h.4c0-.2-.1 0-.4 0 .1-.3 0-.3 0-.4-.3 0-.2-.1-.2-.2h.2l-.3-.2v.2c0 .2-.2.2-.3.4.4 0 .3.2.5.2 0 .3-.6.3-.6 0h.2l-.3-.2h-.1c-.3 0-.7-.3-.6 0-.3 0-.1-.2-.1-.4l-1.1-.3c.4-.2-1-.5-1-.7-.2 0 0 .3-.2.3-.3 0-.2-.2-.7-.2 0 .3.3.8.2 1-.4 0-.6-.8-1-1h-.5l.1.2c-.3.1.2.2.1.5-.6 0-1.4-.5-2.3-.6-.1.1.4.2.4.2l.1.3 1.3.2h-.2c.2.3.5.4.8.6.1 1.2 1.7 1 2.5 1.4v.5c.3 0 .2-.3.6-.4l.4.2c.5 0 1.4 0 1.4.5 1-.1 1.4.3 2 .4-.3.7.9.3.8.9.6-.1.8.3 1 0 0 .3.8.3 1.2.3l-.2.2c.5.2.6-.2.9.2H23l.1.2h-.7c.2.2.5.3.4.7-1.2.3-3 .4-4.2.4l.2-.1h-.2c.2-.3.6-.3.5-.7h.2l-1-.7v.2c-.6-.3-1.2-.2-1.7-.3 0-.9-.7-1-1.2-1.3 0 0 .2 0 .1-.2l-.2.2c-.5 0-1.6-.6-1.5-.8h-1.4l.1.2h-.2c-.3 0-.7-.2-1-.5 0 0 .2 0 .2-.2L10 5.7v-.1h-.2C9.3 5 8 5.5 7.7 5c-.2.3.6.4.8.7l-.3.1c.4.4 1 .6 1.7.6h.1c0 .5 0 .5-.2.7.5.3 1 .6 1.7.7l-1.1.8-.6-.1c-.1-.3 0-.3.1-.5 0-.2-.6-.2-.7-.6l-.4.2c.1 0 .3 0 .2.3l-.5.1v-.2c-1.3-.4-2.5-.6-3-1.5h.2L5.3 6v.1c-.2.1-.3-.1-.6-.1v2.5l.2-.1c0 .5.9.7.7 1.1-.3 0-.5 0-.4-.2v-.2H5c-.3-.1-.3 0-.4.2v.2l.3-.2c-.2.2 0 .5-.4.5v1s.2 0 .2.3h-.3l-.2 3c.1 0 .2-.2.3.1v.2h.2c0 .5-.2.5-.1 1l-.1-.5c-.2 0-.1.5-.1 1l-.2-.3-.3.8c0-.2.3-.3.5-.2v.3h.2c-.2.3-.1.9-.1 1.3.2.2.2-.2.4-.1 0 2 .7 2.2.9 3.5-.3 0-.7 1-.3 1.5h-.2l.2.2.2 1c-.4.3-.7.9-.8 1.9 0 0-.2 0-.2-.4-.2.3 0 1.5-.5 1.7-.1.4.1.4 0 .8H4l.2.1v.7h.2v.2l.2-.4v-.2c0-.4.1-.4.3-.6h.2v-.2c.3.2 0-.9.4-.8 0-.6-.3-.5-.2-1.1.2-.2.3 0 .5-.3v.2H6v1c0 .4-.4.4-.4.9.4.5.4-.8.9-.5v.6c-.2.1-.2 1-.2 1.2 0 .2.1-.1.2 0 0 .8 0 1.6-.2 2-.3-.3-.2-1-.3-1.5-.5 0-.6.1-1 .4 0-.3-.2-.4 0-.8h-.4c.3.2 0 .8.3 1 0 .3 0 .6-.2.8.3.2.1.6 0 .8V31c-.2.4-.5.8-.9 1-.3 0-.1 1.3-.4 1.7.3.2.4.9.6.6v.3h.2c0 .4.2.4.3.7 0 .9-.3 1.3-.3 2.3h-.4v1.3-.1l.1.6V39c.2 0 .2-.5.3-.6h.2v.1c.3 0 .4-.5.6-.1V38l.1.1-.1.5h.1v.6l.5.3c-.1.4 0 1 .3.8l-.1.3c.1-.2.2-.2.3-.2H6c-.2-.5 0-1.1.3-1.2v.2h.2c-.2.6-.2 1 0 1.6 0 1-.5 1.1-.4 2.2.5-.6.4 1 1 .7-.3.5.1.5 0 1.1a9 9 0 0 0-.4 1.5c-.1-.2-.2-.2-.4-.2v-.6c0 .4-.3 1.6 0 2v.3c0 .7.2.8 0 1.1l.1.2h-.2V49.5l.2.1h.1v.4c.2-.2.4 0 .4-.5.4.6-.1 1.8-.3 2.3-.3 0-.2-.7-.3-1-.3 0-.3.2-.5-.1 0-.5.2-.5.3-.7v.2-.4H6v.2c-.3 0-.4-1-.4-1.6v-1c0-.5.2-1 .3-1.4 0-.7-.2-1.3-.1-1.8l.1-.7c0-.2-.3-1.3-.3-2 0 .5-.5 1-.4-.2l-.5 1.3c-.2.1-.5-.4-.7.3.2.2.3.8.4 1.1 0 .4-.1.3 0 .8-.2.1-.1-.6-.4-.5-.2 0 .2.5 0 .9.2 0 .5-.3.4.3l.2-.5c.3 1 0 2.9-.7 2.7-.1-.4-.2-1-.1-1.8l-.1.1c-.2.1-.2.5-.4.4l.1-.6c-.4 0-.6 1.2-.8 1.8.2 1.2-.1 2.6-.5 3 .3.2 0 1 .4 1L2.4 53c.3.2.3-.4.3-1 .3.4.4 0 .7-.3v.7c.6-.4.6-.8 1.2-1v.6c.3-.1 0-.3.1-.5.3.5.4 1.2.2 2-.2 0-.3 0-.3-.4-.6.2-.7 1-.9 2 0-.4.2.5 0 .7-.2-.1.2-.8 0-.7-.1.8-.2 1.7-.6 2v-2c-.2-.8-.5.3-.4-.6-.3 0-.3.5-.5.7-.2-.7-.5-.2-.7-.8V54l-.2-.2c.2 0 0-.3 0-.5h.1l-.2.4v.5c0 .4-.2.6 0 1.3 0 .4.4.3.4 1 .3 0 .3-.5.6-.5v1.3c.1 0 0-.6.2-.5.4.2.5.9.5 1.4 0 .4.3.1.4.2l.1-.5c.2.2.4.3.7.2 0 1.3-.2 1.6-.5 2.5H4c-.2 0-.3.4-.5 0v.2c-.2.4-.2 1-.1 1.6.3.1.6-.4.7.2-.1.6-.4.7-.4 1.6l-.2.2h.3v-.2c.1.1.1-.1 0-.1.4-.2.9.9.5 1.6l-.1-.5c-.2.2 0 .7.2.8 0-.4.2 0 .3-.6.5.4.2 1.3 0 2 0 0-.2 0-.3-.3-.2.7-.7 1-1 1 0 .7-.3.4-.4 1v.2c.1.6.3 0 .5 0 0 0 0 .2.2.3.2 0 1-.2 1.2-.7v-.2H5c.1.2.3-.2.3-.4.4.8-.2 2.2-.4 2.9-.2-.1-.2-.3-.3.1-.2-.1-.2-.6-.4-.6s-.2.4-.4.5c.6 1.3 0 2.5-.5 3 0 1.1-.4 2.4-.8 2.6v.7c0 .5.4.2.7.3v1.9c-.1 0-.3 0-.3-.2v-.2.9h-.3v.3c-.2-.1-.2.5-.4.1-.3 1.5.3 2.3-.3 2.8 0 .9-.4 1.6-.5 2.6-.1-.2-.1-.7-.4-.5v-.3l-.2.8H1v.3c0 .4.4 0 .5.3.1-.2.1-.4.3-.5v.3H2c.2.1.1.5 0 .9v-.1c0 .5 0 1-.2 1.4l.1.1v.8l-.2 1c-.5-.4-1 .5-1.4.6 0 .5.1.8.3 1 0 .6-.3 1.9 0 2.1 0-.3 0-.6.2-1l.4.4c0 .4-.2.7 0 1 0 .3-.3.4-.5.6.1.2.4.1.5 0 0 .5.3.4.7.6l-.1.3h.1s0 .4.2.4v.2h.1c0 .6-.3.6-.3 1.2-.7.3-1 1.4-1.3 3 .1.3.3-.5.4 0 .2.3 0 .6 0 1.2-.4.1-.6.8-.7 1.5 0 .7.5-.2.4.5.3.1.1-.6.3-.5l.2.1.6.4c0-.6.3-1 .4-1.4.3.2.4.8.6 1.1v.7c-.4.2-.5-.1-.9 0v-.3l-.2.4c-.1-.5-.4-.5-.5-.7l-.2.2v.2c0 .4 0 1.4.4 1.5-.1.6 0 .7.1.8-.3.9.4 1.4-.3 1.6L1 108v.3l-.1.4v-.4l-.1-.2c-.3 0-.2.8-.5.8v2.6c.2.3.4-.3.7-.5.2 1.2.5.1.8.5 0 .7-.4 1.3-.6 1v.6c.1.3.2 0 .3 0 0 1.2-.4 1.7-.3 2.8.2 0 0-.5.2-.5H1.8c0 .3.1.6.4.5 0 .2-.3.7 0 1-.3.1-.3.5-.5.4 0 .7.1 1.2.4 1.3-.1.3-.3.2-.2.7 0 .2.3.1.5.3l.1 1v.2h.1c-.2.7-.1 2-.4 2.5 0 .4.3.7 0 1l-.1-.5-.1 1 .1-.1c0 .6.4 0 .3-.5.2 0 .2 0 .3-.2.2 0 .1.7.3.7.3-.2-.1-.8 0-1.1.5 0 .5.7.5 1.3-.1.5-.6.5-.9 1v.6l-.8 2.9c0 .4.3 0 .3-.2.3.7-.2 1.6 0 2.4 0-.3 0-1 .4-1v-.9c.4 0 .6-.6 1-.2 0 1.4-1 .7-.9 2.5.5-.6.5 0 1 .5l.2-.4-.3.4-.1.2h.1c0 .4.3.3.2.9-.4.7-.2 2.2-.2 2.9.3-.3.2-1 .5-1 .4-.2 0 .8.4.5v.2l.2.1c-.2 1-.8 1-.8 2.5.4.1.2-.6.6-.4-.1.7.2.5 0 1.2.5 0 .5-1 .9-1.2 0 0 .2.1.2.4l.2.4v-.3c0-.2.3.2.5 0 0 .7.1.7-.1 1l-.1-.3-.5 1.3h-.7c0 .8-.4 1-.7 1.7 0 .6.3.4.4.7-.3 0-.1 1-.5 1 0-.5-.3-.7-.3-1.3-.4 0-.2 1-.3 1.3h-.3c0-.8-.3-.9-.3-1.5-.4.2-.2 1.6-.6 1.8 0 .4.4.7.1 1 0 .3.2.1.3.4v.4-.3V146.4c-.2.6-.2 1.5-.5 1.5v1.6c.1 0 .3-.3.4 0l-.1 1.3h.1l.2-.2-.2.3v.2l.2.4v.2c0 .1.2.1.2.6l-.3.1v-.6l-.4.3v1.3c.2.4.6.2.7 1.1.2-.1.3-.2.3-.6.5.4 1-.8 1.2.6-.4 0-.6.4-.7.8l.2.8h.5v.4c0 .4-.2.5-.4.8 0 .2.2.1.4.1v-.6H5l.1.8c.6-.3 0-2 .5-2.4v.2h.2v1.4c0 .8.5.5.7.6 0 .8-.4 1.2-.7 1-.2.5 0 1.3-.1 1.6-.3-1.1-.4-.8-.9-1.1 0 0-.2.8 0 1-.3.5-.6 0-.9-.2v.3c.3.2 0 1.6-.2 1.1v-.2c0 .2-.2.2-.3 0v.2l-.3.7.5.1v.7c0-.2.3 0 .3-.3.2.5.2.8.1 1.4h-.4c-.2.7.2 2.2-.1 3 0 .2.3.2.4.4 0 .7-.3 1.2-.1 1.6l-.1.3.2-.2H4v.1l.2 1.6c.4.3.3.7.4 1.3-.2 0-.2.3-.4.3l-.2-.8c-.2.2 0 .6 0 .8 0 .3 0 0 .2.2 0 .2-.2.2-.4.3v2c.1 0 .1.1.2 0 0 0 .1-.1.2 0 .2.5.1 1-.2 1.3h.1c0 1.2-.2 2-.6 2.4 0 .5-.2 1-.4 1.2l.3 1.1-.1.2.2.2v.5c.3.3.2.8.4 1.4 0 .5-.2.8-.5.8l.1.8c.2 0 .2-.3.3-.3v-.6c.2 0 .1.6.3.6l-.1.5c0 .5-.2 1-.4 1v1.1l-.3-.1v.4-.4.2c-.2.7-.3.4-.4 1-.2 0-.3 0-.4-.2l-.1.3v.4l.1-.1v.2c0-.3.3-.1.4-.4v.4l.2.2v.2c0 .7.2 1 0 1.3 0 .4.1-.2.2.1v.7l-.2-.1.1.7h.1v.5-.3l-.2.5h.1l.1-.5v.5-.1.1c.3.1.5-.2.9-.1 0 .5-.2.6-.1 1.1-.3-.3-.4.7-.8.8l.2 1c.2 0 .3-.1.4-.3.2.3 0 1-.2 1 .2.6.2 0 .3.9h.3l.2-.8-.1.8c.5 0 .6-.3 1.2-.3 0 .7.2 1.2 0 1.6h.2v1l-.2-.3v-.7c-.2 0-.3 0-.4-.2l-.1 1s.2 0 .2.2v1.4c-.4 0-.6 0-.8-.6l-.1-.2-.2-.2.1-.2-.2.4.1.2.2.2-.1.3v1.2c.2.1.2-.2.4-.1 0 2 .5 2.4.8 3.5l.2.4c0-.1.3-.3.1-.5.2 0 .3.4.4.7v.7c0-.2.2-.3 0-.4 0-.2.1.1.3 0 0 .4-.3.1-.3.5l-.1-.1-.2.2c.3.3.8 0 .8 1.2-.4.2-.7.5-1.1.2-.1-1 .2-1 .2-1.5H6c0-.4 0-1.2-.1-.8v.2l-.4.1c-.2.4-.3 1 0 1.3h-.2l.1.1c.2.3.2.7.3 1.3-.4.3-.7 1-.8 2-.1.1-.2 0-.2-.4l-.1.3c0 .4.2.8 0 1v-.2c-.1.4-.2.7-.4.8v.9H4c0 .2.1.1.3.1 0 .5-.2.4 0 .7v-.4.4h.1v.3l.3-.4-.2-.3c0-.4.2-.5.4-.7l.1.1v-.6.3c.4.1.1-1 .4-1 0-.6-.2-.5-.1-1.2.2-.3.3.2.4-.4l.1.2h.1c.1.3 0 1 .2 1.2-.2.4-.5.4-.5 1 .4.5.4-1 .8-.6l.1.7c-.2 0-.2 1.1-.2 1.3 0 .2 0 0 .2 0-.1 1 0 1.8-.2 2.2-.3-.3-.2-1-.4-1.6-.4 0-.5.1-1 .5v-.9h-.3c.2.2 0 1 .3 1.2-.2 1.2-.6 2-1.1 2.3-.4.2-.2 1.5-.5 2h.3l-.1.2h.1v.3c.2.2.2.3.3.2v.2H4c0 .5.2.5.3.8 0 1-.3 1.6-.3 2.6h-.4c.2 0 .2.7 0 .7v.8-.1.6-.4c.2 0 .2-.5.4-.7h.2v.2c.2 0 .4-.7.5-.2l.1-.4v.7l.1.7c.1.3.4.1.5.4-.2.4 0 1 .2.9v.4c.1-.1.2-.2.3-.1l-.1-.1c-.2-.4 0-1.2.3-1.3v.3l.2-.1c-.1.7-.2 1.1 0 1.8 0 1.2-.5 1.3-.4 2.6.5-.7.4 1 1 .7-.3.6.2.7 0 1.3l-.4 1.7c0-.2-.2-.2-.3-.2v-.7c0 .4-.4 1.7-.1 2.3v.2c0 1 .2 1 0 1.6L6 237v.2l-.1.6h-.1v.2c-.3 0-.3-1.2-.3-1.9v-1.1l.2-1.6c0-.8-.2-1.5-.1-2l.1-.8-.2-2.3c-.2.6-.6 1.1-.5-.2l-.5 1.5c-.2.1-.5-.5-.7.4.2.2.3.9.4 1.3v.9c-.2 0-.1-.8-.4-.6-.1 0 .2.5 0 .9.2 0 .5-.3.4.4l.2-.6c.3 1 0 3.2-.6 3a6 6 0 0 1-.1-2h-.4c-.4-.4-.7 1.2-.9 2 .2 1.3 0 3-.4 3.4.2.2 0 1 .4 1.1 0 .7 0 .8-.2 1.5.4.1.4-.4.4-1.1.3.4.4-.1.7-.4v.7c.5-.3.6-1 1.1-1.2 0 .2 0 .5.2.6v-.6c.3.6.4 1.4.1 2.4-.1 0-.3 0-.3-.6-1 .6-.7 3.7-1.5 4.6v-2.2c0-1-.4.4-.3-.7-.4 0-.4.5-.5.7-.2-.7-.5-.3-.8-.8v-1h-.1l-.1.6v.4c0 .5-.2.7 0 1.5 0 .5.4.4.4 1.1.2 0 .3-.5.6-.5-.2.5-.1 1 0 1.4 0 0 0-.6.2-.6.3.3.5 1.1.5 1.7 0 .4.3 0 .4.1v-.5c.3.1.5.2.8.1a8 8 0 0 1-.5 2.9h.3c-.1 0-.3.4-.5 0l.1.2c-.2.5-.3 1.1-.1 1.9.2 0 .5-.6.7.1-.2.7-.5.8-.5 1.9l-.2.3h.3V254.2c.4-.2.8 1 .4 1.8v-.5c-.3.2 0 .9.2.9 0-.5.1 0 .2-.8.5.4.3 1.6 0 2.4 0 0-.2-.1-.2-.4-.3.7-.8 1.2-1 1.1-.1.8-.3.4-.4 1.1l-.1.3.1-.1c0 .7.3 0 .4 0l.3.4c.2 0 1-.2 1.1-.7v-.3.1c.2.2.3-.3.3-.5.5.8-.2 2.5-.3 3.3-.2-.1-.2-.3-.4.1-.1-.2-.1-.7-.3-.7-.2 0-.2.5-.4.6a4 4 0 0 1-.6 3.4c.1 1.2-.3 2.7-.7 3v.7c0 .6.4.2.7.4.4.8.1 1.4.3 2.2-.2 0-.3 0-.4-.2v-.3 1.2h-.3v.2c-.2 0-.1.7-.3.2-.3 1.6.2 2.6-.4 3.1 0 1-.3 1.9-.5 3 0-.2 0-.8-.3-.6l-.3-.3-.1.8h.1v.4c0 .4.5 0 .5.4.1-.2.1-.5.3-.6l.1.2.1.1c.3.2.2.5.1 1l-.1-.2c.1.6 0 1.3-.2 1.7h.2l-.1.2.1.7-.2 1.2c-.5-.5-1 .5-1.5.7 0 .5.2.9.4 1.1 0 .7-.4 2.1-.1 2.4 0-.4 0-.8.2-1.2l.5.4c0 .5-.3 1 0 1.2-.1.4-.4.5-.6.7.2.2.4.2.5 0 0 .6.3.4.7.7v.3l.2.4v.3l.2-.1c0 .8-.3.8-.3 1.5-.8.2-1.1 1.6-1.3 3.3 0 .5.2-.5.4 0 .2.4 0 .7 0 1.4-.5.1-.6.8-.7 1.6 0 .9.4-.2.3.6.3.2.2-.6.4-.6l.1.4-.1.1v.4c0 .4 0 1.6.4 1.6-.2.7-.1.9 0 .9-.3 1 .5 1.6-.3 1.8v-.2.2l-.1-.1c-.4 0-.2 1-.5.8l-.1 3c.3.3.4-.5.8-.6.2 1.2.5 0 .8.6 0 .7-.4 1.4-.6 1v.8c0 .3.1 0 .3 0 0 1.3-.4 1.9-.3 3.2.1 0 0-.6.2-.6H1.7c0 .4.1.7.4.6 0 .3-.4.9-.1 1-.2.3-.2.7-.5.7 0 .8.2 1.3.4 1.4 0 .3-.2.2-.1.7 0 .4.3.2.4.4l.2 1.2v.2l.1.1c-.3.6-.1 2.2-.4 2.7-.1.5.3.8 0 1.2v-.3l-.1 1.2.1-.1c0 .6.4 0 .3-.6l.3-.1c.2 0 .1.7.3.7.3-.3-.1-1 0-1.3.5.2.5.9.5 1.4-.1.7-.6.6-.9 1.2v.7l-.8 3.3c0 .5.3 0 .3-.1.3.7-.2 1.8 0 2.7 0-.4 0-1.3.4-1.1v-1.2c.4.1.6-.6 1-.1-.2 1.3-1.3.5-1.1 2.6.5-.7.5.1.9.5v.3-.1c0 .6.3.4.2 1.1-.4.8-.2 2.5-.2 3.3.3-.2.2-1 .5-1 .4-.3 0 .7.4.5l.1.2.1.2c-.2 1-.7 1.2-.7 2.7.3.2.1-.6.5-.4-.1.8.2.6.1 1.3.4 0 .4-1 .8-1.3l.2.4c0 .2 0 .3.2.5v-.2c0-.3.3.1.5 0l-.1 1.1-.1-.4-.5 1.5h-.7c0 1-.4 1.2-.7 2 0 .6.3.5.4.7-.3 0-.1 1.2-.5 1.1 0-.5-.3-.7-.3-1.4-.4 0-.2 1.2-.3 1.4H3c0-.9-.3-.9-.3-1.6-.4.3-.2 1.9-.5 2-.1.5.3.8 0 1.2 0 .4.2.2.3.5v.5c-.2.7-.2 1.7-.6 1.6v1.9c.2 0 .3-.3.4 0v1.7h.1l.1.5c0 .5-.3.5-.4.7v1.5c.2.4.6.3.8 1.2 0-.1.2-.2.2-.7.5.4 1-.8 1.2.7-.4 0-.5.5-.7 1l.2.8h.5v.4c0 .5-.2.7-.4 1 0 .2.2 0 .4 0l.1-.6h.4l.1.8c.6-.3 0-2.1.5-2.7v.2h.2v1.6c0 .9.5.5.7.7 0 .9-.4 1.4-.7 1.1-.2.6 0 1.6-.1 1.9-.3-1.2-.4-.9-.8-1.3-.2 0-.3 1-.1 1.1-.3.7-.6.1-.8-.1l-.2.4c.4.1.2 1.8-.1 1.3v-.3c0 .2-.2.3-.3 0v.3l-.3.7c0 .2.3.2.5.2v.7c.1-.3.4 0 .4-.4.1.5 0 1 0 1.6h-.4c-.2.8.2 2.4 0 3.3l.3.6c0 .7-.3 1.3-.1 1.8l-.1.3.3-.3v.1c.2.4.3 1.1.3 1.9.4.3.3.8.4 1.4-.2 0-.3.3-.5.3l-.1-.8c-.3.1 0 .6-.1.8 0 .3 0 0 .3.2 0 .3-.3.3-.4.4v2.2c.1.3.1 0 .4 0 .1.8 0 1.4-.4 1.9-.3 1.2-.2 3.2-.7 3.8 0 .7 0 .8.2 1.3v.3l.1.2v.6l.1-.1c.2.5.1 1 .4 1.6 0 .7-.3.9-.6.9 0 .5.2.6.2.9.1 0 .1-.5.3-.4.2.6 0 1.8-.3 1.6v1.3H3l.1.5v.3h.6l-.1-.9.1.9c.2 0 .4 0 .5-.2v-.5c.4 0 .8.3.7.9h-.3l.2.7.2-.2-.1.1c-.2-.3 0-.2.2-.5.3.2.4 0 .7 0 0 .2.4.1.4.3.2-.1.8-.1.7.2h-.1.2l.2-.5c.3.2.4.1.8.1.2 0 .1-.3.1-.5l.6.1v-.2H9l.1-.1c.1.5.9.5 1.1.9 0 .5-.5.7-.3 1.1 0-.5.6-.6 1.2-.3.2-.1.3-.3.6-.3h.2c.2.5-.5 1-.1 1.5l-.2.1v.1c0 .5-.5.8-.1 1.2h-1.2v.3c.6-.2 1 0 1.6-.3l-.1-1.2v-.1c.6-.4.6-1.5.9-2.2.5-.3.3-1 .8-1.3.3 0 .2.3.5.4.1 0 .5-.2 0-.2.4-.1.7-.3 1.6-.2 0 .2.1.2.2.3v.1c0 .3-.3 0-.3.2l.1.2c.2 0 .4 0 .4-.2h.2l-.1-.1.3-.7c.7-.1.8 1.2 0 1.5.2.6 0 .8-.4 1.1l.2.1c0-.2.3-.2.5-.5.2.2.4.3.8.3.2 0 .2-.3.2-.4.3 0 .6-.1.6-.5l.2.1v-.1h.9c.2-.1.4-.4.7-.2 0 .6-.7.4-.6.9 0 .2.3 0 .4.2.4-.4 1-1.3 1.8-.7h.2c0 1-1.3 1.3-1 2.4.3 0 .7 0 .6-.3 1 0 1.8-.5 2.2-.7 1 .6 1.8 1.4 2.7 2 .2 0 .1-.3.5-.3l.3.2c0 .3-.5.2-.4.6.3.4 1.5.3 1.5-.2.1-.4-.3-.4-.2-.9l.6-.2c0 .3.3.2.3.5.4 0 .4-.5.6-.7h.3c.2.2 0 .6.3.7-.3 0-.3.2-.3.5h-.3c-.2.7 0 1.3.7 1 .3.2.2.8.3 1.1h.6c.3-.4 0-.6-.2-1 0-.4.4-.5.3-.9.6 0 .6-.5.8-.8.5 0 0 1 .5 1.2h.2l-.1-.5h.2v-.1l.3-.3c0-.2-.2-.1-.2-.5.5.1.7-.1.9-.5l.4-.1c.2 0 .1.2.3.2.5-.3.6-1 1.4-1 .4 0 1.6.6 1.8.9.5-.2.7 0 1-.2h-.1c.2-.3.5 0 .7.2v-1.4h.5c.3 0-.1 0 0-.2.4-.2.8 0 1-.3.5.3 0 .8.3 1.3.5-.2.3.4.8.2 0 .5 0 .9.3 1.1.7-.3 1-1 1.4-1.5l9.8 1c.2-.3.2-.7.5-1 .3 0 0 .3.4.2v.7l12.4 1.2h-.4c-.4.5.4 1.2.6 1.7 0-.1.1-.3.2-.1 0-1.1 1-1 2-1.3.2.6-.6 1.3-.5 2 0 .4.5.6.6 1 .4-.1.1-.4.7-.4.1-.6-.2-1.6.3-2 .4.2.5.4.9.4-.2.2-.4.3 0 .5.3-.9.2-2.6 2-2.4-.3.5-.2 1.4-.9 1.6 0 1.1-.2 2.2-.5 3.2 0 .4.5.5.6 1 .5-.2.4-.8.4-1.1.1-.2.3-.3.2-.6l.3.1h-.1.3-.1c-.2-.2-.3-.5-.1-.6-.2-.2-.2 0-.5 0 .1-.4.6-.9 0-1.3.4-.2.8-.5 1.5-.6.2.2.2.6.2 1.1l.6.3c.3-.1.4-.4.8-.4 0-.3.1-.3 0-.4l1.1-.3c0 .1.2.5 0 .6l.4.2c0-.1.3-.5 0-.7l.7-.2v-.5c.3 0 .2-.2.4 0v-.1h.2l.1.2v.4h.7c-.1-.3 0-.4.2-.8.5.2.6 0 .9-.3.1.3.6.8 0 1.1l.7.3c0 .2-.3.1-.4.2.5.4 1.3-1.1.4-1v.1-.2h-.1c.1-.3-.3-.2-.2-.6l.6.2c.5-.5 1-.5 1.7-.9.2.3.2.6.5.8l.8-.7c.3.2 1 .9.4 1.3v.1-.1c.4 0 .5.1.5.4-.3.2 0 .4-.4.5l-.3.3h.2c.4.3.2 1.3.6 1.7 0 .1 0 .2-.3.2.2.3.8.4 1 .8.3-.4.6-.6 1.4-.5 0 .4.7.4.5 1 .7-.2 1.2-.4 1-1l.1-.1c.1-.4.5-.5.7-.8.3 0 1-.1.9.3.4-.6.7-1.2.9-1.9.3 0 .2.3.3.4h-.3v.1l.2.1v-.2l.1-.1c.4 0 .5-.3.6-.5 1.2 0 .5 1.1.9 1.9l.1-.1c.1.1 0 1 .4 1.1l.2.2v-.1l.5-.5h.2c.2-.3.3-.6.6-.7-.1-.2-.3-.2-.4-.3-.2-.3.4-.4.4-.7h.6c.1.6 0 .6-.1.9H96l.2.2v-.2c1 0 1.8.2 2.3-.4.4 0 .7.2.7.5.1-.5 1-.3 1.7-.3 0 .3-.2.2-.2.4h.5l.1-.1.2.1h.1l.5.1.2-.2-.7-.7.1-.2c.4.2 1.1.2 1.3-.3 0-.2-.2-.7 0-1 .4 0 .2.6.5.6 0-.1.1-.4.4-.5l.4.3.2-.4c.4 0 .3 0 .5-.2-.2-.4-.2-1.1-.5-1.4V397.8h.9l.6-.6.8.2c0 .4.4.3.3.7.4 0 .2-.3.5-.2v.3l.3.1c0 .6.7.5.6 1 .2 0 .3-.2.4-.3h.2v-.4h-.2c-.2-.1-.2-.5 0-.7.4.2.2.2.5 0 .2.3 0 .2 0 .5h-.1s.2 0 .2.2l.1-.1c.3-.1.2.1.4.1v.1h.1c.3.3.6-.2.8.1.2-.2-.2-.5-.2-.8-.3.2-.5.2-.5 0v-.2c0-.2.3-.2.2-.5h.1l.1-.1h.7v-.2c.3-.1.2-.3.3-.5-.2-.2-.5-.2-.4-.5h.2l.1-.1H111.8c0-.2 0-.3.2-.4v-.2c.2 0 .2.1.2.2h-.2s.1.2.3.2h.1c.3 0 .4-.1.3-.4.4.1.5.8.4 1h-.1c0 .2.2.4 0 .6h.2c.1.1.2.3.4.3.5-.3-.6-1 0-1.3h.4c0 .2.2.3.2.2h.2v-.2c.2 0 .5.2.6.4-.5 0-.2 1.2 0 1.5.1-.1.4 0 .4-.2h.4c.5 0 .1-.3.6-.3l.7 2c.2 0-.1-.4 0-.5.2 0 .4.3.7.2 0 .2-.2.3 0 .5 0-.2.3-.2.4-.3.2-.1-.3-.2-.2 0a.8.8 0 0 0-.9-.6c0-.4.2-.7.6-.7v-.5c.5.3 1.2.6 1.8.5l.8.5c0 .2-.3 0-.2.3 0 .3.4-.1.2.2 1 0 0-.9 0-1.4 0 .3-.5.1-.5-.2.7.4.4-.7 1-.5 0 .2 0 .4.5.4 0-.3.3-.5.5-.8l.6.4c.2 0 .2-.3.2-.4.5 0 .5.3.8.6h-.2.2v.1l.2.2c0 .4.9.5 1 1 .2-.1 0-.5 0-.6v-.3h.2l.1-.1c0-.4-.4-.4-.2-.8l.1-.1.3-.1c0 .2 0 .2.2.3.3 0-.3-.2 0-.2.6.5 1 .4 1.4 1.1.5 0 .8 0 .8-.4-.3-.2-.2.2-.6 0 0-.3-.5-.6-.6-1 .2.1.2 0 .4-.1h.1v-.2h-.1c0-.2-.4-.3-.4-.5-.1 0-.5.1-.4-.1h.1c-.1 0-.3-.1-.1-.2-.4 0-.5 0-.5-.3.3 0 1 0 1.2-.2 0-.3-.2-.3 0-.5.5 0 .8.3.7.8l-.5.1.4.7.3-.1h-.2c-.1-.2.1-.2.2-.5.4.2.5 0 .8 0 0 .2.4 0 .4.3.2-.1.8-.1.8.2v-.2h.3l.2-.5c.4.3.4.1.9.1.2 0 0-.3 0-.5l.7.1s-.2-.1 0-.2h.1l.1-.1c.2.5 1 .5 1.2.9 0 .5-.6.7-.3 1.1 0-.5.6-.6 1.2-.3.2 0 .4-.3.7-.3h.2c.1.5-.5 1-.1 1.5h-.1v.3c0 .4-.5.8-.1 1-.5.2-1 0-1.3.2l.1.2c.6-.2 1 0 1.5-.3.1-.6.2-.7 0-1.1v-.2c.7-.5.6-1.5 1-2.3.5-.2.3-1 .8-1.3.2 0 .2.4.4.4s.5-.2 0-.2c.5 0 .8-.2 1.7-.2 0 .2.1.3.3.4h-.1v.1c0 .3-.3 0-.3.2l.2.1c.1 0 .3 0 .3-.2h.2v-.2l.2-.6c.8-.2 1 1.1 0 1.4.2.7 0 .9-.4 1.2h.2c0-.1.4-.1.5-.4.2.1.4.3.8.2.2 0 .2-.2.2-.4.4 0 .7 0 .7-.4h.1c.5-.2.6-.2.9 0 .2-.2.4-.4.7-.2.1.5-.6.4-.5.9l.4.1c.5-.3 1.1-1.3 1.9-.6h.2c0 1-1.4 1.3-1.1 2.3.3 0 .8.1.7-.2 1.1 0 2-.5 2.4-.8 1 .6 1.8 1.5 2.7 2.1.3 0 .2-.4.6-.4l.2.3c0 .2-.5.1-.3.6.2.4 1.5.3 1.6-.2 0-.4-.4-.4-.2-.9.2 0 .2-.2.6-.2-.1.3.3.1.2.4.5 0 .4-.4.6-.7h.4c.1.3 0 .7.2.7-.2.1-.4.3-.2.6h-.4c-.1.7 0 1.2.8 1 .3.1.2.7.3 1.1h.6c.3-.4 0-.6-.2-1.1 0-.3.4-.4.3-.8.6 0 .6-.5.8-.8.5 0 0 1 .5 1.2v-.1h.2l-.1-.4h.2v-.2l.3-.2c0-.3-.3-.2-.2-.5.5 0 .7-.2.8-.6h.5c.2 0 .1.2.3.2.5-.3.7-1 1.5-1a5 5 0 0 1 2 .8l1-.1-.3-.1c.3-.3.6.2.8.2v-1.3h.6c.3 0-.2 0 0-.3.4-.1.8.1 1-.2.5.2-.1.8.2 1.3.6-.3.3.4.8.1 0 .5 0 1 .3 1.2.7-.4 1-1 1.5-1.5l10.3.9c.2-.2.3-.7.6-.9.3 0 0 .3.4.2l-.1.7 13 1-.1.1h-.3c-.4.5.4 1.2.6 1.6 0 0 .1-.2.2 0 0-1.2 1-1 2-1.3.2.6-.6 1.3-.5 2 .1.4.6.6.7 1 .4-.1.1-.4.6-.4.2-.6-.1-1.7.4-2 .4.2.5.3.8.3 0 .3-.3.4 0 .6.3-.9.2-2.7 2-2.4-.2.5-.2 1.4-.9 1.6 0 1.1-.2 2.2-.5 3.1.1.5.5.6.6 1 .5-.1.4-.7.4-1 .1-.2.3-.3.2-.6h.3l-.1.2.3-.1c-.3-.1-.3-.4-.1-.6h-.5c0-.4.5-.8 0-1.2.5-.2.8-.6 1.5-.6.2.2.3.6.2 1l.6.3c.3 0 .4-.4.8-.4 0-.2.2-.2.1-.4l1-.2c.1 0 .2.5 0 .5l.4.3c0-.2.3-.6 0-.7l.7-.3v-.5c.3.1.3-.1.4 0h.1v-.1h.2v.2c0 .3.2.3.1.5h.6c0-.3 0-.5.2-.8.5.2.7 0 1-.3.1.3.6.8 0 1.1.2 0 .5 0 .7.2 0 .3-.3.2-.4.3.5.4 1.4-1.1.4-1v-.2h-.1c.1-.4-.3-.3-.2-.7l.6.2c.6-.5 1.1-.5 1.8-.9l-.1.2.1-.1c.1.2.2.5.5.7.2-.3.7-.4.8-.7.3.2 1 .9.4 1.3v.2c.4 0 .4.1.5.3h-.1v.1c-.3.2 0 .3-.4.5l-.2.2h.1c.5.4.3 1.3.7 1.7 0 .2-.1.3-.3.3.3.3.8.4 1 .7.3-.3.6-.6 1.4-.5 0 .4.7.4.6 1 .6-.2 1.2-.3 1-1v-.1l.1-.1c0-.3.5-.4.6-.7.4 0 1-.1 1 .3l1-1.9c.3 0 .2.3.3.4v.1h.2v-.2l.1-.2c.4 0 .5-.2.6-.5 1.3.1.6 1.2 1 1.9l.1-.1c.1.2 0 1 .4 1.1v.1h.2l.5-.6h.2l.6-.7-.4-.2c-.2-.3.4-.4.4-.8h.6c.1.6 0 .6-.1 1h-.1l.2.1v-.2c1 0 1.9.3 2.4-.4.4.1.8.2.8.5.1-.5 1-.2 1.7-.2 0 .2-.2.1-.2.3h1c.6 0 .6.2 1.2-.2.3-.3.6-.5.8-.9.3 0 .1.4.3.4h.2c.1.3-.3.1-.2.4l-.3-.1s.1.4-.3.2v.7c.3-.1.3-.3.7-.3-.2.3.4.4.2.8-.4 0-.2.3-.4.3 0 .2.4.2.4.4l.4-.4c.3 0 .3.3.3.6.1-.1 0 0 .2.1v.1c.3.2 1.2 0 1.3-.2 0-.3.1-.4.4-.4 0 .2.1.5-.1.5v.1c.5.2.8-.6 1.4-.6l-.1-1.2c.3-.2.6-.5 1.2-.5 0-.3.3-.4.4-.7l.6.5c-.5.7.6 1 .3 1.7.3 0 1.5-.7 1.8 0-.3.2-.9 0-1 .5.2.2.4 0 .7.1.3-.4.4-.8 1-.8v.3c.6-.2.7 0 1.2 0-.2.3 1 .5.9 0l.2.1c.5-.3 0-1.3.6-1.6.3 0 0 .3.4.2.2-.1 0-.5 0-.7.4 0 .4-.5.8-.5-.1-.1-.2-.1 0-.4.3.1.1-.2.4-.1.3.3-.2.5 0 .7 0 .2.4 0 .6 0v.2h.4c-.1.2-.3.3-.2.5.2.4.5 0 .2.4l1-.1h.2l-.1-.1c.1 0 .3 0 .5-.2v-.3c.2 0 .3 0 .3.2.6-.3 1.1-.6 1.7-.3v-.1c-.1-.4-.1-1-.5-1.2l.1-.1v-.1l-.1-.3.2.2c.3-.1.6 0 .8 0l.7-.5.7.1c0 .3.5.3.4.7.3 0 .2-.2.5-.2l-.1.3.4.1c0 .5.7.4.6.8l.4-.2h.2v-.4h-.1c-.3-.1-.2-.5 0-.6h.4c.3.2 0 .2 0 .4h-.1c.1 0 .2 0 .3.2.3-.1.2.1.4.1v.1h.1c.3.2.5-.2.7 0 .2 0-.2-.4-.2-.6-.2.1-.3.1-.4 0 0 .1 0 .3-.3.2 0-.2 0-.3.2-.3h.2-.2c0-.3.3-.3.3-.5-.1 0-.1-.2-.4 0 .3-.4-.3-.7-.2-1.1l.3.2c.2 0 .2-.2.2-.3-.2.3 0 .4.2.6v.5H255v-.1c.4-.1.7-.2.8-.5l-.2-.6v-.2l.2-.1v-.1l.1.2h-.1l.2.2H256.2c.2 0 .3 0 .3-.2.2.2.3.6.2.8v.5c.1.4.3.6.8.4.3.2.3.8.4 1.2h.6c.2-.4 0-.7-.2-1.2l.2-.4c0 .3.2.6.3.7 0-.1.4 0 .4-.2h.1l.3.1c.4 0 0-.3.6-.3.1.7.3 1.3.6 1.7.2 0 0-.3.1-.4.1.1.3.2.7.2 0 .3-.2.3 0 .4l.4-.2c.1-.2-.3-.3-.3-.1a.9.9 0 0 0-.8-.5c0-.3.1-.6.6-.6-.1-.2-.1-.3 0-.4.4.2 1.1.5 1.8.4.2.2.4.4.8.4-.1.1-.4.1-.2.4 0 .1.4-.2.2.1 1 0-.1-.8 0-1.2-.1.3-.6.1-.5-.2.7.4.4-.6 1-.4-.1.2 0 .4.4.3l.2-.2h-.2l.2-.2h.1l.4-.3c0 .1.3.3.5.3s.2-.2.2-.3c.5 0 .5.3.8.5l.2.1c0 .3.9.4 1 .9.2 0 0-.4 0-.5v-.3h.3c0-.3-.2-.4-.3-.6v.1h-.2v-.2H268.5l.1-.1h.3c0 .1 0 .2.2.3.3 0-.3-.2 0-.2.5.4 1 .3 1.4 1 .4 0 .8 0 .7-.4-.2-.1-.2.2-.5 0 0-.2-.5-.5-.6-.9.2.2.2 0 .4 0l.2-.2h-.2c0-.3-.4-.3-.4-.5l.8-1c.1.1.3.3.2.5h-.6l.4.7.3-.1h-.1c-.2-.3 0-.3.2-.4.3.1.4 0 .8-.1 0 .2.3.2.3.3.2 0 .8-.1.8.2h-.1l.2-.1c0-.2.2-.2.2-.3h.9c.2 0 0-.3 0-.4l.7.1s-.1 0 0-.2h.2c.2.4 1 .3 1.2.7 0 .4-.6.7-.3 1 0-.4.6-.6 1.3-.3.1-.1.3-.4.6-.4H278.4c0 .5-.6 1-.2 1.4h-.1v.2c0 .4-.5.7-.1 1h-1.3l.1.3c.6-.2 1 0 1.6-.4l-.1-1c.6-.5.6-1.4 1-2l.3-.3 1.3.1.5-.9c.3 0 0 .3.4.2v.7l1.5.2c.2.5-.1.6-.4 1h.2c0-.1.3 0 .4-.4.2.2.4.3.9.3.2 0 .2-.2.2-.4.3 0 .5 0 .6-.3l1.5.2s-.3.1-.2.4l.4.1c.2 0 .4-.3.6-.4l1.6.1c-.3.7-1.4 1-1.1 1.9.3 0 .8 0 .7-.3 1 0 1.8-.4 2.3-.6 1 .5 1.8 1.3 2.7 1.8.3 0 .2-.4.6-.3l.3.3c0 .1-.5.1-.4.5.2.4 1.5.2 1.6-.2 0-.3-.3-.4-.2-.8.3 0 .3-.3.6-.3v.1l-.2.6c.1.5.6.6.7 1.1.2 0 .2-.2.3-.3 0 .2.3.4.8.3.3.2.2.7.4 1h.5c.3-.4 0-.6-.2-1 0-.3.4-.3.3-.7.3 0 .5 0 .5-.3v-.2h.1c0 .7-.1 1.4-.3 2 0 .3.5.5.6 1 .5-.2.5-.8.4-1.1.1-.2.3-.3.2-.6h.3l-.1.2.3-.1-.1-.1c-.2 0-.3-.4-.1-.6h-.3v-.4h.2v-.1l.3-.3c0-.2-.3-.1-.2-.4.4.1.7-.1.8-.5h.2l.2 1 .5.2c.4 0 .4-.4.9-.4-.1-.2 0-.2 0-.4l1-.2c.1 0 .2.5 0 .6l.4.2c.1-.2.4-.6.1-.7l.6-.3v-.1l.4.1h.5v.1h.6v-.3l.5.2v-.6c.2 0 .4-.2.6-.4.1.3.6.8 0 1.1.2 0 .5.1.7.3 0 .2-.3.1-.4.2.5.4 1.3-1.1.4-1v.1-.2h-.1c.1-.4-.3-.3-.2-.6.3 0 .4 0 .6.2 0 .1 0 .4.2.5.5-.2.3.4.8.2 0 .4 0 .8.3 1 .7-.3 1-.8 1.5-1.3h.7v.2-.1c.4 0 .4.1.5.4h-.1c-.3.2 0 .4-.3.5h-.1l-.2.3h.1c.5.3.3 1.3.7 1.7 0 .1 0 .2-.3.2.2.3.8.4 1 .7.3-.3.6-.5 1.3-.5 0 .4.7.4.6 1.1.6-.2 1.2-.4 1-1v-.1l.2-.1c0-.3.4-.4.5-.7.4 0 1-.1 1 .3.4-.6.6-1.2.8-1.9.4 0 .3.3.4.4v.1h.2v-.2h.1c.4 0 .5-.3.5-.5 1.3 0 .6 1.1 1 1.8h.1c.1.1 0 1 .4 1v.2h.2l.5-.5h.2v-.1c.2-.2.3-.5.6-.6-.1-.2-.3-.2-.4-.3-.2-.3.4-.4.4-.7h.6c.1.6 0 .6-.2.9l.2.1v-.1c1 0 1.8.2 2.3-.4.4 0 .7.1.7.5.1-.5 1-.3 1.7-.3 0 .3-.2.2-.2.3h.6l.2.1h.1l.5.1s0-.2.2-.2l-.7-.8v-.1c.5.2 1.2.2 1.4-.3 0-.2-.2-.7 0-1 .4 0 .2.5.5.6 0-.1.1-.4.4-.5l.4.3c0-.1.2-.2.1-.4.5 0 .4 0 .6-.3-.2-.4-.2-1-.6-1.3l.2-.1v-.2h.7l.7-.6c.2 0 .4.2.8.1 0 .4.4.4.3.8.4 0 .2-.3.5-.2v.3l.3.1c0 .6.7.5.6.9.2 0 .3-.2.4-.3l.2.1v-.5h-.1c-.3 0-.2-.4 0-.6.4.2.1.2.4 0 .3.2.1.2 0 .5l.2.1h.1c.3-.1.2.1.4.1v.1c.3.2.6-.2.8 0 .2 0-.2-.4-.2-.7-.3.1-.4.2-.4-.1 0-.3.2-.3.2-.7l.1.1v-.1h.7v-.1h.1c.3-.3.2-.4.2-.7-.1-.1-.4-.1-.4-.4h.2l.2-.1.2-.1.2-.3v-.2c.3 0 .3 0 .3.2h-.2l.2.2h.2c.3 0 .3-.1.2-.4.5 0 .6.8.5 1h-.2c.1.2.2.4.1.6h.1c.2.1.3.3.5.3.5-.3-.6-1 0-1.3h.4c0 .1.2.3.2.1h.1v-.1c.3 0 .6.2.7.4-.5-.1-.3 1.2 0 1.4l.4-.1h.1v-.1c.2 0 .1.2.3.2.4-.1 0-.4.6-.4.1.8.3 1.4.6 1.9.2 0 0-.3.1-.4.2 0 .3.2.6.1 0 .3-.1.4.1.5l.4-.2c.1-.2-.3-.3-.3 0-.2-.4-.3-.7-.8-.7 0-.4.1-.6.6-.6-.1-.2-.1-.4.1-.6.4.4 1.1.7 1.7.6l.8.5c0 .1-.3 0-.2.3 0 .2.5-.2.2.2 1-.1 0-1 0-1.4 0 .2-.5 0-.4-.3.7.5.3-.6 1-.4-.1.2 0 .4.4.4l.6-.8.5.4c.2 0 .2-.3.2-.4.5 0 .5.3.8.5h-.1v.1c0 .2.3.3.3.3 0 .4.9.4 1 1 .2-.2 0-.5 0-.6v-.4h.3c0-.5-.4-.5-.2-.8h.1v-.1l.3-.1c0 .1 0 .2.2.3.3 0-.2-.2 0-.2.6.4 1 .4 1.4 1 .5 0 .9 0 .8-.3-.3-.3-.2.1-.6 0 0-.3-.5-.6-.6-1 .2.1.2 0 .4-.1h.2v-.2h-.2c0-.2-.4-.3-.4-.6 0 .1-.5.2-.4 0h.1c-.1 0-.2-.1-.1-.2-.3 0-.5 0-.5-.3.3-.1 1 0 1.2-.2v-.6c.5.1.8.4.8 1h-.6l.4.7.3-.1h-.1c-.2-.3 0-.3.2-.5h.7c0 .1.4 0 .4.3.2-.2.8-.2.8.2h-.1.2l.2-.4c.3.2.4 0 .8 0 .2 0 .1-.3.1-.4h.6v-.2H359.4c.1.4.9.4 1.2.8 0 .5-.6.7-.3 1.1 0-.4.6-.6 1.2-.3.2 0 .3-.3.7-.3h.2c0 .6-.6 1-.2 1.5v.1l-.1.2c0 .5-.5.8 0 1.1-.5.2-1 0-1.3 0v.3c.6-.1 1.1 0 1.6-.3v-1.3c.7-.5.6-1.5 1-2.3.4-.2.2-1 .7-1.2.3 0 .3.3.5.4.1 0 .5-.3 0-.3.5 0 .8-.2 1.7-.1 0 .1 0 .2.2.3l-.1.1c0 .3-.3 0-.3.2 0 0 .2 0 .2.2.2 0 .4 0 .4-.3h.1v-.1l.2-.7c.9-.1 1 1.1 0 1.5.3.6 0 .8-.3 1.1h.2s.3 0 .5-.4c.1.2.3.3.8.2.2 0 .2-.2.2-.4.4 0 .6 0 .6-.4h.2c.5-.1.5-.1.8 0 .2-.1.5-.4.8-.2 0 .6-.6.4-.6.9l.4.1c.5-.3 1.2-1.3 2-.6h.2c0 1-1.4 1.3-1.2 2.3.4 0 .9.1.8-.2 1.1 0 1.9-.5 2.3-.7 1.1.5 1.8 1.4 2.8 2 .2 0 .2-.3.6-.3l.2.2c0 .2-.5.2-.4.6.3.4 1.6.3 1.6-.2.1-.4-.3-.4-.2-.9l.6-.2c0 .3.3.1.3.5.4 0 .4-.5.6-.8h.3c.2.3 0 .7.3.8-.3 0-.4.2-.3.5h-.3c-.2.7 0 1.2.7 1 .3.2.3.7.4 1.1h.6c.2-.4 0-.6-.2-1.1 0-.3.4-.4.2-.8.7 0 .7-.5.9-.8.5 0 0 1 .4 1.2h.2v-.5h.1l.1-.2.3-.2c0-.2-.4-.2-.2-.5.4.1.7-.1.8-.5l.5-.1c.2 0 0 .2.2.2.6-.3.7-1 1.6-1a5 5 0 0 1 1.9.9c.4-.2.6 0 1-.2h-.2c.3-.3.6 0 .8.2V396h.6c.2 0-.2 0-.1-.3.4-.1.8.1 1-.2.5.2 0 .8.3 1.3.6-.3.3.4.8.1 0 .5 0 1 .3 1.2.7-.3 1-1 1.5-1.5l10.3 1c.2-.3.2-.7.5-1 .4 0 .1.3.4.2v.7l13 1-.1.1h-.3c-.5.5.4 1.2.6 1.7 0-.1.1-.3.2-.1 0-1.1 1-1 2-1.3.2.6-.6 1.3-.5 2 0 .4.6.6.6 1 .5-.1.2-.4.7-.4.2-.6-.1-1.6.4-2 .4.2.4.4.8.4-.1.2-.4.3-.1.5.4-.9.2-2.6 2.2-2.4-.4.5-.3 1.4-1 1.6 0 1.1-.3 2.2-.6 3.2.2.4.5.5.7 1 .5-.2.4-.8.3-1.1.2-.2.4-.3.3-.6l.3.1h-.2.4-.1c-.2 0-.3-.4 0-.6h-.5c0-.4.5-.8-.2-1.2.6-.2.9-.5 1.6-.6.2.2.3.6.2 1.1l.6.3c.3-.1.4-.5.8-.5 0-.2.2-.2.1-.4l1-.2c.1 0 .2.5 0 .6l.4.2c0-.2.3-.6 0-.7l.7-.3c0-.2-.1-.3 0-.4.3 0 .3-.2.4 0v-.1h.1v-.1h.2v.2c0 .3.2.4.1.5h.6c0-.3 0-.5.2-.8.5.2.7 0 1-.3.1.3.6.8 0 1.1.2 0 .5.1.7.3 0 .2-.3.1-.4.2.5.4 1.4-1.1.4-1v-.2h-.1c.1-.4-.3-.3-.2-.7l.6.2c.6-.5 1.1-.5 1.8-.9l-.1.2.1-.1c.1.2.2.6.5.7.2-.3.7-.4.8-.7.3.2 1 .9.4 1.3v.2c.4 0 .4.1.5.4h-.1c-.3.2 0 .4-.4.5l-.2.3h.1c.5.3.3 1.3.7 1.7 0 .1-.1.2-.3.2.3.3.8.4 1 .7.3-.3.6-.5 1.4-.5 0 .5.7.5.6 1.1.6-.2 1.2-.4 1-1v-.2h.1c0-.4.5-.5.6-.8.4 0 1-.1 1 .3l1-1.9c.3 0 .2.4.3.4v.1l.2.1V400.6l.1-.2c.4 0 .5-.2.6-.5 1.3.1.6 1.2 1 1.9h.1c.1 0 0 1 .4 1v.1l.2.1v-.2l.5-.4h.2v-.1l.6-.7-.4-.2c-.2-.3.4-.4.4-.7h.6c.1.5 0 .5-.1.9h-.1l.2.1v-.1c1 0 2 .2 2.4-.4.4 0 .8.1.8.4.1-.4 1-.2 1.7-.2 0 .2-.2.2-.2.3h1c.6.1.6.2 1.2-.2l.8-.8c.3 0 .1.3.3.3h.2c.1.3-.3.2-.2.4h-.3s.1.3-.3.2v.6c.3 0 .3-.3.7-.2-.2.2.4.3.2.8-.4-.1-.2.2-.4.2l.4.4.4-.4c.3 0 .3.3.3.7.2-.2 0 0 .2 0v.1c.3.3 1.2.1 1.3-.1 0-.4.1-.5.4-.5 0 .2.1.5-.1.5v.1c.5.2.9-.5 1.4-.6l-.1-1.2c.3-.2.6-.4 1.2-.4 0-.4.3-.5.4-.8l.6.5c-.5.7.6 1 .3 1.7.3 0 1.5-.6 1.8 0-.3.2-.9 0-1 .5.2.2.4 0 .7.2.3-.4.4-.9 1-.9v.3c.6-.2.7 0 1.2 0-.2.3 1 .6.9 0 0 .2 0 .2.2.2.5-.4 0-1.3.6-1.7.3 0 0 .3.4.2.2 0 0-.5 0-.7.4 0 .4-.4.8-.4-.1-.2-.2-.2 0-.4.3 0 .1-.3.4-.2.3.3-.2.5 0 .7 0 .2.4 0 .6.1h.2c0 .2 0 .2.2.2-.1.1-.3.2-.2.5.2.3.5-.1.2.3l1-.1h.2l.4-.2v-.4c.2 0 .3.1.3.2.6-.2 1.1-.6 1.7-.3v-.1c-.1-.4-.1-1-.5-1.2l.1-.1-.1-.4.2.2c.3-.1.6 0 .8 0l.7-.5.7.1c0 .4.5.4.4.7.3 0 .2-.2.5-.2l-.1.3.4.1c0 .5.7.4.6.8l.4-.2h.2v-.4h-.1c-.3-.1-.2-.5 0-.6.4.1.1.1.4 0 .3.2 0 .2 0 .4h-.1l.3.2c.3-.1.2.1.4.1v.1h.1c.3.2.5-.2.7.1.2-.2-.2-.5-.2-.7-.2.1-.3.1-.4 0 0 .1 0 .3-.3.2 0-.1 0-.3.2-.3h.2-.2c0-.2.3-.2.3-.5-.1 0-.1-.1-.4 0 .3-.4-.5-.8-.1-1.2h.1s-.1-.2 0-.2c.2-.1.2 0 .4.1-.4.5.4.6.2 1h-.2l.2.2h.6v-.1h.1v-.1c.3-.2.2-.3.2-.5s-.4-.2-.3-.4H482.6l.2-.2h.1l.1-.2v-.2.1c.3 0 .3.1.3.2h-.2l.2.2h.2c.3 0 .4-.1.2-.3.5 0 .5.7.5 1h-.1v.5h.1c.2.1.3.3.5.3.5-.2-.5-1 0-1.2l.2.1h.2l.2-.2-.2.2c0 .1.1.2.2 0h.2v-.1h-.1v-.4l.2.1-.1.1.2.2.5.3c-.5-.1-.3 1 0 1.3 0-.1.4 0 .4-.2h.1l.2.1c.5 0 .2-.3.7-.3.1.7.3 1.3.6 1.7.2 0-.1-.3 0-.4l.7.2c0 .3-.2.3 0 .4l.5-.2c.1-.2-.3-.3-.3-.1a.9.9 0 0 0-.8-.5c0-.3.1-.6.6-.6-.2-.2-.2-.3 0-.4.4.2 1.1.5 1.8.4.2.2.4.4.7.4 0 .1-.3.1-.2.4.1.1.5-.2.2.1 1 0 0-.8 0-1.2 0 .3-.5.1-.4-.2.7.4.4-.6 1-.4-.1.2 0 .4.4.3l.2-.2h-.2l.2-.2h.1l.3-.3c.2.1.3.3.6.3.2 0 .2-.2.2-.3.5 0 .5.3.8.5h-.1l.3.1c0 .3.9.4 1 .9.2 0 0-.4 0-.5v-.3H496.1c0-.3-.3-.4-.3-.6v.1h-.3v-.2h.4v-.1H496.3l.2.3c.3 0-.2-.2 0-.2.6.4 1 .3 1.4 1 .5 0 .9 0 .8-.4-.3-.1-.2.2-.6 0 0-.2-.4-.5-.5-.9.1.2.1 0 .3 0h.2v-.2h-.2c0-.3-.4-.3-.4-.5 0 0-.5.2-.4 0h.1c-.1-.2-.2-.2-.1-.3-.3 0-.4-.1-.4-.4.2 0 .9.1 1.1-.1v-.5c.5 0 .8.3.8.8h-.6l.4.7.3-.1h-.1c-.2-.3 0-.3.2-.4.3.1.4 0 .7-.1 0 .2.4.2.4.3.2 0 .8-.1.8.2h-.1l.2-.1c0-.2.2-.2.2-.3.3.1.4 0 .8 0 .2 0 .1-.3.1-.4l.7.1c-.1 0-.2 0-.1-.2H502.7c.1.4 1 .3 1.2.7 0 .4-.6.7-.3 1 0-.4.6-.6 1.2-.3.2-.1.3-.4.7-.4h.2c0 .5-.6 1-.2 1.4l-.1.2c0 .4-.4.7 0 1H504v.3c.7-.2 1.1 0 1.6-.4 0-.4.2-.6 0-1 .6-.5.6-1.4 1-2 .4-.2.2-1 .8-1.2.2 0 .1.4.4.4.1 0 .5-.3 0-.3.5 0 .8-.2 1.7-.1l.2.3-.1.1c0 .3-.3 0-.3.2.1 0 .2 0 .2.2.2 0 .4 0 .4-.3h.1l.2-.6c.9-.2 1 1 .1 1.3.2.5 0 .7-.4 1h.2c0-.1.3 0 .5-.4.2.2.3.3.8.3.2 0 .2-.2.2-.4.4 0 .6 0 .6-.3h.5l-.2-.1v-.4l.2.4.6.1c.2-.1.5-.3.8-.2 0 .5-.7.3-.6.8l.4.1c.5-.2 1.1-1 2-.5h.2c0 .9-1.4 1.1-1.2 2 .3 0 .9.2.8-.2 1 0 1.8-.4 2.2-.6 1.1.5 1.8 1.3 2.8 1.8.2 0 .2-.4.6-.3l.2.3c0 .1-.5.1-.4.5.3.4 1.6.2 1.6-.2.1-.3-.3-.4-.1-.8.2 0 .2-.3.5-.3 0 .3.3.2.3.4.4 0 .4-.4.6-.6h.3c.2.2 0 .6.3.6-.3.1-.4.3-.3.5h-.3c-.2.6 0 1 .7 1 .4 0 .3.6.4.9h.6c.2-.4 0-.6-.2-1 0-.3.4-.3.3-.7.2 0 .4 0 .5-.3v-.2h.1l.2-.3c.5 0 0 .9.4 1h.2v-.5h.2v-.1l.3-.3c0-.2-.3-.1-.2-.4.4.1.7-.1.8-.4l.5-.1c.2 0 .1.2.2.2.6-.3.7-.8 1.6-.9.4 0 1.6.5 1.9.8.4-.1.6 0 1-.2h-.2c.3-.3.6 0 .8.2v-1.3l.6.1c.2 0-.2 0 0-.3.4-.2.7 0 1-.2.4.2-.1.7.2 1 .6-.2.3.5.8.3 0 .4 0 .8.3 1 .7-.3 1-.9 1.5-1.4l7.5.6-.4-.8.1-.3-.1-.1.1-.3v-2c0-.6-.3.6-.3-.2s.2-.6.4-.3v-.4l.2.1v-.5c.1 0 .5-.6.5.2l.2-.3c-.1.4-.2.4-.3.4l.1.1c0 .5-.2.5-.4.8v3.4h.4v-.7c.2 0 .2-.6.3-1.2h-.1c-.1-1 0-1.1.2-1.8l.3.4v.7l-.2 1.7c.1.4.4.4.6.4l-.1.3c0-.2.2-.3.3-.3l-.1-.3c-.3-1.5.3-2.5.4-3.5 0 .5-.4-.4-.4-1.2.4.4.4-1.8 0-1.4l.1-.3-.1.5h.1c.1 0 0 .4 0 .8 0 0 0 .2-.2.2v1h-.2v-.4l-.2.1v-1.4l.1-.2h-.3v.2c0 .3 0 .6-.3.5v-.4l-.1.1c.2-.9 0-1.5.1-2.4 0-.2.2-.2.2-.1v.6c.4 0 0-1.8.4-1.9v.3-.4c-.3-.4-.3-.5-.5 0V387h.1v.2-1 .1c-.1.2 0-.4-.2-.6v-.4c0-.7.3-.8.5-1v.3h.2v1.1c-.2.2-.4 0-.4.4.6.5.5-1.6.8-2.4v-.3c-.2.4-.2 0-.4-.3l-.1-.3v.6l-.2-.4v-.9.5-.5l.2.1v-.3c.1-.3.4-.2.4-.8l.1-.7.2.9v.3l.1-.5.3.5v-.3l.2-.1v-.1l-.3-1.9c.3-.2.3.4.4.8.3-.3.7-.8 1-.2v.3h.2l-.1-.3c0-.5.2-.5.3 0l-.2.2.1.2c0-.2 0-.5.2-.6.1.1.1.7.3.2 0-1-.2-.2-.4-.8v-.4c.2-.8.4-1.1.4-2.3 0-.6-.4-.7-.5-.1v-1c-.3 0-.2 1-.6.7v-.3c-.2-.3-.4-.8-.2-1.3-.1.4-.1 0-.4 0l.1-.4h-.1v.4c0 .3 0 .7-.3.6V373c.3 0 .1.6.3.7.2-1.3.4-1.9.3-3.7.3-.9.7-.2.8-1.4 0-.6-.4-.4-.4-1 0 .2 0 1.2-.2 1.3-.3 0-.2-1-.3-1.6-.2-.4-.4-.8-.4-1.5-.2.3 0 1.5-.3 1.9 0 .3 0 .9.3.8-.2.7 0 2.4-.4 3v-.2.4c.3.2.3.8.1 1.5-.2-.3-.1-.4-.4-.2v-.6l.1-.3-.1-.5v.4c-.3.1-.4.4-.4 1-.1-.6-.4-1-.8-1v-.4l-.2.1c-.1-1.7-.1-3.4-.7-4.3-.3 0-.2.7-.5.4 0-1-.5-.6-.4-1.7.2 0 .4-.6.5-.3v.3h.1c.2.2.4-.6.3-.7v-.3h-.1v-.3c.2 0 .1-.4.3 0v-2.6l.1-.8v-.7c0-.6 0-.8-.3-1-.2 1-.6-.1-.9 0 0-.2.2-.3.3-.3-.1-.7-.3-1.2-.5-1.7.4-1 0-3 .2-4.4 0-.3-.2-.2-.2-.2l.2-1-.2-.8.2-.3c0 .1 0 .3.2.4v.2-.3l.1.6c.2-.3.6-.6.8 0 0 .3 0 1-.3.8 0 .3.2.4.3.7.2-.3.1-1 .1-1.6h.2l-.3-1v.3c-.2-.2-.2.3-.4.3-.2-1-.3-2.6.1-3.3-.4-.1-.4-2.2-.8-1.8 0-1 .7-1.4.6-2.7h.1c.2 0 .2.4.3.8.2-1.3-.4-2.3-.4-3.5h-.8c0-1.1.3-1.3.6-1.6-.3-.1-.5-.6-.8-.6l-.3-1.5h-.2v-.6h.2c0-.4.3-.6.3-.4v.4c0-.3.1-.4.2-.4v-.1c0-.3.2-.3.3-.7l.1.1v-.3c.2.2.2-.3.3-.8.4-.3.3.5.6.4 0 .7-.2.8-.1 1.4.1.5.2-.8.4-.6.1-1.4.1-1.8-.3-2.3 0-1.3 0-4.4-.9-4.3v-.8c.1 0 .4-.6.5-1.3-.2.4-.6.4-.5-.8.4 0 .4-.1.6.4v.1c.2 0 .3.4.3-.1h.1v-1.3.2l.4-.3h-.2c.2-.3 0-1 0-.5-.4-1 0-2.7-.5-2.7l.2-1.2-.6-.4c.2-.7.2-1.6.6-1.6v-2.3c-.3-.2-.2.9-.5.7-.2-.5 0-.7 0-1.6.3.2.4-.6.8-.4v.6c.2 0 .2-.6.4-.8v-.2c-.1.1-.2-.1-.3-.2v-1h.5v1c.3-.2.3-1.1.5-1.5-.3 0-.4-.1-.3-1.4-.4-.2-.6.6-.9.8V313v-.7l-.2-.1c0-1 0-2.1-.4-2.3l.1-.3-.1-.1v-.4c.2 0 .4-.3.5-.4v-.8c-.1-.3-.2-.7-.5-.7l.1-1c-.1-.8 0-1.2.3-1.2v.4c.2-.4.5-.5.7-.8v-.8c-.2.2-.4.1-.6.4v-1h-.1v-.3l-.1-.1c0-.7.4-.5.5-1l.1.6v-2c.2.1.2-.4.3-.6v-.7.3c-.3.3-.6.7-.5 1.8-.3-.4-.2-.7-.5-.4-.1-.4-.1-1.2-.5-1.2 0-.7.2-.6.3-1.2 0-.5-.4 0-.5-.2-.1-.4-.2-.7-.4-.8a4 4 0 0 1 .7-1.9c.2.3.1 1 .2 1.2.2.1.1-.3.1-.5.2 0 .1.8.1 1.4.2 0 .2-.2.3-.1.2-.6.6-.6.5-2 0-.2-.2 0-.3-.2l-.2-.3v.7l-.3-.2.2-.3v-1c-.2.5-.4.6-.7.3v-.8c.3-.3.3.2.5-.2-.2-.8-.6-1.5-.3-2.4h.1v-.4.1c-.4-.7-.5.8-.9.7 0-1-.2-2.4 0-3.3-.3-.5.1-1.9.2-2.6.3.5 0 2 0 2.6.2.1.2-.4.4-.4 0 .5.3.7.3 1.2.1-.1.2 0 .3-.4 0-.5-.5-1-.3-1.8h.2l-.1-.3v-.1c-.3-.8-.6-2-.6-3.3v-.4h.1v-.4l.1-2.8c0-.6-.1.5-.3.3-.1-2.2.8-1.7.9-3.3l.2.3.1-.4c-.2-.8-.3.6-.6 0 0 .1 0 1-.3.8v-.4.1l-.2-.6c.3-.7 0-2.7.5-2.4l.1-.6h.1v-2.2c0-.4-.2-.6 0-.9.4.3.4-.7.7-.8 0 .3.2.2.3.2v1.6c.1 0 .1-.3.2-.2v.3l.2-.8v.1c-.2-.2-.2-.9-.2-1.4 0-.4-.5 0-.3-1l.2-.2c0-.7.3-1 .3-1.5.3 0 .2 1 .5.8-.3-1.1 0-1.7 0-2.7-.3 1.4-1 1.3-1 3.3v-.1l-.1.3c-.3.5-.3-1.4-.3-2.2l-.5 1c-.2-.2 0-1.7-.2-2.7.2-.4.6-.2.7-.8.2.2.2.8.6.7 0-.2 0-.5.2-.4-.2-.2-.2-.8-.1-1.5-.1-.2-.2-.5-.4-.6v-2l-.3.4.2-.5v-.1l.1-.5h-.2v-.3c-.1-.1-.4-.1-.4-.6v-.5l.3.8.2-.3v-.3c.1-.3.3 1 .5 1 0 .4 0 .6-.2 1 .2 0 .2-.4.2-.8.4.2.5 0 .6-.5l-.1-1.4h-.5l.1-.3h-.1v-1.1h.1v-.3c.3.1.3-.4.5-.2v1c.2-.5.5.7 1-.2l-.2 1.5c-.4-.6-.6.3-.7 1v-.3.4c.2 0 0 .9 0 .9 0 .3.2.4.4.4v.3l.3-.5v-1l.2-.4c.2.2 0 .6 0 1 .1-.2.3-.2.3.6l.3-.3v.3c0-.5 0-.9.2-1.3h-.1c0-1.3.5-2 .4-3v.3-.5l.1-.4-.1-.2c0-1 .4-1 .6-1.6l3 1.7ZM320.3 9.9Zm0 .2v.5c-.2 0-.1-.3 0-.5Zm-18.5-.9c-.2.3-.4.3-.6 0v.2h-.2l.2-.5.6.3Zm-1.1-.8Zm-5.5 4v.4c0 .2.5.2.2.4V13h-.1l-.2.2h.1l.1.5a2 2 0 0 0-.7-.1v-.2c-.2-.5.2-.6.1-1l-.3.1.2-.5.1.2v.1h.1v-.1l.4.1Zm-1.2-1.2h-.3v-.3c0 .2.2.2.3.3ZM250 9c0 .3.8.3 1.2.3l-.2.2c.5.2.6-.2.9.2h-.2l.1.2h-.7c.2.2.4.3.4.7l-.7.1c-.2-.2-.5-.1-.5-.5-.6.1-1.3.2-1.6.6-.6 0-.5-1-.1-1.1 0-.3-.3-.4-.7-.4-.1-.1.2-.7.4-.8l.2.1c.2 0 .4.1.4.4.6-.1.8.3 1.2 0Zm-3.3.4.1.2h-.4s.1-.2.3-.2Zm23.8 387.6v.3-.3Zm28 3.7v-.8c.1.2 0 .5.3.6-.2 0-.3 0-.3.2Zm3 .8h-.2.1Z"/></svg>