<svg width="8" height="12" viewBox="0 0 8 12" fill="none" xmlns="http://www.w3.org/2000/svg">
<path fill-rule="evenodd" clip-rule="evenodd" d="M3.99996 11.3333C3.63177 11.3333 3.33329 11.0348 3.33329 10.6666L3.33329 1.33329C3.33329 0.965102 3.63177 0.666626 3.99996 0.666626C4.36815 0.666626 4.66663 0.965102 4.66663 1.33329L4.66663 10.6666C4.66663 11.0348 4.36815 11.3333 3.99996 11.3333Z" fill="#53514F"/>
<path fill-rule="evenodd" clip-rule="evenodd" d="M3.52855 11.138C3.26821 10.8777 3.26821 10.4556 3.52855 10.1952L6.19522 7.52855C6.45557 7.2682 6.87768 7.26821 7.13803 7.52855C7.39838 7.7889 7.39838 8.21101 7.13803 8.47136L4.47136 11.138C4.21101 11.3984 3.7889 11.3984 3.52855 11.138Z" fill="#53514F"/>
<path fill-rule="evenodd" clip-rule="evenodd" d="M0.861888 7.52855C1.12224 7.2682 1.54435 7.26821 1.8047 7.52855L4.47136 10.1952C4.73171 10.4556 4.73171 10.8777 4.47136 11.138C4.21101 11.3984 3.7889 11.3984 3.52855 11.138L0.861888 8.47136C0.601539 8.21101 0.601539 7.7889 0.861888 7.52855Z" fill="#53514F"/>
</svg>
