<svg width="16" height="16" viewBox="0 0 16 16" fill="none" xmlns="http://www.w3.org/2000/svg">
<g id="Icon_Stroke_Vector_Light" clip-path="url(#clip0_1084_50322)">
<path id="Vector (Stroke)" fill-rule="evenodd" clip-rule="evenodd" d="M4.1953 2.86201C4.45565 2.60166 4.87776 2.60166 5.13811 2.86201L7.80478 5.52868C8.06513 5.78903 8.06513 6.21114 7.80478 6.47149C7.54443 6.73183 7.12232 6.73183 6.86197 6.47149L5.33337 4.94289V12.6667C5.33337 13.0349 5.0349 13.3334 4.66671 13.3334C4.29852 13.3334 4.00004 13.0349 4.00004 12.6667V4.94289L2.47145 6.47149C2.2111 6.73183 1.78899 6.73183 1.52864 6.47149C1.26829 6.21114 1.26829 5.78903 1.52864 5.52868L4.1953 2.86201Z" fill="#323130"/>
<path id="Vector (Stroke)_2" fill-rule="evenodd" clip-rule="evenodd" d="M11.3333 2.66675C11.7015 2.66675 12 2.96522 12 3.33341V11.0573L13.5286 9.52868C13.7889 9.26833 14.2111 9.26833 14.4714 9.52868C14.7318 9.78903 14.7318 10.2111 14.4714 10.4715L11.8047 13.1382C11.5444 13.3985 11.1223 13.3985 10.8619 13.1382L8.19526 10.4715C7.93491 10.2111 7.93491 9.78903 8.19526 9.52868C8.45561 9.26833 8.87772 9.26833 9.13807 9.52868L10.6667 11.0573V3.33341C10.6667 2.96522 10.9651 2.66675 11.3333 2.66675Z" fill="#323130"/>
</g>
<defs>
<clipPath id="clip0_1084_50322">
<rect width="16" height="16" fill="white"/>
</clipPath>
</defs>
</svg>
