<svg width="16" height="16" viewBox="0 0 16 16" fill="none" xmlns="http://www.w3.org/2000/svg">
<path fill-rule="evenodd" clip-rule="evenodd" d="M7.5286 2.19556C8.18405 1.54011 9.07304 1.17188 10 1.17188C10.927 1.17188 11.8159 1.54011 12.4714 2.19556C13.1269 2.85102 13.4951 3.74001 13.4951 4.66697C13.4951 5.59393 13.1269 6.48292 12.4714 7.13837L8.13807 11.4717C7.74783 11.8619 7.21855 12.0812 6.66667 12.0812C6.11478 12.0812 5.5855 11.8619 5.19526 11.4717C4.80502 11.0815 4.58579 10.5522 4.58579 10.0003C4.58579 9.44842 4.80502 8.91914 5.19526 8.5289L9.5286 4.19556C9.78894 3.93521 10.2111 3.93521 10.4714 4.19556C10.7318 4.45591 10.7318 4.87802 10.4714 5.13837L6.13807 9.47171C5.99788 9.6119 5.91912 9.80204 5.91912 10.0003C5.91912 10.1986 5.99788 10.3887 6.13807 10.5289C6.27826 10.6691 6.46841 10.7478 6.66667 10.7478C6.86493 10.7478 7.05507 10.6691 7.19526 10.5289L11.5286 6.19556C11.934 5.79016 12.1618 5.2403 12.1618 4.66697C12.1618 4.09363 11.934 3.54378 11.5286 3.13837C11.1232 2.73296 10.5733 2.50521 10 2.50521C9.42667 2.50521 8.87681 2.73296 8.4714 3.13837L4.13807 7.47171C3.46745 8.14233 3.09069 9.05189 3.09069 10.0003C3.09069 10.9487 3.46745 11.8583 4.13807 12.5289C4.8087 13.1995 5.71826 13.5763 6.66667 13.5763C7.61507 13.5763 8.52464 13.1995 9.19526 12.5289L13.5286 8.19556C13.7889 7.93521 14.2111 7.93521 14.4714 8.19556C14.7318 8.45591 14.7318 8.87802 14.4714 9.13837L10.1381 13.4717C9.2174 14.3924 7.9687 14.9096 6.66667 14.9096C5.36464 14.9096 4.11594 14.3924 3.19526 13.4717C2.27459 12.551 1.75736 11.3023 1.75736 10.0003C1.75736 8.69827 2.27459 7.44957 3.19526 6.5289L7.5286 2.19556Z" fill="#53514F"/>
</svg>
