<svg width="20" height="20" viewBox="0 0 20 20" fill="none" xmlns="http://www.w3.org/2000/svg">
<path fill-rule="evenodd" clip-rule="evenodd" d="M4.10728 4.10777C5.67008 2.54497 7.7897 1.66699 9.99984 1.66699C12.21 1.66699 14.3296 2.54497 15.8924 4.10777C17.4552 5.67057 18.3332 7.79019 18.3332 10.0003C18.3332 11.0947 18.1176 12.1783 17.6988 13.1894C17.28 14.2004 16.6662 15.1191 15.8924 15.8929C15.1186 16.6667 14.1999 17.2805 13.1889 17.6993C12.1778 18.1181 11.0942 18.3337 9.99984 18.3337C8.90549 18.3337 7.82186 18.1181 6.81081 17.6993C5.79976 17.2805 4.8811 16.6667 4.10728 15.8929C3.33346 15.1191 2.71963 14.2004 2.30084 13.1894C1.88205 12.1783 1.6665 11.0947 1.6665 10.0003C1.6665 7.79019 2.54448 5.67057 4.10728 4.10777ZM9.99984 3.33366C8.23173 3.33366 6.53603 4.03604 5.28579 5.28628C4.03555 6.53652 3.33317 8.23222 3.33317 10.0003C3.33317 10.8758 3.50561 11.7427 3.84064 12.5515C4.17567 13.3604 4.66673 14.0953 5.28579 14.7144C5.90485 15.3334 6.63978 15.8245 7.44861 16.1595C8.25745 16.4946 9.12436 16.667 9.99984 16.667C10.8753 16.667 11.7422 16.4946 12.5511 16.1595C13.3599 15.8245 14.0948 15.3334 14.7139 14.7144C15.3329 14.0953 15.824 13.3604 16.159 12.5515C16.4941 11.7427 16.6665 10.8758 16.6665 10.0003C16.6665 8.23222 15.9641 6.53652 14.7139 5.28628C13.4636 4.03604 11.7679 3.33366 9.99984 3.33366Z" fill="#918F8D"/>
<path fill-rule="evenodd" clip-rule="evenodd" d="M9.1665 7.50033C9.1665 7.04009 9.5396 6.66699 9.99984 6.66699H10.0082C10.4684 6.66699 10.8415 7.04009 10.8415 7.50033C10.8415 7.96056 10.4684 8.33366 10.0082 8.33366H9.99984C9.5396 8.33366 9.1665 7.96056 9.1665 7.50033Z" fill="#918F8D"/>
<path fill-rule="evenodd" clip-rule="evenodd" d="M8.3335 10.0003C8.3335 9.54009 8.70659 9.16699 9.16683 9.16699H10.0002C10.4604 9.16699 10.8335 9.54009 10.8335 10.0003V12.5003C11.2937 12.5003 11.6668 12.8734 11.6668 13.3337C11.6668 13.7939 11.2937 14.167 10.8335 14.167H10.0002C9.53993 14.167 9.16683 13.7939 9.16683 13.3337V10.8337C8.70659 10.8337 8.3335 10.4606 8.3335 10.0003Z" fill="#918F8D"/>
</svg>
