<svg xmlns="http://www.w3.org/2000/svg" width="24" height="24" viewBox="0 0 24 24" fill="none">
  <path fill-rule="evenodd" clip-rule="evenodd" d="M15.7071 8.29289C16.0976 8.68342 16.0976 9.31658 15.7071 9.70711L9.70711 15.7071C9.31658 16.0976 8.68342 16.0976 8.29289 15.7071C7.90237 15.3166 7.90237 14.6834 8.29289 14.2929L14.2929 8.29289C14.6834 7.90237 15.3166 7.90237 15.7071 8.29289Z" fill="#53514F"/>
  <path fill-rule="evenodd" clip-rule="evenodd" d="M12.1943 6.14694L11.7565 6.65376C11.3955 7.0717 10.764 7.11785 10.3461 6.75682C9.92813 6.3958 9.88199 5.76431 10.243 5.34637L10.706 4.81037C10.7219 4.79195 10.7385 4.77412 10.7557 4.7569C11.8811 3.63171 13.4073 2.99964 14.9987 2.99976C16.5901 2.99987 18.1162 3.63215 19.2414 4.7575C20.3666 5.88286 20.9987 7.40911 20.9986 9.00049C20.9985 10.5919 20.3662 12.118 19.2408 13.2432C19.2243 13.2597 19.2073 13.2756 19.1897 13.2909L18.6557 13.7549C18.2388 14.1172 17.6072 14.0729 17.2449 13.656C16.8827 13.2391 16.927 12.6075 17.3439 12.2452L17.85 11.8054C18.5857 11.0576 18.9985 10.0503 18.9986 9.00034C18.9987 7.9394 18.5773 6.92187 17.8271 6.17162C17.077 5.42136 16.0595 4.99983 14.9986 4.99976C13.9491 4.99968 12.9422 5.41198 12.1943 6.14694Z" fill="#53514F"/>
  <path fill-rule="evenodd" clip-rule="evenodd" d="M6.74928 10.3379C7.11497 10.7517 7.07591 11.3837 6.66204 11.7494L6.16024 12.1928C5.79548 12.5583 5.50543 12.9915 5.30641 13.4682C5.10398 13.953 4.99976 14.4731 4.99976 14.9985C4.99976 15.5239 5.10398 16.044 5.30641 16.5289C5.50883 17.0137 5.80542 17.4535 6.17901 17.8229L6.17903 17.823C6.94058 18.576 7.96839 18.9984 9.0394 18.9984C10.0864 18.9984 11.0922 18.5947 11.8482 17.873L12.1974 17.4034C12.5269 16.9602 13.1533 16.868 13.5965 17.1975C14.0397 17.527 14.1319 18.1534 13.8024 18.5966L13.4054 19.1306C13.3752 19.1712 13.342 19.2095 13.306 19.2451C12.1701 20.3684 10.637 20.9984 9.0394 20.9984C7.44185 20.9984 5.90874 20.3684 4.77279 19.2451C4.21109 18.6897 3.76516 18.0284 3.46081 17.2994C3.15647 16.5705 2.99976 15.7884 2.99976 14.9985C2.99976 14.2086 3.15647 13.4265 3.46081 12.6976C3.76516 11.9686 4.21109 11.3073 4.77279 10.7519C4.78608 10.7388 4.79974 10.726 4.81376 10.7136L5.33776 10.2506C5.75163 9.88494 6.38359 9.924 6.74928 10.3379Z" fill="#53514F"/>
</svg>