<svg width="150" height="150" viewBox="0 0 150 150" fill="none"
    xmlns="http://www.w3.org/2000/svg">
    <circle cx="74.5" cy="75.5" r="54.5" fill="#FEFAF6"/>
    <circle cx="28.5" cy="47.5" r="3.5" stroke="#E59238" stroke-width="2"/>
    <path d="M126.5 76L127.649 81.351L133 82.5L127.649 83.649L126.5 89L125.351 83.649L120 82.5L125.351 81.351L126.5 76Z" fill="#C8AA5D"/>
    <path d="M100.506 117.427C100.562 116.858 101.392 116.858 101.448 117.427L101.79 120.922C101.827 121.299 102.269 121.482 102.562 121.242L105.275 119.012C105.717 118.649 106.304 119.236 105.941 119.679L103.712 122.392C103.472 122.684 103.655 123.127 104.031 123.163L107.526 123.506C108.096 123.562 108.096 124.392 107.526 124.448L104.031 124.79C103.655 124.827 103.472 125.269 103.712 125.562L105.941 128.275C106.304 128.717 105.717 129.304 105.275 128.941L102.562 126.712C102.269 126.472 101.827 126.655 101.79 127.031L101.448 130.526C101.392 131.096 100.562 131.096 100.506 130.526L100.163 127.031C100.127 126.655 99.6844 126.472 99.3919 126.712L96.6785 128.941C96.2364 129.304 95.6491 128.717 96.0124 128.275L98.2417 125.562C98.482 125.269 98.2988 124.827 97.9222 124.79L94.4271 124.448C93.8576 124.392 93.8576 123.562 94.4271 123.506L97.9222 123.163C98.2988 123.127 98.482 122.684 98.2417 122.392L96.0124 119.679C95.6491 119.236 96.2364 118.649 96.6785 119.012L99.3919 121.242C99.6844 121.482 100.127 121.299 100.163 120.922L100.506 117.427Z" fill="#C8AA5D"/>
    <rect x="106" y="23" width="12.5581" height="4.18605" rx="2.09302" fill="#FBE6D7"/>
    <rect x="120" y="30" width="12.5581" height="4.18605" rx="2.09302" fill="#FBE6D7"/>
    <rect x="42" y="128" width="12.5581" height="2.7907" rx="1.39535" fill="#FBE6D7"/>
    <rect x="33" y="123" width="12.5581" height="2.7907" rx="1.39535" fill="#FBE6D7"/>
    <path d="M106 47L110.125 44L114.25 47L118.375 44L122.5 47L126.625 44L130.75 47L134.875 44L139 47" stroke="#E59238" stroke-width="2"/>
    <path d="M14 118L18.125 115L22.25 118L26.375 115L30.5 118L34.625 115L38.75 118L42.875 115L47 118" stroke="#E59238" stroke-width="2"/>
    <rect x="42" y="50" width="59" height="50" rx="10" stroke="#704E2A" stroke-width="5.5"/>
    <path d="M53 57.25C51.4812 57.25 50.25 58.4812 50.25 60C50.25 61.5188 51.4812 62.75 53 62.75V57.25ZM53 62.75H91V57.25H53V62.75ZM98.25 70V90H103.75V70H98.25ZM91 62.75C95.0041 62.75 98.25 65.9959 98.25 70H103.75C103.75 62.9584 98.0416 57.25 91 57.25V62.75Z" fill="#704E2A"/>
    <path fill-rule="evenodd" clip-rule="evenodd" d="M90 68C83.9249 68 79 72.9249 79 79C79 85.0751 83.9249 90 90 90H104.21C106.855 90 109 87.8555 109 85.2101V72.7899C109 70.1445 106.855 68 104.21 68H90ZM90 84C92.7614 84 95 81.7614 95 79C95 76.2386 92.7614 74 90 74C87.2386 74 85 76.2386 85 79C85 81.7614 87.2386 84 90 84Z" fill="#704E2A"/>
</svg>
