<svg width="16" height="16" viewBox="0 0 16 16" fill="none" xmlns="http://www.w3.org/2000/svg">
<path fill-rule="evenodd" clip-rule="evenodd" d="M7.33301 2.00065C7.33301 1.63246 7.63148 1.33398 7.99967 1.33398H11.333C11.7012 1.33398 11.9997 1.63246 11.9997 2.00065V5.33398C11.9997 5.70217 11.7012 6.00065 11.333 6.00065C10.9648 6.00065 10.6663 5.70217 10.6663 5.33398V2.66732H7.99967C7.63148 2.66732 7.33301 2.36884 7.33301 2.00065Z" fill="#323130"/>
<path fill-rule="evenodd" clip-rule="evenodd" d="M11.8051 1.52925C12.0654 1.7896 12.0654 2.21171 11.8051 2.47206L6.78113 7.49599C6.7811 7.49601 6.78115 7.49597 6.78113 7.49599C6.28139 7.99589 6.00051 8.67381 6.00033 9.38065C6.00033 9.3806 6.00033 9.3807 6.00033 9.38065V14.0007C6.00033 14.3688 5.70185 14.6673 5.33366 14.6673C4.96547 14.6673 4.66699 14.3688 4.66699 14.0007V9.38065C4.66722 8.32026 5.08848 7.30322 5.83819 6.55331L10.8623 1.52925C11.1226 1.2689 11.5447 1.2689 11.8051 1.52925Z" fill="#323130"/>
</svg>
