
<svg width="12" height="13" viewBox="0 0 12 13" fill="none" xmlns="http://www.w3.org/2000/svg">
<path fill-rule="evenodd" clip-rule="evenodd" d="M0.666667 8.6665C1.03486 8.6665 1.33333 8.96498 1.33333 9.33317V10.6665C1.33333 10.8433 1.40357 11.0129 1.5286 11.1379C1.65362 11.2629 1.82319 11.3332 2 11.3332H10C10.1768 11.3332 10.3464 11.2629 10.4714 11.1379C10.5964 11.0129 10.6667 10.8433 10.6667 10.6665V9.33317C10.6667 8.96498 10.9651 8.6665 11.3333 8.6665C11.7015 8.6665 12 8.96498 12 9.33317V10.6665C12 11.1969 11.7893 11.7056 11.4142 12.0807C11.0391 12.4558 10.5304 12.6665 10 12.6665H2C1.46957 12.6665 0.960859 12.4558 0.585786 12.0807C0.210714 11.7056 0 11.1969 0 10.6665V9.33317C0 8.96498 0.298477 8.6665 0.666667 8.6665Z" fill="#323130"/>
<path fill-rule="evenodd" clip-rule="evenodd" d="M2.19526 4.86177C2.45561 4.60142 2.87772 4.60142 3.13807 4.86177L6 7.7237L8.86193 4.86177C9.12228 4.60142 9.54439 4.60142 9.80474 4.86177C10.0651 5.12212 10.0651 5.54423 9.80474 5.80458L6.4714 9.13791C6.21106 9.39826 5.78894 9.39826 5.5286 9.13791L2.19526 5.80458C1.93491 5.54423 1.93491 5.12212 2.19526 4.86177Z" fill="#323130"/>
<path fill-rule="evenodd" clip-rule="evenodd" d="M5.99967 0C6.36786 0 6.66634 0.298477 6.66634 0.666667V8.66667C6.66634 9.03486 6.36786 9.33333 5.99967 9.33333C5.63148 9.33333 5.33301 9.03486 5.33301 8.66667V0.666667C5.33301 0.298477 5.63148 0 5.99967 0Z" fill="#323130"/>
</svg>
