<svg width="16" height="15" viewBox="0 0 16 15" fill="none" xmlns="http://www.w3.org/2000/svg">
<path fill-rule="evenodd" clip-rule="evenodd" d="M10.5291 0.302422C10.9162 0.142092 11.331 0.0595703 11.75 0.0595703C12.169 0.0595703 12.5838 0.142092 12.9709 0.302422C13.358 0.462752 13.7097 0.697752 14.0059 0.994004C14.3022 1.29026 14.5372 1.64196 14.6975 2.02903C14.8578 2.4161 14.9404 2.83097 14.9404 3.24993C14.9404 3.66889 14.8578 4.08375 14.6975 4.47082C14.5372 4.85789 14.3022 5.2096 14.0059 5.50585L5.25592 14.2558C5.09964 14.4121 4.88768 14.4999 4.66667 14.4999H1.33333C0.873096 14.4999 0.5 14.1268 0.5 13.6666V10.3333C0.5 10.1122 0.587797 9.90028 0.744078 9.744L9.49408 0.994004C9.79033 0.697752 10.142 0.462752 10.5291 0.302422ZM11.75 1.72624C11.5499 1.72624 11.3518 1.76565 11.1669 1.84222C10.982 1.91879 10.8141 2.03103 10.6726 2.17252L2.16667 10.6784V12.8333H4.32149L12.8274 4.32734C12.9689 4.18585 13.0811 4.01788 13.1577 3.83302C13.2343 3.64816 13.2737 3.45002 13.2737 3.24993C13.2737 3.04983 13.2343 2.8517 13.1577 2.66684C13.0811 2.48197 12.9689 2.314 12.8274 2.17252C12.6859 2.03103 12.518 1.91879 12.3331 1.84222C12.1482 1.76565 11.9501 1.72624 11.75 1.72624Z" fill="#53514F"/>
<path fill-rule="evenodd" clip-rule="evenodd" d="M8.66074 1.82757C8.98618 1.50214 9.51382 1.50214 9.83925 1.82757L13.1726 5.16091C13.498 5.48634 13.498 6.01398 13.1726 6.33942C12.8471 6.66485 12.3195 6.66485 11.9941 6.33942L8.66074 3.00609C8.3353 2.68065 8.3353 2.15301 8.66074 1.82757Z" fill="#53514F"/>
<path fill-rule="evenodd" clip-rule="evenodd" d="M10.5 11.9998C10.5 11.5396 10.8731 11.1665 11.3333 11.1665H14.6667C15.1269 11.1665 15.5 11.5396 15.5 11.9998C15.5 12.4601 15.1269 12.8332 14.6667 12.8332H11.3333C10.8731 12.8332 10.5 12.4601 10.5 11.9998Z" fill="#53514F"/>
</svg>
