<svg width="24" height="24" viewBox="0 0 24 24" fill="none" xmlns="http://www.w3.org/2000/svg">
<path fill-rule="evenodd" clip-rule="evenodd" d="M11.292 9.8798C11.6826 10.2703 11.6828 10.9034 11.2923 11.294C11.1048 11.4816 10.9995 11.736 10.9995 12.0012C10.9996 12.2664 11.105 12.5208 11.2925 12.7083C11.4801 12.8958 11.7345 13.0011 11.9997 13.0011C12.265 13.001 12.5193 12.8956 12.7068 12.7081C13.0973 12.3175 13.7305 12.3173 14.121 12.7078C14.5116 13.0983 14.5117 13.7314 14.1213 14.122C13.5588 14.6847 12.7958 15.0009 12.0001 15.0011C11.2044 15.0012 10.4413 14.6853 9.87858 14.1228C9.31586 13.5602 8.99965 12.7972 8.99951 12.0016C8.99937 11.2059 9.31531 10.4428 9.87783 9.88005C10.2683 9.48946 10.9015 9.48935 11.292 9.8798Z" fill="#53514F"/>
<path fill-rule="evenodd" clip-rule="evenodd" d="M11.9974 7.00003C11.4537 6.99862 10.9113 7.05227 10.3784 7.16015C9.83711 7.26973 9.30946 6.91975 9.19988 6.37844C9.0903 5.83714 9.44028 5.30949 9.98159 5.19991C10.6464 5.06534 11.323 4.99837 12.0013 5.00003C12.0017 5.00003 12.0021 5.00003 12.0026 5.00003L12 6.00003V5.00003C12.0004 5.00003 12.0009 5.00003 12.0013 5.00003C16.0563 5.00051 19.3381 7.2865 21.8575 11.4855C22.0475 11.8022 22.0475 12.1978 21.8575 12.5145C21.1604 13.6763 20.405 14.6934 19.5887 15.5569C19.2094 15.9583 18.5765 15.9761 18.1751 15.5968C17.7737 15.2174 17.7559 14.5845 18.1353 14.1831C18.7203 13.5641 19.2838 12.8377 19.8229 11.9999C19.9304 12.167 20.0369 12.3385 20.1425 12.5145L21 12L20.1425 11.4855C20.037 11.6615 19.9304 11.8329 19.8229 11.9999C17.6096 8.55894 14.9988 7.00003 12 7.00003L11.9974 7.00003ZM8.17013 6.79946C8.46095 7.26897 8.31609 7.88534 7.84657 8.17616C6.53417 8.98906 5.30516 10.247 4.17707 12.0001C6.39041 15.4411 9.00116 17 12 17H12.0066V17.0001C13.4714 17.0097 14.9088 16.6023 16.1506 15.8253C16.6188 15.5324 17.2358 15.6744 17.5287 16.1426C17.8217 16.6108 17.6796 17.2278 17.2114 17.5208C15.6487 18.4985 13.8401 19.0116 11.9967 19C7.94268 18.9988 4.66152 16.7129 2.14251 12.5145C1.9525 12.1978 1.9525 11.8022 2.14251 11.4855C3.47221 9.26937 5.01483 7.57757 6.79343 6.4759C7.26294 6.18508 7.87931 6.32994 8.17013 6.79946Z" fill="#53514F"/>
<path fill-rule="evenodd" clip-rule="evenodd" d="M2.29289 2.29289C2.68342 1.90237 3.31658 1.90237 3.70711 2.29289L21.7071 20.2929C22.0976 20.6834 22.0976 21.3166 21.7071 21.7071C21.3166 22.0976 20.6834 22.0976 20.2929 21.7071L2.29289 3.70711C1.90237 3.31658 1.90237 2.68342 2.29289 2.29289Z" fill="#53514F"/>
</svg>
