<svg width="12" height="13" viewBox="0 0 12 13" fill="none" xmlns="http://www.w3.org/2000/svg">
<path fill-rule="evenodd" clip-rule="evenodd" d="M0 0.666667C0 0.298477 0.298477 0 0.666667 0H11.3333C11.7015 0 12 0.298477 12 0.666667V2.11467C11.9999 2.64502 11.7891 3.15376 11.4141 3.52874C11.414 3.52876 11.4141 3.52871 11.4141 3.52874L8.66667 6.27614V10.6667C8.66667 10.9536 8.48305 11.2084 8.21082 11.2991L4.21082 12.6325C4.00752 12.7002 3.78404 12.6661 3.61019 12.5408C3.43635 12.4155 3.33333 12.2143 3.33333 12V6.59107L0.52004 3.49645C0.185487 3.12837 5.31673e-05 2.6488 0 2.1514V0.666667ZM1.33333 1.33333V2.15126C1.33333 2.15124 1.33333 2.15129 1.33333 2.15126C1.33337 2.31702 1.39515 2.47688 1.50663 2.59955C1.50661 2.59954 1.50664 2.59957 1.50663 2.59955L4.49329 5.88489C4.60485 6.0076 4.66667 6.16749 4.66667 6.33333V11.0751L7.33333 10.1862V6C7.33333 5.82319 7.40357 5.65362 7.5286 5.5286L10.4713 2.58593C10.5963 2.46097 10.6666 2.29141 10.6667 2.11467C10.6667 2.11462 10.6667 2.11471 10.6667 2.11467V1.33333H1.33333Z" fill="#323130"/>
</svg>
