<svg width="32" height="28" viewBox="0 0 32 28" fill="none" xmlns="http://www.w3.org/2000/svg">
<path d="M29.1184 5.28138C25.9561 3.45595 21.9125 4.54065 20.085 7.70294L15.4785 15.6828C14.1456 17.9871 15.8615 18.7923 17.7749 19.9395L22.2075 22.4979C23.7086 23.3637 25.6259 22.8497 26.4917 21.3506L31.2272 13.1499C32.8181 10.3942 31.8741 6.87232 29.1184 5.28138Z" fill="#EA4335"/>
<path d="M23.9062 8.58401L19.4736 6.0257C17.0266 4.66738 15.641 4.57747 14.6363 6.17424L8.09884 17.4962C6.27338 20.6565 7.36005 24.6983 10.5203 26.5198C13.2761 28.1107 16.798 27.1667 18.3889 24.411L25.0515 12.8701C25.9212 11.3691 25.4072 9.44984 23.9062 8.58401Z" fill="#FBBC04"/>
<path d="M24.7591 2.76384L21.6457 0.965771C18.2021 -1.02188 13.7988 0.156636 11.8111 3.60033L5.88334 13.8669C5.00775 15.3816 5.52763 17.3204 7.04234 18.194L10.529 20.2071C12.2508 21.2019 14.4515 20.6116 15.4463 18.8898L22.2184 7.16132C23.6217 4.73194 26.7273 3.89936 29.1566 5.30264L24.7591 2.76384Z" fill="#34A853"/>
<path d="M12.6532 6.53774L9.28771 4.59895C7.78668 3.7351 5.86942 4.24716 5.00361 5.74425L0.965772 12.7216C-1.02188 16.1554 0.156637 20.549 3.60033 22.5308L6.16258 24.0064L9.2701 25.7966L10.6187 26.5725C8.22449 24.9699 7.46422 21.7588 8.92806 19.2298L9.97368 17.4239L13.8024 10.8081C14.6663 9.31501 14.1523 7.40159 12.6532 6.53774Z" fill="#4285F4"/>
</svg>
