<svg width="98" height="80" viewBox="0 0 98 80" fill="none" xmlns="http://www.w3.org/2000/svg">
<path d="M50.489 63.9967C48.1456 63.9967 45.6148 62.5912 43.2715 61.2794C41.7997 60.5438 40.5781 59.6865 38.866 59.6865C37.7065 59.6865 36.5583 59.8739 35.3979 59.8739C32.8835 59.8739 31.476 58.5448 30.6174 56.3134C30.43 55.7512 30.2425 55.189 29.9613 54.6268C28.7428 52.8465 27.0555 51.5347 25.1809 50.1292C21.8002 47.5296 20.1978 45.6838 20.4005 41.2277C20.4942 39.4475 20.6817 37.6672 19.7443 35.8869C19.5125 35.4233 18.9792 35.0828 18.5258 34.8562C17.9634 34.5751 17.8696 34.4814 17.8696 34.1066V34.0129V33.9192C17.1198 31.1082 18.7132 28.2972 20.4005 25.2988C20.7754 24.5492 21.2441 23.7997 21.619 23.0501C21.9002 21.9257 21.8065 20.6139 21.7127 19.3958C21.5253 17.8029 21.4315 16.3037 22.3689 14.8982C22.9313 13.6801 23.9623 13.399 25.1809 12.9305C25.7433 12.7431 26.3057 12.5557 26.8681 12.2746C28.649 11.0565 29.9613 9.36994 31.3673 7.49595C32.3046 6.27786 33.3357 4.96607 34.4605 3.84168C35.8665 2.81098 37.2725 2.62358 38.4911 2.62358C39.0535 2.62358 39.6159 2.62358 40.272 2.71728C40.8344 2.71728 41.4905 2.81098 42.0529 2.81098C43.459 2.81098 44.5838 2.62358 45.6148 2.06139C45.997 2.06139 46.4934 1.14819 46.6459 0.843295C47.0465 0.0423619 48.1782 0 48.9892 0C51.3326 0 53.8634 1.40549 56.2067 2.71728C57.692 3.45965 58.72 4.12277 60.4248 4.12277C60.9872 4.12277 61.6433 4.02908 62.2057 4.02908C63.6928 3.78132 65.4049 3.87277 66.7049 4.68497C67.9235 5.24717 68.2047 6.27786 68.6733 7.49595C68.8608 8.05815 69.0483 8.62035 69.3295 9.18254C70.548 10.9628 72.2352 12.2746 74.1099 13.6801C75.3284 14.6171 76.6407 15.6478 77.7655 16.7722C78.984 18.4588 78.7966 20.1454 78.6091 22.0194C78.3279 23.9871 78.1404 25.9547 79.6402 28.0161C79.8276 28.2035 80.0151 28.3909 80.2026 28.5783C81.1399 29.4216 82.171 30.2649 81.4211 32.3263C79.8947 36.7514 77.2312 39.8409 77.578 44.6946C77.9502 47.8572 77.1133 50.0052 74.1099 51.1599C73.5475 51.3473 72.9851 51.5347 72.4227 51.8158C70.6417 53.0339 69.3295 54.7205 67.9235 56.5945C66.9861 57.8125 65.9551 59.1243 64.8302 60.2487C63.4242 61.2794 62.0182 61.4668 60.7997 61.4668C60.2373 61.4668 59.6749 61.4668 59.0188 61.3731C58.3626 61.2794 57.8002 61.2794 57.2378 61.2794C55.8318 61.2794 54.707 61.4668 53.6759 62.029C53.2122 62.2608 52.8716 62.7939 52.6449 63.2471C52.2219 64.0927 51.364 63.9967 50.489 63.9967Z" fill="#609966"/>
<path fill-rule="evenodd" clip-rule="evenodd" d="M65.0123 23.8831L42.8933 43.5444L34.5361 35.1872L37.7594 31.9639L43.0774 37.2819L61.9839 20.4761L65.0123 23.8831Z" fill="white"/>
<path d="M85.6782 72.3981C85.3016 73.2441 84.6627 73.5809 83.7293 73.627C82.6474 73.6951 81.622 74.1338 80.8253 74.8694C80.0287 75.6051 79.5093 76.5928 79.3546 77.6665C79.3085 77.9612 79.2885 78.2679 79.2504 78.5586C79.211 78.947 79.0314 79.3078 78.7453 79.5731C78.4591 79.8385 78.086 79.9903 77.6961 80C76.8708 80 76.2218 79.3805 76.0816 78.5185C75.9634 77.7868 75.8953 77.0089 75.5888 76.3514C74.7676 74.5932 73.3074 73.6971 71.3684 73.6009C70.5932 73.5628 70.0263 73.236 69.778 72.4743C69.662 72.1794 69.6477 71.8542 69.7374 71.5502C69.827 71.2463 70.0154 70.9809 70.2727 70.7963C70.5768 70.5857 70.9301 70.4572 71.2983 70.4234C74.2528 70.1026 75.8052 68.537 76.0856 65.5479C76.1717 64.6338 76.8447 63.9882 77.7 64.0003C77.9011 63.9965 78.1009 64.0328 78.2878 64.107C78.4748 64.1812 78.6451 64.2919 78.789 64.4325C78.9329 64.5731 79.0474 64.7409 79.1259 64.9262C79.2044 65.1115 79.2454 65.3106 79.2464 65.5118C79.3285 68.3184 81.4498 70.3873 84.1799 70.4194C84.9331 70.4194 85.2976 70.9727 85.6782 71.4979V72.3981Z" fill="#E59238"/>
<path d="M97.6771 9.38436C97.339 9.92834 96.8762 10.1688 96.2105 10.2214C94.4072 10.3641 93.1419 11.6339 92.9045 13.4191C92.8835 13.5694 92.8775 13.7197 92.8594 13.87C92.7843 14.5342 92.3019 14.997 91.6828 15C91.0637 15.003 90.5843 14.5056 90.4686 13.8279C90.3634 13.2103 90.2582 12.5551 89.9712 12.0126C89.3536 10.8525 88.2972 10.292 86.9913 10.1958C86.1784 10.1372 85.693 9.69391 85.6795 9.01919C85.6659 8.34448 86.1754 7.8576 87.0079 7.802C88.9524 7.66826 90.3574 6.26022 90.4746 4.32623C90.5227 3.52528 90.9645 3.02488 91.6437 3.00083C92.323 2.97679 92.7933 3.47419 92.8744 4.31721C93.0743 6.38043 94.3772 7.66375 96.4524 7.8005C97.0805 7.84107 97.4352 8.18519 97.6771 8.71264V9.38436Z" fill="#E59238"/>
<path d="M6.43495 9.00001C7.14131 9.00001 7.53969 9.4821 7.68219 10.282C7.79404 10.9148 7.95033 11.5822 8.27056 12.129C8.8666 13.1459 9.84416 13.6687 11.0485 13.7862C11.3697 13.8015 11.6846 13.8788 11.9755 14.0137C12.4428 14.2637 12.5976 14.7142 12.5087 15.2189C12.4772 15.4544 12.3689 15.6735 12.2002 15.8435C12.0314 16.0135 11.8112 16.1252 11.5725 16.1619C11.1634 16.2433 10.7344 16.2478 10.3329 16.3533C9.60913 16.5461 8.96425 16.9555 8.48766 17.5248C8.01107 18.0941 7.72636 18.795 7.67299 19.5305C7.66401 19.7361 7.63476 19.9405 7.58566 20.1406C7.51967 20.398 7.36424 20.6245 7.14625 20.7811C6.92827 20.9376 6.66147 21.0143 6.39205 20.9978C6.13 21.0025 5.87437 20.9179 5.66854 20.7583C5.46271 20.5988 5.31935 20.3742 5.2628 20.1225C5.16627 19.7233 5.16627 19.3015 5.06361 18.9053C4.87958 18.1706 4.46071 17.5134 3.86856 17.0301C3.27642 16.5469 2.54224 16.2632 1.77393 16.2207C1.64047 16.2152 1.50745 16.2022 1.37555 16.1815C0.715157 16.0625 0.313715 15.6 0.322908 14.9763C0.320451 14.6914 0.424886 14.4155 0.616251 14.2015C0.807617 13.9875 1.07249 13.8504 1.36022 13.8163C1.67893 13.7606 2.01142 13.7696 2.32399 13.6988C3.95735 13.3312 5.05442 12.0416 5.17853 10.3845C5.25208 9.48661 5.69336 8.997 6.43495 9.00001Z" fill="#E59238"/>
</svg>
