<svg width="16" height="14" viewBox="0 0 16 14" fill="none" xmlns="http://www.w3.org/2000/svg">
<path d="M4.57768 0.777771C5.69773 0.777771 6.71821 1.22581 7.47983 1.96258C7.67019 2.14673 7.84438 2.34892 7.99991 2.56666C8.15563 2.34865 8.33007 2.14622 8.51946 1.96188C9.27601 1.22553 10.2713 0.777771 11.2666 0.777771C13.5999 0.777771 15.4666 2.64444 15.4666 4.97777C15.4666 5.98888 15.311 7.54444 13.911 8.94444C12.9697 9.94461 10.3817 11.7458 9.10954 12.6313L9.10945 12.6313C8.69986 12.9164 8.42668 13.1066 8.3888 13.1444C8.23324 13.2222 8.07768 13.3 7.92213 13.3C7.76657 13.3 7.61102 13.2222 7.45546 13.1444C7.41483 13.1038 7.10356 12.8828 6.64364 12.5561L6.64362 12.5561C5.34275 11.6323 2.85263 9.86383 1.93324 8.94444C0.533241 7.54444 0.377686 5.98888 0.377686 4.97777C0.377686 2.64444 2.32213 0.777771 4.57768 0.777771Z" fill="#323130"/>
</svg>
