<svg width="21" height="19" viewBox="0 0 21 19" fill="none" xmlns="http://www.w3.org/2000/svg">
<path fill-rule="evenodd" clip-rule="evenodd" d="M7.41129 3.01134C6.8622 2.95276 6.30693 3.00851 5.78045 3.17508C5.25396 3.34165 4.76767 3.61542 4.35219 3.97916C3.93671 4.3429 3.60104 4.78873 3.36632 5.28856C3.13161 5.7884 3.00293 6.33143 2.98839 6.88344C2.97385 7.43546 3.07376 7.9845 3.28183 8.496C3.48991 9.00751 3.80164 9.47039 4.1974 9.85549L4.20371 9.86164L4.20368 9.86167L11 16.5927L17.7963 9.86167C17.817 9.84115 17.8384 9.82172 17.8604 9.80339C18.2241 9.43032 18.5117 8.98956 18.7066 8.50575C18.9123 7.99515 19.0104 7.44758 18.9947 6.89732C18.9791 6.34706 18.85 5.80595 18.6156 5.30787C18.3812 4.80978 18.0465 4.36544 17.6325 4.00264C17.2185 3.63985 16.734 3.36642 16.2095 3.19947C15.6849 3.03251 15.1316 2.97563 14.584 3.03237C14.0365 3.08911 13.5065 3.25827 13.0273 3.52924C12.5482 3.80021 12.1301 4.16717 11.7993 4.60715C11.6098 4.85917 11.3125 5.00705 10.9972 5.00617C10.6819 5.00529 10.3855 4.85576 10.1974 4.6027C9.86799 4.1595 9.4504 3.7893 8.9709 3.51542C8.4914 3.24154 7.96038 3.06991 7.41129 3.01134ZM19.1347 11.351L11.7037 18.7107C11.314 19.0967 10.686 19.0967 10.2963 18.7107L2.79929 11.2856C2.20723 10.7086 1.74079 10.0155 1.42925 9.24962C1.11714 8.48237 0.967269 7.6588 0.98908 6.83078C1.01089 6.00276 1.20391 5.18822 1.55598 4.43846C1.90806 3.6887 2.41156 3.01996 3.03478 2.47435C3.658 1.92874 4.38744 1.51809 5.17717 1.26824C5.9669 1.01839 6.7998 0.934759 7.62344 1.02262C8.44707 1.11048 9.24359 1.36793 9.96284 1.77875C10.3369 1.99239 10.6858 2.24511 11.0041 2.53199C11.3221 2.24859 11.6701 1.9991 12.0429 1.78833C12.7616 1.38187 13.5565 1.12814 14.3778 1.04302C15.1992 0.957908 16.0292 1.04324 16.8161 1.29367C17.6029 1.5441 18.3296 1.95425 18.9506 2.49844C19.5716 3.04262 20.0736 3.70914 20.4252 4.45627C20.7768 5.2034 20.9704 6.01506 20.9939 6.84045C21.0174 7.66584 20.8702 8.48719 20.5617 9.2531C20.2531 10.019 19.7898 10.713 19.2007 11.2916C19.1794 11.3126 19.1573 11.3324 19.1347 11.351Z" fill="#53514F"/>
</svg>
