<svg version="1.2" xmlns="http://www.w3.org/2000/svg" viewBox="0 0 23 23" width="23" height="23">
	<title>instagram-svg</title>
	<style>
		.s0 { fill: none;stroke: #53514f;stroke-linecap: round;stroke-linejoin: round;stroke-width: 2 } 
	</style>
	<path id="Layer" class="s0" d="m1.7 7.3c0-1.2 0.5-2.4 1.3-3.3 0.9-0.8 2.1-1.3 3.3-1.3h9.4c1.2 0 2.4 0.5 3.3 1.3 0.8 0.9 1.3 2.1 1.3 3.3v9.4c0 1.2-0.5 2.4-1.3 3.3-0.9 0.8-2.1 1.3-3.3 1.3h-9.4c-1.2 0-2.4-0.5-3.3-1.3-0.8-0.9-1.3-2.1-1.3-3.3z"/>
	<path id="Layer" class="s0" d="m7.5 12c0 0.9 0.4 1.8 1 2.5 0.7 0.6 1.6 1 2.5 1 0.9 0 1.8-0.4 2.5-1 0.6-0.7 1-1.6 1-2.5 0-0.9-0.4-1.8-1-2.5-0.7-0.6-1.6-1-2.5-1-0.9 0-1.8 0.4-2.5 1-0.6 0.7-1 1.6-1 2.5z"/>
	<path id="Layer" class="s0" d="m16.3 6.8h-0.1"/>
</svg>