<svg version="1.2" xmlns="http://www.w3.org/2000/svg" viewBox="0 0 23 23" width="23" height="23">
	<title>linkedin-svg</title>
	<style>
		.s0 { fill: none;stroke: #53514f;stroke-linecap: round;stroke-linejoin: round;stroke-width: 2 } 
	</style>
	<path id="Layer" class="s0" d="m2.7 4c0-0.6 0.2-1.2 0.7-1.7 0.4-0.4 1-0.6 1.6-0.6h14c0.6 0 1.2 0.2 1.6 0.6 0.5 0.5 0.7 1.1 0.7 1.7v14c0 0.6-0.2 1.2-0.7 1.6-0.4 0.5-1 0.7-1.6 0.7h-14c-0.6 0-1.2-0.2-1.6-0.7-0.5-0.4-0.7-1-0.7-1.6z"/>
	<path id="Layer" class="s0" d="m7.3 9.8v5.9"/>
	<path id="Layer" class="s0" d="m7.3 6.3"/>
	<path id="Layer" class="s0" d="m12 15.7v-5.9"/>
	<path id="Layer" class="s0" d="m16.7 15.7v-3.5c0-0.7-0.3-1.2-0.7-1.7-0.5-0.4-1-0.7-1.7-0.7-0.6 0-1.2 0.3-1.6 0.7-0.5 0.5-0.7 1-0.7 1.7"/>
</svg>