<svg width="18" height="14" viewBox="0 0 18 14" fill="none" xmlns="http://www.w3.org/2000/svg">
<path fill-rule="evenodd" clip-rule="evenodd" d="M2.96436 1.99967C2.74334 1.99967 2.53138 2.08747 2.3751 2.24375C2.21882 2.40003 2.13102 2.61199 2.13102 2.83301V11.1663C2.13102 11.3874 2.21882 11.5993 2.3751 11.7556C2.53138 11.9119 2.74334 11.9997 2.96436 11.9997H14.631C14.852 11.9997 15.064 11.9119 15.2203 11.7556C15.3766 11.5993 15.4644 11.3874 15.4644 11.1663V2.83301C15.4644 2.61199 15.3766 2.40003 15.2203 2.24375C15.064 2.08747 14.852 1.99967 14.631 1.99967H2.96436ZM1.19659 1.06524C1.66543 0.5964 2.30131 0.333008 2.96436 0.333008H14.631C15.2941 0.333008 15.9299 0.5964 16.3988 1.06524C16.8676 1.53408 17.131 2.16997 17.131 2.83301V11.1663C17.131 11.8294 16.8676 12.4653 16.3988 12.9341C15.9299 13.4029 15.2941 13.6663 14.631 13.6663H2.96436C2.30131 13.6663 1.66543 13.4029 1.19659 12.9341C0.727748 12.4653 0.464355 11.8294 0.464355 11.1663V2.83301C0.464355 2.16997 0.727747 1.53408 1.19659 1.06524Z" fill="#53514F"/>
<path fill-rule="evenodd" clip-rule="evenodd" d="M0.604402 2.37117C0.859696 1.98823 1.37709 1.88475 1.76003 2.14005L8.79778 6.83188L15.8355 2.14005C16.2185 1.88475 16.7359 1.98823 16.9912 2.37117C17.2464 2.75411 17.143 3.2715 16.76 3.5268L9.26003 8.5268C8.98011 8.71341 8.61544 8.71341 8.33553 8.5268L0.835527 3.5268C0.452587 3.2715 0.349108 2.75411 0.604402 2.37117Z" fill="#53514F"/>
</svg>
