<svg width="127" height="127" fill="none" xmlns="http://www.w3.org/2000/svg"><ellipse cx="61.49" cy="63.5" fill="#fefaf6" style="display:inline;stroke-width:1.00327" rx="54.86" ry="54.5"/><ellipse cx="15.19" cy="35.5" stroke="#e59238" stroke-width="2.01" rx="3.52" ry="3.5"/><path d="m113.83 64 1.15 5.35 5.4 1.15-5.4 1.15-1.15 5.35-1.16-5.35-5.38-1.15 5.38-1.15zM87.66 105.43c.06-.57.9-.57.95 0l.35 3.5c.03.37.48.55.77.31l2.73-2.23c.45-.36 1.04.23.67.67l-2.24 2.71c-.24.3-.06.74.32.77l3.52.35c.57.05.57.88 0 .94l-3.52.34a.47.47 0 0 0-.32.77l2.24 2.71c.37.45-.22 1.03-.67.67l-2.73-2.23a.48.48 0 0 0-.77.32l-.35 3.5c-.05.57-.89.57-.95 0l-.34-3.5a.48.48 0 0 0-.78-.32l-2.73 2.23c-.44.36-1.03-.22-.67-.67l2.24-2.7a.47.47 0 0 0-.32-.78l-3.51-.34c-.58-.06-.58-.89 0-.94l3.51-.35a.47.47 0 0 0 .32-.77l-2.24-2.71c-.36-.44.23-1.03.67-.67l2.73 2.23c.3.24.74.06.78-.32z" fill="#c8aa5d" style="stroke-width:1.00327"/><rect x="93.19" y="11" width="12.64" height="4.19" rx="2.11" fill="#fbe6d7" style="stroke-width:1.00327"/><rect x="107.29" y="18" width="12.64" height="4.19" rx="2.11" fill="#fbe6d7" style="stroke-width:1.00327"/><rect x="28.77" y="116" width="12.64" height="2.79" rx="1.4" fill="#fbe6d7" style="stroke-width:1.00327"/><rect x="19.72" y="111" width="12.64" height="2.79" rx="1.4" fill="#fbe6d7" style="stroke-width:1.00327"/><path d="m93.2 35 4.15-3 4.15 3 4.15-3 4.15 3 4.15-3 4.16 3 4.15-3 4.15 3" stroke="#e59238" stroke-width="2.01"/><path d="m.6 106 4.14-3 4.15 3 4.16-3 4.15 3 4.15-3 4.15 3 4.15-3 4.16 3" stroke="#e59238" stroke-width="2.01" style="display:inline"/></svg>