<svg width="18" height="20" viewBox="0 0 18 20" fill="none" xmlns="http://www.w3.org/2000/svg">
<path fill-rule="evenodd" clip-rule="evenodd" d="M9 2C8.73478 2 8.48043 2.10536 8.29289 2.29289C8.10536 2.48043 8 2.73478 8 3C8 3.38669 7.77705 3.73873 7.42747 3.90403C6.44312 4.36948 5.60398 5.09402 5 6C4.40019 6.89972 4.05474 7.94469 4 9.02436V12C4 12.0402 3.99758 12.0803 3.99275 12.1202C3.9125 12.7832 3.7004 13.4222 3.37021 14H14.6298C14.2996 13.4222 14.0875 12.7832 14.0072 12.1202C14.0024 12.0803 14 12.0402 14 12V9.02436C13.9453 7.9447 13.5998 6.89972 13 6C12.396 5.09402 11.5569 4.36948 10.5725 3.90403C10.2229 3.73873 10 3.38669 10 3C10 2.73478 9.89464 2.48043 9.70711 2.29289C9.51957 2.10536 9.26522 2 9 2ZM6.87868 0.87868C7.44129 0.31607 8.20435 0 9 0C9.79565 0 10.5587 0.31607 11.1213 0.87868C11.5295 1.28688 11.8079 1.80059 11.93 2.35572C13.026 2.97224 13.9636 3.83991 14.6641 4.8906C15.4694 6.09857 15.9308 7.50291 15.9989 8.95311C15.9996 8.96873 16 8.98437 16 9V11.9354C16.0625 12.3815 16.2247 12.8082 16.4749 13.1834C16.7354 13.5742 17.084 13.8984 17.4928 14.1298C17.8879 14.3536 18.0827 14.8156 17.967 15.2548C17.8513 15.694 17.4542 16 17 16H1C0.545842 16 0.148715 15.694 0.0330025 15.2548C-0.0827102 14.8156 0.112053 14.3536 0.507247 14.1298C0.915951 13.8984 1.2646 13.5742 1.52514 13.1834C1.77531 12.8082 1.93752 12.3815 2 11.9353V9C2 8.98437 2.00037 8.96873 2.0011 8.95311C2.06917 7.50291 2.53059 6.09857 3.3359 4.8906C4.03636 3.83991 4.97403 2.97224 6.06999 2.35572C6.19207 1.80059 6.47048 1.28688 6.87868 0.87868Z" fill="#53514F"/>
<path fill-rule="evenodd" clip-rule="evenodd" d="M6 14C6.55228 14 7 14.4477 7 15V16C7 16.5304 7.21071 17.0391 7.58579 17.4142C7.96086 17.7893 8.46957 18 9 18C9.53043 18 10.0391 17.7893 10.4142 17.4142C10.7893 17.0391 11 16.5304 11 16V15C11 14.4477 11.4477 14 12 14C12.5523 14 13 14.4477 13 15V16C13 17.0609 12.5786 18.0783 11.8284 18.8284C11.0783 19.5786 10.0609 20 9 20C7.93913 20 6.92172 19.5786 6.17157 18.8284C5.42143 18.0783 5 17.0609 5 16V15C5 14.4477 5.44772 14 6 14Z" fill="#53514F"/>
</svg>
