<svg width="94" height="89" viewBox="0 0 94 89" fill="none" xmlns="http://www.w3.org/2000/svg">
<circle cx="43.6" cy="44.4" r="43.6" fill="#FEFAF6"/>
<rect x="68.7998" y="2.4" width="10.0465" height="3.34884" rx="1.67442" fill="#FBE6D7"/>
<rect x="80" y="8" width="10.0465" height="3.34884" rx="1.67442" fill="#E59238"/>
<rect x="17.5996" y="86.4" width="10.0465" height="2.23256" rx="1.11628" fill="#FBE6D7"/>
<rect x="10.4004" y="82.4" width="10.0465" height="2.23256" rx="1.11628" fill="#FBE6D7"/>
<path fill-rule="evenodd" clip-rule="evenodd" d="M43.9998 24C43.3068 24 42.6443 24.2742 42.1576 24.7588C41.6711 25.243 41.3998 25.8976 41.3998 26.5778C41.3998 27.5073 40.8631 28.3533 40.022 28.7492C37.5439 29.9158 35.4327 31.7311 33.9139 33.9992C32.4052 36.2522 31.5371 38.868 31.3998 41.5698V48.9778C31.3998 49.0746 31.394 49.1713 31.3823 49.2675C31.1769 50.9568 30.6239 52.5826 29.7612 54.0444H58.2385C57.3758 52.5826 56.8228 50.9568 56.6174 49.2675C56.6057 49.1713 56.5998 49.0746 56.5998 48.9778V41.5697C56.4626 38.868 55.5944 36.2522 54.0858 33.9992C52.5669 31.7311 50.4558 29.9158 47.9776 28.7492C47.1366 28.3533 46.5998 27.5073 46.5998 26.5778C46.5998 25.8976 46.3285 25.243 45.8421 24.7588C45.3553 24.2742 44.6928 24 43.9998 24ZM49.0998 58.8444H38.8998V58.9333C38.8998 60.2736 39.4345 61.5612 40.3898 62.5122C41.3454 63.4636 42.6438 64 43.9998 64C45.3559 64 46.6542 63.4636 47.6099 62.5122C48.5651 61.5612 49.0998 60.2736 49.0998 58.9333V58.8444ZM34.0998 58.8444V58.9333C34.0998 61.5536 35.1455 64.0644 37.0033 65.9139C38.8607 67.7631 41.3776 68.8 43.9998 68.8C46.622 68.8 49.139 67.7631 50.9964 65.9139C52.8542 64.0644 53.8998 61.5536 53.8998 58.9333V58.8444H63.9998C65.0907 58.8444 66.0443 58.1088 66.3212 57.0537C66.5981 55.9986 66.1287 54.8895 65.1784 54.3538C64.1426 53.7698 63.26 52.9525 62.601 51.9684C61.9672 51.0219 61.5571 49.9464 61.3998 48.8223V41.5111C61.3998 41.4734 61.3989 41.4357 61.3972 41.3981C61.2276 37.8027 60.0786 34.3218 58.0741 31.3285C56.3229 28.7132 53.9766 26.5566 51.2349 25.0289C50.9374 23.6475 50.2457 22.3696 49.2286 21.3571C47.84 19.9747 45.959 19.2 43.9998 19.2C42.0407 19.2 40.1596 19.9747 38.771 21.3571C37.754 22.3696 37.0622 23.6475 36.7647 25.0289C34.0231 26.5566 31.6768 28.7132 29.9255 31.3285C27.9211 34.3218 26.772 37.8027 26.6025 41.3981C26.6007 41.4357 26.5998 41.4734 26.5998 41.5111V48.8223C26.4426 49.9464 26.0324 51.0219 25.3986 51.9684C24.7396 52.9525 23.857 53.7698 22.8212 54.3538C21.871 54.8895 21.4015 55.9986 21.6785 57.0537C21.9554 58.1088 22.909 58.8444 23.9998 58.8444H34.0998Z" fill="#704E2A"/>
<path fill-rule="evenodd" clip-rule="evenodd" d="M69.7002 23.0108L73.0002 25.4108L76.3002 23.0108L79.6002 25.4108L82.9002 23.0108L86.2002 25.4108L89.5002 23.0108L93.2708 25.753L92.3297 27.047L89.5002 24.9892L86.2002 27.3892L82.9002 24.9892L79.6002 27.3892L76.3002 24.9892L73.0002 27.3892L69.7002 24.9892L66.8708 27.047L65.9297 25.753L69.7002 23.0108Z" fill="#E59238"/>
<path fill-rule="evenodd" clip-rule="evenodd" d="M5.73871 21.6L5.73871 10.4L7.3584 10.4L7.3584 21.6L5.73871 21.6Z" fill="#C8AA5D"/>
<path fill-rule="evenodd" clip-rule="evenodd" d="M11.9998 15.3387H0.799805V16.9584H11.9998V15.3387Z" fill="#C8AA5D"/>
<path fill-rule="evenodd" clip-rule="evenodd" d="M87.1998 63.2C88.0835 63.2 88.7998 62.4837 88.7998 61.6C88.7998 60.7163 88.0835 60 87.1998 60C86.3161 60 85.5998 60.7163 85.5998 61.6C85.5998 62.4837 86.3161 63.2 87.1998 63.2ZM87.1998 64C88.5253 64 89.5998 62.9255 89.5998 61.6C89.5998 60.2745 88.5253 59.2 87.1998 59.2C85.8743 59.2 84.7998 60.2745 84.7998 61.6C84.7998 62.9255 85.8743 64 87.1998 64Z" fill="#C8AA5D"/>
<path fill-rule="evenodd" clip-rule="evenodd" d="M16.3998 70.4C17.5044 70.4 18.3998 69.5046 18.3998 68.4C18.3998 67.2954 17.5044 66.4 16.3998 66.4C15.2952 66.4 14.3998 67.2954 14.3998 68.4C14.3998 69.5046 15.2952 70.4 16.3998 70.4ZM16.3998 72C18.388 72 19.9998 70.3882 19.9998 68.4C19.9998 66.4118 18.388 64.8 16.3998 64.8C14.4116 64.8 12.7998 66.4118 12.7998 68.4C12.7998 70.3882 14.4116 72 16.3998 72Z" fill="#E59238"/>
</svg>
