<svg width="36" height="36" viewBox="0 0 36 36" fill="none" xmlns="http://www.w3.org/2000/svg">
<path d="M18.0517 0.857422C8.55542 0.857422 0.857422 8.55542 0.857422 18.0508C0.857422 27.5471 8.55542 35.2443 18.0508 35.2443C27.5463 35.2443 35.2451 27.5471 35.2451 18.0508C35.2451 8.55542 27.5471 0.857422 18.0517 0.857422Z" fill="#673AB7"/>
<path fill-rule="evenodd" clip-rule="evenodd" d="M25.914 13.9807V13.3927L25.9149 12.8055C25.9149 12.6418 25.8712 12.5192 25.7846 12.4378C25.698 12.3547 25.5686 12.3144 25.3955 12.3144H21.9532C21.8169 12.3144 21.6892 12.2758 21.5709 12.1987C21.4517 12.1224 21.3429 12.0058 21.2417 11.8506L17.3349 5.56694C17.262 5.43066 17.166 5.3278 17.0477 5.25922C16.9286 5.19152 16.7872 5.15723 16.6235 5.15723H14.9572C14.8209 5.15723 14.718 5.19152 14.6503 5.25922C14.5817 5.3278 14.5475 5.43066 14.5475 5.56694C14.5475 5.63979 14.5577 5.71007 14.5757 5.77866C14.5946 5.84636 14.6212 5.91322 14.6572 5.97579L16.1863 8.24381C16.692 8.99637 17.2175 9.71038 17.7626 10.3892C18.3077 11.0672 18.8717 11.7084 19.4537 12.3144H11.4052C11.232 12.3144 11.1026 12.3555 11.016 12.4378C10.9295 12.5184 10.8857 12.6418 10.8857 12.8055V13.9532C10.8857 14.1367 10.9295 14.2721 11.016 14.3629C11.1026 14.4538 11.232 14.5001 11.4052 14.5001H12.99C13.0723 14.5087 13.134 14.5404 13.1743 14.5952C13.2155 14.6501 13.236 14.7281 13.236 14.8275V20.7838C13.236 21.4198 13.3312 21.9907 13.5197 22.4946C13.7092 22.9969 13.992 23.4341 14.37 23.8018C14.748 24.1712 15.1886 24.4481 15.6926 24.6315C16.1957 24.8158 16.7615 24.9084 17.3897 24.9084H18.1817C18.8023 24.9084 19.3209 24.8132 19.7392 24.6221C20.1583 24.4301 20.4772 24.1438 20.6966 23.7615H20.8046V28.8161C20.8046 28.9901 20.8483 29.1195 20.934 29.2052C21.0206 29.2918 21.1509 29.3355 21.324 29.3355H22.7717C22.9449 29.3355 23.0752 29.2918 23.1617 29.2052C23.2475 29.1195 23.2912 28.9892 23.2912 28.8161V14.8275C23.2912 14.7187 23.316 14.6364 23.3657 14.5815C23.4163 14.5267 23.4909 14.5001 23.5912 14.5001H25.3946C25.5677 14.5001 25.6972 14.4564 25.7837 14.3698C25.8703 14.2832 25.914 14.1538 25.914 13.9807ZM20.5042 14.4992C20.6045 14.4992 20.6791 14.5257 20.7288 14.5815C20.7794 14.6354 20.8042 14.7186 20.8042 14.8274V20.4829C20.8042 20.8197 20.7571 21.1206 20.6637 21.388C20.5702 21.6537 20.4297 21.8843 20.2428 22.0806C20.0568 22.276 19.8211 22.4234 19.5365 22.5212C19.2528 22.6189 18.9194 22.6677 18.5362 22.6677H17.7991C17.1074 22.6677 16.5879 22.4903 16.2417 22.1346C15.8954 21.7797 15.7222 21.2474 15.7222 20.5369V14.8266C15.7222 14.7177 15.7471 14.6354 15.7968 14.5806C15.8465 14.5257 15.922 14.4992 16.0231 14.4992H20.5042Z" fill="white"/>
</svg>
