<svg version="1.2" xmlns="http://www.w3.org/2000/svg" viewBox="0 0 24 25" width="24" height="25">
	<title>pinterest-svg</title>
	<defs>
		<clipPath clipPathUnits="userSpaceOnUse" id="cp1">
			<path d="m-2-1h28v28h-28z"/>
		</clipPath>
		<clipPath clipPathUnits="userSpaceOnUse" id="cp2">
			<path d="m-2-1h28v28h-28z"/>
		</clipPath>
	</defs>
	<style>
		.s0 { fill: none;stroke: #53514f;stroke-linecap: round;stroke-linejoin: round;stroke-width: 2 } 
	</style>
	<g id="Clip-Path" clip-path="url(#cp1)">
		<g id="Layer">
			<g id="Clip-Path" clip-path="url(#cp2)">
				<g id="Layer">
					<path id="Layer" class="s0" d="m7.3 22.3l4.7-10.5"/>
					<path id="Layer" class="s0" d="m10.5 15.3c0.5 1.5 1.7 2.4 3 2.4 2.4 0 4.3-1.8 4.3-4.7q0-1.3-0.5-2.5-0.6-1.1-1.5-2-1-0.8-2.3-1.1-1.2-0.4-2.5-0.2-1.3 0.3-2.3 1-1.1 0.8-1.7 1.9-0.7 1.1-0.8 2.4-0.1 1.3 0.3 2.5"/>
					<path id="Layer" class="s0" d="m1.5 13c0 1.4 0.3 2.7 0.8 4 0.5 1.3 1.3 2.4 2.3 3.4 1 1 2.1 1.8 3.4 2.3 1.3 0.5 2.6 0.8 4 0.8 1.4 0 2.7-0.3 4-0.8 1.3-0.5 2.4-1.3 3.4-2.3 1-1 1.8-2.1 2.3-3.4 0.5-1.3 0.8-2.6 0.8-4 0-1.4-0.3-2.7-0.8-4-0.5-1.3-1.3-2.4-2.3-3.4-1-1-2.1-1.8-3.4-2.3-1.3-0.5-2.6-0.8-4-0.8-1.4 0-2.7 0.3-4 0.8-1.3 0.5-2.4 1.3-3.4 2.3-1 1-1.8 2.1-2.3 3.4-0.5 1.3-0.8 2.6-0.8 4z"/>
				</g>
			</g>
		</g>
	</g>
</svg>