<svg width="15" height="18" viewBox="0 0 15 18" fill="none" xmlns="http://www.w3.org/2000/svg">
<path d="M-0.000122031 1.00004V17C-0.000172164 17.178 0.0472528 17.3527 0.13726 17.5062C0.227266 17.6597 0.356595 17.7864 0.511902 17.8732C0.66721 17.96 0.842871 18.0038 1.02076 18.0001C1.19865 17.9964 1.37233 17.9453 1.52388 17.852L14.5239 9.85204C14.6695 9.76257 14.7897 9.63728 14.8731 9.48813C14.9565 9.33897 15.0003 9.17093 15.0003 9.00004C15.0003 8.82915 14.9565 8.6611 14.8731 8.51195C14.7897 8.3628 14.6695 8.23751 14.5239 8.14804L1.52388 0.148038C1.37233 0.0548024 1.19865 0.00368998 1.02076 -2.59846e-05C0.842871 -0.00374195 0.66721 0.0400731 0.511902 0.126899C0.356595 0.213724 0.227266 0.340415 0.13726 0.493901C0.0472528 0.647386 -0.000172164 0.822108 -0.000122031 1.00004Z" fill="white"/>
</svg>
