<svg width="18" height="18" viewBox="0 0 18 18" fill="none" xmlns="http://www.w3.org/2000/svg">
<path fill-rule="evenodd" clip-rule="evenodd" d="M12.5775 0.910826C12.9029 0.585389 13.4306 0.585389 13.756 0.910826L17.0893 4.24416C17.4148 4.5696 17.4148 5.09723 17.0893 5.42267L5.42267 17.0893C5.09723 17.4148 4.5696 17.4148 4.24416 17.0893L0.910826 13.756C0.585389 13.4306 0.585389 12.9029 0.910826 12.5775L12.5775 0.910826ZM2.67859 13.1667L4.83341 15.3216L15.3216 4.83341L13.1667 2.67859L2.67859 13.1667Z" fill="#53514F"/>
<path fill-rule="evenodd" clip-rule="evenodd" d="M10.4941 2.99408C10.8195 2.66864 11.3472 2.66864 11.6726 2.99408L12.9226 4.24408C13.248 4.56951 13.248 5.09715 12.9226 5.42259C12.5972 5.74803 12.0695 5.74803 11.7441 5.42259L10.4941 4.17259C10.1686 3.84715 10.1686 3.31951 10.4941 2.99408Z" fill="#53514F"/>
<path fill-rule="evenodd" clip-rule="evenodd" d="M7.99408 5.49408C8.31951 5.16864 8.84715 5.16864 9.17259 5.49408L10.4226 6.74408C10.748 7.06951 10.748 7.59715 10.4226 7.92259C10.0972 8.24803 9.56951 8.24803 9.24408 7.92259L7.99408 6.67259C7.66864 6.34715 7.66864 5.81951 7.99408 5.49408Z" fill="#53514F"/>
<path fill-rule="evenodd" clip-rule="evenodd" d="M5.49408 7.99408C5.81951 7.66864 6.34715 7.66864 6.67259 7.99408L7.92259 9.24408C8.24803 9.56951 8.24803 10.0972 7.92259 10.4226C7.59715 10.748 7.06951 10.748 6.74408 10.4226L5.49408 9.17259C5.16864 8.84715 5.16864 8.31951 5.49408 7.99408Z" fill="#53514F"/>
<path fill-rule="evenodd" clip-rule="evenodd" d="M2.99408 10.4941C3.31951 10.1686 3.84715 10.1686 4.17259 10.4941L5.42259 11.7441C5.74803 12.0695 5.74803 12.5972 5.42259 12.9226C5.09715 13.248 4.56951 13.248 4.24408 12.9226L2.99408 11.6726C2.66864 11.3472 2.66864 10.8195 2.99408 10.4941Z" fill="#53514F"/>
</svg>
