<svg width="22" height="21" viewBox="0 0 22 21" fill="none" xmlns="http://www.w3.org/2000/svg">
<path d="M7.24301 6.33998L0.86301 7.26498L0.75001 7.28798C0.578949 7.3334 0.423005 7.42339 0.298102 7.54879C0.1732 7.67418 0.0838135 7.83047 0.0390722 8.00171C-0.00566913 8.17295 -0.00416268 8.35299 0.0434376 8.52346C0.091038 8.69392 0.183027 8.8487 0.31001 8.97198L4.93201 13.471L3.84201 19.826L3.82901 19.936C3.81854 20.1129 3.85528 20.2894 3.93546 20.4475C4.01564 20.6055 4.13639 20.7395 4.28535 20.8355C4.4343 20.9315 4.6061 20.9863 4.78316 20.9941C4.96022 21.0019 5.13617 20.9625 5.29301 20.88L10.999 17.88L16.692 20.88L16.792 20.926C16.9571 20.991 17.1365 21.0109 17.3118 20.9837C17.4871 20.9566 17.652 20.8832 17.7896 20.7712C17.9272 20.6593 18.0326 20.5127 18.0948 20.3466C18.1571 20.1805 18.1741 20.0008 18.144 19.826L17.053 13.471L21.677 8.97098L21.755 8.88598C21.8664 8.74875 21.9395 8.58444 21.9667 8.40978C21.994 8.23512 21.9744 8.05636 21.9101 7.89171C21.8458 7.72707 21.7389 7.58242 21.6005 7.4725C21.4621 7.36258 21.297 7.29132 21.122 7.26598L14.742 6.33998L11.89 0.559984C11.8075 0.392518 11.6797 0.251499 11.5212 0.152888C11.3627 0.0542775 11.1797 0.00201416 10.993 0.00201416C10.8063 0.00201416 10.6233 0.0542775 10.4648 0.152888C10.3063 0.251499 10.1785 0.392518 10.096 0.559984L7.24301 6.33998Z" fill="#E59238"/>
</svg>
