<svg width="22" height="21" viewBox="0 0 22 21" fill="none" xmlns="http://www.w3.org/2000/svg">
<path fill-rule="evenodd" clip-rule="evenodd" d="M10.993 0.00201416C11.3736 0.00201416 11.7213 0.218115 11.8897 0.559453L14.743 6.34079L21.1224 7.26535C21.4993 7.31998 21.8125 7.58394 21.9301 7.94615C22.0477 8.30837 21.9494 8.70595 21.6765 8.97159L17.0536 13.4716L18.1436 19.8259C18.208 20.2013 18.0536 20.5806 17.7454 20.8043C17.4372 21.028 17.0287 21.0572 16.6918 20.8797L10.9995 17.8801L5.29335 20.8801C4.95643 21.0573 4.54815 21.0278 4.2402 20.804C3.93225 20.5803 3.77803 20.2011 3.84238 19.8259L4.93242 13.4716L0.309475 8.97159C0.0365789 8.70595 -0.0617452 8.30837 0.0558807 7.94615C0.173506 7.58394 0.486661 7.31998 0.863558 7.26535L7.24302 6.34079L10.0962 0.559453C10.2647 0.218115 10.6123 0.00201416 10.993 0.00201416ZM10.993 3.26159L8.80373 7.69758C8.658 7.99284 8.37628 8.19745 8.05042 8.24467L3.1584 8.95366L6.7045 12.4054C6.94053 12.6352 7.04828 12.9664 6.99259 13.2911L6.15619 18.1669L10.5346 15.8649C10.8263 15.7116 11.1747 15.7117 11.4662 15.8653L15.8294 18.1646L14.9934 13.2911C14.9377 12.9664 15.0454 12.6352 15.2815 12.4054L18.8276 8.95366L13.9356 8.24467C13.6097 8.19745 13.328 7.99284 13.1823 7.69758L10.993 3.26159Z" fill="#CAC9C8"/>
</svg>
