<svg width="16" height="18" viewBox="0 0 16 18" fill="none" xmlns="http://www.w3.org/2000/svg">
<path fill-rule="evenodd" clip-rule="evenodd" d="M0.5 4.83333C0.5 4.3731 0.873096 4 1.33333 4H14.6667C15.1269 4 15.5 4.3731 15.5 4.83333C15.5 5.29357 15.1269 5.66667 14.6667 5.66667H1.33333C0.873096 5.66667 0.5 5.29357 0.5 4.83333Z" fill="#53514F"/>
<path fill-rule="evenodd" clip-rule="evenodd" d="M6.33333 7.33301C6.79357 7.33301 7.16667 7.7061 7.16667 8.16634V13.1663C7.16667 13.6266 6.79357 13.9997 6.33333 13.9997C5.8731 13.9997 5.5 13.6266 5.5 13.1663V8.16634C5.5 7.7061 5.8731 7.33301 6.33333 7.33301Z" fill="#53514F"/>
<path fill-rule="evenodd" clip-rule="evenodd" d="M9.66666 7.33301C10.1269 7.33301 10.5 7.7061 10.5 8.16634V13.1663C10.5 13.6266 10.1269 13.9997 9.66666 13.9997C9.20642 13.9997 8.83333 13.6266 8.83333 13.1663V8.16634C8.83333 7.7061 9.20642 7.33301 9.66666 7.33301Z" fill="#53514F"/>
<path fill-rule="evenodd" clip-rule="evenodd" d="M2.09747 4.00292C2.55611 3.9647 2.9589 4.30553 2.99712 4.76418L3.83046 14.7642C3.83238 14.7872 3.83334 14.8103 3.83334 14.8334C3.83334 15.0544 3.92113 15.2664 4.07741 15.4226C4.23369 15.5789 4.44566 15.6667 4.66667 15.6667H11.3333C11.5543 15.6667 11.7663 15.5789 11.9226 15.4226C12.0789 15.2664 12.1667 15.0544 12.1667 14.8334C12.1667 14.8103 12.1676 14.7872 12.1695 14.7642L13.0029 4.76418C13.0411 4.30553 13.4439 3.9647 13.9025 4.00292C14.3612 4.04115 14.702 4.44394 14.6638 4.90258L13.833 14.8715C13.8231 15.5208 13.5609 16.1413 13.1011 16.6011C12.6323 17.07 11.9964 17.3334 11.3333 17.3334H4.66667C4.00363 17.3334 3.36774 17.07 2.8989 16.6011C2.43906 16.1413 2.17686 15.5208 2.16696 14.8715L1.33621 4.90258C1.29799 4.44394 1.63882 4.04115 2.09747 4.00292Z" fill="#53514F"/>
<path fill-rule="evenodd" clip-rule="evenodd" d="M5.15482 1.15466C5.46738 0.842099 5.8913 0.666504 6.33333 0.666504H9.66666C10.1087 0.666504 10.5326 0.842099 10.8452 1.15466C11.1577 1.46722 11.3333 1.89114 11.3333 2.33317V4.83317C11.3333 5.29341 10.9602 5.6665 10.5 5.6665C10.0398 5.6665 9.66666 5.29341 9.66666 4.83317V2.33317H6.33333L6.33333 4.83317C6.33333 5.29341 5.96023 5.6665 5.5 5.6665C5.03976 5.6665 4.66666 5.29341 4.66666 4.83317V2.33317C4.66666 1.89114 4.84226 1.46722 5.15482 1.15466Z" fill="#53514F"/>
</svg>
