<svg width="19" height="19" viewBox="0 0 19 19" fill="none" xmlns="http://www.w3.org/2000/svg">
<path fill-rule="evenodd" clip-rule="evenodd" d="M10.6667 5.66665C10.6667 5.20641 11.0398 4.83331 11.5 4.83331H11.5083C11.9686 4.83331 12.3417 5.20641 12.3417 5.66665C12.3417 6.12688 11.9686 6.49998 11.5083 6.49998H11.5C11.0398 6.49998 10.6667 6.12688 10.6667 5.66665Z" fill="#53514F"/>
<path fill-rule="evenodd" clip-rule="evenodd" d="M4.00001 2.33332C3.55798 2.33332 3.13405 2.50892 2.82149 2.82148C2.50893 3.13404 2.33334 3.55796 2.33334 3.99999V14C2.33334 14.442 2.50893 14.8659 2.82149 15.1785C3.13405 15.4911 3.55798 15.6667 4.00001 15.6667H9.41667C9.87691 15.6667 10.25 16.0398 10.25 16.5C10.25 16.9602 9.87691 17.3333 9.41667 17.3333H4.00001C3.11595 17.3333 2.2681 16.9821 1.64298 16.357C1.01786 15.7319 0.666672 14.884 0.666672 14V3.99999C0.666672 3.11593 1.01786 2.26809 1.64298 1.64297C2.2681 1.01785 3.11595 0.666656 4.00001 0.666656H14C14.8841 0.666656 15.7319 1.01785 16.357 1.64297C16.9822 2.26809 17.3333 3.11594 17.3333 3.99999V9.41666C17.3333 9.87689 16.9602 10.25 16.5 10.25C16.0398 10.25 15.6667 9.87689 15.6667 9.41666V3.99999C15.6667 3.55796 15.4911 3.13404 15.1785 2.82148C14.866 2.50892 14.442 2.33332 14 2.33332H4.00001Z" fill="#53514F"/>
<path fill-rule="evenodd" clip-rule="evenodd" d="M6.24973 8.76212L2.08926 12.9226C1.76382 13.248 1.23619 13.248 0.910749 12.9226C0.585313 12.5972 0.585313 12.0695 0.910749 11.7441L5.07742 7.57741L5.08885 7.5662C5.60064 7.07371 6.23105 6.77521 6.91667 6.77521C7.60229 6.77521 8.2327 7.07371 8.74449 7.5662L8.75593 7.57741L12.0893 10.9107C12.4147 11.2362 12.4147 11.7638 12.0893 12.0893C11.7638 12.4147 11.2362 12.4147 10.9107 12.0893L7.58362 8.76212C7.3242 8.51448 7.0932 8.44187 6.91667 8.44187C6.74014 8.44187 6.50914 8.51448 6.24973 8.76212Z" fill="#53514F"/>
<path fill-rule="evenodd" clip-rule="evenodd" d="M12.0829 10.4289C12.4451 10.0835 12.7589 10.0601 13.0169 10.1602C13.446 10.3267 13.9288 10.1138 14.0953 9.68473C14.2617 9.25565 14.0488 8.77287 13.6198 8.6064C12.6591 8.23367 11.6747 8.5095 10.9225 9.23251L10.9108 9.24405L10.0774 10.0774C9.75198 10.4028 9.75198 10.9305 10.0774 11.2559C10.4029 11.5813 10.9305 11.5813 11.2559 11.2559L12.0829 10.4289Z" fill="#53514F"/>
<path fill-rule="evenodd" clip-rule="evenodd" d="M11.5 14.8333C11.5 14.3731 11.8731 14 12.3333 14H17.3333C17.7936 14 18.1667 14.3731 18.1667 14.8333C18.1667 15.2936 17.7936 15.6667 17.3333 15.6667H12.3333C11.8731 15.6667 11.5 15.2936 11.5 14.8333Z" fill="#53514F"/>
<path fill-rule="evenodd" clip-rule="evenodd" d="M14.8333 11.5C15.2936 11.5 15.6667 11.8731 15.6667 12.3333V17.3333C15.6667 17.7936 15.2936 18.1667 14.8333 18.1667C14.3731 18.1667 14 17.7936 14 17.3333V12.3333C14 11.8731 14.3731 11.5 14.8333 11.5Z" fill="#53514F"/>
</svg>
