<svg width="16" height="16" viewBox="0 0 16 16" fill="none" xmlns="http://www.w3.org/2000/svg">
<path fill-rule="evenodd" clip-rule="evenodd" d="M3.48646 4.50429C4.67582 3.97579 6.27209 3.66602 7.99967 3.66602C9.72725 3.66602 11.3235 3.97579 12.5129 4.50429C13.1067 4.76817 13.6286 5.09967 14.011 5.50153C14.3968 5.90683 14.6663 6.41413 14.6663 6.99935C14.6663 7.73656 14.2434 8.34299 13.6909 8.79308C13.1353 9.24557 12.38 9.60214 11.5231 9.85702C11.1702 9.96198 10.799 9.76098 10.694 9.40807C10.589 9.05516 10.79 8.68398 11.1429 8.57901C11.8954 8.35523 12.4733 8.06512 12.8488 7.75929C13.2272 7.45104 13.333 7.18747 13.333 6.99935C13.333 6.8479 13.2668 6.65353 13.0452 6.42071C12.8203 6.18444 12.4635 5.94136 11.9715 5.72274C10.9891 5.28624 9.58543 4.99935 7.99967 4.99935C6.41392 4.99935 5.0102 5.28624 4.02789 5.72274C3.5359 5.94136 3.17902 6.18444 2.95416 6.42071C2.7326 6.65353 2.66634 6.8479 2.66634 6.99935C2.66634 7.1508 2.7326 7.34517 2.95416 7.57798C3.17902 7.81426 3.5359 8.05733 4.02789 8.27595C5.0102 8.71245 6.41392 8.99935 7.99967 8.99935C8.36786 8.99935 8.66634 9.29783 8.66634 9.66602C8.66634 10.0342 8.36786 10.3327 7.99967 10.3327C6.27209 10.3327 4.67582 10.0229 3.48646 9.49441C2.89262 9.23053 2.37075 8.89902 1.98831 8.49717C1.60259 8.09186 1.33301 7.58457 1.33301 6.99935C1.33301 6.41413 1.60259 5.90683 1.98831 5.50153C2.37075 5.09967 2.89262 4.76817 3.48646 4.50429Z" fill="#323130"/>
<path fill-rule="evenodd" clip-rule="evenodd" d="M5.52827 7.19526C5.78862 6.93491 6.21073 6.93491 6.47108 7.19526L8.47108 9.19526C8.73143 9.45561 8.73143 9.87772 8.47108 10.1381L6.47108 12.1381C6.21073 12.3984 5.78862 12.3984 5.52827 12.1381C5.26792 11.8777 5.26792 11.4556 5.52827 11.1953L7.05687 9.66667L5.52827 8.13807C5.26792 7.87772 5.26792 7.45561 5.52827 7.19526Z" fill="#323130"/>
</svg>
