<svg viewBox="0 0 24 24"
    xmlns="http://www.w3.org/2000/svg" fill="#323130">
    <path d="M18 19.5H6a4 4 0 0 1-4-4v-7a4 4 0 0 1 4-4h12a4 4 0 0 1 4 4v7a4 4 0 0 1-4 4ZM6 6.5a2 2 0 0 0-2 2v7a2 2 0 0 0 2 2h12a2 2 0 0 0 2-2v-7a2 2 0 0 0-2-2Z"/>
    <path d="M21 16h-5.55A3.46 3.46 0 0 1 12 12.55v-1.1A3.46 3.46 0 0 1 15.45 8H21a1 1 0 0 1 0 2h-5.55A1.45 1.45 0 0 0 14 11.45v1.1A1.45 1.45 0 0 0 15.45 14H21a1 1 0 0 1 0 2Z"/>
    <path d="M17 13a1.05 1.05 0 0 1-.71-.29 1.58 1.58 0 0 1-.12-.15.76.76 0 0 1-.09-.18.64.64 0 0 1-.08-.18 1.36 1.36 0 0 1 0-.2 1 1 0 0 1 .08-.38 1 1 0 0 1 .21-.33 1 1 0 0 1 .91-.29.64.64 0 0 1 .18.06.56.56 0 0 1 .17.09l.16.12a1 1 0 0 1 .21.33 1 1 0 0 1 .08.4 1.36 1.36 0 0 1 0 .2.64.64 0 0 1-.06.18.76.76 0 0 1-.09.18l-.12.15-.16.12a.56.56 0 0 1-.17.09.64.64 0 0 1-.18.06Z"/>
</svg>
