<svg xmlns="http://www.w3.org/2000/svg" width="24" height="24" viewBox="0 0 24 24" fill="none">
<path fill-rule="evenodd" clip-rule="evenodd" d="M17.1992 5.93018C15.7169 4.66578 13.824 3.98583 11.8759 4.01793C9.92775 4.05003 8.05831 4.79198 6.61838 6.10453C5.17845 7.41708 4.26701 9.21 4.05512 11.1468C3.84323 13.0837 4.34545 15.0312 5.46753 16.6241C5.66838 16.9092 5.70618 17.2784 5.56727 17.5983L4.6597 19.6884L7.87456 19.1155C8.08359 19.0782 8.29906 19.1085 8.48975 19.2018C10.2396 20.0586 12.2421 20.2474 14.1212 19.7326C16.0004 19.2179 17.6271 18.035 18.6961 16.4061C19.7651 14.7771 20.2028 12.8141 19.9272 10.8853C19.6517 8.95649 18.6816 7.19457 17.1992 5.93018ZM11.8429 2.0182C14.2781 1.97808 16.6441 2.82801 18.4971 4.40851C20.3501 5.989 21.5626 8.1914 21.9071 10.6024C22.2516 13.0134 21.7044 15.4672 20.3682 17.5034C19.0319 19.5396 16.9985 21.0181 14.6496 21.6615C12.4083 22.2755 10.0268 22.0889 7.91307 21.1401L3.17546 21.9845C2.81274 22.0491 2.44385 21.9091 2.21542 21.62C1.98698 21.3309 1.936 20.9396 2.08275 20.6017L3.51671 17.2992C2.33688 15.4029 1.8229 13.1604 2.06699 10.9293C2.33185 8.50829 3.47114 6.26714 5.27106 4.62645C7.07097 2.98576 9.40777 2.05833 11.8429 2.0182Z" fill="#53514F"/>
<path fill-rule="evenodd" clip-rule="evenodd" d="M8.43934 7.93934C8.72065 7.65803 9.10218 7.5 9.5 7.5C9.89782 7.5 10.2794 7.65803 10.5607 7.93934C10.842 8.22065 11 8.60218 11 9V10C11 10.3978 10.842 10.7794 10.5607 11.0607C10.4595 11.1618 10.3454 11.247 10.2222 11.3147C10.4187 11.8791 10.741 12.3978 11.1716 12.8284C11.6022 13.259 12.1209 13.5813 12.6853 13.7778C12.753 13.6546 12.8382 13.5405 12.9393 13.4393C13.2206 13.158 13.6022 13 14 13H15C15.3978 13 15.7794 13.158 16.0607 13.4393C16.342 13.7206 16.5 14.1022 16.5 14.5C16.5 14.8978 16.342 15.2794 16.0607 15.5607C15.7794 15.842 15.3978 16 15 16H14C12.4087 16 10.8826 15.3679 9.75736 14.2426C8.63214 13.1174 8 11.5913 8 10V9C8 8.60218 8.15803 8.22065 8.43934 7.93934Z" fill="#53514F"/>
</svg>