
<svg width="150" height="150" viewBox="0 0 150 150" fill="none" xmlns="http://www.w3.org/2000/svg">
<path d="M129.5 75.5C129.5 105.6 105.1 130 75 130C44.9005 130 20.5 105.6 20.5 75.5C20.5 45.4005 44.9005 21 75 21C105.1 21 129.5 45.4005 129.5 75.5Z" fill="#FEFAF6"/>
<path d="M14 111L18.125 108L22.25 111L26.375 108L30.5 111L34.625 108L38.75 111L42.875 108L47 111" stroke="#E59238" stroke-width="2"/>
<path fill-rule="evenodd" clip-rule="evenodd" d="M49.0563 53.4957C49.5288 52.9937 50.1876 52.709 50.877 52.709H98.9461C99.6391 52.709 100.301 52.9967 100.774 53.5034C101.247 54.0101 101.488 54.6903 101.44 55.3817L97.8568 107.122C97.766 108.432 96.6764 109.449 95.3627 109.449H54.0233C52.7015 109.449 51.6081 108.42 51.5279 107.101L48.3816 55.3607C48.3397 54.6726 48.5839 53.9978 49.0563 53.4957ZM53.5336 57.709L56.3759 104.449H93.0299L96.2669 57.709H53.5336Z" fill="#704E2A"/>
<path d="M82.8791 81.9533L75.0132 89.7436L67.1473 81.9533C66.6285 81.4484 66.2199 80.8416 65.9471 80.171C65.6743 79.5005 65.5433 78.7807 65.5624 78.057C65.5814 77.3333 65.7501 76.6214 66.0578 75.9661C66.3655 75.3109 66.8056 74.7264 67.3503 74.2495C67.895 73.7727 68.5325 73.4138 69.2227 73.1954C69.9129 72.9771 70.6408 72.904 71.3607 72.9808C72.0805 73.0575 72.7767 73.2825 73.4053 73.6416C74.0339 74.0006 74.5814 74.486 75.0132 75.067C75.4469 74.4902 75.995 74.0091 76.6232 73.6539C77.2514 73.2986 77.9461 73.0769 78.6639 73.0025C79.3818 72.9281 80.1072 73.0027 80.7949 73.2215C81.4826 73.4404 82.1177 73.7989 82.6604 74.2745C83.2032 74.7501 83.642 75.3326 83.9493 75.9856C84.2565 76.6386 84.4257 77.348 84.4463 78.0693C84.4668 78.7907 84.3382 79.5086 84.0685 80.178C83.7988 80.8474 83.3939 81.4539 82.8791 81.9596" fill="#704E2A"/>
<path fill-rule="evenodd" clip-rule="evenodd" d="M75.5238 42.9395C69.6642 42.9395 64.9141 47.6896 64.9141 53.5492C64.9141 54.9299 63.7948 56.0492 62.4141 56.0492C61.0334 56.0492 59.9141 54.9299 59.9141 53.5492C59.9141 44.9282 66.9028 37.9395 75.5238 37.9395C84.1448 37.9395 91.1336 44.9282 91.1336 53.5492C91.1336 54.9299 90.0143 56.0492 88.6336 56.0492C87.2529 56.0492 86.1336 54.9299 86.1336 53.5492C86.1336 47.6896 81.3834 42.9395 75.5238 42.9395Z" fill="#704E2A"/>
<path d="M103 50L107.125 47L111.25 50L115.375 47L119.5 50L123.625 47L127.75 50L131.875 47L136 50" stroke="#E59238" stroke-width="2"/>
<path d="M126.5 89L127.649 94.351L133 95.5L127.649 96.649L126.5 102L125.351 96.649L120 95.5L125.351 94.351L126.5 89Z" fill="#C8AA5D"/>
<rect x="106" y="23" width="12.5581" height="4.18605" rx="2.09302" fill="#FBE6D7"/>
<rect x="120" y="30" width="12.5581" height="4.18605" rx="2.09302" fill="#FBE6D7"/>
<path fill-rule="evenodd" clip-rule="evenodd" d="M36.1684 43.7814L27.8416 35.2042L29.082 34L37.4088 42.5772L36.1684 43.7814Z" fill="#C8AA5D"/>
<path fill-rule="evenodd" clip-rule="evenodd" d="M33.5473 46.6212L25.2205 38.044L26.4609 36.8398L34.7877 45.4171L33.5473 46.6212Z" fill="#C8AA5D"/>
<path fill-rule="evenodd" clip-rule="evenodd" d="M33.3266 34.1844L24.9998 42.7617L26.2402 43.9658L34.567 35.3886L33.3266 34.1844Z" fill="#C8AA5D"/>
<path fill-rule="evenodd" clip-rule="evenodd" d="M36.1684 36.8866L27.8416 45.4638L29.082 46.668L37.4088 38.0907L36.1684 36.8866Z" fill="#C8AA5D"/>
<rect x="42" y="128" width="12.5581" height="2.7907" rx="1.39535" fill="#FBE6D7"/>
<rect x="33" y="123" width="12.5581" height="2.7907" rx="1.39535" fill="#FBE6D7"/>
</svg>
