<svg xmlns="http://www.w3.org/2000/svg" width="24" height="24" viewBox="0 0 24 24" fill="none">
  <g clip-path="url(#clip0_5131_271760)">
    <path d="M27.4822 20.1689H-3.48218V3.83094H27.4822V20.1689Z" fill="#314199"/>
    <path d="M11.9937 7.35229L12.2084 6.71589H12.8635L12.3982 6.36423L12.5258 5.68271L11.9937 6.06859L11.46 5.69204L11.5891 6.36423L11.1285 6.719H11.7836L11.9937 7.35229Z" fill="#F8EC26"/>
    <path d="M11.9937 18.4014L12.2084 17.7665H12.8635L12.3982 17.4149L12.5258 16.7318L11.9937 17.1192L11.46 16.7427L11.5891 17.4149L11.1285 17.7681H11.7836L11.9937 18.4014Z" fill="#F8EC26"/>
    <path d="M14.6562 17.6919L14.8709 17.0555H15.526L15.0607 16.7038L15.1883 16.0223L14.6562 16.4097L14.1209 16.0316L14.25 16.7038L13.791 17.0586H14.4445L14.6562 17.6919Z" fill="#F8EC26"/>
    <path d="M9.20388 17.6919L9.41861 17.0555H10.0737L9.60844 16.7038L9.73603 16.0223L9.20388 16.4097L8.67017 16.0316L8.79932 16.7038L8.33875 17.0586H8.99382L9.20388 17.6919Z" fill="#F8EC26"/>
    <path d="M14.6562 8.09912L14.8709 7.46272H15.526L15.0607 7.11106L15.1883 6.42798L14.6562 6.81542L14.1209 6.43887L14.25 7.11106L13.791 7.46583H14.4445L14.6562 8.09912Z" fill="#F8EC26"/>
    <path d="M9.20388 8.09912L9.41861 7.46272H10.0737L9.60844 7.11106L9.73603 6.42798L9.20388 6.81542L8.67017 6.43887L8.79932 7.11106L8.33875 7.46583H8.99382L9.20388 8.09912Z" fill="#F8EC26"/>
    <path d="M7.16543 15.6067L7.38016 14.9703H8.03523L7.56999 14.6186L7.69758 13.9355L7.16543 14.323L6.63017 13.9464L6.76087 14.6186L6.30029 14.9734H6.95381L7.16543 15.6067Z" fill="#F8EC26"/>
    <path d="M16.7611 15.6067L16.9759 14.9703H17.6309L17.1657 14.6186L17.2933 13.9355L16.7611 14.323L16.2259 13.9464L16.3566 14.6186L15.896 14.9734H16.5495L16.7611 15.6067Z" fill="#F8EC26"/>
    <path d="M7.16543 10.0908L7.38016 9.45442L8.03523 9.45597L7.56999 9.10432L7.69758 8.42123L7.16543 8.80868L6.63017 8.43057L6.76087 9.10432L6.30029 9.45753H6.95381L7.16543 10.0908Z" fill="#F8EC26"/>
    <path d="M16.7611 10.0908L16.9759 9.45442L17.6309 9.45597L17.1657 9.10432L17.2933 8.42123L16.7611 8.80868L16.2259 8.43057L16.3566 9.10432L15.896 9.45753H16.5495L16.7611 10.0908Z" fill="#F8EC26"/>
    <path d="M6.53225 12.8699L6.74698 12.2335H7.40206L6.93681 11.8818L7.0644 11.1987L6.53225 11.5862L5.99699 11.2096L6.12769 11.8818L5.66711 12.2366H6.32063L6.53225 12.8699Z" fill="#F8EC26"/>
    <path d="M17.4629 12.8699L17.6776 12.2335H18.3327L17.8675 11.8818L17.9951 11.1987L17.4629 11.5862L16.9292 11.2096L17.0584 11.8818L16.5978 12.2366H17.2529L17.4629 12.8699Z" fill="#F8EC26"/>
  </g>
  <defs>
    <clipPath id="clip0_5131_271760">
      <rect width="23.3333" height="23.3333" fill="white" transform="translate(0.333374 0.333252)"/>
    </clipPath>
  </defs>
</svg>