<svg xmlns="http://www.w3.org/2000/svg" width="24" height="24" viewBox="0 0 24 24" fill="none">
  <g clip-path="url(#clip0_5131_271736)">
    <path d="M27.4747 3.83252H-3.48193V20.1425H27.4747V3.83252Z" fill="white"/>
    <path d="M27.4766 10.3583H13.8461V3.83398H10.1257V10.3583H-3.46912V13.6197H10.1257V20.1424H13.8461V13.6197H27.4766V10.3583Z" fill="#CE1124"/>
    <path d="M-3.48193 5.73218V9.28297H3.27111L-3.48193 5.73218Z" fill="#00247D"/>
    <path d="M0.243169 3.83081L0.145142 3.83548L8.8992 8.46458V3.83081H0.243169Z" fill="#00247D"/>
    <path d="M6.90904 9.2596L-3.48193 3.83228V5.11131L4.43344 9.2596H6.90904Z" fill="#CE1124"/>
    <path d="M17.0918 14.7136L27.4828 20.141V18.8619L19.5674 14.7136H17.0918Z" fill="#CE1124"/>
    <path d="M-3.48193 18.2673V14.7166H3.27111L-3.48193 18.2673Z" fill="#00247D"/>
    <path d="M0.243169 20.1689L0.145142 20.1643L8.8992 15.5352V20.1689H0.243169Z" fill="#00247D"/>
    <path d="M6.85604 14.7119L-3.47424 20.1377L-1.05933 20.1408L8.90996 14.9329V14.7119H6.85604Z" fill="#CE1124"/>
    <path d="M27.4828 5.73071V9.28151H20.7313L27.4828 5.73071Z" fill="#00247D"/>
    <path d="M23.7576 3.83081L23.8572 3.83548L15.1016 8.46458V3.83081H23.7576Z" fill="#00247D"/>
    <path d="M27.4735 3.83887H25.1488L15.1111 9.08259V9.2662H17.235L27.4735 3.83887Z" fill="#CE1124"/>
    <path d="M27.4828 18.2673V14.7166H20.7313L27.4828 18.2673Z" fill="#00247D"/>
    <path d="M23.7576 20.1675L23.8572 20.1628L15.1016 15.5337V20.1675H23.7576Z" fill="#00247D"/>
  </g>
  <defs>
    <clipPath id="clip0_5131_271736">
      <rect width="23.3333" height="23.3333" fill="white" transform="translate(0.333374 0.333252)"/>
    </clipPath>
  </defs>
</svg>