<svg xmlns="http://www.w3.org/2000/svg" width="20" height="14" viewBox="0 0 20 14" fill="none">
  <g clip-path="url(#clip0_5188_8971)">
    <path d="M21.4945 0H-1.5V4.66282H21.4945V0Z" fill="#F0953E"/>
    <path d="M21.4945 9.33716H-1.5V14H21.4945V9.33716Z" fill="#3B8916"/>
    <path d="M21.4945 4.66284H-1.5V9.3372H21.4945V4.66284Z" fill="white"/>
    <path d="M9.99723 4.90527C8.88513 4.90527 7.98328 5.84592 7.98328 7.00008C7.98328 8.16001 8.88513 9.10066 9.99723 9.10066C11.1093 9.10066 12.0112 8.16001 12.0112 7.00008C12.0112 5.84015 11.1093 4.90527 9.99723 4.90527ZM9.99723 5.10725L9.94743 6.16331L10.0028 6.76348L10.0526 6.16331L9.99723 5.10725C10.0526 5.10725 10.1079 5.10725 10.1577 5.11302C10.1577 5.11302 10.1577 5.11302 10.1577 5.11879C10.1577 5.17073 10.1964 5.21113 10.2407 5.21113C10.2849 5.21113 10.3181 5.1765 10.3237 5.13034C10.3735 5.14188 10.4233 5.14765 10.4731 5.16496L10.1632 6.16908L10.0636 6.76348L10.2628 6.19217L10.4786 5.15919C10.5284 5.1765 10.5726 5.18804 10.6224 5.21113C10.6224 5.2169 10.6169 5.22844 10.6169 5.23998C10.6169 5.28615 10.6556 5.32654 10.6999 5.32654C10.7331 5.32654 10.7663 5.30346 10.7774 5.27461C10.8216 5.29769 10.8659 5.32077 10.9101 5.34963L10.3624 6.23256L10.119 6.78656L10.4565 6.29027L10.9157 5.34963C10.9599 5.37271 10.9987 5.40156 11.0429 5.43042C11.0319 5.44773 11.0263 5.46504 11.0263 5.48813C11.0263 5.53429 11.0651 5.57469 11.1093 5.57469C11.137 5.57469 11.1591 5.56315 11.1757 5.54006C11.2145 5.57469 11.2532 5.61508 11.2864 5.64971L10.5394 6.35375L10.1687 6.82118L10.6169 6.43454L11.2974 5.64971C11.3306 5.6901 11.3694 5.72473 11.397 5.76513C11.3749 5.78244 11.3694 5.80552 11.3694 5.83437C11.3694 5.88054 11.4081 5.92094 11.4524 5.92094C11.4745 5.92094 11.4856 5.91517 11.5022 5.90362C11.5354 5.94979 11.5575 5.99019 11.5852 6.03635L10.6833 6.51533L10.2075 6.86735L10.7331 6.61343L11.5852 6.03635C11.6128 6.08829 11.6349 6.14023 11.6571 6.18639C11.6294 6.19794 11.6073 6.23256 11.6073 6.27296C11.6073 6.31912 11.646 6.35952 11.6903 6.35952C11.7013 6.35952 11.7124 6.35952 11.7235 6.35375C11.7401 6.40569 11.7567 6.45185 11.7677 6.50379L10.7774 6.72308L10.2351 6.93083L10.805 6.83273L11.7677 6.50956C11.7788 6.55573 11.7899 6.60766 11.8009 6.6596C11.7567 6.66537 11.729 6.7 11.729 6.74616C11.729 6.79233 11.7677 6.83273 11.812 6.83273H11.8175C11.8231 6.88466 11.8231 6.9366 11.8231 6.98854L10.8161 6.9366L10.2407 6.98854L10.8161 7.04625L11.8231 6.98854C11.8231 7.04625 11.8231 7.09818 11.8175 7.15012H11.812C11.7677 7.15012 11.729 7.19052 11.729 7.23668C11.729 7.28285 11.7622 7.31747 11.8009 7.32325C11.7899 7.37518 11.7788 7.42712 11.7677 7.47906L11.4247 7.36364L10.805 7.15589L10.2351 7.05779L10.7774 7.26554L11.7677 7.48483C11.7567 7.53677 11.7401 7.5887 11.7235 7.63487C11.7235 7.63487 11.7179 7.63487 11.7124 7.63487C11.7069 7.63487 11.7013 7.63487 11.6958 7.63487C11.6515 7.63487 11.6128 7.66949 11.6128 7.72143C11.6128 7.73297 11.6128 7.74451 11.6184 7.75606C11.6239 7.7676 11.6294 7.77914 11.6405 7.79068H11.646L11.6515 7.79645C11.6515 7.79645 11.6571 7.79645 11.6571 7.80222C11.6349 7.84839 11.6128 7.89456 11.5852 7.94072L10.7386 7.36941L10.213 7.1155L10.4897 7.31747L10.6833 7.46175L11.5852 7.94072C11.5575 7.98689 11.5298 8.03306 11.5022 8.07922C11.4911 8.07345 11.469 8.06768 11.4524 8.06768C11.4081 8.06768 11.3694 8.10231 11.3694 8.15424C11.3694 8.1831 11.3804 8.20618 11.4026 8.22349C11.3694 8.26389 11.3362 8.30428 11.303 8.33891L10.6224 7.55985L10.1798 7.1732L10.5505 7.64064L11.2974 8.34468C11.2642 8.38508 11.2255 8.41393 11.1868 8.44855C11.1702 8.43701 11.1536 8.43124 11.137 8.43124C11.0927 8.43124 11.054 8.47164 11.054 8.5178C11.054 8.53512 11.054 8.54666 11.0595 8.5582C11.0153 8.58705 10.971 8.61591 10.9267 8.64476L10.4675 7.70412L10.13 7.20783L10.3735 7.75606L10.9212 8.64476C10.8769 8.66785 10.8327 8.6967 10.7884 8.71978C10.7774 8.68516 10.7442 8.66785 10.711 8.66785C10.6667 8.66785 10.628 8.70824 10.628 8.75441C10.628 8.76595 10.628 8.77749 10.6335 8.78903C10.5837 8.80635 10.5394 8.82366 10.4897 8.8352L10.2739 7.80222L10.0747 7.24245L10.1743 7.83685L10.4841 8.84097C10.4343 8.85251 10.3845 8.86982 10.3347 8.87559C10.3292 8.8352 10.296 8.80057 10.2517 8.80057C10.2019 8.80057 10.1687 8.84097 10.1687 8.88714C10.1687 8.89291 10.1687 8.89291 10.1687 8.89868C10.119 8.90445 10.0692 8.90445 10.0138 8.90445L10.0636 7.85416L10.0083 7.254L9.9585 7.85416L10.0083 8.90445C9.95297 8.90445 9.90317 8.90445 9.85338 8.89868C9.85338 8.89868 9.85338 8.89291 9.85338 8.88714C9.85338 8.84097 9.81465 8.80057 9.77038 8.80057C9.73165 8.80057 9.69292 8.8352 9.68739 8.87559C9.63759 8.86982 9.5878 8.85828 9.54354 8.84097L9.85338 7.83685L9.94743 7.24245L9.74825 7.80222L9.538 8.8352C9.48821 8.82366 9.44395 8.80635 9.39415 8.78903C9.39968 8.77749 9.39968 8.76595 9.39968 8.75441C9.39968 8.70824 9.36095 8.66785 9.31669 8.66785C9.28349 8.66785 9.2503 8.69093 9.23923 8.71978C9.19497 8.6967 9.1507 8.67362 9.10644 8.64476L9.65419 7.75606L9.89764 7.20783L9.56567 7.70412L9.10644 8.64476C9.06218 8.61591 9.01792 8.58705 8.97919 8.5582C8.99025 8.54666 8.99579 8.52935 8.99579 8.51203C8.99579 8.4601 8.95706 8.42547 8.91279 8.42547C8.88513 8.42547 8.863 8.43701 8.8464 8.4601C8.80767 8.42547 8.76894 8.39085 8.73574 8.35622L9.48821 7.65218L9.85891 7.18475L9.41075 7.57139L8.73021 8.35045C8.69148 8.31583 8.65828 8.26966 8.62509 8.23503C8.64168 8.21772 8.65828 8.19464 8.65828 8.16578C8.65828 8.11962 8.61955 8.07922 8.57529 8.07922C8.55869 8.07922 8.53656 8.08499 8.52549 8.09076C8.49783 8.05037 8.47017 8.0042 8.4425 7.95803L9.34435 7.47329L9.81465 7.12704L9.28903 7.38095L8.4425 7.95226C8.41484 7.9061 8.39824 7.8657 8.37611 7.81376C8.40931 7.80222 8.43144 7.77337 8.43144 7.73297C8.43144 7.68104 8.39271 7.64641 8.34844 7.64641C8.33738 7.64641 8.32631 7.64641 8.31525 7.65218C8.29865 7.60602 8.28205 7.55408 8.27098 7.49637L9.2337 7.27131L9.77592 7.06356L9.2005 7.16166L8.23779 7.48483C8.22672 7.43289 8.21566 7.38672 8.20459 7.32902C8.24885 7.32325 8.27652 7.28862 8.27652 7.24245C8.27652 7.19629 8.23779 7.15589 8.19352 7.15589C8.19352 7.15589 8.18799 7.15589 8.18246 7.15589C8.18246 7.10395 8.17693 7.05202 8.17693 6.99431L9.18943 7.05202L9.76485 6.99431L9.18943 6.94237L8.17693 6.99431C8.17693 6.94237 8.18246 6.89043 8.18246 6.8385C8.18799 6.8385 8.19352 6.8385 8.19906 6.8385C8.24332 6.8385 8.28205 6.80387 8.28205 6.75193C8.28205 6.70577 8.24885 6.67114 8.20459 6.66537C8.21566 6.61343 8.22672 6.5615 8.23779 6.51533L9.2005 6.8385L9.77592 6.9366L9.2337 6.72885L8.24332 6.50956C8.25992 6.45762 8.27652 6.40569 8.28758 6.35952C8.29312 6.35952 8.30971 6.36529 8.32078 6.36529C8.36504 6.36529 8.40377 6.32489 8.40377 6.27873C8.40377 6.2441 8.38164 6.20948 8.35398 6.19794C8.37611 6.146 8.39824 6.09983 8.4259 6.05367L9.27243 6.63075L9.80358 6.88466L9.33329 6.53264L8.43144 6.05367C8.4591 6.0075 8.48676 5.9671 8.51443 5.91517C8.52549 5.92671 8.54763 5.93248 8.56422 5.93248C8.60849 5.93248 8.64722 5.89208 8.64722 5.84592C8.64722 5.82283 8.63615 5.79398 8.61402 5.77667C8.64722 5.73627 8.68041 5.70165 8.71361 5.66125L9.39415 6.44608L9.84231 6.83273L9.47161 6.36529L8.71914 5.66125C8.75787 5.62663 8.79107 5.58623 8.8298 5.55738C8.84087 5.57469 8.86853 5.592 8.89619 5.592C8.94046 5.592 8.97919 5.5516 8.97919 5.50544C8.97919 5.48813 8.97365 5.47081 8.96259 5.4535C9.00685 5.43042 9.04558 5.39579 9.08984 5.37271L9.54907 6.31335L9.88104 6.80387L9.63759 6.25564L9.08984 5.37271C9.13411 5.34386 9.17837 5.32077 9.22263 5.29769C9.2337 5.33231 9.26689 5.3554 9.30009 5.3554C9.34435 5.3554 9.38308 5.315 9.38308 5.26884C9.38308 5.25729 9.38308 5.23998 9.37755 5.23421C9.42181 5.2169 9.47714 5.19959 9.5214 5.18227L9.73719 6.21525L9.93637 6.78656L9.84231 6.17485L9.53247 5.17073C9.58227 5.15342 9.62653 5.14765 9.68186 5.13611C9.68739 5.1765 9.72059 5.21113 9.76485 5.21113C9.80911 5.21113 9.84784 5.17073 9.84784 5.12456V5.11879C9.89764 5.10725 9.94743 5.10725 9.99723 5.10725Z" fill="#16007E"/>
    <path d="M10.0028 6.68848C10.1688 6.68848 10.3016 6.83275 10.3016 7.0001C10.3016 7.17323 10.1688 7.3175 10.0028 7.3175C9.83681 7.3175 9.69849 7.17323 9.69849 7.0001C9.69849 6.82698 9.83127 6.68848 10.0028 6.68848Z" fill="white"/>
    <path d="M10.0028 6.75781C10.1301 6.75781 10.2352 6.86169 10.2352 7.00019C10.2352 7.13869 10.1301 7.24833 10.0028 7.24833C9.87555 7.24833 9.76489 7.13869 9.76489 7.00019C9.76489 6.86746 9.87002 6.75781 10.0028 6.75781Z" fill="#16007E"/>
  </g>
  <defs>
    <clipPath id="clip0_5188_8971">
      <rect width="23" height="14" fill="white" transform="translate(-1.5)"/>
    </clipPath>
  </defs>
</svg>