<svg xmlns="http://www.w3.org/2000/svg" width="24" height="24" viewBox="0 0 24 24" fill="none">
  <g clip-path="url(#clip0_5131_271671)">
    <path d="M30.967 3.8916H0.333252V20.1082H30.967V3.8916Z" fill="white"/>
    <path d="M30.9424 3.83081H0.334839V5.11295H30.9424V3.83081Z" fill="#B22234"/>
    <path d="M30.9422 6.34058H0.334595V7.62272H30.9422V6.34058Z" fill="#B22234"/>
    <path d="M30.9422 8.84888H0.334595V10.131H30.9422V8.84888Z" fill="#B22234"/>
    <path d="M30.9422 11.3589H0.334595V12.641H30.9422V11.3589Z" fill="#B22234"/>
    <path d="M30.9422 13.8672H0.334595V15.1493H30.9422V13.8672Z" fill="#B22234"/>
    <path d="M30.9422 16.377H0.334595V17.6591H30.9422V16.377Z" fill="#B22234"/>
    <path d="M30.9422 18.8867H0.334595V20.1689H30.9422V18.8867Z" fill="#B22234"/>
    <path d="M12.5575 3.83081H0.333252V12.6409H12.5575V3.83081Z" fill="#3C3B6E"/>
    <path d="M1.37204 4.16846L1.48749 4.52789H1.85694L1.5583 4.7504L1.67222 5.10984L1.37204 4.88733L1.0734 5.10984L1.18731 4.7504L0.888672 4.52789H1.25812L1.37204 4.16846Z" fill="white"/>
    <path d="M2.38078 5.07251L2.49469 5.43195H2.86569L2.56551 5.65445L2.67942 6.01389L2.38078 5.79138L2.0806 6.01389L2.19605 5.65445L1.89587 5.43195H2.26687L2.38078 5.07251Z" fill="white"/>
    <path d="M2.38078 6.83838L2.49469 7.19781H2.86569L2.56551 7.42032L2.67942 7.77976L2.38078 7.55725L2.0806 7.77976L2.19605 7.42032L1.89587 7.19781H2.26687L2.38078 6.83838Z" fill="white"/>
    <path d="M2.38078 8.60449L2.49469 8.96393H2.86569L2.56551 9.18644L2.67942 9.54587L2.38078 9.32492L2.0806 9.54587L2.19605 9.18644L1.89587 8.96393H2.26687L2.38078 8.60449Z" fill="white"/>
    <path d="M2.38078 10.3706L2.49469 10.7316H2.86569L2.56551 10.9526L2.67942 11.3135L2.38078 11.091L2.0806 11.3135L2.19605 10.9526L1.89587 10.7316H2.26687L2.38078 10.3706Z" fill="white"/>
    <path d="M4.42338 5.07251L4.5373 5.43195H4.90675L4.60811 5.65445L4.72202 6.01389L4.42338 5.79138L4.1232 6.01389L4.23712 5.65445L3.93848 5.43195H4.30793L4.42338 5.07251Z" fill="white"/>
    <path d="M4.42338 6.83838L4.5373 7.19781H4.90675L4.60811 7.42032L4.72202 7.77976L4.42338 7.55725L4.1232 7.77976L4.23712 7.42032L3.93848 7.19781H4.30793L4.42338 6.83838Z" fill="white"/>
    <path d="M4.42338 8.60449L4.5373 8.96393H4.90675L4.60811 9.18644L4.72202 9.54587L4.42338 9.32492L4.1232 9.54587L4.23712 9.18644L3.93848 8.96393H4.30793L4.42338 8.60449Z" fill="white"/>
    <path d="M4.42338 10.3706L4.5373 10.7316H4.90675L4.60811 10.9526L4.72202 11.3135L4.42338 11.091L4.1232 11.3135L4.23712 10.9526L3.93848 10.7316H4.30793L4.42338 10.3706Z" fill="white"/>
    <path d="M6.46445 5.07251L6.5799 5.43195H6.94935L6.65071 5.65445L6.76463 6.01389L6.46445 5.79138L6.16581 6.01389L6.27972 5.65445L5.98108 5.43195H6.35053L6.46445 5.07251Z" fill="white"/>
    <path d="M6.46445 6.83838L6.5799 7.19781H6.94935L6.65071 7.42032L6.76463 7.77976L6.46445 7.55725L6.16581 7.77976L6.27972 7.42032L5.98108 7.19781H6.35053L6.46445 6.83838Z" fill="white"/>
    <path d="M6.46445 8.60449L6.5799 8.96393H6.94935L6.65071 9.18644L6.76463 9.54587L6.46445 9.32492L6.16581 9.54587L6.27972 9.18644L5.98108 8.96393H6.35053L6.46445 8.60449Z" fill="white"/>
    <path d="M6.46445 10.3706L6.5799 10.7316H6.94935L6.65071 10.9526L6.76463 11.3135L6.46445 11.091L6.16581 11.3135L6.27972 10.9526L5.98108 10.7316H6.35053L6.46445 10.3706Z" fill="white"/>
    <path d="M8.50761 5.07251L8.62153 5.43195H8.99252L8.69234 5.65445L8.80779 6.01389L8.50761 5.79138L8.20743 6.01389L8.32289 5.65445L8.02271 5.43195H8.3937L8.50761 5.07251Z" fill="white"/>
    <path d="M8.50761 6.83838L8.62153 7.19781H8.99252L8.69234 7.42032L8.80779 7.77976L8.50761 7.55725L8.20743 7.77976L8.32289 7.42032L8.02271 7.19781H8.3937L8.50761 6.83838Z" fill="white"/>
    <path d="M8.50761 8.60449L8.62153 8.96393H8.99252L8.69234 9.18644L8.80779 9.54587L8.50761 9.32492L8.20743 9.54587L8.32289 9.18644L8.02271 8.96393H8.3937L8.50761 8.60449Z" fill="white"/>
    <path d="M8.50761 10.3706L8.62153 10.7316H8.99252L8.69234 10.9526L8.80779 11.3135L8.50761 11.091L8.20743 11.3135L8.32289 10.9526L8.02271 10.7316H8.3937L8.50761 10.3706Z" fill="white"/>
    <path d="M10.5498 5.07251L10.6638 5.43195H11.0348L10.7346 5.65445L10.8485 6.01389L10.5498 5.79138L10.2497 6.01389L10.3651 5.65445L10.0649 5.43195H10.4344L10.5498 5.07251Z" fill="white"/>
    <path d="M10.5498 6.83838L10.6638 7.19781H11.0348L10.7346 7.42032L10.8485 7.77976L10.5498 7.55725L10.2497 7.77976L10.3651 7.42032L10.0649 7.19781H10.4344L10.5498 6.83838Z" fill="white"/>
    <path d="M10.5498 8.60449L10.6638 8.96393H11.0348L10.7346 9.18644L10.8485 9.54587L10.5498 9.32492L10.2497 9.54587L10.3651 9.18644L10.0649 8.96393H10.4344L10.5498 8.60449Z" fill="white"/>
    <path d="M10.5498 10.3706L10.6638 10.7316H11.0348L10.7346 10.9526L10.8485 11.3135L10.5498 11.091L10.2497 11.3135L10.3651 10.9526L10.0649 10.7316H10.4344L10.5498 10.3706Z" fill="white"/>
    <path d="M1.37204 5.93433L1.48749 6.29376H1.85694L1.5583 6.51627L1.67222 6.87571L1.37204 6.6532L1.0734 6.87571L1.18731 6.51627L0.888672 6.29376H1.25812L1.37204 5.93433Z" fill="white"/>
    <path d="M1.37204 7.70044L1.48749 8.05988H1.85694L1.5583 8.28238L1.67222 8.64182L1.37204 8.42087L1.0734 8.64182L1.18731 8.28238L0.888672 8.05988H1.25812L1.37204 7.70044Z" fill="white"/>
    <path d="M1.37204 9.46655L1.48749 9.82754H1.85694L1.5583 10.0485L1.67222 10.4095L1.37204 10.187L1.0734 10.4095L1.18731 10.0485L0.888672 9.82754H1.25812L1.37204 9.46655Z" fill="white"/>
    <path d="M1.37204 11.2344L1.48749 11.5938H1.85694L1.5583 11.8163L1.67222 12.1758L1.37204 11.9532L1.0734 12.1758L1.18731 11.8163L0.888672 11.5938H1.25812L1.37204 11.2344Z" fill="white"/>
    <path d="M3.38754 4.16846L3.503 4.52789H3.87245L3.57381 4.7504L3.68772 5.10984L3.38754 4.88733L3.0889 5.10984L3.20282 4.7504L2.90417 4.52789H3.27363L3.38754 4.16846Z" fill="white"/>
    <path d="M3.38754 5.93433L3.503 6.29376H3.87245L3.57381 6.51627L3.68772 6.87571L3.38754 6.6532L3.0889 6.87571L3.20282 6.51627L2.90417 6.29376H3.27363L3.38754 5.93433Z" fill="white"/>
    <path d="M3.38754 7.70044L3.503 8.05988H3.87245L3.57381 8.28238L3.68772 8.64182L3.38754 8.42087L3.0889 8.64182L3.20282 8.28238L2.90417 8.05988H3.27363L3.38754 7.70044Z" fill="white"/>
    <path d="M3.38754 9.46655L3.503 9.82754H3.87245L3.57381 10.0485L3.68772 10.4095L3.38754 10.187L3.0889 10.4095L3.20282 10.0485L2.90417 9.82754H3.27363L3.38754 9.46655Z" fill="white"/>
    <path d="M3.38754 11.2344L3.503 11.5938H3.87245L3.57381 11.8163L3.68772 12.1758L3.38754 11.9532L3.0889 12.1758L3.20282 11.8163L2.90417 11.5938H3.27363L3.38754 11.2344Z" fill="white"/>
    <path d="M5.45805 4.16846L5.57197 4.52789H5.94296L5.64278 4.7504L5.75669 5.10984L5.45805 4.88733L5.15787 5.10984L5.27332 4.7504L4.97314 4.52789H5.34414L5.45805 4.16846Z" fill="white"/>
    <path d="M5.45805 5.93433L5.57197 6.29376H5.94296L5.64278 6.51627L5.75669 6.87571L5.45805 6.6532L5.15787 6.87571L5.27332 6.51627L4.97314 6.29376H5.34414L5.45805 5.93433Z" fill="white"/>
    <path d="M5.45805 7.70044L5.57197 8.05988H5.94296L5.64278 8.28238L5.75669 8.64182L5.45805 8.42087L5.15787 8.64182L5.27332 8.28238L4.97314 8.05988H5.34414L5.45805 7.70044Z" fill="white"/>
    <path d="M5.45805 9.46655L5.57197 9.82754H5.94296L5.64278 10.0485L5.75669 10.4095L5.45805 10.187L5.15787 10.4095L5.27332 10.0485L4.97314 9.82754H5.34414L5.45805 9.46655Z" fill="white"/>
    <path d="M5.45805 11.2344L5.57197 11.5938H5.94296L5.64278 11.8163L5.75669 12.1758L5.45805 11.9532L5.15787 12.1758L5.27332 11.8163L4.97314 11.5938H5.34414L5.45805 11.2344Z" fill="white"/>
    <path d="M7.48674 4.16846L7.60065 4.52789H7.97164L7.67146 4.7504L7.78538 5.10984L7.48674 4.88733L7.18656 5.10984L7.30047 4.7504L7.00183 4.52789H7.37128L7.48674 4.16846Z" fill="white"/>
    <path d="M7.48674 5.93433L7.60065 6.29376H7.97164L7.67146 6.51627L7.78538 6.87571L7.48674 6.6532L7.18656 6.87571L7.30047 6.51627L7.00183 6.29376H7.37128L7.48674 5.93433Z" fill="white"/>
    <path d="M7.48674 7.70044L7.60065 8.05988H7.97164L7.67146 8.28238L7.78538 8.64182L7.48674 8.42087L7.18656 8.64182L7.30047 8.28238L7.00183 8.05988H7.37128L7.48674 7.70044Z" fill="white"/>
    <path d="M7.48674 9.46655L7.60065 9.82754H7.97164L7.67146 10.0485L7.78538 10.4095L7.48674 10.187L7.18656 10.4095L7.30047 10.0485L7.00183 9.82754H7.37128L7.48674 9.46655Z" fill="white"/>
    <path d="M7.48674 11.2344L7.60065 11.5938H7.97164L7.67146 11.8163L7.78538 12.1758L7.48674 11.9532L7.18656 12.1758L7.30047 11.8163L7.00183 11.5938H7.37128L7.48674 11.2344Z" fill="white"/>
    <path d="M9.51579 4.16846L9.62971 4.52789H9.99916L9.70052 4.7504L9.81443 5.10984L9.51579 4.88733L9.21561 5.10984L9.32952 4.7504L9.03088 4.52789H9.40034L9.51579 4.16846Z" fill="white"/>
    <path d="M9.51579 5.93433L9.62971 6.29376H9.99916L9.70052 6.51627L9.81443 6.87571L9.51579 6.6532L9.21561 6.87571L9.32952 6.51627L9.03088 6.29376H9.40034L9.51579 5.93433Z" fill="white"/>
    <path d="M9.51579 7.70044L9.62971 8.05988H9.99916L9.70052 8.28238L9.81443 8.64182L9.51579 8.42087L9.21561 8.64182L9.32952 8.28238L9.03088 8.05988H9.40034L9.51579 7.70044Z" fill="white"/>
    <path d="M9.51579 9.46655L9.62971 9.82754H9.99916L9.70052 10.0485L9.81443 10.4095L9.51579 10.187L9.21561 10.4095L9.32952 10.0485L9.03088 9.82754H9.40034L9.51579 9.46655Z" fill="white"/>
    <path d="M9.51579 11.2344L9.62971 11.5938H9.99916L9.70052 11.8163L9.81443 12.1758L9.51579 11.9532L9.21561 12.1758L9.32952 11.8163L9.03088 11.5938H9.40034L9.51579 11.2344Z" fill="white"/>
    <path d="M11.5851 4.16846L11.699 4.52789H12.07L11.7699 4.7504L11.8853 5.10984L11.5851 4.88733L11.2849 5.10984L11.4004 4.7504L11.1002 4.52789H11.4712L11.5851 4.16846Z" fill="white"/>
    <path d="M11.5851 5.93433L11.699 6.29376H12.07L11.7699 6.51627L11.8853 6.87571L11.5851 6.6532L11.2849 6.87571L11.4004 6.51627L11.1002 6.29376H11.4712L11.5851 5.93433Z" fill="white"/>
    <path d="M11.5851 7.70044L11.699 8.05988H12.07L11.7699 8.28238L11.8853 8.64182L11.5851 8.42087L11.2849 8.64182L11.4004 8.28238L11.1002 8.05988H11.4712L11.5851 7.70044Z" fill="white"/>
    <path d="M11.5851 9.46655L11.699 9.82754H12.07L11.7699 10.0485L11.8853 10.4095L11.5851 10.187L11.2849 10.4095L11.4004 10.0485L11.1002 9.82754H11.4712L11.5851 9.46655Z" fill="white"/>
    <path d="M11.5851 11.2344L11.699 11.5938H12.07L11.7699 11.8163L11.8853 12.1758L11.5851 11.9532L11.2849 12.1758L11.4004 11.8163L11.1002 11.5938H11.4712L11.5851 11.2344Z" fill="white"/>
  </g>
  <defs>
    <clipPath id="clip0_5131_271671">
      <rect width="23.3333" height="23.3333" fill="white" transform="translate(0.333374 0.333252)"/>
    </clipPath>
  </defs>
</svg>